<svg width="501" height="523" fill="none" xmlns="http://www.w3.org/2000/svg"><path fill-rule="evenodd" clip-rule="evenodd" d="M186.829 489.417L27.783 399.164l259.992-151.507 158.081 91.525-259.027 150.235z" fill="#5B61ED"/><path fill-rule="evenodd" clip-rule="evenodd" d="M186.829 489.417L27.783 399.164l259.992-151.507 158.081 91.525-259.027 150.235z" fill="#fff" fill-opacity=".9"/><path fill-rule="evenodd" clip-rule="evenodd" d="M31.558 400.097l2.958-1.54 14.47-159.987-8.576-3.648-8.852 165.175z" fill="#fff"/><path fill-rule="evenodd" clip-rule="evenodd" d="M30.959 401.026l8.945-166.915 9.663 4.11-14.532 160.684-4.076 2.121zm9.956-165.294l-8.758 163.435 1.84-.958 14.407-159.292-7.489-3.185z" fill="#5B61ED"/><path fill-rule="evenodd" clip-rule="evenodd" d="M430.216 172.988L276.063 83.634 33.087 223.9l153.834 89.562 243.295-140.474z" fill="#fff"/><path fill-rule="evenodd" clip-rule="evenodd" d="M31.993 223.897L276.063 83l155.247 89.988-244.391 141.107-154.926-90.198zm244.069-139.63L34.179 223.901l152.743 88.927 242.199-139.842-153.059-88.719z" fill="#5B61ED"/><path fill-rule="evenodd" clip-rule="evenodd" d="M186.829 489.417l-4.088-1.974-5.357-170.969L41.196 237.99 31.028 401.014l-3.155-1.763L32.085 223.9l154.744 89.878v175.639zm254.38-148.539l-4.279-1.991-27.125-148.06 9.445-2.697 21.959 152.748z" fill="#5B61ED"/><path fill-rule="evenodd" clip-rule="evenodd" d="M187.371 488.504l4.002-2.352 5.1-169.516 222.946-128.718 22.209 153.078 3.644-2.12-14.718-165.586-243.726 140.198.543 175.016z" fill="#fff"/><path fill-rule="evenodd" clip-rule="evenodd" d="M186.28 313.171l244.744-140.784 14.825 166.787-4.646 2.705-22.21-153.083-221.98 128.161-5.101 169.515-5.086 2.987-.546-176.288zm243.804-138.978L187.378 313.805l.539 173.741 2.918-1.713 5.1-169.519 223.91-129.276 22.21 153.076 2.641-1.537-14.612-164.384zm-191.88-28.619a2.192 2.192 0 0 1 2.176.021l30.709 17.949a2.193 2.193 0 0 1-.026 3.803l-26.697 15.112.909.408c.614.29 1.285 1.657 1.648 2.298l.038.066a3.473 3.473 0 0 1-1.259 4.747l-30.317 16.975a11.873 11.873 0 0 1-12.612-.428l-.424-.283-54.36 30.77a7.672 7.672 0 0 1-7.603-.025l-.132-.078-28.312-17.034a2.194 2.194 0 0 1 .061-3.795l126.201-70.506z" fill="#5B61ED"/><path opacity=".82" fill-rule="evenodd" clip-rule="evenodd" d="M238.204 145.574a2.192 2.192 0 0 1 2.176.021l30.709 17.949a2.193 2.193 0 0 1-.026 3.803l-26.697 15.112.909.408c.614.29 1.285 1.657 1.648 2.298l.038.066a3.473 3.473 0 0 1-1.259 4.747l-30.317 16.975a11.873 11.873 0 0 1-12.612-.428l-.424-.283-54.36 30.77a7.672 7.672 0 0 1-7.603-.025l-.132-.078-28.312-17.034a2.194 2.194 0 0 1 .061-3.795l126.201-70.506z" fill="#fff"/><path fill-rule="evenodd" clip-rule="evenodd" d="M245.113 179.251l-35.593-15.228-36.463 20.334 29.972 19.291a11.874 11.874 0 0 0 12.618.208l30.017-17.502a3.475 3.475 0 0 0 1.176-4.769c-.364-.602-1.086-2.045-1.727-2.334z" fill="#5B61ED"/><path fill-rule="evenodd" clip-rule="evenodd" d="M128.358 198.92L109.17 86.73a6.216 6.216 0 0 1 2.956-6.394L244.65 1.781a6.212 6.212 0 0 1 9.29 4.294l19.334 112.596a6.216 6.216 0 0 1-2.97 6.407l-132.67 78.149a6.212 6.212 0 0 1-9.276-4.307z" fill="#fff"/><path fill-rule="evenodd" clip-rule="evenodd" d="M244.37 1.308L111.846 79.864a6.763 6.763 0 0 0-3.217 6.958l19.188 112.19a6.759 6.759 0 0 0 10.095 4.687l132.669-78.15a6.765 6.765 0 0 0 3.233-6.972L254.48 5.982a6.76 6.76 0 0 0-10.11-4.673zm8.32 2.93c.352.594.593 1.248.71 1.93l19.333 112.595a5.664 5.664 0 0 1-2.708 5.841l-132.669 78.15a5.664 5.664 0 0 1-8.458-3.927L109.71 86.637a5.667 5.667 0 0 1 2.695-5.83L244.929 2.252a5.664 5.664 0 0 1 7.761 1.986z" fill="#5B61ED"/><path fill-rule="evenodd" clip-rule="evenodd" d="M130.932 198.974L111.771 87.962a6.215 6.215 0 0 1 2.959-6.407L247.821 2.82a6.211 6.211 0 0 1 9.291 4.33l18.669 112.35a6.215 6.215 0 0 1-2.997 6.386l-132.598 77.397a6.213 6.213 0 0 1-9.254-4.31z" fill="#fff"/><path fill-rule="evenodd" clip-rule="evenodd" d="M233.356 25.669l15.033 85.498-1.079.19-14.972-85.089 1.018-.6z" fill="#5B61ED"/><path fill-rule="evenodd" clip-rule="evenodd" d="M131.33 178.473l138.541-80.165 1.152 9.103-138.418 80.062-1.275-9z" fill="#5B61ED"/><path fill-rule="evenodd" clip-rule="evenodd" d="M247.542 2.348l-133.09 78.735a6.762 6.762 0 0 0-3.221 6.972l19.161 111.013a6.76 6.76 0 0 0 10.07 4.69l132.598-77.397a6.764 6.764 0 0 0 3.262-6.95L257.653 7.061a6.76 6.76 0 0 0-10.111-4.712zm8.317 2.937c.356.602.598 1.265.713 1.955l18.668 112.35a5.667 5.667 0 0 1-2.732 5.823L139.909 202.81a5.663 5.663 0 0 1-8.436-3.93L112.311 87.868a5.667 5.667 0 0 1 2.699-5.84L248.1 3.291a5.664 5.664 0 0 1 7.695 1.886l.064.107z" fill="#5B61ED"/><path fill-rule="evenodd" clip-rule="evenodd" d="M256.324 5.01c.392.661.657 1.39.782 2.149L274 109.345l-144.025 83.283-18.198-104.662a6.216 6.216 0 0 1 2.958-6.414L247.814 2.824a6.211 6.211 0 0 1 8.51 2.185zm-2.621 6.196a1.462 1.462 0 0 0-1.998-.532L118.988 87.646a3.291 3.291 0 0 0-1.594 3.392l15.755 93.722 136.245-77.497-15.512-95.558a1.46 1.46 0 0 0-.179-.5z" fill="#5B61ED"/><path fill-rule="evenodd" clip-rule="evenodd" d="M254.89 12.128l.548.95-138.148 79.78-.548-.95 138.148-79.78zM184.126 144.37l-11.934-74.48-46.687 27.011 12.802 74.457 45.819-26.988zm-12.765-72.733l11.563 72.168-43.806 25.802-12.403-72.139 44.646-25.83zm69.087 40.718l-11.934-74.48-46.686 27.011 12.801 74.457 45.819-26.988zm-12.765-72.733l11.563 72.167-43.806 25.803-12.403-72.14 44.646-25.83z" fill="#5B61ED"/><path d="M207.165 159.891c1.964.754 4.372-.758 5.377-3.378 1.006-2.62.228-5.355-1.736-6.11-1.965-.754-4.372.758-5.377 3.378-1.006 2.62-.228 5.356 1.736 6.11z" fill="#5B61ED"/><path fill-rule="evenodd" clip-rule="evenodd" d="M174.593 183.197l28.422 18.488a11.327 11.327 0 0 0 12.057.186l29.743-18.072a2.924 2.924 0 0 0-.342-5.177l-35.22-15.476-34.66 20.051z" fill="#fff"/><path fill-rule="evenodd" clip-rule="evenodd" d="M244.717 178.432L209.52 162.53l-35.675 20.64 29.185 18.984c3.818 2.484 8.255 3.092 12.153.735l30.837-18.532c1.641-.992 1.104-2.372.539-4.077-.242-.732-1.201-1.558-1.842-1.848zm-68.777 4.793l33.642-19.463 34.684 15.67a2.376 2.376 0 0 1 .251 4.199l-30.238 17.793c-3.513 2.045-7.236 2.033-10.652-.189l-27.687-18.01zm-22.619 3.99l16.93-9.641c.018 3.977.281 7.191.788 9.641s1.692 5.352 3.555 8.705l-16.45 9.649c-2.18-3.466-3.474-6.471-3.881-9.017-.407-2.546-.721-5.658-.942-9.337zM1.861 482.849l55.32 31.846a8.404 8.404 0 0 0 8.398-.007l54.688-31.61a3.291 3.291 0 0 0 0-5.697L65.55 445.754a8.404 8.404 0 0 0-8.355-.031L1.878 477.136a3.29 3.29 0 0 0-.017 5.713z" fill="#5B61ED"/><path fill-rule="evenodd" clip-rule="evenodd" d="M1.861 482.849l55.32 31.846a8.404 8.404 0 0 0 8.398-.007l54.688-31.61a3.291 3.291 0 0 0 0-5.697L65.55 445.754a8.404 8.404 0 0 0-8.355-.031L1.878 477.136a3.29 3.29 0 0 0-.017 5.713z" fill="#fff" fill-opacity=".82"/><path fill-rule="evenodd" clip-rule="evenodd" d="M17.641 431.739v40.38l29.552 16.12.425-41.789-29.977-14.711z" fill="#fff"/><path fill-rule="evenodd" clip-rule="evenodd" d="M121.258 411.989v64.258a3.29 3.29 0 0 1-1.64 2.846l-54.042 31.342a8.401 8.401 0 0 1-8.4.019L2.529 479.09a3.29 3.29 0 0 1-1.652-2.853v-64.238l60.506 31.963 59.876-31.973zM7.668 431.247a2.197 2.197 0 0 0-.279 1.069v32.769c0 2.23 1.195 4.29 3.13 5.396l33.818 19.332a2.192 2.192 0 0 0 3.28-1.904v-33.235a6.215 6.215 0 0 0-3.186-5.428L10.651 430.4a2.192 2.192 0 0 0-2.984.847z" fill="#fff"/><path fill-rule="evenodd" clip-rule="evenodd" d="M121.915 410.893v64.976a4.605 4.605 0 0 1-2.05 3.829l-.121.079-.122.073-52.883 30.67a10.734 10.734 0 0 1-10.375.217l-.177-.095-.174-.098L2.53 479.849a4.607 4.607 0 0 1-2.302-3.703l-.007-.145-.002-.144v-64.949l61.16 32.309 60.536-32.324zm-1.315 64.976v-62.784l-59.217 31.62-59.85-31.616v62.757l.002.122a3.287 3.287 0 0 0 1.544 2.678l.105.062 53.478 30.693.162.091a9.417 9.417 0 0 0 9.094-.017l.162-.092 52.873-30.665.103-.062a3.284 3.284 0 0 0 1.542-2.665l.002-.122zM11.519 430.134l.1.053 32.498 18.131a8.109 8.109 0 0 1 4.156 6.918l.002.163v31.758a3.286 3.286 0 0 1-4.817 2.908l-.1-.054-32.542-18.604a8.108 8.108 0 0 1-4.082-6.875l-.002-.164v-31.31a3.286 3.286 0 0 1 4.686-2.974l.1.05zm-3.223 1.963a1.97 1.97 0 0 0-.246.849l-.004.112v31.31a6.793 6.793 0 0 0 3.288 5.819l.134.079 32.543 18.603a1.971 1.971 0 0 0 2.946-1.598l.003-.114v-31.758a6.794 6.794 0 0 0-3.347-5.855l-.136-.078-32.499-18.13a1.97 1.97 0 0 0-2.682.761z" fill="#5B61ED"/><path fill-rule="evenodd" clip-rule="evenodd" d="M57.195 377.492a8.404 8.404 0 0 1 8.355.031l54.717 31.627a3.29 3.29 0 0 1 0 5.697l-54.688 31.61a8.402 8.402 0 0 1-8.399.008L1.861 414.618a3.291 3.291 0 0 1 .017-5.713l55.317-31.413zm-.071 7.521l-42.162 23.944a3.29 3.29 0 0 0-.017 5.712l42.165 24.274a8.404 8.404 0 0 0 8.398-.007l41.675-24.089a3.29 3.29 0 0 0 0-5.697l-41.704-24.105a8.407 8.407 0 0 0-8.355-.032z" fill="#fff"/><path fill-rule="evenodd" clip-rule="evenodd" d="M55.93 377.202a10.954 10.954 0 0 1 10.527-.158l.183.1.177.1 52.908 30.581a4.824 4.824 0 0 1 .226 8.208l-.112.071-.114.069-52.874 30.561a10.954 10.954 0 0 1-10.59.204l-.178-.096-.175-.099-53.492-30.795a4.82 4.82 0 0 1-.203-8.232l.112-.07.115-.068 53.49-30.376zm9.855 1.472a9.197 9.197 0 0 0-8.826-.038l-.164.091-53.478 30.369-.093.054a3.069 3.069 0 0 0-.051 5.208l.117.071 53.485 30.791.16.09a9.199 9.199 0 0 0 8.878-.003l.161-.091 52.863-30.554.092-.056a3.067 3.067 0 0 0 .034-5.194l-.115-.07-52.9-30.576-.163-.092zm.787 5.993l.174.099 39.895 23.059a4.821 4.821 0 0 1 .114 8.28l-.114.068-39.86 23.039a10.951 10.951 0 0 1-10.768.109l-.176-.099L15.5 416a4.823 4.823 0 0 1-.09-8.304l.114-.067 40.335-22.905a10.952 10.952 0 0 1 10.536-.153l.177.096zm-9.687 1.492l-.161.09-40.335 22.905a3.068 3.068 0 0 0-.132 5.256l.117.07 40.337 23.222a9.199 9.199 0 0 0 9.031.084l.162-.092 39.86-23.039a3.07 3.07 0 0 0 .115-5.243l-.115-.07-39.894-23.059a9.201 9.201 0 0 0-8.819-.212l-.166.088z" fill="#5B61ED"/><path fill-rule="evenodd" clip-rule="evenodd" d="M55.967 384.914L15.633 407.82a4.602 4.602 0 0 0-.024 7.99l40.337 23.221a10.73 10.73 0 0 0 10.725-.009l39.86-23.039a4.603 4.603 0 0 0 0-7.969l-39.894-23.059a10.733 10.733 0 0 0-10.67-.041zm10.012 1.179l39.895 23.06a3.286 3.286 0 0 1 0 5.691l-39.86 23.04a9.42 9.42 0 0 1-9.412.008L16.265 414.67a3.287 3.287 0 0 1 .017-5.707l40.334-22.905a9.418 9.418 0 0 1 9.363.035z" fill="#5B61ED"/><path fill-rule="evenodd" clip-rule="evenodd" d="M17.642 415.11v-30.705l42.272-23.718 2.845.525-42.163 55.565-2.954-1.667z" fill="#fff"/><path fill-rule="evenodd" clip-rule="evenodd" d="M16.984 384.019l42.815-24.022 3.079.568-.238 1.293-2.612-.482-41.73 23.413v31.545h-1.314v-32.315z" fill="#5B61ED"/><path fill-rule="evenodd" clip-rule="evenodd" d="M19.938 416.465v-31.042l42.273-23.718v44.15l-30.55 17.061c-.115 0-.668-.219-1.659-.656-.991-.438-4.346-2.37-10.064-5.795z" fill="#fff"/><path fill-rule="evenodd" clip-rule="evenodd" d="M62.869 406.685v-46.102l-43.587 24.455v32.575c.353.419 1.329 1.032 2.929 1.838 2.4 1.209 8.575 6.25 10.739 4.97l29.919-17.736zm-1.315-43.857v43.107l-29.273 17.354-.265.154c-1.683.958-9.43-5.029-11.213-6.274l-.207-.392v-30.968l40.958-22.981z" fill="#5B61ED"/><path fill-rule="evenodd" clip-rule="evenodd" d="M30.83 422.776v-30.705l42.272-23.717 2.845.524-42.163 55.565-2.955-1.667z" fill="#fff"/><path fill-rule="evenodd" clip-rule="evenodd" d="M30.171 391.686l42.816-24.022 3.078.568-.238 1.293-2.612-.482-41.73 23.413v31.545h-1.314v-32.315z" fill="#5B61ED"/><path fill-rule="evenodd" clip-rule="evenodd" d="M33.126 424.131v-31.042l42.272-23.718v44.151l-30.55 17.061c-.114 0-.667-.219-1.658-.657-.991-.438-4.346-2.369-10.064-5.795z" fill="#fff"/><path fill-rule="evenodd" clip-rule="evenodd" d="M76.057 414.351V368.25L32.47 392.705v32.575c.352.419 1.329 1.032 2.929 1.838 2.4 1.208 8.575 6.25 10.739 4.969l29.919-17.736zm-1.315-43.856v43.106L45.47 430.956l-.265.153c-1.684.959-9.43-5.028-11.213-6.274l-.207-.391v-30.969l40.958-22.98z" fill="#5B61ED"/><path fill-rule="evenodd" clip-rule="evenodd" d="M44.85 430.887v-30.705l42.272-23.717 2.845.524-42.163 55.565-2.955-1.667z" fill="#fff"/><path fill-rule="evenodd" clip-rule="evenodd" d="M44.192 399.796l42.815-24.022 3.078.568-.238 1.293-2.612-.482-41.729 23.413v31.545h-1.314v-32.315z" fill="#5B61ED"/><path fill-rule="evenodd" clip-rule="evenodd" d="M47.146 432.242V401.2l42.272-23.718v44.15l-30.55 17.061c-.114 0-.666-.219-1.658-.657-.992-.437-4.346-2.369-10.064-5.794z" fill="#fff"/><path fill-rule="evenodd" clip-rule="evenodd" d="M90.076 422.462v-46.101l-43.587 24.454v32.575c.353.419 1.329 1.032 2.929 1.838 2.4 1.209 8.575 6.25 10.739 4.97l29.919-17.736zm-1.315-43.856v43.106l-29.273 17.354-.265.154c-1.684.958-9.43-5.029-11.213-6.274l-.207-.392v-30.968l40.958-22.98zM7.667 431.152a2.192 2.192 0 0 1 2.983-.847l1.558.869v31.625a6.216 6.216 0 0 0 3.13 5.396l32.28 18.452v1.167c0 .344-.081.682-.236.988l-.054.101a2.193 2.193 0 0 1-2.992.816L10.52 470.386a6.213 6.213 0 0 1-3.13-5.395v-32.77c0-.374.096-.742.278-1.069zm53.367 16.175l.032 63.984c1.393.471 5.021-1.001 10.886-4.416 5.865-3.414 21.994-12.806 48.387-28.176.612-.907.918-2.218.918-3.933v-62.788c.429 1.707-2.12 3.953-7.647 6.736s-21.179 11.772-46.955 26.967c-1.497 1.084-2.68 1.626-3.552 1.626h-2.069z" fill="#5B61ED"/><path fill-rule="evenodd" clip-rule="evenodd" d="M59.526 438.782v-32.074L101.8 382.99l2.845.525-42.163 55.565a23.3 23.3 0 0 1-1.815-.073 6.212 6.212 0 0 1-1.14-.225z" fill="#fff"/><path fill-rule="evenodd" clip-rule="evenodd" d="M58.869 406.323l42.815-24.022 3.078.567-.238 1.293-2.612-.481-41.729 23.413v32.378h-1.314v-33.148z" fill="#5B61ED"/><path fill-rule="evenodd" clip-rule="evenodd" d="M61.823 439.863v-32.137l42.273-23.717v32.434l-35.915 21.245a16.444 16.444 0 0 1-5.847 2.096l-.51.079z" fill="#fff"/><path fill-rule="evenodd" clip-rule="evenodd" d="M104.753 416.818v-33.932l-43.587 24.455v33.29l.758-.118a19.788 19.788 0 0 0 7.036-2.522l35.793-21.173zm-1.315-31.686v30.936L68.291 436.86l-.264.153a18.475 18.475 0 0 1-5.402 2.038l-.145.029v-30.968l40.958-22.98z" fill="#5B61ED"/><path fill-rule="evenodd" clip-rule="evenodd" d="M75.376 415.275c.225 0 .41.169.435.387l.003.051v10.549l-8.003 4.812v5.241a.44.44 0 0 1-.387.436l-.051.003a.439.439 0 0 1-.435-.387l-.003-.052v-5.736l8.003-4.812v-10.054c0-.225.17-.41.387-.435l.051-.003zm5.618-3.715l.051.003a.44.44 0 0 1 .387.436v10.242l8.003-4.246v5.523l-.002.051a.439.439 0 0 1-.436.388l-.05-.003a.44.44 0 0 1-.388-.436v-4.066l-8.003 4.246v-11.699l.003-.051a.439.439 0 0 1 .435-.388zm17.373-9.815c.225 0 .41.169.435.387l.003.051v11.148l-5.763 3.511v4.352c0 .225-.169.41-.386.435l-.052.003a.438.438 0 0 1-.435-.387l-.003-.051v-4.845l2.156-1.313v-7.312a.438.438 0 0 1 .873-.051l.003.051v6.778l2.73-1.663.001-10.656c0-.225.17-.41.387-.435l.051-.003z" fill="#EFF0FD"/><path fill-rule="evenodd" clip-rule="evenodd" d="M47.85 452.901v33.876h-1.315v-33.876h1.314zm-2.323-3.593v36.753h-1.315v-36.753h1.315zm-11.7-6.579V480.2h-1.314v-37.471h1.315zm-2.322-1.096v36.814h-1.314v-36.814h1.314zm-10.885-6.04v37.47h-1.314v-37.47h1.314zm-2.322-1.096v36.813h-1.314v-36.813h1.314z" fill="#5B61ED"/><path fill-rule="evenodd" clip-rule="evenodd" d="M117.599 464.25l-11.314 7.317-15.116 8.638-7.715 4.503-1.89-.552-4.686-2.847a1.462 1.462 0 0 1-.703-1.25v-22.277a7.677 7.677 0 0 1 3.994-6.737l29.605-16.183a1.825 1.825 0 0 1 1.804.029l4.957 2.921 1.064 2.052v24.386z" fill="#fff"/><path fill-rule="evenodd" clip-rule="evenodd" d="M114.086 437.297l-28.824 16.89a9.863 9.863 0 0 0-4.875 8.509v20.157a2.41 2.41 0 0 0 3.616 2.086l30.763-17.807a7.232 7.232 0 0 0 3.608-6.259v-21.118a2.849 2.849 0 0 0-4.288-2.458zm2.763 1.683c.138.235.21.503.21.775v21.118a5.917 5.917 0 0 1-2.952 5.121l-30.762 17.807a1.096 1.096 0 0 1-1.644-.948v-20.157a8.546 8.546 0 0 1 4.225-7.374l28.825-16.89a1.533 1.533 0 0 1 2.052.474l.046.074z" fill="#5B61ED"/><path fill-rule="evenodd" clip-rule="evenodd" d="M113.818 459.209a.658.658 0 0 1-.191.863l-.053.034-26.144 14.98a.658.658 0 0 1-.707-1.107l.053-.034 26.145-14.98a.658.658 0 0 1 .897.244zm0-6.389a.658.658 0 0 1-.191.863l-.053.034-26.144 14.98a.658.658 0 1 1-.707-1.107l.053-.034 26.145-14.98a.658.658 0 0 1 .897.244zm0-6.696a.658.658 0 0 1-.191.863l-.053.034-26.144 14.98a.658.658 0 0 1-.707-1.107l.053-.034 26.145-14.98a.658.658 0 0 1 .897.244z" fill="#EFF0FD"/><path fill-rule="evenodd" clip-rule="evenodd" d="M390.386 522.435l107.205-61.705-115.302-66.808-108.288 61.775 116.385 66.738z" fill="#5B61ED"/><path fill-rule="evenodd" clip-rule="evenodd" d="M390.386 522.435l107.205-61.705-115.302-66.808-108.288 61.775 116.385 66.738z" fill="#fff" fill-opacity=".9"/><path fill-rule="evenodd" clip-rule="evenodd" d="M495.575 258.974l-9.412-5.101-12.559 40.83-101.128-58.652.991 160.095 8.932 5.358-.034-150.301 62.643 36.29 36.051 170.243 8.843 5.481-34.523-169.601 25.68 15.029 14.516-49.671z" fill="#5B61ED"/><path fill-rule="evenodd" clip-rule="evenodd" d="M490.249 462.334l6.79-4.066-34.224-159.546-7.402-4.824 34.836 168.436z" fill="#fff"/><path fill-rule="evenodd" clip-rule="evenodd" d="M489.868 463.201L454.61 292.719l8.693 5.667 34.354 160.151-7.789 4.664zm-33.651-168.125l34.412 166.391 5.791-3.468-34.094-158.941-6.109-3.982z" fill="#5B61ED"/><path fill-rule="evenodd" clip-rule="evenodd" d="M382.936 400.719l7.934-4.263V255.899l-8.471-4.413.537 149.233z" fill="#fff"/><path fill-rule="evenodd" clip-rule="evenodd" d="M382.391 401.634l-.543-151.053 9.57 4.986v141.217l-9.027 4.85zm.56-149.242l.529 147.412 6.842-3.676V256.232l-7.371-3.84z" fill="#5B61ED"/><path fill-rule="evenodd" clip-rule="evenodd" d="M495.609 259.257l-8.382-5.354 4.484-2.528 8.644 5.164-14.066 48.272-4.343 2.64 13.663-48.194z" fill="#fff"/><path fill-rule="evenodd" clip-rule="evenodd" d="M486.163 253.874l5.557-3.133 9.28 5.545-14.244 48.883-5.718 3.477 13.933-49.146-8.808-5.626zm5.541-1.865l-3.412 1.923 7.956 5.082-13.393 47.244 2.968-1.805 13.888-47.661-8.007-4.783z" fill="#5B61ED"/><path fill-rule="evenodd" clip-rule="evenodd" d="M373.502 236.017l6.087-4.148 96.637 56.045-1.916 7.072-100.808-58.969z" fill="#fff"/><path fill-rule="evenodd" clip-rule="evenodd" d="M372.476 236.052l7.089-4.831 97.3 56.429-2.213 8.171-102.176-59.769zm7.136-3.536l-5.085 3.465 99.441 58.169 1.619-5.974-95.975-55.66z" fill="#5B61ED"/><path fill-rule="evenodd" clip-rule="evenodd" d="M264.415 320.937l85.426-47.893a12.42 12.42 0 0 1 12.244.053l93.971 53.756-90.919 53.626-100.722-59.542z" fill="#fff"/><path fill-rule="evenodd" clip-rule="evenodd" d="M362.457 272.462l95.064 54.381-92.375 54.485L262.96 320.92l86.534-48.514a13.151 13.151 0 0 1 12.963.056zm-96.567 48.491l99.257 58.677 89.463-52.768-92.878-53.13a11.692 11.692 0 0 0-11.524-.05l-84.318 47.271zm99.246 74.116l-95.863-55.661a2.433 2.433 0 0 0-3.658 2.107 7.315 7.315 0 0 0 3.666 6.34l95.855 55.187v-7.973z" fill="#5B61ED"/><path fill-rule="evenodd" clip-rule="evenodd" d="M360.02 373.765l-91.126-53.149a5.595 5.595 0 0 0-8.416 4.836 16.949 16.949 0 0 0 8.42 14.647l88.682 51.629 2.44-17.963zm99.617-43.145v3.212a8.04 8.04 0 0 1-3.935 6.915l-84.573 50.235-2.7-14.286 84.502-49.906a4.446 4.446 0 0 1 6.706 3.83z" fill="#5B61ED"/><path fill-rule="evenodd" clip-rule="evenodd" d="M371.129 390.382l85.808-50.046 1.48 8.124-85.414 49.68-1.874-7.758z" fill="#fff"/><path fill-rule="evenodd" clip-rule="evenodd" d="M370.521 390.113l86.836-50.645 1.689 9.272-86.383 50.243-2.142-8.87zm86.038-48.91l-84.78 49.446 1.605 6.646 84.446-49.116-1.271-6.976z" fill="#5B61ED"/><path fill-rule="evenodd" clip-rule="evenodd" d="M486.468 264.037l-99.505 57.301-7.756 26.109 99.795-58.87 7.466-24.54z" fill="#fff"/><path fill-rule="evenodd" clip-rule="evenodd" d="M386.338 320.85l101.36-58.369-8.087 26.581-101.642 59.96 8.369-28.172zm98.885-55.256l-97.65 56.232-7.143 24.047 97.948-57.781 6.845-22.498z" fill="#5B61ED"/><path fill-rule="evenodd" clip-rule="evenodd" d="M490.854 265.865l-99.506 57.301-7.756 26.109 99.795-58.87 7.467-24.54z" fill="#fff"/><path fill-rule="evenodd" clip-rule="evenodd" d="M390.723 322.678l101.361-58.369-8.088 26.582-101.642 59.959 8.369-28.172zm98.886-55.256l-97.651 56.233-7.143 24.046 97.949-57.781 6.845-22.498z" fill="#5B61ED"/><path fill-rule="evenodd" clip-rule="evenodd" d="M396.174 316.332l-9.47-5.383-12.347 40.807-101.316-58.628 1.025 160.376 8.889 5.206.008-150.149 62.644 36.29 36.051 170.243 8.793 5.148-34.473-169.268 25.68 14.57 14.516-49.212z" fill="#5B61ED"/><path fill-rule="evenodd" clip-rule="evenodd" d="M390.813 519.411l6.79-4.066-34.286-160.552-7.473-4.317 34.969 168.935z" fill="#fff"/><path fill-rule="evenodd" clip-rule="evenodd" d="M390.433 520.278l-35.374-170.889 8.743 5.051 34.419 161.173-7.788 4.665zm-33.804-168.716l34.565 166.982 5.791-3.469-34.153-159.929-6.203-3.584z" fill="#5B61ED"/><path fill-rule="evenodd" clip-rule="evenodd" d="M283.5 457.795l7.934-4.262V312.976l-8.471-4.414.537 149.233z" fill="#fff"/><path fill-rule="evenodd" clip-rule="evenodd" d="M282.955 458.711l-.543-151.054 9.571 4.986v141.218l-9.028 4.85zm.56-149.243l.53 147.412 6.841-3.675V313.308l-7.371-3.84z" fill="#5B61ED"/><path fill-rule="evenodd" clip-rule="evenodd" d="M396.173 316.333l-8.382-5.353 4.485-2.529 8.643 5.164-14.066 48.273-4.343 2.64 13.663-48.195z" fill="#fff"/><path fill-rule="evenodd" clip-rule="evenodd" d="M386.728 310.951l5.556-3.134 9.281 5.545-14.245 48.884-5.717 3.476 13.932-49.146-8.807-5.625zm5.541-1.866l-3.412 1.924 7.955 5.082-13.393 47.243 2.968-1.804 13.888-47.661-8.006-4.784z" fill="#5B61ED"/><path fill-rule="evenodd" clip-rule="evenodd" d="M274.066 293.093l6.087-4.148 96.637 56.045-1.916 7.072-100.808-58.969z" fill="#fff"/><path fill-rule="evenodd" clip-rule="evenodd" d="M273.04 293.128l7.089-4.831 97.301 56.429-2.214 8.171-102.176-59.769zm7.136-3.536l-5.085 3.466 99.442 58.168 1.619-5.974-95.976-55.66z" fill="#5B61ED"/></svg>