<svg width="460" height="730" fill="none" xmlns="http://www.w3.org/2000/svg"><path fill-rule="evenodd" clip-rule="evenodd" d="M451.678 137.99L332.755 68.722 330.1 268.084l121.578 70.731V137.99z" fill="#fff"/><path fill-rule="evenodd" clip-rule="evenodd" d="M330.101 269.095V64.103l124.232 72.361v204.71l-124.232-72.079zm2.655-200.372v198.842l118.923 68.998V137.991L332.756 68.723z" fill="#5B61ED"/><path fill-rule="evenodd" clip-rule="evenodd" d="M347.307 211.322v12.891c.969.42 1.924.654 2.865.704 6.402.335 16.05 8.233 17.404 10.797 1.353 2.564-16.162 6.393-18.11 2.671-1.947-3.723 3.672.811 2.041-3.513-.591-1.57-2.268-1.852-4.2-1.912v5.609c2.889 2.201 5.095 3.675 6.615 4.42 2.769 1.357 8.055-.79 11.497-.609 3.441.18 4.9 4.101 9.019 4.317 4.119.216-3.918-4.05-3.695-8.31.223-4.26 7.293 1.496 9.358 4.763 2.065 3.266 11.582 8.208 11.493 9.903-.089 1.695-9.634-7.699-13.971-5.276-4.337 2.422 6.641 3.105 8.217 6.849 1.576 3.744-2.953 2.804-7.792.342-4.839-2.462-15.532-7.909-22.293-9.325-3.122-.653-6.067-2.043-8.449-3.594v9.122l89.822 52.114v-10.209c-3.945-6.071-7.764-9.268-11.456-9.591-6.387-.559-15.753-8.789-17.016-11.399-1.264-2.61 16.374-5.825 18.191-2.037 1.817 3.789-3.641-.938-2.162 3.44 1.478 4.379 11.532-.724 12.034 6.366.1 1.409.236 2.878.409 4.408v-17.234l-89.821-55.707zm48.789 44.839c-1.337-2.628 2.226-2.066 6.075-.428 3.848 1.638 12.352 5.263 17.671 6.111 5.319.847 10.087 4.171 11.076 5.914.988 1.744-2.734 1.152-3.631 1.136-.597-.01-.292-.405.918-1.183-3.104-2.08-5.389-3.421-6.856-4.021-2.2-.9-6.266.753-8.959.706-2.693-.047-3.943-2.804-7.165-2.86-3.222-.056 3.175 2.79 3.122 5.828-.053 3.038-5.738-.892-7.443-3.169-1.705-2.277-9.276-5.569-9.255-6.778.021-1.209 7.741 5.253 11.058 3.426 3.318-1.828-5.274-2.054-6.611-4.682zm-48.789-87.642v41.42l89.821 55.707v-3.426l-.036-.388c-3.811-41.149-7.832-65.713-12.012-73.545-1.496-2.802-3.396-3.257-6.174-1.807l-.321.172c-1.909 1.046-3.107 2.04-7.613 6.244l-1.905 1.783c-2.447 2.281-4.108 3.724-5.828 4.999-4.268 3.165-7.832 4.316-11.078 3.031l-.141-.058c-1.256-.526-2.058.216-3.222 2.783l-.126.282c-.136.308-.722 1.682-.926 2.147l-.023.054c-1.401 3.167-2.656 4.914-4.624 5.725-2.527 1.041-5.774.076-10.041-3.199-.635-.487-1.036-1.259-1.443-2.609l-.045-.152c-.194-.665-.95-3.674-1.022-3.947a68.523 68.523 0 0 0-1.759-5.741c-1.861-5.238-4.574-10.848-8.539-17.209l-.245-.39c-3.968-6.316-7.123-10.32-9.42-11.985-1.588-1.152-2.603-1.148-3.278.109zm-.001-66.525l.001 64.79c1.017-.693 2.368-.484 3.955.666 2.454 1.779 5.681 5.874 9.725 12.311 4.144 6.595 6.969 12.406 8.897 17.833a68.602 68.602 0 0 1 1.656 5.338l.204.775c.203.8.75 2.967.928 3.59l.014.049c.356 1.219.671 1.847 1.074 2.156 3.975 3.05 6.831 3.899 8.901 3.047 1.568-.646 2.667-2.144 3.918-4.931l.166-.378c.228-.524.69-1.607.844-1.959l.021-.047c.672-1.524 1.188-2.436 1.825-3.074.826-.828 1.806-1.07 2.921-.643l.108.044c2.815 1.179 6.052.158 10.088-2.835l.279-.209c1.582-1.195 3.167-2.58 5.451-4.709l2.678-2.503c4.122-3.83 5.245-4.712 7.278-5.803 3.376-1.813 6.023-1.23 7.866 2.224 3.869 7.251 7.531 28.017 11.024 62.406v-95.82l-89.822-52.318z" fill="#EFF0FD"/><path d="M368.128 150.785c-3.037-2.07-7.963-2.046-14.785-.005l-1.397.417 44.243 21.593-.655-1.442c-1.898-4.174-4.575-7.865-8.03-11.069-2.023-1.876-4.698-3.314-8.692-4.894l-.529-.207c-.868-.337-3.666-1.374-4.62-1.734l-.657-.252c-2.243-.875-3.699-1.572-4.769-2.331l-.109-.076zm20.353-17.452c-2.832 0-4.921 2.802-6.371 8.23l-.113.422 50.199 28.894-2.13-2.501c-4.882-5.733-9.237-11.521-13.066-17.365-1.346-2.055-2.791-3.596-4.343-4.686-1.656-1.162-3.402-1.796-5.315-2.024-1.324-.158-2.451-.132-4.321.041l-1.57.149c-.505.044-.813.062-1.132.068l-.231.001c-1.429 0-2.772-1.379-5.277-5.027l-.346-.507c-2.243-3.292-3.113-4.399-4.33-5.157l-.125-.076c-.509-.301-1.017-.462-1.529-.462zm-33.132 18.066c5.714-1.489 9.792-1.338 12.23.39l.11.078c1.15.794 2.648 1.505 4.895 2.382l.444.172c.515.197 2.921 1.09 4.236 1.586l.867.333c4.019 1.574 6.662 2.978 8.6 4.774 2.904 2.694 5.238 5.739 7.004 9.137l.051.099-38.692-18.883.255-.068zm33.132-16.927c.291 0 .605.099.949.303 1.02.605 1.821 1.576 3.78 4.433l.887 1.297c1.012 1.469 1.661 2.332 2.365 3.1l.152.163c1.188 1.259 2.307 1.933 3.474 1.933.495 0 .857-.019 1.632-.089l.983-.094c4.304-.421 6.612-.146 9.3 1.741 1.43 1.003 2.775 2.439 4.046 4.378l.433.658c3.193 4.821 6.742 9.603 10.645 14.346l.013.015-43.816-25.22.103-.36c1.288-4.39 2.972-6.543 4.968-6.603l.086-.001z" fill="#fff"/><path fill-rule="evenodd" clip-rule="evenodd" d="M186.395 696.906L21.353 603.22l271.726-156.551 162.109 94.288-268.793 155.949z" fill="#5B61ED"/><path fill-rule="evenodd" clip-rule="evenodd" d="M186.395 696.906L21.353 603.22l271.726-156.551 162.109 94.288-268.793 155.949z" fill="#fff" fill-opacity=".9"/><path fill-rule="evenodd" clip-rule="evenodd" d="M451.395 368.466v12.35l-253.33 147.337-.198-13.895 253.528-145.792z" fill="#5B61ED"/><path fill-rule="evenodd" clip-rule="evenodd" d="M450.335 368.44L290.37 275.688 38.233 421.289l159.634 92.969L450.335 368.44z" fill="#fff"/><path fill-rule="evenodd" clip-rule="evenodd" d="M37.099 421.287L290.37 275.031l161.1 93.41-253.605 146.475-160.767-93.629zM290.37 276.346L39.367 421.291 197.868 513.6l251.331-145.161-158.829-92.093z" fill="#5B61ED"/><path fill-rule="evenodd" clip-rule="evenodd" d="M198.065 528.153L37.226 434.841v-13.535l160.641 92.951.198 13.896zm91.637-202.528c-3.383 1.795-5.074 3.711-5.074 5.747 0 3.056 3.873 4.851 8.542 6.125 4.668 1.273 10.545 6.336 13.816 9.261 3.272 2.925 11.192 3.505 16.03.613 4.837-2.892 4.354-8.035.543-11.696-3.81-3.661-12.783-10.153-20.859-11.396-5.384-.829-9.717-.38-12.998 1.346z" fill="#5B61ED"/><path fill-rule="evenodd" clip-rule="evenodd" d="M289.702 325.625c-3.383 1.795-5.074 3.711-5.074 5.747 0 3.056 3.873 4.851 8.542 6.125 4.668 1.273 10.545 6.336 13.816 9.261 3.272 2.925 11.192 3.505 16.03.613 4.837-2.892 4.354-8.035.543-11.696-3.81-3.661-12.783-10.153-20.859-11.396-5.384-.829-9.717-.38-12.998 1.346z" fill="#fff" fill-opacity=".82"/><path fill-rule="evenodd" clip-rule="evenodd" d="M284.055 326.888c.052 2.24.651 3.76 1.798 4.562 1.72 1.203 15.082 7.658 19.726 11.999 4.643 4.341 15.758 3.329 19.026-.871 2.178-2.8-11.339-8.03-40.55-15.69z" fill="#5B61ED"/><path fill-rule="evenodd" clip-rule="evenodd" d="M289.704 321.265c-3.383 1.795-5.075 3.71-5.075 5.747 0 3.056 3.874 4.851 8.542 6.125 4.669 1.273 10.545 6.336 13.817 9.261 3.271 2.925 11.192 3.505 16.03.613 4.837-2.892 4.354-8.035.543-11.696-3.811-3.661-12.783-10.153-20.859-11.396-5.384-.829-9.717-.38-12.998 1.346z" fill="#fff"/><path fill-rule="evenodd" clip-rule="evenodd" d="M289.437 320.762c-3.551 1.884-5.379 3.953-5.379 6.251 0 3.086 3.128 5.081 8.962 6.673 3.682 1.005 8.023 4.162 13.587 9.136 3.575 3.197 11.801 3.607 16.7.678 4.938-2.952 4.957-8.453.646-12.595-5.426-5.214-14.203-10.476-21.167-11.548-5.495-.846-9.947-.385-13.349 1.405zm13.176-.28c6.694 1.03 15.28 6.178 20.552 11.244 3.81 3.66 3.793 8.265-.441 10.797-4.489 2.683-12.172 2.301-15.359-.549l-.737-.655c-5.27-4.65-9.432-7.617-13.138-8.683l-.563-.157c-5.097-1.44-7.731-3.176-7.731-5.466 0-1.746 1.501-3.476 4.603-5.154l.167-.089c3.161-1.664 7.374-2.1 12.647-1.288zm-71.898-5.724l-107.151 62.893.302 4.877a3.02 3.02 0 0 0 1.441 2.408l48.978 29.342a4.523 4.523 0 0 0 4.677-.004l106.229-63.892c.925-.556 1.479-1.596 1.441-2.704l-.131-3.881-53.011-29.08a2.8 2.8 0 0 0-2.775.041z" fill="#5B61ED"/><path opacity=".82" fill-rule="evenodd" clip-rule="evenodd" d="M230.715 314.758l-107.151 62.893.302 4.877a3.02 3.02 0 0 0 1.441 2.408l48.978 29.342a4.523 4.523 0 0 0 4.677-.004l106.229-63.892c.925-.556 1.479-1.596 1.441-2.704l-.131-3.881-53.011-29.08a2.8 2.8 0 0 0-2.775.041z" fill="#fff"/><path fill-rule="evenodd" clip-rule="evenodd" d="M115.01 371.675l-13.823-80.072a4.173 4.173 0 0 1 1.984-4.301l106.295-63.028a4.17 4.17 0 0 1 6.227 2.819l14.702 78.269a6.072 6.072 0 0 1-2.906 6.365l-106.881 62.39-3.399-.557-2.199-1.885z" fill="#fff"/><path fill-rule="evenodd" clip-rule="evenodd" d="M208.23 224.503L103.386 286.67a5.353 5.353 0 0 0-2.545 5.507l13.357 77.8a5.347 5.347 0 0 0 7.987 3.709l104.959-61.847a5.353 5.353 0 0 0 2.557-5.517l-13.472-78.121a5.348 5.348 0 0 0-7.999-3.698zm6.582 2.318c.279.47.469.988.562 1.527l13.472 78.121a4.487 4.487 0 0 1-2.142 4.623l-104.959 61.846a4.48 4.48 0 0 1-6.692-3.107l-13.357-77.8a4.486 4.486 0 0 1 2.132-4.614l104.844-62.168a4.48 4.48 0 0 1 6.14 1.572z" fill="#5B61ED"/><path fill-rule="evenodd" clip-rule="evenodd" d="M117.8 366.714l-14.176-72.507a6.453 6.453 0 0 1 3.045-6.791l102.32-60.551a6.444 6.444 0 0 1 9.647 4.529l11.832 73.703a6.452 6.452 0 0 1-3.242 6.666l-103.867 57.542a3.79 3.79 0 0 1-5.559-2.591z" fill="#fff"/><path fill-rule="evenodd" clip-rule="evenodd" d="M199.478 243.671l11.932 67.772-.854.15-11.845-67.338.767-.584z" fill="#5B61ED"/><path fill-rule="evenodd" clip-rule="evenodd" d="M118.8 364.709l109.604-63.442.912 7.204-109.507 63.36-1.009-7.122z" fill="#EFF0FD"/><path fill-rule="evenodd" clip-rule="evenodd" d="M210.74 225.325l-105.292 62.31a5.354 5.354 0 0 0-2.548 5.518l13.632 76.034a5.346 5.346 0 0 0 7.966 3.712l104.903-61.251a5.353 5.353 0 0 0 2.581-5.5l-13.242-77.094a5.347 5.347 0 0 0-8-3.729zm6.581 2.324c.281.477.472 1.001.563 1.548l13.242 77.093a4.484 4.484 0 0 1-2.162 4.608L124.061 372.15a4.48 4.48 0 0 1-6.674-3.11l-13.632-76.035a4.485 4.485 0 0 1 2.135-4.623l105.292-62.31a4.48 4.48 0 0 1 6.087 1.493l.052.084z" fill="#5B61ED"/><path fill-rule="evenodd" clip-rule="evenodd" d="M217.595 226.181c.235.398.395.834.473 1.289l13.535 78.783-.416 3.316-8.993 5.916-97.83 56.546c-1.337.872-2.676 1.115-4.017.73-1.341-.385-2.566-1.365-3.676-2.94L103.2 292.318a3.798 3.798 0 0 1 1.805-3.917L212.4 224.847a3.792 3.792 0 0 1 5.195 1.334zm-1.94 6.548a1.515 1.515 0 0 0-2.073-.552l-104.059 60.37a3.416 3.416 0 0 0-1.653 3.521l12.371 73.616 107.788-61.33-12.189-75.107a1.516 1.516 0 0 0-.185-.518z" fill="#5B61ED"/><path fill-rule="evenodd" clip-rule="evenodd" d="M216.553 233.064l.434.752-109.293 63.137-.434-.752 109.293-63.137zm-36.197 26.272l9.441 58.943-36.311 21.101-29.967 17.654-10.128-58.924 36.935-21.376 30.03-17.398zm7.95 58.236l-8.98-56.066-30.408 17.616v-.001l-34.026 19.692 9.634 56.049 29.787-17.552.003.013 33.99-19.751z" fill="#5B61ED"/><path fill-rule="evenodd" clip-rule="evenodd" d="M124.099 374.552l.288 4.463c.04.634.395 1.205.944 1.522l49.478 28.564a3.41 3.41 0 0 0 3.416-.003l106.802-61.903a1.899 1.899 0 0 0 .945-1.708l-.125-3.556-52.881-27.954a1.895 1.895 0 0 0-1.819.026l-107.048 60.549z" fill="#fff"/><path fill-rule="evenodd" clip-rule="evenodd" d="M230.661 313.51l-107.255 60.666.303 4.705a2.895 2.895 0 0 0 1.442 2.323l49.025 28.303a4.674 4.674 0 0 0 4.682-.004l106.332-61.63a2.898 2.898 0 0 0 1.442-2.609l-.131-3.743-53.063-28.051a2.892 2.892 0 0 0-2.777.04zm2.153 1.142l52.379 27.689.105 2.97a1.563 1.563 0 0 1-.778 1.405l-106.332 61.63a3.336 3.336 0 0 1-3.344.003l-49.025-28.303-.083-.052a1.559 1.559 0 0 1-.694-1.199l-.249-3.867 106.526-60.254a1.557 1.557 0 0 1 1.495-.022z" fill="#5B61ED"/><path fill-rule="evenodd" clip-rule="evenodd" d="M124.695 376.106l50.108 29.432a3.413 3.413 0 0 0 3.436.011l107.032-61.889a1.897 1.897 0 0 0-.008-3.29l-52.261-29.876a1.895 1.895 0 0 0-1.899.01l-106.406 62.329a1.897 1.897 0 0 0-.002 3.273z" fill="#fff"/><path fill-rule="evenodd" clip-rule="evenodd" d="M230.601 309.986l-105.754 61.946a2.898 2.898 0 0 0-.003 4.999l49.322 28.969a4.677 4.677 0 0 0 4.708.017l106.233-61.427a2.899 2.899 0 0 0-.013-5.024L233.5 309.97a2.894 2.894 0 0 0-2.899.016zm2.236 1.145l51.594 29.496a1.56 1.56 0 0 1 .007 2.705l-106.233 61.427a3.338 3.338 0 0 1-3.363-.012l-49.322-28.969a1.56 1.56 0 0 1 .002-2.692l105.754-61.946a1.56 1.56 0 0 1 1.561-.009z" fill="#5B61ED"/><path fill-rule="evenodd" clip-rule="evenodd" d="M174.87 378.855a.76.76 0 0 1 .778.003l4.645 2.802a.38.38 0 0 1-.007.654l-4.109 2.366a.756.756 0 0 1-.771-.009l-4.577-2.778a.38.38 0 0 1 .004-.651l4.037-2.387zm5.653-3.372a.76.76 0 0 1 .778.003l4.645 2.802a.38.38 0 0 1-.007.654l-4.109 2.366a.756.756 0 0 1-.771-.009l-4.577-2.778a.38.38 0 0 1 .003-.651l4.038-2.387zm-9.486-.436a.761.761 0 0 1 .788.012l3.595 2.263a.38.38 0 0 1-.005.646l-5.464 3.315a.756.756 0 0 1-.785.001l-3.771-2.279a.38.38 0 0 1 .005-.652l5.637-3.306zm14.967-2.704a.755.755 0 0 1 .777.004l4.645 2.802a.38.38 0 0 1-.006.654l-4.109 2.365a.757.757 0 0 1-.772-.009l-4.577-2.778a.38.38 0 0 1 .004-.651l4.038-2.387zm-17.886-1.883a.761.761 0 0 1 .748-.01l3.88 2.129a.378.378 0 0 1 .007.661l-8.078 4.687a.758.758 0 0 1-.749.007l-3.817-2.12a.38.38 0 0 1-.008-.66l8.017-4.694zm8.283 1.376a.76.76 0 0 1 .775.005l3.707 2.235a.38.38 0 0 1 .001.65l-4.018 2.438a.758.758 0 0 1-.785.001l-3.771-2.279a.38.38 0 0 1 .005-.652l4.086-2.398zm16.42-3.388a.756.756 0 0 1 .76-.005l4.765 2.719a.38.38 0 0 1 .003.658l-5.519 3.206a.756.756 0 0 1-.774-.007l-4.575-2.777a.379.379 0 0 1 .005-.651l5.335-3.143zm-31.476-.148a.76.76 0 0 1 .754-.01l3.758 2.09a.38.38 0 0 1 .01.657l-6.644 3.981a.758.758 0 0 1-.757.013l-3.814-2.119a.378.378 0 0 1-.008-.658l6.701-3.954zm20.574.324a.758.758 0 0 1 .775.005l3.708 2.235a.38.38 0 0 1 0 .65l-4.017 2.438a.76.76 0 0 1-.786.001l-3.77-2.279a.379.379 0 0 1 .004-.652l4.086-2.398zm-8.127-1.471a.76.76 0 0 1 .775.005l3.707 2.235a.379.379 0 0 1 .001.65l-4.018 2.438a.758.758 0 0 1-.785.001l-3.771-2.279a.38.38 0 0 1 .004-.652l4.087-2.398zm-20.146-.444a.758.758 0 0 1 .775.004l3.707 2.235a.38.38 0 0 1 .001.65l-4.018 2.438a.758.758 0 0 1-.785.001l-3.771-2.279a.38.38 0 0 1 .004-.652l4.087-2.397zm66.426-14.02a.758.758 0 0 1 .757-.003l4.596 2.624a.378.378 0 0 1 .003.657l-25.704 14.971a.757.757 0 0 1-.773-.005l-4.5-2.708a.38.38 0 0 1 .005-.654l25.616-14.882zm-32.631 12.722a.758.758 0 0 1 .775.004l3.707 2.235a.38.38 0 0 1 .001.65l-4.018 2.438a.756.756 0 0 1-.785.001l-3.771-2.279a.38.38 0 0 1 .005-.652l4.086-2.397zm-20.276-.523a.758.758 0 0 1 .775.004l3.707 2.236a.38.38 0 0 1 .001.649l-4.018 2.438a.756.756 0 0 1-.785.001l-3.771-2.279a.38.38 0 0 1 .005-.652l4.086-2.397zm12.013-.962a.758.758 0 0 1 .775.005l3.708 2.235a.38.38 0 0 1 .001.65l-4.018 2.438a.758.758 0 0 1-.785.001l-3.771-2.279a.379.379 0 0 1 .004-.652l4.086-2.398zm-29.264.474a.758.758 0 0 1 .786.011l2.038 1.278a.38.38 0 0 1-.01.649l-4.156 2.424a.758.758 0 0 1-.797-.02l-1.977-1.292a.38.38 0 0 1 .016-.645l4.1-2.405zm9.431-.997a.758.758 0 0 1 .775.004l3.707 2.235a.38.38 0 0 1 .001.65l-4.018 2.438a.756.756 0 0 1-.785.001l-3.771-2.279a.38.38 0 0 1 .004-.652l4.087-2.397zm33.579-1.205a.758.758 0 0 1 .775.004l3.708 2.236a.379.379 0 0 1 .001.649l-4.018 2.438a.758.758 0 0 1-.786.001l-3.77-2.279a.38.38 0 0 1 .004-.652l4.086-2.397zm-20.276-.555a.758.758 0 0 1 .775.005l3.707 2.235a.38.38 0 0 1 .001.65l-4.018 2.438a.758.758 0 0 1-.785 0l-3.771-2.278a.38.38 0 0 1 .004-.652l4.087-2.398zm12.019-.897a.758.758 0 0 1 .775.005l3.707 2.235a.38.38 0 0 1 .001.65l-4.017 2.438a.76.76 0 0 1-.786 0l-3.77-2.278a.38.38 0 0 1 .004-.652l4.086-2.398zm-29.043.32a.757.757 0 0 1 .787.012l2.038 1.277a.38.38 0 0 1-.01.65l-4.157 2.424a.758.758 0 0 1-.796-.021l-1.977-1.292a.38.38 0 0 1 .015-.645l4.1-2.405zm9.384-1.036a.76.76 0 0 1 .775.005l3.707 2.235a.38.38 0 0 1 .001.65l-4.017 2.438a.76.76 0 0 1-.786.001l-3.77-2.279a.38.38 0 0 1 .004-.652l4.086-2.398zm33.401-.882a.758.758 0 0 1 .775.005l3.707 2.235a.381.381 0 0 1 .001.65l-4.018 2.438a.758.758 0 0 1-.785 0l-3.771-2.278a.38.38 0 0 1 .005-.652l4.086-2.398zm-20.233-.698a.76.76 0 0 1 .776.004l3.707 2.235a.379.379 0 0 1 .001.65l-4.018 2.438a.758.758 0 0 1-.785.001l-3.771-2.279a.38.38 0 0 1 .004-.652l4.086-2.397zm11.826-.862a.76.76 0 0 1 .776.004l3.707 2.235a.379.379 0 0 1 .001.65l-4.018 2.438a.758.758 0 0 1-.785.001l-3.771-2.279a.38.38 0 0 1 .004-.652l4.086-2.397zm-28.803.2a.758.758 0 0 1 .786.012l2.039 1.278a.38.38 0 0 1-.011.649l-4.156 2.424a.758.758 0 0 1-.797-.021l-1.977-1.291a.38.38 0 0 1 .016-.646l4.1-2.405zm9.394-1.031a.76.76 0 0 1 .775.005l3.708 2.235a.38.38 0 0 1 0 .65l-4.017 2.438a.76.76 0 0 1-.786.001l-3.77-2.279a.379.379 0 0 1 .004-.652l4.086-2.398zm33.299-.814a.758.758 0 0 1 .775.004l3.708 2.236a.378.378 0 0 1 0 .649l-4.017 2.438a.758.758 0 0 1-.786.001l-3.77-2.279a.38.38 0 0 1 .004-.652l4.086-2.397zm-20.38-.652a.756.756 0 0 1 .775.005l3.707 2.235a.38.38 0 0 1 .001.649l-4.018 2.438a.756.756 0 0 1-.785.001l-3.771-2.279a.38.38 0 0 1 .005-.652l4.086-2.397zm12.006-.898a.758.758 0 0 1 .775.004l3.707 2.235a.38.38 0 0 1 .001.65l-4.017 2.438a.76.76 0 0 1-.786.001l-3.77-2.279a.38.38 0 0 1 .004-.652l4.086-2.397zm-28.683.121a.758.758 0 0 1 .786.012l2.038 1.278a.38.38 0 0 1-.01.649l-4.156 2.424a.758.758 0 0 1-.797-.021l-1.977-1.291a.38.38 0 0 1 .016-.646l4.1-2.405zm9.401-.972a.758.758 0 0 1 .775.005l3.707 2.235a.381.381 0 0 1 .001.65l-4.017 2.438a.76.76 0 0 1-.786.001l-3.77-2.279a.38.38 0 0 1 .004-.652l4.086-2.398zm33.147-.844a.758.758 0 0 1 .775.004l3.707 2.236a.379.379 0 0 1 .001.649l-4.018 2.438a.756.756 0 0 1-.785.001l-3.771-2.279a.38.38 0 0 1 .004-.652l4.087-2.397zm-20.356-.602a.756.756 0 0 1 .775.005l3.708 2.235a.379.379 0 0 1 .001.649l-4.018 2.438a.756.756 0 0 1-.785.001l-3.771-2.279a.379.379 0 0 1 .004-.652l4.086-2.397zm12.055-.846a.758.758 0 0 1 .775.004l3.708 2.236a.379.379 0 0 1 .001.649l-4.018 2.438a.758.758 0 0 1-.786.001l-3.77-2.279a.38.38 0 0 1 .004-.652l4.086-2.397zm-28.573-.047a.758.758 0 0 1 .786.012l2.039 1.278a.38.38 0 0 1-.011.649l-4.156 2.424a.756.756 0 0 1-.796-.02l-1.977-1.292a.38.38 0 0 1 .015-.645l4.1-2.406zm9.42-.973a.756.756 0 0 1 .775.005l3.708 2.235a.379.379 0 0 1 .001.649l-4.018 2.438a.758.758 0 0 1-.786.001l-3.77-2.279a.379.379 0 0 1 .004-.652l4.086-2.397zm44.938-1.577a.758.758 0 0 1 .761-.005l4.764 2.719a.378.378 0 0 1 .003.657l-5.519 3.207a.759.759 0 0 1-.774-.008l-4.574-2.776a.38.38 0 0 1 .004-.652l5.335-3.142zm-12.149.84a.76.76 0 0 1 .775.005l3.707 2.235a.38.38 0 0 1 .001.65l-4.018 2.438a.758.758 0 0 1-.785.001l-3.771-2.279a.38.38 0 0 1 .005-.652l4.086-2.398zm-20.167-.526a.76.76 0 0 1 .776.004l3.707 2.235a.379.379 0 0 1 .001.65l-4.018 2.438a.756.756 0 0 1-.785.001l-3.771-2.279a.38.38 0 0 1 .004-.652l4.086-2.397zm12.02-.897a.758.758 0 0 1 .775.004l3.707 2.235a.38.38 0 0 1 .001.65l-4.017 2.438a.76.76 0 0 1-.786.001l-3.77-2.279a.38.38 0 0 1 .004-.652l4.086-2.397zm-28.371-.158a.758.758 0 0 1 .786.011l2.039 1.278a.38.38 0 0 1-.011.65l-4.156 2.423a.756.756 0 0 1-.796-.02l-1.977-1.292a.38.38 0 0 1 .015-.645l4.1-2.405zm9.428-.988a.756.756 0 0 1 .775.005l3.708 2.235a.379.379 0 0 1 .001.649l-4.018 2.438a.758.758 0 0 1-.786.001l-3.77-2.279a.38.38 0 0 1 .004-.652l4.086-2.397zm32.557-.546a.758.758 0 0 1 .775.004l3.708 2.235a.379.379 0 0 1 .001.65l-4.018 2.438a.76.76 0 0 1-.786.001l-3.77-2.279a.38.38 0 0 1 .004-.652l4.086-2.397zm11.989-.812a.76.76 0 0 1 .761-.003l4.685 2.691a.38.38 0 0 1 .004.656l-3.866 2.285a.756.756 0 0 1-.779-.004l-4.569-2.774a.38.38 0 0 1 .005-.652l3.759-2.199zm-32.094.207a.756.756 0 0 1 .775.005l3.708 2.235a.379.379 0 0 1 .001.649l-4.018 2.438a.756.756 0 0 1-.785.001l-3.771-2.279a.38.38 0 0 1 .004-.652l4.086-2.397zm11.826-.862a.756.756 0 0 1 .775.005l3.708 2.235a.379.379 0 0 1 .001.649l-4.018 2.438a.758.758 0 0 1-.786.001l-3.77-2.279a.379.379 0 0 1 .004-.652l4.086-2.397zm-28.132-.251a.758.758 0 0 1 .786.012l2.039 1.278a.38.38 0 0 1-.011.649l-4.156 2.424a.756.756 0 0 1-.796-.021l-1.977-1.291a.38.38 0 0 1 .015-.646l4.1-2.405zm9.518-1.108a.756.756 0 0 1 .775.005l3.707 2.235a.379.379 0 0 1 .001.649l-4.018 2.438a.756.756 0 0 1-.785.001l-3.771-2.279a.38.38 0 0 1 .004-.652l4.087-2.397zm32.329-.42a.758.758 0 0 1 .775.005l3.707 2.235a.381.381 0 0 1 .001.65l-4.017 2.438a.76.76 0 0 1-.786.001l-3.771-2.279a.38.38 0 0 1 .005-.652l4.086-2.398zm14.616.792a.757.757 0 0 1 .754-.006l1.94 1.092a.378.378 0 0 1 .007.657l-3.861 2.283a.76.76 0 0 1-.778-.004l-1.888-1.141a.379.379 0 0 1 .005-.652l3.821-2.229zm-34.821-1.31a.758.758 0 0 1 .775.005l3.707 2.235a.381.381 0 0 1 .001.65l-4.018 2.438a.758.758 0 0 1-.785 0l-3.771-2.278a.38.38 0 0 1 .005-.652l4.086-2.398zm12.006-.898a.756.756 0 0 1 .775.005l3.707 2.235a.38.38 0 0 1 .001.649l-4.018 2.438a.756.756 0 0 1-.785.001l-3.771-2.279a.38.38 0 0 1 .005-.652l4.086-2.397zm-28.008-.363a.757.757 0 0 1 .787.012l2.038 1.277a.38.38 0 0 1-.01.65l-4.157 2.424a.758.758 0 0 1-.796-.021l-1.977-1.292a.38.38 0 0 1 .015-.645l4.1-2.405zm9.463-1.074a.758.758 0 0 1 .775.004l3.707 2.236a.38.38 0 0 1 .001.649l-4.018 2.438a.756.756 0 0 1-.785.001l-3.771-2.279a.38.38 0 0 1 .005-.652l4.086-2.397zm31.967-.192a.758.758 0 0 1 .775.004l3.707 2.235a.38.38 0 0 1 .001.65l-4.018 2.438a.758.758 0 0 1-.785.001l-3.771-2.279a.38.38 0 0 1 .004-.652l4.087-2.397zm12.072-.808a.756.756 0 0 1 .761-.003l4.685 2.691a.38.38 0 0 1 .004.656l-3.866 2.285a.759.759 0 0 1-.779-.004l-4.569-2.774a.38.38 0 0 1 .005-.652l3.759-2.199zm-31.985.14a.758.758 0 0 1 .775.005l3.708 2.235a.38.38 0 0 1 .001.65l-4.018 2.438a.76.76 0 0 1-.786 0l-3.77-2.278a.379.379 0 0 1 .004-.652l4.086-2.398zm11.902-.881a.758.758 0 0 1 .775.005l3.707 2.235a.381.381 0 0 1 .001.65l-4.017 2.438a.762.762 0 0 1-.786.001l-3.771-2.279a.38.38 0 0 1 .005-.652l4.086-2.398zm-27.766-.471a.758.758 0 0 1 .786.012l2.038 1.278a.38.38 0 0 1-.01.649l-4.156 2.424a.758.758 0 0 1-.797-.02l-1.977-1.292a.38.38 0 0 1 .016-.645l4.1-2.406zm9.453-1.003a.758.758 0 0 1 .775.004l3.707 2.236a.379.379 0 0 1 .001.649l-4.018 2.438a.756.756 0 0 1-.785.001l-3.771-2.279a.38.38 0 0 1 .004-.652l4.087-2.397zm38.598-3.955a.759.759 0 0 1 .769.005l3.646 2.174a.38.38 0 0 1-.004.654l-10.764 6.273a.758.758 0 0 1-.775-.007l-3.63-2.205a.38.38 0 0 1 .006-.653l10.752-6.241zm7.961 4.543a.758.758 0 0 1 .753-.005l1.94 1.091a.38.38 0 0 1 .007.658l-3.861 2.282a.76.76 0 0 1-.778-.003l-1.888-1.141a.38.38 0 0 1 .005-.653l3.822-2.229zm-34.737-1.41a.758.758 0 0 1 .775.004l3.708 2.236a.379.379 0 0 1 .001.649l-4.018 2.438a.758.758 0 0 1-.786.001l-3.77-2.279a.38.38 0 0 1 .004-.652l4.086-2.397zm11.826-.862a.758.758 0 0 1 .775.004l3.708 2.236a.379.379 0 0 1 .001.649l-4.018 2.438a.758.758 0 0 1-.786.001l-3.77-2.279a.38.38 0 0 1 .004-.652l4.086-2.397zm-27.511-.563a.76.76 0 0 1 .787.011l2.038 1.278a.38.38 0 0 1-.01.65l-4.157 2.423a.756.756 0 0 1-.796-.02l-1.977-1.292a.38.38 0 0 1 .015-.645l4.1-2.405zm9.538-1.102a.758.758 0 0 1 .775.005l3.708 2.235a.38.38 0 0 1 0 .65l-4.017 2.438a.762.762 0 0 1-.786.001l-3.77-2.279a.379.379 0 0 1 .004-.652l4.086-2.398zm11.483-.632a.756.756 0 0 1 .775.005l3.707 2.235a.38.38 0 0 1 .001.649l-4.018 2.438a.756.756 0 0 1-.785.001l-3.771-2.279a.38.38 0 0 1 .004-.652l4.087-2.397zm12.006-.898a.758.758 0 0 1 .775.004l3.707 2.236a.38.38 0 0 1 .001.649l-4.018 2.438a.756.756 0 0 1-.785.001l-3.771-2.279a.38.38 0 0 1 .005-.652l4.086-2.397zm-27.349-.696a.756.756 0 0 1 .786.012l2.039 1.277a.38.38 0 0 1-.011.65l-4.156 2.424a.758.758 0 0 1-.796-.021l-1.977-1.292a.38.38 0 0 1 .015-.645l4.1-2.405zm9.451-1.037a.756.756 0 0 1 .775.005l3.707 2.235a.38.38 0 0 1 .001.649l-4.018 2.439a.758.758 0 0 1-.785 0l-3.771-2.279a.38.38 0 0 1 .004-.652l4.087-2.397zm11.407-.564a.756.756 0 0 1 .775.005l3.708 2.235a.379.379 0 0 1 .001.649l-4.018 2.438a.758.758 0 0 1-.786.001l-3.77-2.279a.38.38 0 0 1 .004-.652l4.086-2.397zm5.256-2.84a.756.756 0 0 1 .76.002l8.536 4.984a.379.379 0 0 1 .006.651l-2.173 1.325a.756.756 0 0 1-.775.008l-4.517-2.62a.758.758 0 0 0-.804.026l-.474.319a1.138 1.138 0 0 1-1.246.015l-3.031-1.932a.38.38 0 0 1 .015-.649l3.703-2.129zm-20.478 1.151a.757.757 0 0 1 .787.012l2.038 1.277a.38.38 0 0 1-.01.65l-4.157 2.424a.758.758 0 0 1-.796-.021l-1.977-1.292a.38.38 0 0 1 .015-.645l4.1-2.405zm14.812-4.196a.759.759 0 0 1 .76-.007l3.698 2.098a.38.38 0 0 1 .005.657l-9.481 5.564a.76.76 0 0 1-.78-.008l-3.509-2.155a.379.379 0 0 1 .006-.65l9.301-5.499zm-9.208.933a.76.76 0 0 1 .787.011l2.038 1.278a.38.38 0 0 1-.01.65l-4.156 2.423a.758.758 0 0 1-.797-.02l-1.977-1.292a.38.38 0 0 1 .016-.645l4.099-2.405zm5.683-3.34a.76.76 0 0 1 .787.012l2.038 1.278a.379.379 0 0 1-.01.649l-4.156 2.424a.758.758 0 0 1-.797-.02l-1.977-1.292a.38.38 0 0 1 .015-.645l4.1-2.406z" fill="#EFF0FD"/><path fill-rule="evenodd" clip-rule="evenodd" d="M229.24 359.424l10.082 6.229a1.518 1.518 0 0 1-.047 2.611l-16.2 9.221a4.169 4.169 0 0 1-4.26-.081l-9.433-5.851a1.518 1.518 0 0 1 .018-2.591l15.894-9.562a3.791 3.791 0 0 1 3.946.024zm6.706-47.801l.676 1.154-11.975 7.019 31.956 18.797 13.464-7.851.673 1.156-111.356 64.934-.672-1.155 96.567-56.312-31.952-18.795-97.034 56.88-.676-1.153 110.329-64.674z" fill="#5B61ED"/><path fill-rule="evenodd" clip-rule="evenodd" d="M144.521 365.904l33.144 19.497-.677 1.153-33.144-19.497.677-1.153zm32.072 39.696v3.961l109.419-62.937v-3.869L177.667 405.6h-1.074zm-65.079 292.366l-55.482 31.571L.569 697.966l56.612-29.522 54.333 29.522z" fill="#5B61ED"/><path fill-rule="evenodd" clip-rule="evenodd" d="M111.514 697.966l-55.482 31.571L.569 697.966l56.612-29.522 54.333 29.522z" fill="#fff" fill-opacity=".82"/><path fill-rule="evenodd" clip-rule="evenodd" d="M55.797 605.345L.587 573.488v119.995l54.878 32.114.332-120.252z" fill="#5B61ED"/><path fill-rule="evenodd" clip-rule="evenodd" d="M56.033 605.751l54.877-32.028V692.45l-54.877 32.154V605.751z" fill="#fff"/><path fill-rule="evenodd" clip-rule="evenodd" d="M111.479 692.777V572.733l-56.015 32.692v120.172l56.015-32.82zm-1.138-118.062v117.409l-53.74 31.487V606.078l53.74-31.363z" fill="#5B61ED"/><path fill-rule="evenodd" clip-rule="evenodd" d="M110.378 572.737l-54.346-30.769L1.7 573.488l53.766 31.478 54.913-32.229z" fill="#fff"/><path fill-rule="evenodd" clip-rule="evenodd" d="M.569 573.486l55.46-32.174 55.489 31.416-56.053 32.898L.57 573.486zm55.468-30.862L2.83 573.49l52.635 30.816 53.774-31.56-53.203-30.122z" fill="#5B61ED"/><path fill-rule="evenodd" clip-rule="evenodd" d="M22.658 572.742l33.377-19.363 33.394 18.907-33.733 19.798-33.038-19.342z" fill="#5B61ED"/><path d="M23.967 569.953l32.068-18.604 32.085 18.166-32.41 19.022-31.743-18.584z" fill="#fff"/><path fill-rule="evenodd" clip-rule="evenodd" d="M22.837 569.95l33.195-19.257 33.227 18.813-33.55 19.691-32.872-19.247zm33.202-17.945l-30.942 17.949 30.612 17.923 31.272-18.354-30.942-17.518z" fill="#5B61ED"/><path fill-rule="evenodd" clip-rule="evenodd" d="M102.741 681.423l-.053.027L63.5 703.947a.76.76 0 0 0 .702 1.344l.053-.028 39.188-22.496a.76.76 0 0 0-.702-1.344zm0-17.835l-.053.027L63.5 686.112a.76.76 0 0 0 .702 1.344l.053-.027 39.188-22.497a.76.76 0 0 0-.702-1.344zm0-17.456l-.053.028L63.5 668.657a.759.759 0 0 0 .702 1.344l.053-.028 39.188-22.496a.76.76 0 0 0-.702-1.345zm0-17.007l-.053.028L63.5 651.649a.76.76 0 0 0 .702 1.345l.053-.028 39.188-22.497a.759.759 0 0 0-.702-1.344zm0-17.455l-.053.027L63.5 634.194a.76.76 0 0 0 .702 1.344l.053-.027 39.188-22.497a.76.76 0 0 0-.702-1.344zm0-17.835l-.053.028L63.5 616.359a.76.76 0 0 0 .702 1.344l.053-.027 39.188-22.497a.759.759 0 0 0-.702-1.344zm-25.698-25.551l-.05.025-22.391 12.516a.57.57 0 0 0 .505 1.019l.05-.025 22.392-12.516a.57.57 0 0 0-.506-1.019zm-6.789-3.756l-.049.024-22.392 12.517a.569.569 0 0 0 .506 1.018l.05-.025 22.391-12.516a.57.57 0 0 0-.506-1.018zm-6.409-4.098l-.049.024-22.392 12.517a.569.569 0 0 0 .506 1.018l.05-.024 22.391-12.517a.569.569 0 0 0-.506-1.018zm-6.181-3.522l-.05.025-22.391 12.516a.57.57 0 0 0 .505 1.018l.05-.024 22.392-12.516a.57.57 0 0 0-.506-1.019z" fill="#EFF0FD"/><path fill-rule="evenodd" clip-rule="evenodd" d="M0 575.06v114.664l51.144 29.124v-114.31L0 575.06zm.38.656l50.385 29.041v113.438L.379 689.503V575.716zm47.668 135.373c-.22-1.131-1.148-1.902-2.073-1.722-.925.179-1.497 1.243-1.278 2.374.22 1.132 1.148 1.903 2.074 1.723.925-.18 1.497-1.243 1.277-2.375zm-42.73-77.288a.19.19 0 0 0-.111.217l.01.032 31.5 73.896a.19.19 0 0 0 .358-.117l-.01-.032-31.499-73.896a.19.19 0 0 0-.249-.1zm2.299-15.253a.19.19 0 0 0-.111.217l.01.032 31.5 73.896a.19.19 0 0 0 .359-.117l-.01-.032-31.5-73.896a.19.19 0 0 0-.248-.1zM4.815 686.24c-.22-1.131-1.148-1.903-2.073-1.723-.925.18-1.497 1.243-1.277 2.375.22 1.131 1.148 1.902 2.073 1.723.925-.18 1.497-1.244 1.277-2.375zm17.761-92.923a.19.19 0 0 0-.102.221l.012.032 21.642 45.744a.19.19 0 0 0 .355-.131l-.012-.032-21.642-45.744a.19.19 0 0 0-.253-.09zm5.534 4.017a.19.19 0 0 0-.1.221l.011.032 16.108 33.607a.19.19 0 0 0 .354-.132l-.012-.032-16.108-33.607a.19.19 0 0 0-.253-.089zm19.938 10.053c-.22-1.131-1.148-1.903-2.073-1.723-.925.18-1.497 1.243-1.278 2.375.22 1.131 1.148 1.903 2.074 1.723.925-.18 1.497-1.243 1.277-2.375zM4.815 582.538c-.22-1.132-1.148-1.903-2.073-1.723-.925.18-1.497 1.243-1.277 2.374.22 1.132 1.148 1.903 2.073 1.723.925-.18 1.497-1.243 1.277-2.374z" fill="#fff"/><path fill-rule="evenodd" clip-rule="evenodd" d="M22.387 171.591v8.465l56.71 32.447L324.23 70.443v-8.195L22.387 171.591z" fill="#5B61ED"/><path fill-rule="evenodd" clip-rule="evenodd" d="M23.53 171.586l55.978 31.8 243.588-141.14-55.177-32.173L23.531 171.586z" fill="#fff"/><path fill-rule="evenodd" clip-rule="evenodd" d="M324.229 62.248L267.92 29.415 22.387 171.591l57.124 32.451L324.229 62.248zm-56.311-31.517l54.045 31.514L79.505 202.73l-54.83-31.149 243.243-140.85z" fill="#5B61ED"/><path fill-rule="evenodd" clip-rule="evenodd" d="M111.63 129.103l43.251 24.812 57.63-34.38h3.811l5.674-4.099-55.183-22.14-55.183 35.807z" fill="#5B61ED"/><path fill-rule="evenodd" clip-rule="evenodd" d="M111.63 129.103l43.251 24.812 57.63-34.38h3.811l5.674-4.099-55.183-22.14-55.183 35.807z" fill="#fff" fill-opacity=".82"/><path fill-rule="evenodd" clip-rule="evenodd" d="M214.836 52.793l6.505 61.935-6.4-2.847.595 5.668-40.949-17.718-5.343-54.141-.776-7.39-.255-2.427 1.091-1.303 3.574.18 3.052 1.666 4.016 1.593 34.89 14.784z" fill="#fff"/><path fill-rule="evenodd" clip-rule="evenodd" d="M168.585 34.645a4.533 4.533 0 0 1 3.968-.311l.09.037 42.476 17.85 6.591 62.74-3.908-1.845.292-.617 2.81 1.326-6.421-61.13L172.379 35a3.853 3.853 0 0 0-3.367.186l-.081.047a.752.752 0 0 0-.37.679v.011l.008.078.006.031a.752.752 0 0 0 .069.196l.02.037c.07.119.171.215.291.28l.047.023 40.703 18.537 6.637 63.185-41.754-18.458-6.695-63.74-.003-.02a1.692 1.692 0 0 1-.01-.1l-.006-.063h.004v-.039c.004-.47.239-.927.661-1.197l.046-.029zm.108 2.532l6.532 62.19 40.315 17.821-6.473-61.624-40.348-18.374-.026-.012z" fill="#EFF0FD"/><path fill-rule="evenodd" clip-rule="evenodd" d="M215.827 116.805l4.531-3.3-6.319-60.162-4.664 3.518 6.452 59.944z" fill="#EFF0FD"/><path fill-rule="evenodd" clip-rule="evenodd" d="M207.312 97.563l-5.146 3.094 1.66 16.658 4.288 1.991-53.35 32.076-36.524-20.148c-3.204-2.405-5.087-4.756-5.65-7.055-.562-2.298-.989-6.411-1.279-12.338.346-1.541 1.177-2.598 2.493-3.173 1.316-.575 4.323-2.383 9.022-5.424l46.845-26.492 37.641 20.811z" fill="#fff"/><path fill-rule="evenodd" clip-rule="evenodd" d="M111.631 122.188a10.814 10.814 0 0 0 5.416 8.608l.112.063 37.612 20.917 54.05-32.497-5.439-2.733-.306.61 4.331 2.176-52.649 31.655-37.267-20.725a10.128 10.128 0 0 1-5.169-7.995l-.01-.128-.788-10.895a3.075 3.075 0 0 1 1.483-2.858l.048-.028.016.027.332-.199.046-.019c.264-.105.546-.175.843-.204l.074-.006a3.07 3.07 0 0 1 1.681.361l.081.045 37.612 21.808 54.254-32.619-40.499-22.574-54.4 32.597a3.758 3.758 0 0 0-2.256 3.642l.005.076.787 10.895zm3.283-14.908l52.593-31.514 39.124 21.808-52.898 31.804-37.263-21.606a3.746 3.746 0 0 0-1.47-.483l-.086-.009z" fill="#5B61ED"/><path fill-rule="evenodd" clip-rule="evenodd" d="M154.733 126.26l53.35-32.076-6.124-3.4 4.882-2.936-32.764-21.476-52.451 27.732-6.364 3.827-2.091 1.257-.384 1.656 2.295 2.748 3.166 1.436 3.688 2.25 32.797 18.982z" fill="#fff"/><path fill-rule="evenodd" clip-rule="evenodd" d="M112.412 100.224a4.543 4.543 0 0 0 2.14 3.358l.084.05 39.809 23.198 54.043-32.493-3.823-2.012-.318.605 2.75 1.447-52.657 31.659-39.46-22.994a3.854 3.854 0 0 1-1.878-2.803l-.012-.092a.756.756 0 0 1 .319-.705l.01-.006.067-.04.028-.015a.753.753 0 0 1 .197-.063l.043-.006a.754.754 0 0 1 .399.064l.046.023 39.289 21.369 54.427-32.723-39.859-22.256-54.904 33.01-.018.01a2.7 2.7 0 0 0-.087.053l-.053.032.002.004-.031.023c-.373.287-.596.75-.558 1.249l.005.054zm2.087-1.438l53.569-32.208 38.485 21.489-53.082 31.914-38.946-21.182-.026-.013z" fill="#EFF0FD"/><path fill-rule="evenodd" clip-rule="evenodd" d="M206.422 88.53l.092 5.606-51.822 31.157.002-5.843 51.728-30.92z" fill="#EFF0FD"/><path fill-rule="evenodd" clip-rule="evenodd" d="M154.668 116.546l53.35-32.076-39.876-22.14-51.837 20.806-3.357 2.018-1.019 2.162.793 3.814 2.295 2.748 3.248 2.532 3.387 1.659 33.016 18.477z" fill="#fff"/><path fill-rule="evenodd" clip-rule="evenodd" d="M154.622 106.216l53.822-32.36-40.868-21.544-52.921 31.818 39.967 22.086z" fill="#fff"/><path fill-rule="evenodd" clip-rule="evenodd" d="M111.51 87.69a10.316 10.316 0 0 0 5.154 8.11l.112.064 37.901 21.077 54.051-32.497-5.44-2.733-.306.61 4.331 2.176-52.649 31.655-37.556-20.885a9.631 9.631 0 0 1-4.906-7.506l-.012-.126a2.518 2.518 0 0 1 1.031-2.244l.014-.01.359-.215.011-.005a2.49 2.49 0 0 1 .82-.235l.068-.006a2.51 2.51 0 0 1 1.344.264l.077.041 38.715 21.385 54.511-32.774-41.574-21.916-54.296 32.644-.006.004a3.202 3.202 0 0 0-1.759 3.048l.005.075zm3.599-3.435l52.479-31.551 40.161 21.171-53.135 31.947-38.37-21.195a3.19 3.19 0 0 0-1.059-.361l-.076-.01z" fill="#5B61ED"/><path fill-rule="evenodd" clip-rule="evenodd" d="M205.803 75.445l.909 8.79-51.894 31.201-.228-9.643 51.213-30.348z" fill="#5B61ED"/><path fill-rule="evenodd" clip-rule="evenodd" d="M205.856 75.827l.856 8.41-51.894 31.2-.228-8.884 51.266-30.726z" fill="#fff" fill-opacity=".5"/><path fill-rule="evenodd" clip-rule="evenodd" d="M114.224 90.074l-.398-1.952a2.474 2.474 0 0 1 3.609-2.665l37.532 20.558-.149 9.421-37.636-21.307a6.034 6.034 0 0 1-2.958-4.055zm39.934 24.022l.12-7.68-37.171-20.36a1.788 1.788 0 0 0-2.612 1.93l.398 1.952a5.35 5.35 0 0 0 2.623 3.595l36.642 20.563z" fill="#5B61ED"/><path fill-rule="evenodd" clip-rule="evenodd" d="M134.525 98.02a.227.227 0 0 0-.112-.302l-.606-.279c-4.054-1.873-7.018-3.453-8.89-4.74l-.091-.063a98.641 98.641 0 0 1-5.553-4.145.228.228 0 0 0-.286.355 99.49 99.49 0 0 0 5.579 4.164l.187.129c1.996 1.356 5.151 3.019 9.471 4.993a.227.227 0 0 0 .301-.113zm2.044 26.238a.227.227 0 0 0-.113-.301l-.606-.279c-4.12-1.903-7.115-3.505-8.981-4.802a99.403 99.403 0 0 1-5.553-4.146.227.227 0 1 0-.285.355 99.31 99.31 0 0 0 5.578 4.164l.187.129c1.996 1.356 5.152 3.019 9.471 4.993a.228.228 0 0 0 .302-.113zm9.982-16.35a.228.228 0 0 0-.113-.301l-.606-.279c-4.12-1.903-7.115-3.505-8.981-4.802a98.936 98.936 0 0 1-5.553-4.146.228.228 0 1 0-.285.355 99.855 99.855 0 0 0 5.578 4.165l.187.128c1.996 1.356 5.152 3.019 9.471 4.993a.228.228 0 0 0 .302-.113z" fill="#5B61ED"/><path fill-rule="evenodd" clip-rule="evenodd" d="M122.739 90.756l-4.556 2.739a1.519 1.519 0 0 0 .055 2.633l4.182 2.285a4.17 4.17 0 0 0 4.148-.086l4.628-2.783c-2.472-1.938-4.193-3.157-5.161-3.657-.969-.5-1.938-.955-2.907-1.365l-.389.234zm2.043 26.239l-4.556 2.739a1.517 1.517 0 0 0 .054 2.633l4.183 2.285c1.3.71 2.878.677 4.147-.086l4.628-2.783c-2.472-1.938-4.192-3.157-5.161-3.657a41.75 41.75 0 0 0-2.907-1.365l-.388.234zm10.593-16.032l-4.555 2.739a1.518 1.518 0 0 0 .054 2.633l4.183 2.285a4.169 4.169 0 0 0 4.147-.086l4.628-2.782c-2.472-1.939-4.192-3.158-5.161-3.658-.969-.5-1.938-.955-2.907-1.365l-.389.234z" fill="#EFF0FD"/><path fill-rule="evenodd" clip-rule="evenodd" d="M130.948 98.462a.227.227 0 0 0 .112.301l.606.279c4.12 1.903 7.115 3.505 8.981 4.803a98.542 98.542 0 0 1 5.553 4.145.227.227 0 1 0 .285-.355 99.31 99.31 0 0 0-5.578-4.164l-.187-.129c-1.996-1.355-5.152-3.019-9.471-4.993a.227.227 0 0 0-.301.113zm-12.025-9.889a.228.228 0 0 0 .112.302l.606.278c4.054 1.873 7.018 3.454 8.89 4.74l.091.063a98.641 98.641 0 0 1 5.553 4.145.228.228 0 1 0 .285-.355 99.508 99.508 0 0 0-5.578-4.164l-.187-.128c-1.996-1.356-5.151-3.02-9.471-4.993a.227.227 0 0 0-.301.112zm2.043 26.239a.228.228 0 0 0 .112.302l.606.278c4.12 1.904 7.115 3.505 8.981 4.803a99.273 99.273 0 0 1 5.553 4.145.227.227 0 1 0 .285-.355 99.31 99.31 0 0 0-5.578-4.164l-.187-.128c-1.996-1.356-5.152-3.02-9.471-4.994a.228.228 0 0 0-.301.113zm32.771 14.963l.613 18.782 50.578-30.409-.866-18.63-50.325 30.257z" fill="#5B61ED"/><path fill-rule="evenodd" clip-rule="evenodd" d="M153.737 130.155l.613 18.402 50.578-30.409-.866-18.25-50.325 30.257z" fill="#fff" fill-opacity=".5"/><path fill-rule="evenodd" clip-rule="evenodd" d="M117.153 123.901a6.944 6.944 0 0 0 3.361 5.224l.099.057 33.759 19.264.338-.594-33.759-19.263a6.258 6.258 0 0 1-3.107-4.653l-.013-.109-1.748-16.111-.679.074 1.749 16.111z" fill="#5B61ED"/><path fill-rule="evenodd" clip-rule="evenodd" d="M152.034 141.509a.228.228 0 0 0-.113-.302l-.606-.279c-4.12-1.903-7.115-3.505-8.981-4.802a99.279 99.279 0 0 1-5.553-4.146.228.228 0 0 0-.32.035.228.228 0 0 0 .035.32 99.47 99.47 0 0 0 5.579 4.165l.186.128c1.996 1.356 5.152 3.019 9.471 4.993.115.052.25.002.302-.112z" fill="#5B61ED"/><path fill-rule="evenodd" clip-rule="evenodd" d="M140.858 134.564l-4.555 2.739a1.52 1.52 0 0 0 .054 2.633l4.183 2.285a4.171 4.171 0 0 0 4.147-.086l4.627-2.783c-2.472-1.938-4.192-3.157-5.16-3.657-.969-.5-1.938-.955-2.907-1.364l-.389.233z" fill="#EFF0FD"/><path fill-rule="evenodd" clip-rule="evenodd" d="M136.432 132.063a.228.228 0 0 0 .112.302l.606.278c4.121 1.904 7.116 3.506 8.982 4.803a99.273 99.273 0 0 1 5.553 4.145.227.227 0 1 0 .285-.354 99.838 99.838 0 0 0-5.579-4.165l-.186-.128c-1.996-1.356-5.152-3.019-9.471-4.993a.228.228 0 0 0-.302.112z" fill="#5B61ED"/><path d="M153.149 133.893c.06.1.184.137.288.09l.024-.013 43.947-26.422a.228.228 0 1 0-.211-.403l-.023.013-43.948 26.422a.229.229 0 0 0-.077.313zm2.086-25.637c.06.1.184.137.288.09l.024-.012 43.947-26.423a.227.227 0 0 0-.211-.403l-.023.013-43.948 26.422a.229.229 0 0 0-.077.313zm-2.15 28.662c.06.1.185.138.289.091l.023-.013 15.423-9.272a.228.228 0 0 0-.21-.403l-.024.012-15.423 9.273a.227.227 0 0 0-.078.312zm2.764-26.044c.06.1.184.137.288.09l.024-.012 15.423-9.272a.228.228 0 1 0-.211-.403l-.023.012-15.424 9.273a.227.227 0 0 0-.077.312zm-3.501 29.475c.06.1.185.137.289.09l.023-.012 15.423-9.273a.227.227 0 1 0-.21-.403l-.024.013-15.423 9.273a.227.227 0 0 0-.078.312z" fill="#fff"/><path d="M78.032 189.929c10.416 0 18.86-4.927 18.86-11.005 0-6.077-8.444-11.004-18.86-11.004-10.416 0-18.86 4.927-18.86 11.004 0 6.078 8.444 11.005 18.86 11.005z" fill="#5B61ED"/><path d="M78.032 189.929c10.416 0 18.86-4.927 18.86-11.005 0-6.077-8.444-11.004-18.86-11.004-10.416 0-18.86 4.927-18.86 11.004 0 6.078 8.444 11.005 18.86 11.005z" fill="#fff" fill-opacity=".82"/><path fill-rule="evenodd" clip-rule="evenodd" d="M64.681 177.235c3.1 5.169 6.198 7.494 13.453 7.494 7.255 0 10.893-2.632 13.236-7.494 3.263-6.771 8.198-22.678 8.955-29.626.504-4.631-14.542-5.301-45.137-2.009 4.261 17.644 7.426 28.189 9.493 31.635z" fill="#5B61ED"/><path d="M78.134 157.105c11.938 0 21.616-5.522 21.616-12.333s-9.678-12.332-21.616-12.332c-11.939 0-21.617 5.521-21.617 12.332 0 6.811 9.678 12.333 21.617 12.333z" fill="#5B61ED"/><path fill-rule="evenodd" clip-rule="evenodd" d="M78.134 131.681c12.673 0 22.946 5.862 22.946 13.092s-10.273 13.092-22.946 13.092c-12.673 0-22.947-5.862-22.947-13.092s10.274-13.092 22.947-13.092zm0 1.518c-11.946 0-21.43 5.411-21.43 11.574s9.484 11.574 21.43 11.574 21.43-5.411 21.43-11.574-9.484-11.574-21.43-11.574z" fill="#EFF0FD"/><path fill-rule="evenodd" clip-rule="evenodd" d="M73.115 116.037c.303-2.796 1.268-4.713 2.894-5.75 2.438-1.555 6.181-6.394 7.468-9.69 1.287-3.297 3.246-7.024 3.246-7.735 0-.71-4.383 2.711-6.804 4.448-2.422 1.736-6.212 2.976-8.02 4.255-1.809 1.279-1.39 2.535-4.617 3.875-3.226 1.339-5.688 3.093-4.457 5.62.82 1.685 4.25 3.344 10.29 4.977z" fill="#fff"/><path fill-rule="evenodd" clip-rule="evenodd" d="M86.66 92.199a1.14 1.14 0 0 0-.513.108c-.237.097-.543.267-.93.51l-.108.068c-.615.394-1.378.928-2.45 1.71l-2.465 1.812-.607.44c-.8.574-1.775 1.114-3.148 1.774l-.546.259c-.606.284-1.634.761-1.91.893l-.326.157c-.682.331-1.2.606-1.64.876-.16.099-.31.197-.447.294-.338.24-.623.49-.886.77l-.112.123a8.81 8.81 0 0 0-.48.594l-.064.086c-.849 1.123-1.4 1.592-2.964 2.241-4.164 1.729-6.047 3.735-4.75 6.396.91 1.869 4.357 3.555 10.415 5.212l.879.238.072-.661c.28-2.579 1.132-4.318 2.535-5.266l.099-.065c2.516-1.605 6.252-6.421 7.63-9.807l.063-.157c.121-.312.252-.636.394-.976l.108-.258c.143-.34.296-.693.461-1.069l.417-.931c.416-.923 1.034-2.283 1.177-2.608l.202-.463c.367-.857.526-1.327.526-1.637a.653.653 0 0 0-.631-.663zm-.939 1.646l.115-.073-.127.304-.185.426-1.493 3.31-.201.457a52.898 52.898 0 0 0-.788 1.878l-.095.242c-1.22 3.128-4.79 7.778-7.134 9.346l-.226.148c-1.567 1.054-2.54 2.847-2.938 5.342l-.014.09-.056-.015c-5.449-1.528-8.553-3.072-9.243-4.489-.861-1.768.457-3.252 3.854-4.715l.31-.131c1.715-.712 2.43-1.296 3.349-2.492l.298-.391c.104-.134.183-.228.276-.333a4.58 4.58 0 0 1 .804-.719c.116-.082.245-.167.386-.254l.193-.115c.398-.234.88-.483 1.507-.784l.645-.304c.59-.276 1.483-.691 1.78-.833 1.46-.696 2.51-1.266 3.388-1.88l.124-.088c.238-.17.498-.36.82-.595l2.11-1.553c1.133-.828 1.923-1.384 2.541-1.779z" fill="#EFF0FD"/><path fill-rule="evenodd" clip-rule="evenodd" d="M78.26 102.764a.379.379 0 1 1 .672.351c-1.394 2.677-2.8 4.481-4.238 5.411-1.734 1.121-2.23 5.56-1.089 8.521l.051.128c1.375 3.374 2.387 10.091 2.375 17.229l-.013 2.785c-.017 4.396-.013 8.575.012 12.537a.379.379 0 1 1-.759.005l-.012-2.253c-.013-3.287-.013-6.718 0-10.292l.012-2.497c.04-7.058-.94-13.732-2.263-17.093l-.054-.134c-1.31-3.215-.815-8.064 1.244-9.516l.084-.057c1.307-.846 2.639-2.554 3.977-5.125zm16.489 26.283a.38.38 0 1 1 .521.551c-5.346 5.067-7.662 10.976-6.967 17.756a.38.38 0 1 1-.754.077c-.72-7.019 1.686-13.158 7.2-18.384z" fill="#EFF0FD"/><path fill-rule="evenodd" clip-rule="evenodd" d="M95.371 129.145c-2.096-.85-3.327-.699-3.693.454-.55 1.728-.165 6.101 2.928 6.101s7.074-.718 8.273-.718c.799 0 1.649.387 2.547 1.163-.848-3.936-1.969-6.834-3.363-8.691-2.09-2.787-6.28-3.396-7.457-2.247-.785.766-.53 2.079.765 3.938z" fill="#fff"/><path fill-rule="evenodd" clip-rule="evenodd" d="M94.15 124.86c-.725.76-.734 1.818-.114 3.139l.071.149-.013-.003c-1.538-.324-2.573.069-2.958 1.282-.339 1.066-.321 2.718.098 4.043.543 1.718 1.688 2.8 3.372 2.8.717 0 1.511-.038 2.394-.108l.421-.035a73.113 73.113 0 0 0 1.84-.191l2.319-.276c.645-.074 1.054-.109 1.299-.109.646 0 1.372.332 2.176 1.026l1.285 1.109-.358-1.66c-.864-4.01-2.013-6.979-3.464-8.914-2.083-2.776-6.68-3.903-8.31-2.312l-.058.06zm7.549 3.059c1.114 1.537 2.056 3.813 2.816 6.824l.026.104-.043-.022c-.546-.273-1.085-.412-1.619-.412l-.12.001a14.14 14.14 0 0 0-1.062.087l-1.003.118-1.308.157-.68.078c-.655.072-1.234.128-1.796.173a29.36 29.36 0 0 1-2.304.104c-1.122 0-1.88-.717-2.288-2.005-.349-1.104-.364-2.516-.098-3.355.233-.734 1.106-.841 2.938-.099l1.775.72-1.095-1.573c-1.154-1.657-1.356-2.695-.835-3.204 1.066-1.041 4.892-.103 6.605 2.181l.091.123z" fill="#EFF0FD"/><path fill-rule="evenodd" clip-rule="evenodd" d="M96.429 114.676c-1.548 2.334-2.321 4.077-2.321 5.231 0 1.731-1.128 3.518 1.606 1.479 2.734-2.039 6.044-3.168 7.878-3.787 1.835-.619 3.818-6.02 6.289-7.544 2.472-1.525 4.476-3.6 6.564-8.076 2.088-4.476 3.984-5.992 3.984-6.534 0-.542-8.372-.414-11.223 1.592-2.852 2.005-5.47 3.681-8.355 4.053-2.886.372-6.902-.763-10.731 4.43-3.83 5.194-3.746 5.26-4.933 9.156-1.187 3.897.357 4.294 1.763 2.923.938-.914 4.097-1.888 9.479-2.923z" fill="#fff"/><path fill-rule="evenodd" clip-rule="evenodd" d="M115.836 94.718c-3.008.264-5.58.884-6.958 1.853l-.39.273c-3.329 2.315-5.346 3.347-7.581 3.664l-.129.017c-.396.051-.753.072-1.47.092l-.253.007c-3.61.09-5.445.561-7.687 2.63a13.567 13.567 0 0 0-1.706 1.928l-.976 1.33c-1.683 2.312-2.291 3.264-2.784 4.326a13.07 13.07 0 0 0-.468 1.159l-.065.187c-.09.263-.182.549-.294.909l-.432 1.417c-.606 1.987-.606 3.346.05 4.005.672.673 1.682.401 2.581-.439l.11-.105c.785-.711 3.352-1.544 7.594-2.425l.258-.053-.018.03c-1.082 1.795-1.644 3.211-1.678 4.281l-.002.169a6.11 6.11 0 0 1-.088.857l-.09.554c-.025.163-.04.291-.047.409-.026.416.04.721.349.934.492.341 1.043.102 2.179-.728l.213-.157c2.14-1.597 4.346-2.566 7.72-3.704.608-.205 1.174-.739 1.834-1.623l.153-.208c.181-.252.373-.533.592-.866l.95-1.476.306-.47c1.059-1.601 1.797-2.479 2.571-2.956 2.783-1.716 4.732-3.998 6.674-8.094l.106-.226c.832-1.784 1.659-3.171 2.58-4.455l.206-.284c.253-.34.747-.99.813-1.08l.115-.16c.228-.329.323-.538.323-.795 0-.92-2.034-1.001-5.161-.727zm-30.154 20.288l.437-1.439c.129-.417.23-.731.326-1.014.162-.473.315-.86.489-1.235l.108-.226c.526-1.072 1.297-2.199 3.535-5.234a12.418 12.418 0 0 1 1.563-1.768c1.951-1.8 3.526-2.228 6.759-2.323l.57-.016a13.7 13.7 0 0 0 1.454-.097c2.613-.337 4.835-1.497 8.61-4.152 1.166-.82 3.583-1.402 6.403-1.65 1.146-.1 2.268-.134 3.117-.1l.115.005c.112.005.217.012.313.02l.116.01-.632.837-.205.277a27.657 27.657 0 0 0-2.701 4.562l-.13.275c-1.853 3.972-3.645 6.128-6.203 7.743l-.143.089c-1.015.626-1.866 1.668-3.127 3.609l-.695 1.073c-1.399 2.147-1.782 2.604-2.321 2.797l-.57.194c-3.094 1.068-5.23 2.031-7.318 3.554l-.276.205c-.249.183-.461.331-.64.445l-.148.092.066-.403a8.11 8.11 0 0 0 .118-1.039l.003-.103.001-.087c0-.985.701-2.589 2.119-4.753l.857-1.293-1.33.256c-5.431 1.044-8.621 2.018-9.721 3.029l-.048.045c-.53.516-.938.636-1.054.52-.093-.093-.166-.336-.166-.741 0-.496.113-1.155.349-1.964z" fill="#EFF0FD"/><path fill-rule="evenodd" clip-rule="evenodd" d="M106.706 105.614a.378.378 0 1 1 .401.644c-9.184 5.728-15.016 13.134-17.512 22.228-2.517 9.166-4.001 16.91-4.453 23.228a.379.379 0 1 1-.757-.055c.456-6.373 1.95-14.163 4.478-23.374 2.55-9.285 8.503-16.845 17.843-22.671z" fill="#EFF0FD"/><path fill-rule="evenodd" clip-rule="evenodd" d="M87.5 81.402c.942 3.92 1.413 6.795 1.413 8.623 0 2.741-1.413 7.627-.706 7.627.706 0 10.183-2.073 17.364-9.769 7.18-7.695 4.993-22.615 2.998-27.888-1.995-5.273-5.508-13.314-6.07-13.314-.562 0-.277 2.95-2.878 4.297-2.6 1.346-10.368 4.465-16.4 10.262-6.032 5.797-7.57 7.908-7.57 11.583s1.892 15.768 2.65 15.768c.76 0 2.566-2.368 4.92-4.162 1.57-1.196 2.995-2.205 4.279-3.027z" fill="#fff"/><path fill-rule="evenodd" clip-rule="evenodd" d="M102.499 46.112c-.472 0-.664.28-.835.791l-.027.086c-.062.202-.18.621-.233.794l-.012.04a5.957 5.957 0 0 1-.434 1.064 3.699 3.699 0 0 1-1.473 1.518l-.125.068c-.31.16-3.479 1.667-4.727 2.302-2.524 1.285-4.804 2.611-6.969 4.12a39.812 39.812 0 0 0-4.837 3.935l-.556.536c-5.852 5.67-7.19 7.792-7.19 11.458 0 1.75.424 5.478 1.014 9.138l.16.974c.726 4.345 1.219 6.225 2.047 6.225.472 0 .908-.3 1.686-1.024l.111-.105c.172-.167 1.663-1.612 2.19-2.085a20.22 20.22 0 0 1 1.277-1.065l.29-.22a69.466 69.466 0 0 1 2.971-2.135l.305-.205.158.69c.703 3.132 1.054 5.474 1.054 7.013 0 .708-.097 1.61-.287 2.82l-.061.38-.327 1.933-.08.504c-.047.31-.082.57-.107.8-.044.403-.055.71-.028.95.053.456.261.81.752.81l.098-.004c.931-.058 3.741-.876 6.386-2.043 4.174-1.841 8.074-4.449 11.296-7.902 3.363-3.605 4.974-8.943 5.093-15.23.092-4.848-.767-10.047-1.978-13.249a169.67 169.67 0 0 0-3.394-8.238l-.341-.761c-1.545-3.427-2.224-4.683-2.867-4.683zm.103 1.628l.13.23.11.205.059.11c.419.797.96 1.936 1.577 3.31a168.76 168.76 0 0 1 3.559 8.602c1.159 3.064 1.994 8.118 1.905 12.823-.115 6.033-1.647 11.11-4.787 14.476-3.109 3.332-6.882 5.855-10.924 7.637a32.915 32.915 0 0 1-4.18 1.528l-.377.105c-.359.096-.685.174-.941.228l-.154.032v-.022c.005-.117.016-.257.034-.42l.022-.19c.025-.2.058-.428.1-.696l.083-.51.3-1.78c.023-.134.043-.262.063-.387l.063-.41c.157-1.062.238-1.89.238-2.586 0-1.801-.437-4.543-1.308-8.245l-.308-1.288-.673.431c-1.297.83-2.736 1.849-4.317 3.054-.378.288-.757.602-1.15.947l-.197.176c-.585.526-2.274 2.165-2.224 2.118l-.087.08c-.28.26-.494.443-.667.568l-.038.026-.01-.023a12.065 12.065 0 0 1-.35-1.222l-.032-.134c-.272-1.139-.576-2.728-.868-4.519l-.102-.636c-.535-3.396-.916-6.785-.932-8.434v-.1c0-3.37 1.283-5.299 7.396-11.173a38.674 38.674 0 0 1 4.7-3.822c1.992-1.389 4.09-2.623 6.399-3.816l.435-.223c1.228-.625 4.401-2.134 4.733-2.306a4.831 4.831 0 0 0 2.077-2.056 6.76 6.76 0 0 0 .463-1.092l.067-.208.113-.388z" fill="#EFF0FD"/><path fill-rule="evenodd" clip-rule="evenodd" d="M98.28 61.024a.38.38 0 1 1 .708.272c-1.992 5.202-5.33 11.14-10.01 17.819-4.598 6.559-6.928 29.857-6.928 69.734a.38.38 0 0 1-.759 0c0-40.084 2.334-63.42 7.066-70.17 4.648-6.63 7.955-12.517 9.922-17.655z" fill="#EFF0FD"/><path fill-rule="evenodd" clip-rule="evenodd" d="M58.354 99.36v2.05c0 1.144.459 1.866 0 2.195-.458.328-6.968.541-9.914-.496-1.964-.692-3.071-2.354-3.321-4.987-7.858-5.358-12.63-8.516-14.316-9.472-2.528-1.435-6.71 1.435-6.71 0s1.61-4.326 10.058-7.011c8.447-2.685 14.645-3.21 24.203-.583 9.559 2.627 6.395 5.391 9.874 6.493 3.479 1.101 5.503 4.669 5 7.62-.501 2.953-2.13 6.241-2.633 6.241-.504 0-2.981-2.05-6.219-2.05h-6.022z" fill="#fff"/><path fill-rule="evenodd" clip-rule="evenodd" d="M58.923 101.41v-1.48h5.453c1.245 0 2.447.315 3.695.879l.197.092c.14.065 2.005 1.078 2.327 1.078.61 0 1.167-.852 1.837-2.35.61-1.365 1.117-2.951 1.358-4.364.566-3.33-1.723-7.026-5.262-8.217l-.129-.042c-.846-.268-1.199-.57-1.645-1.305l-.333-.558c-.507-.837-.738-1.118-1.355-1.659-.992-.87-2.438-1.642-4.555-2.364-.613-.21-1.28-.413-2.006-.613-9.08-2.495-15.299-2.302-24.207.489l-.32.1c-7.22 2.295-10.453 5.04-10.453 7.554 0 .758.562 1.048 1.32.97.205-.022.435-.066.73-.138l.192-.048c.264-.068.856-.228.878-.233l.328-.085c.578-.144 1.03-.232 1.475-.279.853-.089 1.538.004 2.075.308l.336.196c1.609.956 5.143 3.283 10.588 6.973l3.134 2.13.006.05c.33 2.66 1.556 4.409 3.664 5.152 2.618.922 9.57 1.042 10.434.422.31-.221.442-.541.442-.924 0-.1-.009-.204-.025-.325l-.03-.186-.056-.317a4.946 4.946 0 0 1-.093-.906zm-.72-19.805a33.5 33.5 0 0 1 1.941.593c1.986.677 3.303 1.38 4.172 2.142l.122.108c.48.434.658.688 1.214 1.627l.069.116c.583.986 1.119 1.492 2.215 1.861l.12.04c3.076.973 5.089 4.178 4.612 6.983-.223 1.311-.7 2.807-1.275 4.09a10.457 10.457 0 0 1-.72 1.374l-.042.062a4.176 4.176 0 0 1-.077.109l-.054.069-.144-.072-.753-.407-.078-.041a18.326 18.326 0 0 0-.772-.388c-1.458-.688-2.876-1.08-4.377-1.08h-6.59v2.619c0 .32.027.603.084.951l.11.648a.79.79 0 0 1 .009.075v.046l-.103.019-.056.009a9.45 9.45 0 0 1-.717.077l-.126.009a31.07 31.07 0 0 1-2.425.059l-.222-.003c-2.35-.041-4.46-.288-5.711-.728-1.737-.612-2.713-2.077-2.944-4.503l-.025-.266-2.49-1.696c-6.53-4.435-10.551-7.081-12.086-7.952-.773-.438-1.686-.561-2.754-.45a11.46 11.46 0 0 0-1.623.304l-1.296.341a5.15 5.15 0 0 1-.684.137l-.057.005.007-.06c.092-.673.601-1.498 1.645-2.385 1.587-1.346 4.209-2.66 8.001-3.866 8.877-2.821 14.912-3.041 23.88-.576z" fill="#EFF0FD"/><path fill-rule="evenodd" clip-rule="evenodd" d="M33.779 86.397a.38.38 0 0 1 .487-.226c17.599 6.472 28.009 13.581 31.22 21.383 6.026 14.64 9.046 27.129 9.046 41.772a.38.38 0 0 1-.759 0c0-14.531-2.997-26.928-8.988-41.483-3.108-7.551-13.365-14.555-30.78-20.96a.38.38 0 0 1-.226-.486z" fill="#EFF0FD"/><path fill-rule="evenodd" clip-rule="evenodd" d="M66.071 128.856c2.502 3.484 2.796 5.754.881 6.81-2.873 1.584-5.612.441-6.22 0a39.263 39.263 0 0 1-1.5-1.159c-2.104.773-3.69 1.159-4.756 1.159-1.6 0-4.694.965-4.694 2.191s-.908-1.3-.454-3.35 2.702-5.547 8.212-6.302c3.674-.503 6.518-.286 8.531.651z" fill="#fff"/><path fill-rule="evenodd" clip-rule="evenodd" d="M57.463 127.641c-4.879.669-7.991 3.585-8.69 6.743-.22.992-.17 2.172.057 3.156.102.437.223.771.375.958.263.325.786.39 1.039-.077.084-.155.106-.324.106-.563 0-.615 2.367-1.585 4.032-1.621l.206-.002c1.067-.024 2.535-.373 4.427-1.044l.11-.04.043.034c.475.378.884.692 1.23.942 1.44 1.045 4.333 1.414 6.828.038 2.322-1.281 1.98-3.918-.693-7.641l-.087-.121-.135-.063c-2.129-.991-5.076-1.215-8.848-.699zm8.104 1.615l.13.055.2.287c2.06 2.996 2.224 4.774.78 5.57a5.828 5.828 0 0 1-3.612.694c-.858-.11-1.657-.408-2-.656l-.206-.152a39.187 39.187 0 0 1-.985-.761l-.537-.431-.302.111-.39.141c-1.787.635-3.152.961-4.072.982l-.205.002c-1.583.027-3.516.644-4.504 1.541l-.035.032-.005-.039c-.085-.672-.075-1.394.059-2.001.597-2.698 3.331-5.259 7.734-5.862 3.413-.467 6.064-.298 7.95.487z" fill="#EFF0FD"/><path fill-rule="evenodd" clip-rule="evenodd" d="M65.637 130.234a.379.379 0 0 1 .508-.174c3.088 1.518 4.848 3.825 5.244 6.893.38 2.949.641 6.425.783 10.426a.379.379 0 1 1-.758.027l-.032-.844c-.147-3.626-.395-6.797-.746-9.512-.362-2.807-1.958-4.9-4.826-6.309a.379.379 0 0 1-.173-.507zM53.05 119.932a.38.38 0 0 1 .535.044l.595.704c9.533 11.299 14.298 18.1 14.395 20.65l.001.078v6.474a.379.379 0 0 1-.756.044l-.002-.044v-6.474c0-2.258-4.973-9.329-14.812-20.941a.38.38 0 0 1 .044-.535z" fill="#EFF0FD"/><path fill-rule="evenodd" clip-rule="evenodd" d="M65.978 120.221c-3.543.479-6.317 1.17-8.322 2.075-3.007 1.356-8.101-1.298-11.027-2.075-2.926-.776-5.816-2.945-8.395-5.556-2.58-2.61-6.063-4.01-6.063-4.712s3.301-.516 6.063.598c2.761 1.114 3.414 2.696 5.904 2.217 2.49-.48 2.675-2.237 7.199-1.712 4.524.525 6.238 5.015 8.702 5.665 1.642.433 3.622 1.6 5.939 3.5z" fill="#fff"/><path fill-rule="evenodd" clip-rule="evenodd" d="M34.24 112.274c.14.09.267.174.396.259a26.05 26.05 0 0 1 1.578 1.119c.6.462 1.136.929 1.615 1.414 2.871 2.906 5.713 4.872 8.47 5.655l.184.051c.306.081.648.186 1.064.326l.602.208 1.612.577.407.143c.722.252 1.317.445 1.901.613 2.406.693 4.25.832 5.703.226l.117-.05c1.948-.879 4.671-1.558 8.164-2.029l1.296-.175-1.01-.829c-2.376-1.949-4.42-3.154-6.156-3.611-.39-.103-.797-.341-1.27-.736l-.151-.128a14.462 14.462 0 0 1-.69-.653l-1.151-1.158c-1.84-1.804-3.4-2.759-5.519-3.005-2.484-.288-3.671-.029-5.318.865l-.185.102c-.81.45-1.218.626-1.868.751-.872.168-1.478.071-2.194-.299l-.109-.057c-.264-.144-1.485-.926-1.874-1.147a11.57 11.57 0 0 0-1.408-.682 15.277 15.277 0 0 0-4.232-1.02l-.214-.016c-1.472-.099-2.398.108-2.398.966 0 .527.312.815 1.416 1.536l1.221.784zm-.12-2.136a14.18 14.18 0 0 1 3.9.941c.446.18.857.381 1.273.618l.11.064c.448.267 1.5.938 1.78 1.091.988.538 1.876.703 3.063.475.708-.136 1.182-.322 1.916-.716l.35-.191c1.515-.84 2.464-1.064 4.76-.798 1.763.204 3.096.994 4.705 2.544l.368.363c.332.333.833.841.817.826l.214.213c.308.302.559.534.808.742.59.492 1.134.81 1.71.962l.133.036c1.256.36 2.746 1.18 4.458 2.465l.103.077-.18.029c-2.891.469-5.219 1.1-6.986 1.898-1.16.523-2.805.411-5.038-.232a34.408 34.408 0 0 1-1.845-.595l-2.175-.775-.313-.108a19.037 19.037 0 0 0-1.277-.395c-2.583-.686-5.33-2.567-8.136-5.406a17.119 17.119 0 0 0-1.73-1.516 26.966 26.966 0 0 0-1.421-1.018l-.224-.149a48.566 48.566 0 0 0-.514-.335l-.996-.638-.37-.245a8.15 8.15 0 0 1-.337-.239l.014-.002a6.6 6.6 0 0 1 1.06.014zm44.854 21.761v19.018h-.758v-19.018h.758z" fill="#EFF0FD"/><path fill-rule="evenodd" clip-rule="evenodd" d="M75.124 126.928c-.522.836-.822 1.504-.51 1.782.312.278 2.717-1.124 3.482-.562.766.562-2.103 4.737-1.78 5.225.324.487 6.84.607 9.261-2.462 2.422-3.068 3.197-10.69 2.81-10.69-.388 0-.482.757-1.912 1.133-1.429.375-4.576-.953-7.7.698-3.123 1.651-3.129 4.041-3.65 4.876z" fill="#fff"/><path fill-rule="evenodd" clip-rule="evenodd" d="M74.791 126.29a1.91 1.91 0 0 1-.15.337c-.776 1.242-1.015 1.966-.406 2.509.281.25.552.227 1.036.092l.13-.039.071-.022.331-.111.395-.137c.131-.045.243-.082.348-.115l.17-.053c.43-.127.748-.178.918-.172l.016.001-.008.047a2.523 2.523 0 0 1-.083.316c-.107.33-.282.737-.55 1.291l-.17.349-.49.978-.15.308a15.1 15.1 0 0 0-.16.344l-.035.077c-.309.704-.398 1.042-.162 1.398.374.564 2.354.655 4.401.351 2.503-.372 4.597-1.275 5.78-2.775 1.144-1.449 2.014-3.897 2.57-6.739a26.75 26.75 0 0 0 .426-3.023l.016-.256c.016-.287.019-.531.01-.721a1.795 1.795 0 0 0-.05-.364.745.745 0 0 0-.105-.237.594.594 0 0 0-.504-.272.88.88 0 0 0-.519.171c-.09.063-.506.486-.67.601a2.627 2.627 0 0 1-.866.379l-.065.016c-.292.064-.628.051-1.653-.049l-.24-.024c-2.404-.24-3.91-.144-5.582.661l-.144.071a4.187 4.187 0 0 0-.138.071c-1.001.529-1.77 1.164-2.35 1.9a6.577 6.577 0 0 0-.93 1.61l-.054.14c-.136.358-.349.982-.382 1.083l-.002.008zm13.06-4.934l.039-.029-.006.091a25.79 25.79 0 0 1-.407 2.888c-.525 2.679-1.343 4.98-2.347 6.253-.966 1.225-2.81 2.021-5.054 2.354-.881.131-1.767.177-2.49.144l-.116-.006a5.569 5.569 0 0 1-.495-.049l-.032-.005.007-.017c.026-.069.058-.146.096-.232l.065-.144c.058-.127.126-.269.207-.435l.581-1.164c.366-.741.597-1.263.742-1.711.24-.74.25-1.267-.208-1.605-.501-.367-1.153-.305-2.147.003l-.261.084-.826.283-.054.017.026-.059a6.65 6.65 0 0 1 .435-.787 2.59 2.59 0 0 0 .218-.455l.037-.098.19-.556c.085-.242.177-.498.23-.629.205-.495.447-.928.77-1.337.482-.61 1.127-1.144 1.99-1.6l.117-.06c1.488-.748 2.828-.843 5.102-.616l.38.037c1.174.113 1.5.114 1.98-.012a3.766 3.766 0 0 0 1.23-.548z" fill="#EFF0FD"/><path fill-rule="evenodd" clip-rule="evenodd" d="M168.714 55.738l.104.02.037.007c3.231.775 10.588 4.84 22.258 12.264a4.173 4.173 0 0 1 2.421 3.788v3.667a4.757 4.757 0 0 1-2.328 4.09l-7.982 4.74a4.117 4.117 0 0 1-6.219-3.542v-2.65c-.769-.713-1.413-.82-2.1-.44-.841.464-1.399 1.493-1.625 3.18.441.663.698 1.458.698 2.313v3.668a4.756 4.756 0 0 1-2.327 4.09l-7.983 4.74a4.116 4.116 0 0 1-6.219-3.543v-3.465c0-.093.003-.185.009-.277a.925.925 0 0 1-.331-.131l-1.027-.653c-10.84-6.865-17.802-10.699-20.718-11.442l-.072-.018-.042-.008c-1.929-.349-2.907 1.143-2.927 5.21v.129a.951.951 0 1 1-1.902 0c0-5.18 1.717-7.837 5.155-7.213l.105.02.036.008c3.228.773 10.573 4.831 22.22 12.24a4.76 4.76 0 0 1 1.714-1.889l7.919-4.994a4.165 4.165 0 0 1 4.035-.228c.413-1.605 1.192-2.757 2.364-3.403 1.078-.595 2.173-.6 3.216-.065a4.748 4.748 0 0 1 2.021-2.669l7.919-4.994c.142-.09.289-.17.439-.24-9.906-6.218-16.314-9.705-19.08-10.41l-.073-.018-.042-.008c-1.909-.345-2.886 1.112-2.925 5.083l-.002.255a.95.95 0 1 1-1.901 0c0-5.18 1.716-7.836 5.155-7.212zm1.096 25.17c-.427 0-.846.12-1.208.349l-7.92 4.994a2.856 2.856 0 0 0-1.331 2.414v3.465a2.217 2.217 0 0 0 3.347 1.907l7.982-4.74a2.854 2.854 0 0 0 1.397-2.454v-3.668a2.268 2.268 0 0 0-2.267-2.268zm19.556-11.36a2.27 2.27 0 0 0-1.209.35l-7.919 4.994a2.854 2.854 0 0 0-1.332 2.414v3.466a2.217 2.217 0 0 0 3.347 1.907l7.983-4.74a2.853 2.853 0 0 0 1.396-2.455v-3.667c0-.85-.467-1.59-1.158-1.98a.915.915 0 0 1-.227-.104l-.026-.017a2.262 2.262 0 0 0-.855-.167zM250.4 53.902l-5.312-50.755-31.676 18.102 5.311 50.687L250.4 53.902zm-7.324-46.63l5.209 44.855-27.55 15.685-5.208-44.795 27.549-15.744z" fill="#5B61ED"/><path fill-rule="evenodd" clip-rule="evenodd" d="M219.984 27.608l20.808-11.892 4.027 32.86-20.809 11.847-4.026-32.815z" fill="#EFF0FD"/><path d="M276.767 75.658c9.777 0 17.704-4.625 17.704-10.33s-7.927-10.33-17.704-10.33c-9.778 0-17.704 4.625-17.704 10.33s7.926 10.33 17.704 10.33z" fill="#5B61ED"/><path d="M276.767 75.658c9.777 0 17.704-4.625 17.704-10.33s-7.927-10.33-17.704-10.33c-9.778 0-17.704 4.625-17.704 10.33s7.926 10.33 17.704 10.33z" fill="#fff" fill-opacity=".82"/><path d="M276.735 25.195c6.458 0 11.694-3.34 11.694-7.461s-5.236-7.462-11.694-7.462c-6.459 0-11.694 3.34-11.694 7.462 0 4.12 5.235 7.461 11.694 7.461z" fill="#EFF0FD"/><path fill-rule="evenodd" clip-rule="evenodd" d="M276.734 10.272c6.459 0 11.694 3.34 11.694 7.462 0 4.12-5.235 7.461-11.694 7.461-6.459 0-11.694-3.34-11.694-7.461s5.235-7.462 11.694-7.462zm0 1.292c-5.834 0-10.403 2.915-10.403 6.17 0 3.254 4.569 6.17 10.403 6.17 5.834 0 10.403-2.916 10.403-6.17 0-3.255-4.569-6.17-10.403-6.17z" fill="#5B61ED"/><path fill-rule="evenodd" clip-rule="evenodd" d="M265.137 10.884L263.76 7.64a1.138 1.138 0 0 1 .602-1.492l2.161-.917a1.138 1.138 0 0 1 1.492.603l1.377 3.244" fill="#fff"/><path fill-rule="evenodd" clip-rule="evenodd" d="M266.129 4.696a1.937 1.937 0 0 1 2.502.944l.038.083 1.317 3.103-1.189.505-1.317-3.103a.645.645 0 0 0-.788-.364l-.058.021-1.878.798a.646.646 0 0 0-.364.788l.022.058 1.317 3.103-1.189.505-1.317-3.103a1.937 1.937 0 0 1 .943-2.503l.083-.037 1.878-.798z" fill="#EFF0FD"/><path fill-rule="evenodd" clip-rule="evenodd" d="M276.91 26.793l-7.651-18.026c-.604.627-1.256 1.089-1.956 1.386a5.53 5.53 0 0 1-2.299.42l7.335 17.282c.458-.01 1.13-.106 2.014-.287.884-.181 1.736-.44 2.557-.775z" fill="#fff"/><path fill-rule="evenodd" clip-rule="evenodd" d="M264.021 9.91l7.895 18.602.437-.01c.506-.011 1.211-.112 2.13-.3.923-.19 1.814-.46 2.671-.81l.605-.248-8.287-19.527-.677.703c-.546.566-1.127.977-1.744 1.24-.614.26-1.29.384-2.034.37l-.996-.02zm5.001-.049l7.031 16.568-.282.097a13.84 13.84 0 0 1-1.548.41l-.167.034c-.431.086-.804.149-1.115.189l-.188.022-6.794-16.008.182-.025a5.885 5.885 0 0 0 1.415-.4 6.176 6.176 0 0 0 1.435-.862l.031-.025z" fill="#5B61ED"/><path fill-rule="evenodd" clip-rule="evenodd" d="M284.058 7.31l1.377-3.245a1.137 1.137 0 0 1 1.492-.603l2.16.918c.579.245.848.914.603 1.492l-1.377 3.245" fill="#fff"/><path fill-rule="evenodd" clip-rule="evenodd" d="M289.198 3.726a1.937 1.937 0 0 1 1.06 2.456l-.034.084-1.316 3.104-1.189-.505 1.317-3.103a.646.646 0 0 0-.286-.82l-.056-.027-1.878-.798a.646.646 0 0 0-.82.286l-.027.057-1.316 3.103-1.189-.505 1.317-3.103a1.936 1.936 0 0 1 2.454-1.06l.085.033 1.878.798z" fill="#EFF0FD"/><path fill-rule="evenodd" clip-rule="evenodd" d="M282.25 23.406l6.196-14.602c-.87 0-1.655-.147-2.355-.445a5.532 5.532 0 0 1-1.9-1.361l-7.334 17.282 5.393-.874z" fill="#fff"/><path fill-rule="evenodd" clip-rule="evenodd" d="M283.986 5.829l-7.894 18.603.312.308c.359.356.921.793 1.695 1.324.777.533 1.59.986 2.438 1.359l.599.263 8.286-19.527h-.976c-.786.001-1.486-.131-2.103-.393a4.895 4.895 0 0 1-1.679-1.207l-.678-.73zm3.509 3.565l-7.031 16.568-.265-.136a13.89 13.89 0 0 1-1.371-.828l-.14-.097c-.361-.25-.665-.475-.91-.672l-.146-.12 6.792-16.008.144.113c.398.303.822.55 1.271.741a6.175 6.175 0 0 0 1.617.434l.039.005z" fill="#5B61ED"/><path fill-rule="evenodd" clip-rule="evenodd" d="M271.54 5.745V2.22c0-.628.51-1.138 1.138-1.138h2.347c.628 0 1.138.51 1.138 1.138v3.525" fill="#fff"/><path fill-rule="evenodd" clip-rule="evenodd" d="M274.871.436c1.039 0 1.887.819 1.935 1.846l.002.091v3.372h-1.291V2.373a.646.646 0 0 0-.584-.642l-.062-.003h-2.04a.646.646 0 0 0-.643.583l-.003.062v3.372h-1.291V2.373c0-1.039.819-1.887 1.846-1.935l.091-.002h2.04z" fill="#EFF0FD"/><path fill-rule="evenodd" clip-rule="evenodd" d="M276.163 24.99V5.406c-.801.34-1.581.511-2.342.511-.76 0-1.521-.17-2.281-.51v18.775c.426.17 1.082.344 1.967.522.884.18 1.77.274 2.656.286z" fill="#fff"/><path fill-rule="evenodd" clip-rule="evenodd" d="M270.894 4.41v20.21l.407.162c.47.186 1.158.37 2.077.555.924.187 1.85.286 2.776.298l.654.009V4.43l-.898.382c-.724.308-1.419.46-2.089.46-.667 0-1.338-.151-2.017-.455l-.91-.408zm4.623 1.91v18l-.298-.023a13.8 13.8 0 0 1-1.585-.226l-.167-.034c-.43-.09-.798-.178-1.1-.263l-.182-.053V6.33l.177.047c.485.124.971.186 1.459.186.546 0 1.1-.078 1.658-.233l.038-.01z" fill="#5B61ED"/><path fill-rule="evenodd" clip-rule="evenodd" d="M265.45 18.99c-1.346 9.198-5.776 36.585-5.776 42.199 0 6.177 7.632 11.184 17.047 11.184 9.415 0 17.048-5.007 17.048-11.184-.565-3.964-2.34-18.184-5.323-42.661-.613 2.16-1.682 3.597-3.208 4.31-6.333 2.958-9.837 1.655-11.387 1.527-8.097-.67-8.266-6.297-8.401-5.374z" fill="#fff"/><path fill-rule="evenodd" clip-rule="evenodd" d="M265.113 16.811l1.281.163-.038.284c-.156 1.127-.641 4.362-1.175 7.892 2.136 2.714 6.582 4.505 11.561 4.505 4.869 0 9.231-1.712 11.421-4.332l-1.06-7.715 1.279-.175 5.674 41.246.352 2.5.006.091c0 6.605-7.964 11.83-17.693 11.83-9.728 0-17.693-5.225-17.693-11.83l.001-.17c.036-2.714.904-9.593 2.476-20.272l.345-2.33 2.745-18.13c.247-1.652.433-2.915.502-3.434l.016-.123zm-3.912 35.494l-.013.104c-.569 4.405-.869 7.397-.869 8.861 0 5.749 7.301 10.538 16.402 10.538 9.011 0 16.256-4.694 16.4-10.366l.002-.13-1.195-8.595c-3.147 3.516-8.867 5.738-15.187 5.738-6.576 0-12.489-2.405-15.54-6.15zm.502-3.75l-.021.155c-.081.59-.159 1.163-.233 1.717 2.426 3.998 8.448 6.736 15.292 6.736 6.519 0 12.311-2.485 14.943-6.206l-.092-.656-.18-1.31c-3.018 3.555-8.556 5.807-14.678 5.807-6.381 0-12.114-2.447-15.031-6.244zm2.742-18.553l-.023.152c-.551 3.628-1.008 6.616-1.03 6.769l-.557 3.738a990.113 990.113 0 0 0-.862 5.963l-.042-.076c2.239 4.12 8.112 6.958 14.803 6.958 6.331 0 11.946-2.54 14.429-6.332l-2.33-16.97c-2.709 2.549-7.189 4.115-12.089 4.115-5.031 0-9.617-1.652-12.299-4.317zm.486-3.198l-.021.136-.214 1.412c2.241 2.818 6.868 4.675 12.048 4.675 5.038 0 9.558-1.756 11.865-4.453l-.221-1.61c-2.602 2.466-6.921 3.982-11.646 3.982-4.829 0-9.232-1.584-11.811-4.142z" fill="#5B61ED"/><path fill-rule="evenodd" clip-rule="evenodd" d="M276.79 25.197c6.323 0 11.539-3.288 11.643-7.534l.001-.13h-1.291c0 3.443-4.591 6.372-10.353 6.372s-10.352-2.929-10.352-6.371c0-.327.04-.651.121-.97l.044-.16-1.238-.367a5.25 5.25 0 0 0-.219 1.497c0 4.309 5.258 7.663 11.644 7.663z" fill="#5B61ED"/><path fill-rule="evenodd" clip-rule="evenodd" d="M231.254 26.089l-4.499 27.995 14.995-8.635-10.496-19.36z" fill="#fff"/><path fill-rule="evenodd" clip-rule="evenodd" d="M448.939 654.199c4.374 4.55 4.374 7.755 0 9.614-6.562 2.79-7.134 16.622-27.188 19.78-20.054 3.158-67.997 7.856-71.124-9.2-2.085-11.37-.199-17.056 5.658-17.056 20.154-.937 30.231-3.647 30.231-8.127 0-6.72-12.214-4.953-13.791-8.753-1.577-3.799-.527-8.363.855-9.737.921-.915 26.041 6.911 75.359 23.479z" fill="#5B61ED"/><path fill-rule="evenodd" clip-rule="evenodd" d="M448.939 654.199c4.374 4.55 4.374 7.755 0 9.614-6.562 2.79-7.134 16.622-27.188 19.78-20.054 3.158-67.997 7.856-71.124-9.2-2.085-11.37-.199-17.056 5.658-17.056 20.154-.937 30.231-3.647 30.231-8.127 0-6.72-12.214-4.953-13.791-8.753-1.577-3.799-.527-8.363.855-9.737.921-.915 26.041 6.911 75.359 23.479z" fill="#fff" fill-opacity=".82"/><path fill-rule="evenodd" clip-rule="evenodd" d="M448.938 636.667v13.462c0 5.053-4.906 8.474-14.786 6.764-9.881-1.711-62.204-18.331-62.204-23.429 0-5.098 8.154-18.921 23.325-17.363 10.113 1.039 28.002 7.894 53.665 20.566z" fill="#5B61ED"/><path fill-rule="evenodd" clip-rule="evenodd" d="M431.956 389.576c9.467 15.563 13.442 32.075 11.923 49.537-2.279 26.192-5.804 36.172-5.804 46.31 0 10.138-.057 44.01 3.369 56.913 3.427 12.904 16.309 102.868 2.435 102.868-13.875 0-34.244 9.392-37.638-9.489-3.394-18.881-2.132-84.615-5.915-99.934-2.523-10.212-10.135-56.639-22.836-139.278l54.466-6.927z" fill="#fff"/><path fill-rule="evenodd" clip-rule="evenodd" d="M432.765 389.084l-.319-.526-56.041 7.127 1.648 10.712c11.687 75.802 18.772 118.864 21.275 129.294l.077.318c.871 3.528 1.522 10.007 2.032 19.535l.104 2.015c.342 6.831.569 13.668.964 27.741l.218 7.641c.745 25.448 1.31 35.851 2.585 42.942 1.205 6.708 4.561 10.494 9.921 11.922l.296.076c3.755.94 7.791.787 14.841-.213l2.426-.357 1.963-.29c4.491-.652 6.648-.868 9.124-.868 4.033 0 6.118-5.346 6.9-15.131l.044-.584c.589-8.047.299-18.971-.728-31.903l-.104-1.279c-1.717-20.774-5.45-46.706-7.565-54.914l-.151-.579c-1.389-5.469-2.291-14.912-2.788-27.254l-.067-1.749c-.293-7.952-.39-15.718-.397-24.964v-2.515l.001-.144c.02-3.126.351-6.241 1.123-11.138l.267-1.658c.325-1.982.911-5.512 1.049-6.361l.197-1.218c.449-2.799.831-5.337 1.201-8.015l.175-1.28a347.071 347.071 0 0 0 1.787-16.271c1.537-17.665-2.486-34.379-12.058-50.112zm-1.302 1.512l.238.399c8.963 15.12 12.705 31.123 11.233 48.036a342.804 342.804 0 0 1-1.951 17.456l-.159 1.134a371.551 371.551 0 0 1-1.134 7.443l-1.321 8.039-.143.903c-.736 4.714-1.064 7.815-1.097 10.924l-.002.494.001 3.049c.011 9.197.115 16.952.419 24.941l.046 1.171c.507 12.604 1.431 22.209 2.891 27.827l.044.169c2.112 7.952 6.002 35.02 7.676 56.104l.109 1.401c.943 12.386 1.184 22.83.598 30.498l-.022.287c-.701 8.763-2.502 13.385-5.01 13.385l-.387.002c-2.692.024-5.116.304-10.462 1.099l-1.803.269c-7.699 1.136-11.809 1.332-15.51.346-4.635-1.236-7.465-4.428-8.543-10.425-1.251-6.959-1.815-17.365-2.557-42.689l-.478-16.662c-.258-8.59-.455-13.837-.726-19.184l-.082-1.575c-.505-9.423-1.146-15.899-2.023-19.624l-.139-.575c-2.459-10.25-9.434-52.603-20.906-126.952l-1.688-10.965 52.888-6.725z" fill="#5B61ED"/><path fill-rule="evenodd" clip-rule="evenodd" d="M426.941 629.347c4.952 6.927 8.021 12.309 9.208 16.145 1.781 5.754.668 11.432-9.208 18.819-9.876 7.387-21.667 3.135-32.292 9.192s-21.104 6.878-31.031 3.804c-9.928-3.074-14.899-12-12.315-17.687 2.584-5.688 6.385-3.155 21.327-8.247 9.961-3.395 17.301-7.8 22.019-13.215l32.292-8.811z" fill="#5B61ED"/><path fill-rule="evenodd" clip-rule="evenodd" d="M274.952 450.939c.283-.426-3.304 3.547-3.656 2.134-.352-1.412 3.472-7.877 6.738-12.222 3.267-4.345 6.186-5.945 9.861-8.836.572-.449 1.294-.922 2.124-1.419-6.261 2.826-9.736 4.121-10.424 3.884-1.567-.539 4.737-6.475 8.511-8.557 2.814-1.552 6.715-1.535 11.697-.89 2.398-1.505 4.628-3.157 6.192-4.972 1.239-1.438 7.098-7.499 17.575-18.184 1.525.842 2.41 1.644 2.656 2.406.171.531 1.63 4.166 4.375 10.907l-16.102 18.312c-6.061 6.175-10.517 10.68-13.369 13.515-3.026 3.009-10.035 6.202-12.145 8.281-1.987 1.956-5.102 5.224-6.146 4.45-1.043-.774.488-1.831 2.766-4.895 2.277-3.064 4.728-5.001 4.728-5.001 1.739-2.614-3.451-.859-7.278 3.632-2.539 2.98-5.412 5.814-6.731 6.556-2.052 1.153.914-5.654.914-5.654s-5.423 5.933-6.225 4.789c-.623-.888 3.939-8.236 3.939-8.236z" fill="#fff"/><path fill-rule="evenodd" clip-rule="evenodd" d="M292.633 453.726l3.232-1.946c1.457-.882 2.542-1.576 3.503-2.258.95-.674 1.725-1.303 2.335-1.909l1.935-1.934c2.794-2.801 6.607-6.664 11.441-11.588l.028-.031 16.412-18.664-2.961-7.298c-.862-2.139-1.376-3.44-1.535-3.881l-.038-.11c-.32-.993-1.331-1.909-3.011-2.837l-.504-.278-5.885 6.011c-6.901 7.064-10.908 11.231-12.045 12.527l-.216.246c-1.273 1.434-3.055 2.853-5.379 4.35l-.279.177-.254-.031c-5.462-.667-8.961-.43-11.635 1.044-1.877 1.035-4.435 3.035-6.422 4.979-.994.972-1.768 1.857-2.221 2.559-.275.425-.444.797-.492 1.144-.077.564.189 1.066.744 1.257l.032.011c.605.179 2.005-.179 4.403-1.112l.185-.073-.332.252c-1.492 1.136-2.552 2.037-3.632 3.126a28.62 28.62 0 0 0-2.576 2.993l-.341.458c-3.668 4.967-6.927 10.802-6.527 12.405l.021.076c.225.743.915.953 1.619.701l.079-.03-.196.356c-1.623 2.976-2.244 4.462-1.691 5.251.501.713 1.256.582 2.157.05.555-.327 1.225-.85 1.997-1.536l.186-.168c.126-.113.253-.231.382-.351l.163-.153-.022.072c-.247.807-.392 1.467-.411 1.967-.043 1.144.748 1.829 1.851 1.209 1.392-.782 4.277-3.602 6.937-6.725 1.666-1.955 3.778-3.554 5.45-4.276l.08-.034c.099-.041.194-.078.282-.109l.097-.034-.057.049c-.293.251-.618.543-.968.875a31.215 31.215 0 0 0-3.331 3.701l-.339.451c-.747.976-2.296 2.855-2.484 3.116-.787 1.09-.897 1.958.025 2.642 1.053.781 2.376-.013 4.564-2.025l.118-.109c.153-.142.311-.29.474-.446l.415-.399 1.558-1.54c.461-.453 1.233-1.012 2.386-1.742l.245-.153.448-.275zm2.225-3.113c-.731.437-2.944 1.765-3.571 2.159l-.477.303c-1.016.655-1.739 1.186-2.245 1.668l-1.703 1.678-.327.315c-.158.151-.31.295-.458.431l-.288.264c-.705.637-1.294 1.106-1.776 1.405l-.09.055c-.236.139-.43.225-.572.259l-.023.005.009-.022.039-.078c.045-.085.113-.194.205-.326l.049-.067c.165-.23 1.925-2.362 2.621-3.298.178-.239.36-.476.546-.71a29.749 29.749 0 0 1 2.8-3.047l.278-.26c.181-.166.353-.321.515-.461l.28-.241.147-.121.119-.093.067-.101c.64-.963.721-1.88-.192-2.282-.558-.245-1.33-.1-2.293.316-1.891.818-4.189 2.558-6.002 4.685l-.26.303-.284.327c-1.99 2.278-4.05 4.324-5.319 5.303l-.194.145c.073-.377.203-.858.383-1.414l.05-.154c.091-.271.19-.556.298-.849.129-.352.265-.705.402-1.048l.185-.454.194-.462 1.823-4.182-3.197 3.496-.271.289-.33.346a51.535 51.535 0 0 1-1.691 1.683c-.251.237-.495.461-.73.67l-.13.116c-.562.493-1.054.881-1.452 1.138l-.079.051.021-.06c.047-.131.104-.274.168-.429.3-.717.763-1.644 1.35-2.719.459-.843.968-1.727 1.485-2.598l.313-.522.37-.608a.805.805 0 0 0 .093-.178l.024-.052c.033-.079.022-.144-.041-.532l-.104-.149c-.128-.176-.178-.193-.448-.287l-.142-.008c-.107-.005-.129.002-.218.027l-.126.05a.423.423 0 0 0-.074.042l-.053.037-.049.039-.089.079-.602.575c-.21.198-.378.353-.564.519l-.071.062c-.175.154-.342.295-.5.421l-.084.066a6.837 6.837 0 0 1-.386.281l-.069.045c.467-1.789 3.523-7.049 6.56-11.089a27.083 27.083 0 0 1 2.441-2.837c1.074-1.083 2.136-1.978 3.698-3.157l.96-.717.882-.655.523-.392c.332-.25.633-.48.928-.709l.292-.229c.511-.401 1.181-.847 2.045-1.365l-.702-1.343-.845.38c-4.206 1.878-7.147 3.033-8.391 3.378l-.153.041.052-.082c.381-.589 1.088-1.398 2.008-2.298 1.895-1.854 4.349-3.772 6.094-4.734 2.396-1.322 5.766-1.511 11.234-.803l.27.035.23-.144c2.688-1.687 4.741-3.289 6.218-4.953l.31-.355c1.184-1.331 4.957-5.254 11.296-11.747l5.669-5.793.02.012c1.006.614 1.591 1.172 1.766 1.622l.108.305c.298.805 1.212 3.092 2.761 6.91l1.367 3.364-15.778 17.944-3.239 3.296a1386.855 1386.855 0 0 1-10.109 10.197c-.542.54-1.256 1.119-2.143 1.748l-.297.209c-.706.489-1.498.999-2.473 1.598l-.862.522z" fill="#EFF0FD"/><path fill-rule="evenodd" clip-rule="evenodd" d="M285.248 443.722a.836.836 0 1 1 1.026 1.323c-3.156 2.451-5.267 4.931-9.084 10.456a.837.837 0 1 1-1.377-.953l.636-.914c3.519-5.027 5.663-7.477 8.799-9.912zm-1.113-4.838a.838.838 0 0 1 .779 1.482c-2.534 1.334-4.679 3.621-7.561 7.674l-.296.419-1.64 2.358a.836.836 0 1 1-1.374-.957l1.545-2.223.199-.284c3.127-4.432 5.453-6.945 8.348-8.469z" fill="#EFF0FD"/><path fill-rule="evenodd" clip-rule="evenodd" d="M362.328 407.637c-10.519 38.609-17.506 68.446-20.961 89.513-5.183 31.599-9.843 49.949-4.922 59.572 4.922 9.623 40.593 72.711 47.052 88.482 6.459 15.772 5.751 17.936 14.805 17.936 9.053 0 26.229 2.917 35.911-21.182 0-15.25-39.435-75.335-51.275-92.784-11.84-17.449 51.029-72.033 51.029-125.187 0-35.435-23.88-40.886-71.639-16.35z" fill="#fff"/><path fill-rule="evenodd" clip-rule="evenodd" d="M428.352 456.692c-8.337 32.509-13.245 53.231-14.724 62.166-1.478 8.935.71 38.836 6.565 89.704l-16.73-29.16c.046-14.088-.339-24.708-1.153-31.862-.815-7.153-1.814-13.418-2.999-18.793l-3-15.626a21721.253 21721.253 0 0 1 16.02-25.543c1.928-3.055 9.999-17.657 11.538-21.481 1.027-2.549 2.521-5.684 4.483-9.405z" fill="#5B61ED"/><path opacity=".8" fill-rule="evenodd" clip-rule="evenodd" d="M428.352 456.692c-8.337 32.509-13.245 53.231-14.724 62.166-1.478 8.935.71 38.836 6.565 89.704l-16.73-29.16c.046-14.088-.339-24.708-1.153-31.862-.815-7.153-1.814-13.418-2.999-18.793l-3-15.626a21721.253 21721.253 0 0 1 16.02-25.543c1.928-3.055 9.999-17.657 11.538-21.481 1.027-2.549 2.521-5.684 4.483-9.405z" fill="#fff"/><path fill-rule="evenodd" clip-rule="evenodd" d="M361.895 406.795l-.372.191-.11.403c-10.421 38.251-17.38 67.905-20.877 88.972l-.493 2.986a1272.48 1272.48 0 0 1-.895 5.301l-2.541 14.665c-1.206 7.032-1.922 11.609-2.431 15.749l-.077.638c-1.215 10.241-.875 16.687 1.431 21.313l.072.142c1.55 3.031 20.585 37.599 23.756 43.417l2.156 3.961c11.286 20.776 18.534 34.75 21.106 41.032l.383.939c.338.833.672 1.668 1.03 2.569l1.883 4.778.325.814c.836 2.073 1.419 3.385 2.003 4.475l.055.102c2.052 3.775 4.174 4.803 9.63 4.846l.998.005c.211.003.44.007.726.014l2.124.054c6.817.158 10.756-.213 15.384-1.978 7.522-2.869 13.51-9.038 17.803-19.55l.198-.49v-.184c0-7.004-7.647-22.929-20.927-45.37l-.404-.682c-9.394-15.832-20.887-33.675-30.108-47.265-2.699-3.977-1.262-10.501 4.176-20.673l.327-.609c2.025-3.738 4.511-7.875 8.122-13.596l4.495-7.058 2.288-3.58a757.484 757.484 0 0 0 5.385-8.553l.657-1.063c6.945-11.283 12.109-20.712 16.227-30.069 5.215-11.852 8.372-22.898 9.259-33.458.17-2.02.256-4.018.256-5.994 0-36.357-24.732-42.002-73.02-17.194zm33.659 104.679l-1.008 1.593c-3.656 5.8-6.156 9.978-8.209 13.802l-.11.205c-5.754 10.764-7.316 17.854-4.073 22.634l.806 1.189c9.058 13.402 20.14 30.642 29.241 45.979l.397.67c12.791 21.614 20.361 37.276 20.658 44.012l.007.221-.178.435c-4.089 9.858-9.655 15.548-16.599 18.196-4.405 1.68-8.2 2.017-14.98 1.846l-2.262-.055a41.504 41.504 0 0 0-.675-.008l-.617-.002c-4.821-.032-6.305-.761-7.987-3.856l-.102-.191c-.496-.936-1.01-2.088-1.719-3.832l-.641-1.604-1.293-3.287a400.423 400.423 0 0 0-1.45-3.631l-.385-.944c-2.664-6.504-10.168-20.944-21.898-42.512l-2.047-3.756c-4.454-8.14-21.682-39.436-23.14-42.287-2.153-4.21-2.494-10.376-1.306-20.38l.124-1.016c.51-4.067 1.229-8.634 2.426-15.604l2.182-12.573c.591-3.429 1.094-6.411 1.587-9.414l.104-.633.211-1.257c3.477-20.483 10.146-48.901 20.005-85.245l.509-1.876-.371.189c47.231-24.264 70.258-19.009 70.258 15.507 0 1.923-.084 3.868-.249 5.835-.868 10.33-3.969 21.179-9.106 32.853-4.204 9.554-9.524 19.209-16.76 30.897l-1.004 1.616a766.947 766.947 0 0 1-3.514 5.574l-6.832 10.71z" fill="#5B61ED"/><path d="M378.262 307.96c-.335 2.271-1.977 10.62-4.928 25.046-2.95 14.427-6.315 24.867-10.095 31.318" stroke="#6163F1" stroke-width="1.138" stroke-linecap="round"/><path fill-rule="evenodd" clip-rule="evenodd" d="M405.481 204.603l18.362 22.758-29.478 18.197c-1.936-4.922-3.322-8.246-4.158-9.971-1.074-2.219-3.409-4.18-3.409-5.132 0-2.063-1.1-5.089-3.301-9.08 3.263-7.08 6.568-12.395 9.916-15.947 3.349-3.552 7.371-3.827 12.068-.825z" fill="#fff"/><path fill-rule="evenodd" clip-rule="evenodd" d="M392.724 204.777c-3.371 3.575-6.672 8.853-9.92 15.838l-.368.798.231.42c2.13 3.862 3.183 6.76 3.183 8.622 0 .531.238 1.012.721 1.675l.083.113c.236.318 1.218 1.531 1.366 1.722.611.783 1.036 1.42 1.334 2.036l.132.276c.789 1.67 2.025 4.635 3.702 8.881l.709 1.803 31.346-19.349-20.019-25.623-.222-.096c-4.504-1.938-8.664-.95-12.278 2.884zm11.309-1.233l18.411 23.566-27.614 17.045-.719-1.807c-1.361-3.396-2.377-5.784-3.05-7.175-.343-.708-.795-1.397-1.411-2.201l-.189-.244c-.264-.332-1.094-1.36-1.287-1.618l-.119-.165a3.44 3.44 0 0 1-.248-.392l-.048-.094c-.009-.018-.012-.02-.012-.004l-.002-.127c-.038-2.082-1.019-4.898-2.927-8.503l-.26-.486.128-.272c3.116-6.642 6.26-11.639 9.417-14.988 2.998-3.18 6.217-4.012 9.842-2.571l.088.036z" fill="#EFF0FD"/><path fill-rule="evenodd" clip-rule="evenodd" d="M426.111 225.837c-.259-5.708-.919-8.562-1.979-8.562-1.591 0-20.598 12.271-29.179 15.528-5.682 2.157-26.498 18.979-26.498 20.094 0 .743 3.559-1.04 10.676-5.349-20.653 19.502-33.32 37.646-38.002 54.43-7.023 25.176-6.221 62.106-12.113 74.853-3.928 8.497-9.708 18.647-17.34 30.448l18.812 17.898c15.911-23.13 25.962-39.245 30.155-48.346 4.193-9.102 3.029 3.995-3.492 39.289 7.212 11.818 20.509 16.584 39.889 14.295 29.071-3.432 43.285-29.634 43.285-37.657 0-8.023-6.572-25.69-4.264-36.152 2.308-10.463 23.181-69.547 23.181-86.628 0-17.081-4.678-31.454-12.74-37.175-5.374-3.814-12.171-6.136-20.391-6.966z" fill="#fff"/><path fill-rule="evenodd" clip-rule="evenodd" d="M381.843 306.046c.936 34.005-.577 55.034-4.54 63.087-3.962 8.053-9.438 17.095-16.427 27.127 1.532-9.664 2.297-15.494 2.297-17.492 0-1.997-.191-3.785-.573-5.364 1.857-3.882 3.347-7.393 4.47-10.534 1.123-3.142 4.534-15.767 10.233-37.878l4.54-18.946z" fill="#5B61ED"/><path opacity=".8" fill-rule="evenodd" clip-rule="evenodd" d="M381.843 306.046c.936 34.005-.577 55.034-4.54 63.087-3.962 8.053-9.438 17.095-16.427 27.127 1.532-9.664 2.297-15.494 2.297-17.492 0-1.997-.191-3.785-.573-5.364 1.857-3.882 3.347-7.393 4.47-10.534 1.123-3.142 4.534-15.767 10.233-37.878l4.54-18.946z" fill="#fff"/><path fill-rule="evenodd" clip-rule="evenodd" d="M424.132 216.516l-.065.003c-.562.04-1.693.586-3.998 1.876l-1.842 1.044c-1.846 1.062-7.116 4.113-9.076 5.233l-1.29.732-.717.405c-5.356 3.013-9.36 5.07-12.164 6.17l-.296.115c-2.662 1.01-8.629 5.127-15.577 10.548l-.581.455a205.368 205.368 0 0 0-7.015 5.736l-.726.631c-2.215 1.936-3.088 2.836-3.088 3.433 0 .504.364.854.83.913.238.03.494-.01.808-.101.471-.138 1.124-.416 1.976-.838l.274-.137.336-.172a67.886 67.886 0 0 0 1.745-.938l.381-.213-.262.26c-17.906 17.826-29.04 34.521-33.386 50.103-2.008 7.195-3.482 15.585-4.787 26.303l-.203 1.7a560.217 560.217 0 0 0-.722 6.49l-1.224 11.946c-1.655 15.984-2.901 23.465-5.136 28.299l-.325.699c-3.848 8.201-9.399 17.927-16.651 29.173l-.654 1.012 19.912 18.943 1.452-2.113c15.23-22.197 24.939-37.787 29.143-46.801l.196-.422.141-.299c.278-.577.525-1.037.739-1.376l.034-.055.006.065.01.171c.043.837.004 2.221-.154 4.053l-.017.198c-.568 6.387-2.421 18.117-5.56 35.171l-.247 1.337.152.247c7.386 12.104 20.976 16.974 40.625 14.654 13.286-1.568 24.53-7.925 33.019-17.353 6.522-7.244 10.848-15.993 10.934-20.91l.001-.148c0-2.537-.217-3.994-1.759-11.33l-.867-4.103a183.427 183.427 0 0 1-.948-4.799l-.118-.659c-1.129-6.425-1.402-11.211-.63-14.911l.04-.187c.421-1.905 1.423-5.339 3.348-11.541l5.279-16.841c.998-3.198 1.878-6.04 2.729-8.825l.792-2.599c.369-1.217.729-2.409 1.079-3.579l.416-1.393c6.183-20.778 9.556-34.921 9.556-42.013 0-17.567-4.871-31.983-13.059-37.794l-.254-.179c-5.193-3.611-11.647-5.874-19.353-6.797l-.497-.057-.03-.549c-.32-5.503-1.025-8.086-2.675-8.086zm-.048 1.526l.013.013a.988.988 0 0 1 .105.147c.167.277.332.742.481 1.385l.057.257c.278 1.329.48 3.257.602 5.774l.041.908.652.066c8.096.818 14.768 3.097 20.028 6.83 7.701 5.465 12.42 19.431 12.42 36.556 0 6.882-3.36 20.969-9.493 41.58l-.415 1.391a1205.23 1205.23 0 0 1-1.752 5.79l-1.06 3.451c-.803 2.603-1.656 5.343-2.628 8.445l-3.837 12.226c-2.335 7.477-3.503 11.428-3.978 13.581-.875 3.968-.604 8.973.578 15.689l.119.667a184.5 184.5 0 0 0 1.011 5.104l.95 4.5c1.382 6.602 1.588 8.044 1.588 10.356 0 4.455-4.186 12.979-10.545 20.042-8.254 9.167-19.171 15.339-32.07 16.862l-.571.065c-18.61 2.076-31.354-2.49-38.369-13.659l-.061-.099.426-2.32c2.974-16.258 4.739-27.504 5.294-33.755l.048-.564c.26-3.179.192-4.933-.33-5.622-.593-.781-1.396-.496-2.015.275-.386.481-.828 1.265-1.344 2.37l-.202.434c-4.116 8.825-13.642 24.142-28.564 45.92l-.897 1.307-17.712-16.851.283-.44c7.237-11.254 12.771-20.992 16.602-29.217l.165-.357c2.335-5.051 3.592-12.587 5.267-28.769l1.012-9.925.254-2.417c.234-2.199.454-4.178.678-6.083l.079-.67c1.328-11.142 2.82-19.769 4.866-27.103 4.639-16.631 17.231-34.666 37.791-54.082l5.177-4.889-6.325 3.829c-3.106 1.877-5.513 3.259-7.216 4.142l-.347.177.043-.038c.339-.307.717-.642 1.13-1.002l.18-.155c1.931-1.674 4.485-3.766 7.17-5.873l.997-.779c6.561-5.098 12.232-9.002 14.684-9.969l.078-.03c2.859-1.085 6.911-3.151 12.377-6.219l1.376-.776 1.229-.7c2.409-1.38 8.193-4.731 9.253-5.334l.867-.491c2.024-1.136 3.34-1.813 3.717-1.938l.043-.013z" fill="#5B61ED"/><path fill-rule="evenodd" clip-rule="evenodd" d="M360.537 158.576c-3.391 8.149-4.43 14.515-3.117 19.096 1.969 6.871 2.872 6.111 4.373 11.352 1.502 5.241-.129 7.365 3.029 14.478 3.159 7.112 6.827 11.54 7.871 15.184 1.045 3.644.134 4.835 2.327 5.962 2.192 1.126 12.975-.652 18.586-6.54 5.611-5.888 25.771-23.018 16.482-42.941-6.193-13.282-22.71-18.812-49.551-16.591z" fill="#fff"/><path fill-rule="evenodd" clip-rule="evenodd" d="M359.411 159.041a.758.758 0 1 1 1.421.532c-2.623 7.019-3.686 12.542-3.208 16.543.221 1.856.662 3.356 1.489 5.324l.217.506c.271.623.839 1.904 1.004 2.289 1.279 2.986 2.047 5.547 2.52 9.014l.045.339c.572 4.439 2.209 8.928 4.665 13.518l.177.328c1.207 2.224 1.918 3.359 4.03 6.588.666 1.019 1.104 2.195 1.44 3.682l.125.584c.063.308.113.595.245 1.37l.132.769c.415 2.351.786 3.216 1.573 3.51 1.756.658 5.575.411 8.381-1.087 4.017-2.143 6.155-6.487 5.57-13.541a.759.759 0 0 1 1.512-.126c.633 7.635-1.794 12.566-6.368 15.007-3.191 1.702-7.464 1.979-9.627 1.169-1.504-.563-2.018-1.738-2.532-4.649l-.289-1.683a22.006 22.006 0 0 0-.158-.789c-.306-1.423-.694-2.499-1.274-3.385l-1.147-1.763c-1.304-2.02-1.964-3.122-2.946-4.932-2.576-4.745-4.32-9.403-4.97-14.052l-.044-.324c-.435-3.381-1.14-5.831-2.337-8.672l-.17-.399c-.248-.57-.898-2.038-1.063-2.425-.948-2.215-1.456-3.893-1.706-5.99-.512-4.286.593-10.029 3.293-17.255z" fill="#EFF0FD"/><path fill-rule="evenodd" clip-rule="evenodd" d="M360.316 143.45c-8.487 1.203-11.028 3.164-12.537 7.207-1.509 4.044 5.939 11.415 12.502 9.532 6.562-1.882 5.805 2.014 6.119 8.816.314 6.802 4.725 4.245 7.007 12.206 2.281 7.961-1.084 17.218 1.709 18.209 2.793.991 5.187-2.553 5.469-9.544.282-6.991-2.863-9.903 3.248-11.657 6.112-1.753 5.691 7.141 6.638 10.443.631 2.202.069 4.481-1.686 6.836 9.264 8.159 16.135 11.596 20.614 10.311 6.718-1.927 13.037-10.707 12.536-19.822-.501-9.115 5.844-25.777-4.366-37.502-10.21-11.726-18.713-17.325-31.884-13.546s-16.881 7.308-25.369 8.511zm95.358 129.156a.569.569 0 0 1 .609.526 77.67 77.67 0 0 1-.273 13.997c-.624 5.751-1.505 10.709-2.645 14.876a.569.569 0 1 1-1.097-.301c1.123-4.104 1.993-9.004 2.611-14.698.507-4.677.597-9.274.269-13.791a.568.568 0 0 1 .526-.609zm-74.733 32.457a.57.57 0 0 1 1.116.222c-7.51 37.74-14.19 61.116-20.089 70.213a.569.569 0 1 1-.954-.619c5.789-8.929 12.448-32.229 19.927-69.816z" fill="#5B61ED"/><path fill-rule="evenodd" clip-rule="evenodd" d="M310.942 406.414c.761 5.22 2.389 9.401 4.882 12.543 2.493 3.143 7.411 5.506 14.754 7.092l10.795-10.58c-8.849-.74-14.601-2.891-17.255-6.452-2.654-3.561-4.93-8.215-6.829-13.96l-6.347 11.357z" fill="#fff"/><path fill-rule="evenodd" clip-rule="evenodd" d="M317.829 394.879l-.406-1.228-7.072 12.654.028.191c.775 5.313 2.439 9.588 4.999 12.815 2.558 3.224 7.489 5.62 14.787 7.23l.593.129 11.901-11.665-1.238-.104c-8.703-.727-14.313-2.825-16.847-6.224-2.614-3.508-4.864-8.108-6.745-13.798zm-.667 1.572l.096.273c1.811 5.122 3.945 9.333 6.404 12.633l.09.119c2.629 3.415 7.929 5.53 15.886 6.398l.46.048-9.699 9.505-.274-.061c-6.908-1.557-11.525-3.825-13.856-6.763l-.141-.181c-2.3-2.976-3.828-6.903-4.579-11.79l-.016-.11 5.629-10.071zM426.13 225.044l.25 1.111c-9.132 2.062-17.243 4.776-24.334 8.139-6.866 3.257-14.691 7.967-23.472 14.13l-.897.632-.657-.93.902-.635c8.83-6.197 16.708-10.939 23.636-14.226 7.018-3.328 15.013-6.024 23.985-8.087l.587-.134zm-42.395 205.879l1.101.288-2.212 8.433c-11.31 43.036-18.858 70.381-22.646 82.047-6.272 19.31-3.364 36.415 11.996 63.795l1.137 2.017c10.715 19.054 23.041 43.777 36.976 74.167l.874 1.907-1.035.474-.872-1.905c-13.924-30.365-26.236-55.06-36.934-74.084l-.667-1.182c-15.915-28.125-19.001-45.699-12.557-65.541 3.94-12.134 11.973-41.327 24.092-87.564l.747-2.852zm29.462 53.083l1.135-.076.706 11.312c1.246 19.071 2.182 34.404 2.809 46l.179 3.354c.585 11.203 1.339 27.472 2.262 48.807l.667 15.579-1.137.049-.523-12.256c-1.025-23.813-1.849-41.609-2.472-53.389l-.23-4.245c-.681-12.341-1.686-28.604-3.016-48.79l-.38-6.345z" fill="#5B61ED"/><path d="M78.383 434.751c7.31 0 13.236-3.458 13.236-7.723s-5.926-7.723-13.236-7.723c-7.31 0-13.236 3.458-13.236 7.723s5.926 7.723 13.236 7.723z" fill="#5B61ED"/><path d="M78.383 434.751c7.31 0 13.236-3.458 13.236-7.723s-5.926-7.723-13.236-7.723c-7.31 0-13.236 3.458-13.236 7.723s5.926 7.723 13.236 7.723z" fill="#fff" fill-opacity=".82"/><path fill-rule="evenodd" clip-rule="evenodd" d="M94.634 399.965l-32.739.487c2.058 13.027 3.231 20.899 3.519 23.617.431 4.077 5.69 8.154 12.915 8.154 7.224 0 12.215-3.971 12.915-8.154.466-2.789 1.597-10.823 3.39-24.104z" fill="#fff"/><path fill-rule="evenodd" clip-rule="evenodd" d="M95.167 399.498l-33.801.503.894 5.687c1.556 9.955 2.458 16.102 2.704 18.429.49 4.632 6.334 8.565 13.371 8.565 6.995 0 12.571-3.776 13.368-8.537l.108-.664c.516-3.248 1.592-10.93 3.231-23.057l.125-.926zm-32.73 1.405l31.678-.47-.953 7.014c-1.207 8.82-1.995 14.338-2.364 16.546-.715 4.272-5.882 7.77-12.463 7.77-6.612 0-12.024-3.642-12.458-7.743l-.06-.531c-.346-2.941-1.382-9.891-3.108-20.863l-.271-1.723z" fill="#5B61ED"/><path fill-rule="evenodd" clip-rule="evenodd" d="M95.868 398.396l-35.194.517c1.635 8.959 2.617 14.882 2.945 17.767.492 4.329 6.488 8.658 14.725 8.658 8.237 0 13.927-4.216 14.726-8.658.532-2.961 1.465-9.056 2.798-18.284z" fill="#EFF0FD"/><path fill-rule="evenodd" clip-rule="evenodd" d="M96.322 394.719h-36.08v2.981c0 5.124 7.948 9.954 18.04 9.954 10.09 0 18.04-4.83 18.04-9.954v-2.981z" fill="#5B61ED"/><path fill-rule="evenodd" clip-rule="evenodd" d="M78.271 384.859c-9.843 0-17.597 4.784-17.597 9.858 0 5.075 7.754 9.859 17.597 9.859 9.843 0 17.597-4.784 17.597-9.859 0-5.074-7.754-9.858-17.597-9.858z" fill="#fff"/><path fill-rule="evenodd" clip-rule="evenodd" d="M78.271 384.4c-9.799 0-18.056 4.769-18.056 10.317s8.257 10.318 18.056 10.318c9.799 0 18.056-4.77 18.056-10.318S88.07 384.4 78.271 384.4zm0 .918c9.359 0 17.138 4.493 17.138 9.399 0 4.906-7.78 9.399-17.138 9.399-9.359 0-17.138-4.493-17.138-9.399 0-4.906 7.78-9.399 17.138-9.399z" fill="#5B61ED"/><path fill-rule="evenodd" clip-rule="evenodd" d="M94.641 388.135H61.902v5.817c0 4.649 7.213 9.031 16.37 9.031 9.156 0 16.37-4.382 16.37-9.031v-5.817z" fill="#5B61ED"/><path fill-rule="evenodd" clip-rule="evenodd" d="M78.272 379.361c-8.896 0-15.904 4.258-15.904 8.774 0 4.517 7.008 8.775 15.904 8.775s15.903-4.258 15.903-8.775c0-4.516-7.007-8.774-15.903-8.774z" fill="#fff"/><path fill-rule="evenodd" clip-rule="evenodd" d="M78.272 378.902c-8.877 0-16.363 4.258-16.363 9.234 0 4.975 7.486 9.233 16.363 9.233 8.876 0 16.362-4.258 16.362-9.233 0-4.976-7.486-9.234-16.362-9.234zm0 .919c8.436 0 15.444 3.986 15.444 8.315 0 4.329-7.007 8.315-15.444 8.315-8.437 0-15.445-3.986-15.445-8.315 0-4.329 7.008-8.315 15.445-8.315z" fill="#5B61ED"/><path fill-rule="evenodd" clip-rule="evenodd" d="M66.505 390.852l3.082 1.807a1.86 1.86 0 0 0 1.912-.02.676.676 0 0 0-.006-1.157l-2.8-1.674a2.262 2.262 0 0 0-2.141-.098.648.648 0 0 0-.047 1.142z" fill="#5B61ED"/></svg>