<svg width="488" height="497" fill="none" xmlns="http://www.w3.org/2000/svg"><path fill-rule="evenodd" clip-rule="evenodd" d="M327.926 458.906L488 368.16 224.453 216.521l-157.229 91.33 260.702 151.055z" fill="#5B61ED"/><path fill-rule="evenodd" clip-rule="evenodd" d="M327.926 458.906L488 368.16 224.453 216.521l-157.229 91.33 260.702 151.055z" fill="#fff" fill-opacity=".9"/><path fill-rule="evenodd" clip-rule="evenodd" d="M70.902 140.773v11.962L316.606 295.45l.192-13.46L70.902 140.773z" fill="#5B61ED"/><path fill-rule="evenodd" clip-rule="evenodd" d="M71.931 140.748l155.15-89.842 244.547 141.032-154.829 90.052L71.931 140.748z" fill="#fff"/><path fill-rule="evenodd" clip-rule="evenodd" d="M472.727 191.935L227.079 50.268l-156.25 90.48 245.97 141.878 155.928-90.691zM227.08 51.542l243.446 140.397-153.729 89.413L73.032 140.746 227.08 51.542z" fill="#5B61ED"/><path fill-rule="evenodd" clip-rule="evenodd" d="M316.606 295.451l155.998-90.385v-13.11l-155.806 90.035-.192 13.46zm-125.65-105.469l91.514 52.188a.74.74 0 0 0 .729 0l51.942-29.609a.736.736 0 0 0 .053-1.244l-82.472-56.914a.735.735 0 0 0-.779-.036l-60.984 34.336a.736.736 0 0 0-.003 1.279z" fill="#5B61ED"/><path fill-rule="evenodd" clip-rule="evenodd" d="M190.956 189.981l91.514 52.187a.735.735 0 0 0 .729 0l51.942-29.609a.735.735 0 0 0 .053-1.243l-82.85-57.175-61.385 34.561a.736.736 0 0 0-.003 1.279z" fill="#fff" fill-opacity=".82"/><path fill-rule="evenodd" clip-rule="evenodd" d="M243.037 214.524l-51.754-29.145 61.058-34.627 47.097 26.955-56.401 36.817z" fill="#fff"/><path fill-rule="evenodd" clip-rule="evenodd" d="M252.343 149.915l-62.535 35.464 53.256 29.992 57.764-37.706-48.485-27.75zm-.003 1.67l41.775 23.909-49.084 28.329-1.81 9.713-.212.138-50.251-28.299 59.582-33.79zm42.393 24.263l3.315 1.898-29.069 18.975 25.731-17.656.023-3.217z" fill="#5B61ED"/><path fill-rule="evenodd" clip-rule="evenodd" d="M195.359 184.496l56.984-32.321 41.469 23.719-55.238 32.968-43.215-24.366zm56.982-30.652l-54.034 30.648 40.246 22.692 52.383-31.264-38.595-22.076z" fill="#5B61ED"/><path fill-rule="evenodd" clip-rule="evenodd" d="M238.544 205.764l-41.73-23.529 55.509-31.484 40.032 22.897-53.811 32.116z" fill="#fff"/><path fill-rule="evenodd" clip-rule="evenodd" d="M195.359 182.237l56.984-32.321 41.469 23.719-55.238 32.967-43.215-24.365zm56.982-30.652l-54.034 30.648 40.246 22.692 52.384-31.264-38.596-22.076z" fill="#5B61ED"/><path fill-rule="evenodd" clip-rule="evenodd" d="M283.03 237.507l-36.374-34.456 51.829-31.031 36.861 35.791-52.316 29.696z" fill="#fff"/><path fill-rule="evenodd" clip-rule="evenodd" d="M251.299 192.646c-1.151-.161-2.173.347-2.284 1.135-.111.788.732 1.558 1.882 1.719 1.151.162 2.173-.346 2.284-1.134.111-.788-.732-1.558-1.882-1.72zm-.101.719c.798.112 1.309.579 1.264.9-.045.321-.665.629-1.464.517-.798-.112-1.309-.579-1.264-.9.045-.321.665-.629 1.464-.517zm27.003-17.229c-1.15-.161-2.173.347-2.284 1.135-.11.788.732 1.558 1.883 1.719 1.15.162 2.173-.346 2.284-1.134.111-.788-.732-1.558-1.883-1.72zm-.101.719c.799.112 1.31.579 1.265.9-.045.321-.666.629-1.464.517-.799-.112-1.31-.579-1.265-.9.045-.321.666-.629 1.464-.517z" fill="#5B61ED"/><path fill-rule="evenodd" clip-rule="evenodd" d="M298.592 171.116l-10.887 6.518c-.671-2.321-1.709-3.764-3.565-4.506-3.564-1.425-5.954-.06-6.783 3.82l-.034.163a.725.725 0 0 0 1.412.336l.012-.053c.625-3.139 2.109-4.016 4.854-2.919 1.368.547 2.15 1.629 2.706 3.553l.052.183.054.197-25.694 15.383c-.672-2.154-1.7-3.509-3.478-4.22-3.564-1.425-5.954-.06-6.783 3.82l-.034.163a.725.725 0 0 0 1.412.336l.012-.053c.625-3.139 2.108-4.016 4.854-2.919 1.368.547 2.149 1.629 2.706 3.553l.025.089-13.968 8.364 37.458 35.485 53.624-30.438-37.955-36.855zm-25.046 16.687l24.393 40.414-14.797 8.399-35.289-33.43 25.693-15.383zm24.835-14.869l35.767 34.73-34.946 19.836-24.41-40.443 23.589-14.123zm-64.806-6.414l-26.482 14.153 28.905 16.538 25.221-15.061-27.644-15.63zm17.714-10.393l-14.784 8.581 26.992 14.692 13.673-8.652-25.881-14.621z" fill="#EFF0FD"/><path fill-rule="evenodd" clip-rule="evenodd" d="M251.357 204.256l16.188-9.975 13.56 14.447-15.645 9.442-14.103-13.914zm16.064-9.047l-14.896 9.179 13.044 12.869 14.392-8.687-12.54-13.361zM111.263 496.607L3.365 434.565l116.047-67.174 67.411-4.274v28.28l34.879-14.905 6.698 53.012-117.137 67.103z" fill="#5B61ED"/><path fill-rule="evenodd" clip-rule="evenodd" d="M111.263 496.607L3.365 434.565l116.047-67.174 67.411-4.274v28.28l34.879-14.905 6.698 53.012-117.137 67.103z" fill="#fff" fill-opacity=".9"/><path fill-rule="evenodd" clip-rule="evenodd" d="M194.734 192.391c11.382-11.903 19.397-17.351 24.045-16.344.13.028-.839.453-2.74 1.526-1.904 1.075-3.594 2.387-3.326 2.163 2.817-2.34 7.684-4.44 10.969-4.44 2.312 0 .303 1.749 1.577 1.749 1.636 0 4.787-.608 5.157.351.37.96-2.869 1.574-2.869 1.574s3.913-.305 3.913.766c0 1.072-5.929 1.962-7.998 3.687-2.069 1.726-6.26 6.588-5.606 6.588.654 0 10.5-5.624 11.631-4.844 1.131.78-2.12 3.756-3.877 4.829-1.758 1.072-4.331 2.997-7.754 4.733-2.282 1.157-7.539 3.06-15.772 5.707l-7.35-8.045z" fill="#fff"/><path fill-rule="evenodd" clip-rule="evenodd" d="M223.682 174.68c-1.189 0-2.591.258-4.06.719l-.245.079-.218.073-.018-.012a.616.616 0 0 0-.12-.061l-.063-.022-.048-.012c-4.854-1.051-12.758 4.234-23.934 15.804l-.688.716-.399.417 8.006 8.763 2.405-.778c7.013-2.288 11.588-3.965 13.75-5.045l.085-.043a42.711 42.711 0 0 0 1.803-.97l.259-.15c1.343-.786 3.757-2.343 4.982-3.142l.748-.491.007-.005.155-.097c.85-.543 1.887-1.393 2.696-2.218l.159-.164.143-.154.157-.175c1.144-1.305 1.555-2.389.593-3.053-.763-.527-2.495.099-6.033 1.801l-.607.294-1.31.649-2.535 1.27.073-.09c.129-.16.266-.327.412-.5l.269-.319.281-.325c1.228-1.409 2.593-2.812 3.47-3.543.608-.508 1.64-.977 3.268-1.541l.549-.185c.578-.192 1.557-.515 1.843-.614l.29-.101c.649-.232 1.106-.425 1.45-.623.514-.296.82-.622.82-1.096 0-.685-.454-1.047-1.258-1.237l-.095-.021-.089-.018.012-.01c.363-.305.517-.667.394-1.123l-.024-.081-.026-.072c-.348-.902-1.279-1.033-3.377-.896l-1.499.113c-.164.012-.297.02-.413.026l-.257.009.021-.135.006-.045c.12-.975-.445-1.566-1.79-1.566zm0 1.233c.304 0 .48.031.556.06l.018.008.011.006c-.004 0-.007.007-.009.024l-.018.133-.041.255c-.01.067-.014.111-.019.17-.012.169 0 .32.055.473.15.423.531.619 1.023.619l.256-.003c.241-.006.509-.023.975-.059l.922-.071.305-.021c.683-.043 1.165-.049 1.55-.01.14.014.259.033.357.058l.068.019.024.007-.055.038c-.154.099-.369.2-.629.299l-.114.042-.12.042c-.223.076-.46.145-.7.208l-.242.06c-.138.034-.253.059-.338.077l-.086.017.163 1.22.103-.007a15.156 15.156 0 0 1 1.77-.011c.455.027.836.081 1.108.159l.087.027-.021.012c-.229.132-.559.276-1.021.447l-.371.133-.526.179c-.583.194-1.537.509-1.813.602l-.391.136c-1.652.581-2.723 1.079-3.453 1.688-1.006.84-2.561 2.452-3.897 4.014l-.251.296c-.529.63-.967 1.189-1.261 1.615a4.01 4.01 0 0 0-.404.69.892.892 0 0 0-.076.472.674.674 0 0 0 .679.591l.058-.002c.243-.02.595-.166 1.393-.555l.805-.398c.656-.329 2.366-1.189 3.069-1.536l.557-.274.677-.327c1.217-.583 2.221-1.03 3.032-1.343l.142-.054c.518-.195.94-.326 1.252-.389.072-.015.136-.025.192-.032l.056-.005-.015.051-.016.045-.02.05c-.133.31-.433.727-.862 1.198-.763.835-1.873 1.764-2.738 2.319l-.244.157c-.642.425-4.334 2.834-5.866 3.704a42.05 42.05 0 0 1-1.751.943l-.172.086c-2.126 1.044-6.622 2.689-13.464 4.921l-1.669.541-6.694-7.327.271-.281.543-.559c8.735-8.967 15.362-13.908 19.764-14.85l.135-.028.12-.022-.132.073-.366.203-.051.027c-1.252.648-2.401 1.381-3.344 2.137l-.231.19-.057.052c-.014.016-.034.048-.101.152l-.027.059c-.017.046-.02.092-.032.26l.053.167c.068.198.116.225.374.368l.243.017c.107.005.121-.004.165-.028l.099-.048a.077.077 0 0 0 .021-.013l.346-.247.309-.219a35.789 35.789 0 0 1 1.933-1.272c.165-.1.328-.197.489-.291l.387-.22.139-.072c2.424-1.225 4.981-1.995 6.878-2.04l.176-.002z" fill="#EFF0FD"/><path fill-rule="evenodd" clip-rule="evenodd" d="M228.203 178.242l-.059.005c-4.952.649-8.613 2.334-11.371 5.171a.616.616 0 1 0 .885.859c2.553-2.626 5.957-4.193 10.647-4.808a.617.617 0 0 0-.102-1.227zm-2.965-1.813l-.06.005c-4.951.649-8.613 2.334-11.371 5.171a.617.617 0 0 0 .885.859c2.554-2.627 5.958-4.193 10.647-4.808a.615.615 0 0 0-.101-1.227zm-1.89-1.749l-.059.005c-4.525.593-7.435 1.907-11.097 4.659a.616.616 0 1 0 .742.985c3.502-2.632 6.219-3.858 10.515-4.422a.617.617 0 0 0-.101-1.227z" fill="#EFF0FD"/><path fill-rule="evenodd" clip-rule="evenodd" d="M5.46 231.707l9.473-5.129 12.64 41.053 100.784-59.291v161.288l-8.989 5.388.034-151.122-63.049 36.488L20.07 431.555l-8.9 5.512 34.746-170.529-25.846 15.111-14.61-49.942z" fill="#5B61ED"/><path fill-rule="evenodd" clip-rule="evenodd" d="M10.82 436.179l-6.833-4.089 34.446-160.418 7.449-4.851L10.82 436.179z" fill="#fff"/><path fill-rule="evenodd" clip-rule="evenodd" d="M11.202 437.05L46.69 265.637l-8.75 5.697L3.363 432.36l7.84 4.69zm33.87-169.044l-34.636 167.3-5.828-3.487L38.922 272.01l6.15-4.004z" fill="#5B61ED"/><path fill-rule="evenodd" clip-rule="evenodd" d="M118.828 374.227l-7.986-4.287V228.615l8.526-4.438-.54 150.05z" fill="#fff"/><path fill-rule="evenodd" clip-rule="evenodd" d="M119.377 375.146l.546-151.88-9.633 5.013v141.99l9.087 4.877zm-.564-150.059l-.533 148.219-6.886-3.696V228.948l7.419-3.861z" fill="#5B61ED"/><path fill-rule="evenodd" clip-rule="evenodd" d="M5.426 231.991l8.436-5.383-4.513-2.542-8.7 5.192 14.157 48.537 4.371 2.654-13.751-48.458z" fill="#fff"/><path fill-rule="evenodd" clip-rule="evenodd" d="M14.933 226.579l-5.592-3.151L0 229.004l14.337 49.15 5.755 3.495-14.024-49.414 8.865-5.656zm-5.577-1.876l3.434 1.934-8.007 5.11 13.48 47.502-2.987-1.815-13.978-47.921 8.058-4.81z" fill="#5B61ED"/><path fill-rule="evenodd" clip-rule="evenodd" d="M128.322 208.624l-6.126-4.171-97.262 56.351 1.929 7.111 101.459-59.291z" fill="#fff"/><path fill-rule="evenodd" clip-rule="evenodd" d="M129.355 208.659l-7.135-4.857-97.93 56.737 2.229 8.215 102.836-60.095zm-7.182-3.556l5.117 3.485-100.084 58.487-1.629-6.007 96.596-55.965z" fill="#5B61ED"/><path fill-rule="evenodd" clip-rule="evenodd" d="M263.435 203.72c-4.163 1.189-6.35 2.862-9.387 4.738 2.916-2.778 4.392-4.423 4.428-4.935.099-1.425-6.739 1.58-9.664 3.875-2.351 1.844-3.68 5.302-4.921 9.975-1.224 1.326-2.279 2.561-2.993 3.504-1.629 2.155.151 5.465 5.341 9.932 6.847-2.973 11.853-5.169 15.018-6.589 3.358-1.508 8.097-6.164 10.424-7.221 2.189-.996 5.785-2.494 5.484-3.574-.3-1.078-1.625-.172-4.797.715-3.172.887-5.489 2.262-5.489 2.262-2.643.593.375-3.044 5.175-4.738 3.185-1.123 6.356-2.561 7.361-3.394 1.563-1.296-4.836-1.011-4.836-1.011s6.455-2.533 5.783-3.532c-.523-.776-7.851.627-7.851.627-.431.096 3.878-1.565 2.85-2.284-1.029-.72-7.417.362-11.926 1.65z" fill="#fff"/><path fill-rule="evenodd" clip-rule="evenodd" d="M275.775 201.478c.481.337.593.893.324 1.385l-.054.092c-.019.03-.04.059-.062.089l-.011.014.173-.024c2.953-.395 4.328-.435 4.816.29.386.574.141 1.131-.395 1.632-.322.301-.792.62-1.399.965l-.205.115a23.03 23.03 0 0 1-.905.472l-.144.071.14.012c.554.051 1.009.128 1.354.239 1.008.324 1.384 1.237.469 1.995-.999.828-3.832 2.152-6.93 3.286l-.873.314c-1.995.74-3.828 1.894-4.881 2.97l-.028.029.263-.135a26.808 26.808 0 0 1 4.269-1.705l.742-.215c.935-.277 2.815-.906 3.209-1.018l.035-.01c1.136-.296 1.903-.101 2.179.891.257.921-.441 1.635-1.834 2.459-.566.335-1.246.681-2.101 1.081l-.69.317-1.574.713c-.516.248-.895.514-2.925 2.09l-2.184 1.7-.509.39-.32.242c-1.698 1.278-3.016 2.135-4.171 2.654l-3.861 1.715a2169.917 2169.917 0 0 1-10.8 4.719l-.781.339-.344-.295c-5.456-4.696-7.405-8.322-5.445-10.914l.124-.163c.635-.825 1.502-1.844 2.505-2.949l.289-.315.104-.39c1.413-5.163 2.809-8.058 5.022-9.795 1.46-1.146 3.916-2.506 6.134-3.431 1.111-.463 2.08-.781 2.795-.906 1.118-.194 1.974.038 1.901 1.08l-.004.044c-.037.29-.241.677-.631 1.19l-.096.125.031-.016c1.519-.803 2.959-1.382 4.74-1.89l.424-.12c5.173-1.435 10.919-2.265 12.115-1.428zm-12.142 2.936c-2.371.677-4.092 1.48-6.322 2.845l-.79.494c-.654.413-1.705 1.079-2.094 1.319l-5.89 3.637 5.012-4.774c1.38-1.314 2.432-2.37 3.154-3.165l.215-.239.207-.24c.065-.076.126-.148.181-.217l.106-.134-.103.023c-.577.129-1.359.396-2.253.768-2.106.879-4.451 2.178-5.798 3.234-1.934 1.518-3.234 4.265-4.596 9.32l-.118.445-.5.545c-1.053 1.159-1.949 2.217-2.569 3.037l-.048.066c-1.163 1.66.3 4.472 4.732 8.402l.21.185 6.211-2.705c3.555-1.554 6.348-2.787 8.381-3.699 1.033-.464 2.276-1.272 3.894-2.49l.643-.489 3.098-2.407c1.88-1.45 1.984-1.469 2.786-1.834l1.402-.632.53-.245.394-.186a20.844 20.844 0 0 0 1.583-.829l.125-.075c.407-.249.71-.473.896-.664l.037-.038-.01.001a3.52 3.52 0 0 0-.208.044l-.084.021c-.251.066-2.337.766-3.307 1.047l-.177.05a25.469 25.469 0 0 0-4.485 1.743l-.27.139-.242.128-.294.164-.123.072-.112.026c-1.009.226-1.817-.005-1.861-.922-.026-.55.338-1.14.983-1.799 1.207-1.234 3.226-2.506 5.419-3.317l.439-.157c2.572-.919 5.031-2.007 6.302-2.766l.097-.059-.088-.013a13.792 13.792 0 0 0-1.237-.098 30.128 30.128 0 0 0-1.678-.017l-.417.009c-.181.004-.314.009-.384.012l-4.339.194 4.162-1.634.123-.05a42.484 42.484 0 0 0 2.621-1.16c.475-.23.903-.453 1.273-.663l.126-.073a9.3 9.3 0 0 0 .548-.342l.054-.037-.244.004c-.667.02-1.555.106-2.6.246-.656.088-1.343.192-2.032.306l-.517.087-.677.119-.463.086-.03.007-.2.014c-.114.007-.157-.029-.552-.351l-.052-.149c-.078-.235-.069-.268-.006-.488l.064-.124a.462.462 0 0 1 .076-.103l.1-.089a.46.46 0 0 1 .061-.047l.081-.045.303-.146.356-.168c.316-.15.554-.268.812-.406l.142-.077a9.08 9.08 0 0 0 .494-.291l.09-.059-.045-.003c-1.735-.082-6.524.702-10.488 1.814l-.22.062z" fill="#EFF0FD"/><path fill-rule="evenodd" clip-rule="evenodd" d="M153.641 364.218c-1.423 11.39-.883 17.878 1.622 19.466 2.701 1.712 8.979 3.06 14.424 0 3.458-1.943 9.435-5.194 13.975-8.258 11.688-7.891 19.516-6.709 23.543-16.499 4.027-9.79-15.98-10.887-21.943-6.773-3.975 2.742-7.071 4.19-9.289 4.343-2.888 8.103-4.803 12.646-5.745 13.628-1.412 1.473-1.884 2.792-8.83 1.693-4.632-.733-7.217-3.266-7.757-7.6z" fill="#fff"/><path fill-rule="evenodd" clip-rule="evenodd" d="M205.717 357.781c-1.713 4.164-3.997 6.281-8.555 8.483l-.205.099c-.848.404-5.143 2.309-6.446 2.93-2.718 1.294-5.122 2.622-7.568 4.246l-.367.246a84.24 84.24 0 0 1-2.428 1.576l-.33.206c-.752.468-1.546.95-2.383 1.447l-.361.215a238.59 238.59 0 0 1-3.893 2.245l-4.503 2.522c-4.271 2.4-9.946 2.066-13.166.108l-2.051-1.364v2.127c3.592 3.532 11.081 3.888 16.124 1.148l4.01-2.242 1.001-.565c1.3-.738 2.471-1.413 3.602-2.081l.727-.433c.718-.429 1.403-.846 2.06-1.255a93.478 93.478 0 0 0 2.535-1.631l.291-.195c2.351-1.587 4.647-2.88 7.237-4.132l.568-.271c1.403-.658 5.284-2.382 6.237-2.831l.054-.026c5.077-2.421 7.802-4.869 9.768-9.535l.083-.198-2.041-.839z" fill="#5B61ED"/><path fill-rule="evenodd" clip-rule="evenodd" d="M187.052 376.824c-2.852 12.064-2.207 18.795 1.934 20.193 3.8 1.282 7.794 3.06 13.239 0 3.458-1.943 6.836-4.992 11.375-8.056 11.689-7.891 17.317-6.435 20.101-15.508 2.783-9.073-4.736-15.74-10.699-11.626-3.975 2.743-8.904 5.91-14.787 9.501-3.052 6.483-5.048 10.216-5.99 11.198-1.412 1.472-1.73 3.444-8.677 2.345-4.631-.733-6.796-3.416-6.496-8.047z" fill="#fff"/><path fill-rule="evenodd" clip-rule="evenodd" d="M185.262 352.154c-3.975 2.742-7.071 4.19-9.289 4.343l-.342.955c-2.698 7.506-4.499 11.731-5.403 12.673l-.165.176c-1.295 1.398-1.997 2.572-8.665 1.517-4.632-.733-7.217-3.266-7.757-7.6l-.083.678c-1.318 10.969-.75 17.232 1.705 18.788 2.701 1.712 8.979 3.06 14.424 0l3.634-2.033c3.154-1.772 6.941-3.951 10.087-6.055l.254-.17c11.688-7.891 19.516-6.709 23.543-16.499 4.027-9.79-15.98-10.887-21.943-6.773zm.627.907c2.674-1.844 8.85-2.596 13.887-1.651 5.453 1.023 7.894 3.487 6.409 7.098-1.713 4.164-3.997 6.28-8.555 8.483l-.313.15c-1.054.492-5.083 2.281-6.338 2.879-2.718 1.293-5.122 2.622-7.568 4.246l-.367.246a90.081 90.081 0 0 1-2.758 1.782c-.752.468-1.546.95-2.383 1.447l-.361.214a218.992 218.992 0 0 1-3.568 2.062l-1.191.672c-1.001.561-3.283 1.835-3.637 2.034-4.327 2.432-10.096 2.056-13.292.03-1.63-1.033-2.265-5.529-1.649-13.284l.038-.453.017.026c1.443 2.025 3.725 3.318 6.794 3.837l.171.028.379.058c5.162.785 7.096.367 8.838-1.449l.5-.54.083-.088c1.051-1.097 2.827-5.238 5.552-12.804l.206-.574.071-.012c2.307-.398 5.227-1.833 8.819-4.288l.216-.149zm37.113 8.766l-.548.377c-3.877 2.655-8.624 5.696-14.239 9.124l-.617 1.302c-2.672 5.613-4.452 8.9-5.34 9.861l-.116.124c-1.344 1.461-1.786 3.333-8.594 2.256-4.631-.733-6.796-3.416-6.496-8.047-2.852 12.064-2.207 18.795 1.934 20.193l1.626.558c3.332 1.13 6.938 2.069 11.613-.558 3.458-1.943 6.836-4.992 11.375-8.056 11.689-7.891 17.317-6.435 20.101-15.508 2.783-9.073-4.736-15.74-10.699-11.626zm.627.908c5.257-3.627 11.42 2.56 9.017 10.395-1.154 3.759-2.714 5.606-5.921 7.406l-.161.09c-1.032.569-5.525 2.746-5.705 2.837-2.65 1.331-4.989 2.661-7.481 4.32l-.395.264c-1.996 1.347-8.056 5.925-9.44 6.86l-.055.037a28.32 28.32 0 0 1-1.803 1.112c-2.127 1.195-4.081 1.648-6.085 1.533-1.464-.085-2.654-.384-4.906-1.151l-1.355-.466c-2.745-.926-3.638-5.304-2.357-13.231l.082-.494.033.055c1.18 1.913 3.237 3.144 6.121 3.632l.158.026.367.056c4.943.741 6.856.133 8.651-1.991l.141-.17.158-.192c.123-.148.206-.244.295-.339l.034-.035c1.028-1.072 2.933-4.605 5.875-10.821l.175-.372 1.332-.816c5.063-3.117 9.379-5.902 12.951-8.357l.274-.188z" fill="#5B61ED"/><path fill-rule="evenodd" clip-rule="evenodd" d="M234.188 370.651c-1.733 4.214-1.959 7.182-5.952 9.223l-.188.096c-.9.453-4.872 2.288-5.936 2.81-2.578 1.265-4.891 2.566-7.306 4.17l-.403.27a86.44 86.44 0 0 1-2.758 1.782l-.655.405c-.665.408-1.361.826-2.089 1.257l-.563.331c-1.04.61-2.127 1.234-3.33 1.915l-4.503 2.522c-4.271 2.4-11.873 1.651-14.701-2.703l.327 3.456c3.194 3.281 10.238 4.005 15.281 1.266l4.01-2.243 1.001-.565a226.075 226.075 0 0 0 3.318-1.914l.284-.167a142.49 142.49 0 0 0 2.787-1.688 93.478 93.478 0 0 0 2.535-1.631l.291-.195a60.09 60.09 0 0 1 7.033-4.084l.561-.276c1.188-.574 4.745-2.219 5.745-2.716l-1.853.808c4.499-2.266 6.135-4.975 7.064-7.021v-5.108z" fill="#5B61ED"/><path fill-rule="evenodd" clip-rule="evenodd" d="M275.423 206.544l-.933.229c-5.137 1.28-7.772 2.25-10.703 4.023a.723.723 0 0 0 .748 1.235c2.95-1.785 5.599-2.718 11.229-4.085a.721.721 0 1 0-.341-1.402zm-3.228-2.873l-2.268.556-.29.073c-4.536 1.149-7.28 2.245-9.402 4.105a.722.722 0 1 0 .953 1.086c1.858-1.629 4.363-2.65 8.518-3.718l.428-.109 2.406-.592a.72.72 0 1 0-.345-1.401z" fill="#EFF0FD"/><path fill-rule="evenodd" clip-rule="evenodd" d="M235.492 309.601c9.491-25.218-30.212 1.568-33.297 12.927-3.581 13.185-15.372 44.46-15.372 56.753s13.885 13.754 20.042 9.23c6.496-4.773 6.496-10.802 10.719-24.042 4.915-15.411 10.791-35.959 17.908-54.868zm-43.564 10.725c1.543-3.681-29.826 10.108-31.278 15.801-1.492 5.854-11.501 25.183-7.426 33.186 4.074 8.004 18.404 5.961 22.614-3.354 4.21-9.315 5.929-21.399 16.09-45.633z" fill="#5B61ED"/><path opacity=".32" fill-rule="evenodd" clip-rule="evenodd" d="M235.492 309.601c9.491-25.218-30.212 1.568-33.297 12.927-3.581 13.185-15.372 44.46-15.372 56.753s13.885 13.754 20.042 9.23c6.496-4.773 6.496-10.802 10.719-24.042 4.915-15.411 10.791-35.959 17.908-54.868zm-43.564 10.725c1.543-3.681-29.826 10.108-31.278 15.801-1.492 5.854-11.501 25.183-7.426 33.186 4.074 8.004 18.404 5.961 22.614-3.354 4.21-9.315 5.929-21.399 16.09-45.633z" fill="#fff"/><path fill-rule="evenodd" clip-rule="evenodd" d="M234.91 298.864c-2.497-.879-6.601.272-11.614 2.999-9.74 5.299-20.11 14.91-21.634 20.52l-.163.596c-.565 2.029-1.325 4.52-2.396 7.888l-1.259 3.918c-1.018 3.149-2.717 8.404-3.351 10.392l-.7 2.204c-.316 1-.617 1.962-.908 2.9l-.259.835c-4.181 13.557-6.355 22.673-6.355 28.164 0 5.884 3.108 9.875 8.098 11.447 4.344 1.369 9.552.631 12.823-1.773 3.597-2.642 5.345-5.548 7.094-11.194l.152-.499c.133-.465 2.122-7.562 3.304-11.442l.343-1.108c-.688 2.138 9.611-31.068 12.978-41.019l.501-1.474a432.103 432.103 0 0 1 4.199-11.77l.245-.654c2.327-6.182 1.92-9.868-1.098-10.93zm-11.087 3.968l.405-.218c4.569-2.429 8.27-3.43 10.316-2.71 2.21.778 2.561 3.76.498 9.324l-.067.178a433.639 433.639 0 0 0-4.706 13.192l-.46 1.36c-3.459 10.325-12.856 40.6-12.808 40.518l.027-.08-.14.445c-.58 1.866-1.434 4.813-2.154 7.334l-1.359 4.789-.142.467c-1.685 5.441-3.319 8.154-6.695 10.635-2.979 2.189-7.82 2.875-11.837 1.61-4.542-1.432-7.326-5.006-7.326-10.396 0-5.449 2.25-14.77 6.564-28.673l.64-2.048c.263-.838.536-1.7.821-2.596l4.424-13.724c1.366-4.271 2.265-7.218 2.903-9.567 1.424-5.244 11.597-14.673 21.096-19.84zm-31.386 17.706c.397-.947-.304-1.429-1.378-1.375-.756.039-1.882.297-3.328.752l-.414.133c-2.665.87-6.21 2.319-9.853 4.029l-.287.135c-9.371 4.426-16.347 8.977-17.061 11.779l-.045.168c-.232.86-.64 2.021-1.322 3.795l-.619 1.594-1.071 2.729c-.389 1-.713 1.842-1.031 2.686-.899 2.387-1.635 4.493-2.255 6.499l-.156.511c-2.122 7.03-2.591 12.239-.885 15.59 4.316 8.478 19.236 6.299 23.609-3.378.868-1.921 1.664-4.022 2.535-6.645l.149-.453c.72-2.217 3.667-11.897 4.769-15.305l.035-.11c2.438-7.513 5.126-14.83 8.608-23.134zm-1.322-.273c.062-.004.119-.004.169-.004l.047.001.025.002-.211.504c-3.174 7.615-5.689 14.422-7.965 21.339l-.207.63-.342 1.058c-1.209 3.773-4.09 13.235-4.698 15.083l-.207.622c-.82 2.447-1.574 4.424-2.391 6.231-4.022 8.9-17.763 10.907-21.62 3.332-1.554-3.053-1.073-8.127 1.035-15.025l.077-.251a110.402 110.402 0 0 1 2.087-6.043l.442-1.172c.276-.723.569-1.48.916-2.367l1.293-3.301.286-.74c.698-1.827 1.105-3.002 1.334-3.901.584-2.291 7.357-6.727 16.195-10.927l.268-.127c3.894-1.839 7.694-3.386 10.414-4.242l.321-.099c1.208-.367 2.143-.574 2.732-.603z" fill="#5B61ED"/><path fill-rule="evenodd" clip-rule="evenodd" d="M238.114 294.007l-85.979-48.155a12.51 12.51 0 0 0-12.322.054l-94.578 54.049 91.506 53.92 101.373-59.868z" fill="#fff"/><path fill-rule="evenodd" clip-rule="evenodd" d="M139.438 245.267L43.76 299.945l92.972 54.783 102.846-60.738-87.093-48.779a13.248 13.248 0 0 0-13.047.056zm97.191 48.756l-99.898 58.997-90.041-53.055 93.478-53.422a11.777 11.777 0 0 1 11.598-.05l84.863 47.53z" fill="#EFF0FD"/><path fill-rule="evenodd" clip-rule="evenodd" d="M207.44 250.31c-2.797-17.792-15.983-20.468-24.58-18.481-6.06 1.401-27.723 10.548-64.991 27.443-22.578-9.195-32.223 2.879-36.25 22.705-8.26 40.671 9.945 41.212 26.509 47.729 18.911 7.441 49.751-14.475 75.47-26.978 26.654-12.958 31.318-14.286 32.032-14.331 7.991-.51 2.348-6.011 21.18 5.05 2.426-8.495 3.933-15.848 3.933-20.196 0-24.37-15.453-28.023-25.113-25.791-1.619.374-4.34 1.382-8.164 3.022l-.026-.172z" fill="#5B61ED"/><path opacity=".318" fill-rule="evenodd" clip-rule="evenodd" d="M207.44 250.31c-2.797-17.792-15.983-20.468-24.58-18.481-6.06 1.401-27.723 10.548-64.991 27.443-22.578-9.195-32.223 2.879-36.25 22.705-8.26 40.671 9.945 41.212 26.509 47.729 18.911 7.441 49.751-14.475 75.47-26.978 26.654-12.958 31.318-14.286 32.032-14.331 7.991-.51 2.348-6.011 21.18 5.05 2.426-8.495 3.933-15.848 3.933-20.196 0-24.37-15.453-28.023-25.113-25.791-1.619.374-4.34 1.382-8.164 3.022l-.026-.172z" fill="#fff"/><path fill-rule="evenodd" clip-rule="evenodd" d="M103.687 328.66l-2.968-1.034c-4.554-1.597-6.995-2.591-9.53-3.995-3.474-1.923-6.124-4.235-8.096-7.254-4.576-7.008-5.398-17.848-2.014-34.509 2.194-10.806 5.85-18.379 11.375-22.565l.187-.14c6.067-4.479 14.242-4.812 24.788-.662l.428.171 3.101-1.404c35.291-15.959 55.847-24.605 61.777-25.975 4.989-1.153 10.417-.61 14.859 1.879l.17.097c5.146 2.955 8.688 8.323 10.089 16.171l.045.258.703-.296c3.15-1.316 5.446-2.141 6.905-2.479 5.719-1.321 11.9-.42 16.627 3.011 5.794 4.205 9.095 11.82 9.162 22.978v.339c0 4.171-1.36 11.154-3.778 19.725l-.373 1.307-1.563-.917c-9.899-5.779-12.596-6.767-14.587-5.964l-.062.026c-.208.088-1.042.491-1.245.582-1.127.505-2.257.805-3.816.923l-.206.014c-.151.01-.546.112-1.197.333l-.214.074c-.963.336-2.304.863-4.068 1.607l-.628.266c-5.243 2.238-13.295 5.968-24.655 11.48l-1.812.881c-4.119 2.015-7.163 3.62-15.197 7.979l-6.354 3.45-1.778.958-1.455.78c-11.244 6.008-18.961 9.637-26.275 12.087l-.234.078c-9.59 3.183-17.38 3.776-23.672 1.377l-.742-.289a99.763 99.763 0 0 0-1.731-.647l-.625-.226c-.419-.15-.852-.304-1.341-.475zm.573-.967c.408.143.779.275 1.141.404l.631.228c.822.3 1.575.584 2.298.868 5.977 2.352 13.487 1.835 22.816-1.219l.304-.101c7.465-2.477 15.352-6.2 27.06-12.477l3.268-1.763 8.512-4.618c6.191-3.346 8.944-4.774 12.763-6.635l2.79-1.354c19.235-9.309 27.903-12.996 29.698-13.175l.054-.004c1.465-.094 2.489-.345 3.502-.782l.138-.061c.18-.08 1.027-.49 1.265-.591l.076-.032c2.396-.973 5.193.006 14.931 5.666l.966.563.238-.852c2.204-7.958 3.449-14.443 3.48-18.358v-.149c0-11.013-3.165-18.403-8.706-22.425-4.449-3.229-10.304-4.082-15.731-2.828l-.194.047c-1.534.382-4.015 1.3-7.426 2.752l-1.106.473-.134-.876c-1.264-8.041-4.739-13.403-9.839-16.26-4.187-2.346-9.336-2.862-14.071-1.767-5.825 1.346-26.389 9.996-61.58 25.909l-3.523 1.596-.22-.09c-10.638-4.331-18.679-4.043-24.54.399-5.268 3.992-8.815 11.339-10.961 21.906-3.332 16.404-2.53 26.968 1.857 33.687 1.866 2.858 4.381 5.051 7.708 6.893l.41.224c2.281 1.226 4.608 2.168 8.699 3.607l3.426 1.195z" fill="#5B61ED"/><path fill-rule="evenodd" clip-rule="evenodd" d="M191.73 248.666l-31.83 16.481.507.979 31.83-16.481-.507-.979z" fill="#5B61ED"/><path fill-rule="evenodd" clip-rule="evenodd" d="M190.1 150.399c7.781-7.175 11.985-10.299 12.613-9.371.943 1.392-3.86 6.423-6.183 9.686-2.322 3.262.367 5.375-2.602 10.795-1.979 3.613-3.378 5.561-4.196 5.842l.368-16.952zm-33.977-86.432c2.83 10.02 4.246 16.498 4.246 19.434 0 4.404-1.664 4.337-.832 7.037s1.349 7.318 1.349 13.156c0 3.893-.172 8.407-.517 13.541-.925 2.281-2.34 3.421-4.246 3.421-2.86 0-11.885-.749-12.377 0-.328.499-.328 4.618 0 12.355-10.585 3.326-18.067 3.836-22.446 1.529-4.379-2.307-7.348-5.271-8.907-8.893l-1.029-16.655c-9.215-9.24-12.278-19.752-9.187-31.535 4.636-17.675 18.202-20.346 30.466-20.346 8.177 0 16.003 2.319 23.48 6.956z" fill="#fff"/><path fill-rule="evenodd" clip-rule="evenodd" d="M132.643 56.276c-7.523 0-13.433 1.014-18.435 3.629-6.209 3.246-10.532 8.836-12.743 17.266l-.093.36c-2.971 11.776.106 22.338 9.19 31.597l.084.085 1.021 16.508.051.117c1.629 3.787 4.719 6.872 9.239 9.253 4.554 2.399 12.1 1.912 22.688-1.377l.86-.27-.06-1.44c-.242-6.016-.262-9.891-.135-10.834l.013-.084.107-.02.059-.01.065-.009c.31-.042.744-.069 1.291-.081l.39-.006c1.029-.008 2.34.027 4.088.102l4.459.201c.638.025.933.029 1.34.029 2.193 0 3.837-1.292 4.87-3.74l.103-.249.072-1.107c.293-4.579.444-8.653.455-12.221v-.38c0-5.652-.483-10.346-1.337-13.223l-.045-.15c-.247-.8-.255-1.286-.088-1.87l.054-.17c.107-.324.315-.907.328-.945.379-1.132.57-2.244.57-3.835 0-2.908-1.312-9.028-3.938-18.44l-.413-1.469-.243-.15c-7.59-4.708-15.55-7.067-23.867-7.067zm.34 1.472c7.686.061 15.056 2.213 22.124 6.461l.385.234.413 1.478c2.484 8.957 3.728 14.81 3.728 17.48 0 1.364-.15 2.296-.45 3.235l-.051.154c-.048.133-.326.919-.395 1.16-.234.82-.234 1.564.054 2.56l.043.145c.816 2.65 1.3 7.164 1.316 12.65v.667l-.004.765c-.028 3.351-.177 7.14-.447 11.367l-.057.863-.064.151c-.795 1.803-1.894 2.664-3.353 2.703l-.103.001c-.552 0-.902-.009-2.314-.072l-3.139-.145-1.669-.068c-4.042-.151-5.422-.064-5.869.617l-.014.022c-.437.738-.451 4.316-.146 11.81l.016.392-.083.026c-10.083 3.098-17.186 3.533-21.261 1.387l-.23-.123c-4.035-2.173-6.78-4.913-8.261-8.223l-.033-.074-1.038-16.801-.196-.196c-9.035-9.06-12.02-19.304-8.997-30.83 2.108-8.037 6.167-13.286 12.002-16.336 4.753-2.485 10.446-3.461 17.753-3.461l.34.001z" fill="#EFF0FD"/><path fill-rule="evenodd" clip-rule="evenodd" d="M144.841 48.324c7.923-1.966 10.865-1.143 13.639 1.885 2.773 3.028 2.017 17.507-4.449 18.188-6.465.68-4.455 8.523-2.308 14.634 2.147 6.112-4.216 4.712-3.393 12.547.822 7.835-.002 10.849 1.951 15.547.101.242 1.946 1.413 3.744 1.878a8.9 8.9 0 0 0 1.837.249c.32.014-.678-6.404 1.361-8.909 2.381-2.926 3.467-2.052 4.103-1.755.636.297.372 3.228-.001 3.444-.372.215-1.604-.634-2.2 2.32-.596 2.954.264 4.828.477 4.832.868.016 1.439.16 1.442.678.006 1.177.815 5.777-.847 6.871-3.201 2.106-10.172.229-11.871-.89-4.251-2.801-3.09-15.858-4.249-18.423-2.74-6.066-6.433-.012-9.41 3.738-2.977 3.75-7.133 12.543-13.752 13.24-6.619.696-12.518-2.359-15.323-10.577-2.806-8.218-14.347-20.65-9.51-34.633 4.836-13.984 10.348-21.956 23.325-23.321 12.977-1.365 17.511.424 25.434-1.543z" fill="#5B61ED"/><path fill-rule="evenodd" clip-rule="evenodd" d="M110.302 121.724c3.136 4.873 6.743 8.134 10.82 9.785 4.076 1.65 11.977 2.204 23.703 1.662 9.656 5.143 16.197 8.755 19.622 10.835 5.137 3.12 10.255 7.456 21.614 20.766 7.574 8.874 15.375 30.325 23.405 64.353l32.564-13.176c3.807 1.529 6.497 3.078 8.069 4.649 1.573 1.571 3.079 4.199 4.517 7.883-30.257 17.053-47.147 25.773-50.67 26.162-4.283.473-12.29-2.887-19.961-14.676-4.95-7.607-8.69-16.616-11.222-27.026-1.402 16.367-2.197 26.987-2.387 31.859a139.909 139.909 0 0 0-.119 5.336c0 6.986.04 14.561.119 22.726-18.271 14.562-35.674 20.442-52.209 17.641-24.804-4.201-38.604-20.074-38.604-26.359s-2.808-48.461-2.808-55.571c0-7.11-6.978-43.149-3.489-62.935 3.49-19.786 15.96-23.914 21.846-23.914h15.19z" fill="#fff"/><path fill-rule="evenodd" clip-rule="evenodd" d="M172.466 210.732l-3.942-8.879c-1.214 19.31-1.821 33.394-1.821 42.253 0 8.859.949 16.389 2.846 22.589l.792-18.639 1.319-21.047.806-16.277z" fill="#5B61ED"/><path opacity=".8" fill-rule="evenodd" clip-rule="evenodd" d="M172.466 210.732l-3.942-8.879c-1.214 19.31-1.821 33.394-1.821 42.253 0 8.859.949 16.389 2.846 22.589l.792-18.639 1.319-21.047.806-16.277z" fill="#fff"/><path fill-rule="evenodd" clip-rule="evenodd" d="M111.079 121.571l-.376-.582H95.112c-3.883 0-8.413 1.538-12.287 4.704-5.057 4.132-8.67 10.668-10.283 19.818-1.139 6.457-1.255 14.929-.555 25.279l.032.458c.347 4.995.862 10.197 1.564 16.141l.285 2.363c.416 3.38 1.39 10.971 1.46 11.536l.149 1.221c.373 3.098.543 4.956.543 6.065v.279c.02 2.755.32 8.769 1.047 21.586l.823 14.398c.656 11.561.897 16.33.933 18.713l.005.594c0 3.687 3.985 9.465 10.274 14.534 7.538 6.075 17.507 10.614 28.942 12.551 16.596 2.811 34.017-2.991 52.239-17.354l.833-.661-.034-3.592c-.052-6.138-.082-11.929-.088-17.373l-.001-2.112c0-1.344.031-2.891.094-4.642l.042-1.088c.176-4.101.733-11.814 1.67-23.129l.336-4.036.101.352c2.484 8.617 5.861 16.209 10.133 22.774 3.615 5.555 7.53 9.613 11.469 12.154 3.37 2.173 6.64 3.134 9.189 2.852 3.571-.394 19.489-8.569 48.246-24.73l3.261-1.835-.232-.594c-1.473-3.772-3.025-6.481-4.682-8.136-1.657-1.654-4.425-3.249-8.315-4.811l-.276-.111-32.044 12.965-.286-1.199c-7.886-32.964-15.556-53.814-23.078-62.627l-.922-1.078c-9.803-11.411-15.123-16.349-20.87-19.84l-.681-.409c-3.271-1.948-8.81-5.01-16.625-9.191l-2.53-1.35-.202.009c-11.623.538-19.445-.011-23.393-1.609-3.857-1.562-7.297-4.64-10.319-9.257zm-1.176.888l.109.165c3.138 4.717 6.748 7.912 10.834 9.566l.127.051.256.098c4.167 1.538 11.677 2.066 22.59 1.613l.838-.037 2.735 1.461c8.059 4.316 13.619 7.404 16.673 9.259 5.766 3.501 11.133 8.541 21.437 20.615 7.396 8.666 15.09 29.703 23.008 63.03l.437 1.848 33.083-13.385.205.084.467.195c3.223 1.366 5.518 2.738 6.877 4.097l.1.1c1.318 1.36 2.614 3.554 3.869 6.577l.147.361-2.109 1.186c-28.387 15.952-44.457 24.21-47.72 24.57-2.182.241-5.125-.624-8.231-2.627-3.755-2.422-7.526-6.33-11.033-11.719-4.902-7.534-8.611-16.466-11.124-26.799l-1.064-4.374-.787 9.226c-1.152 13.706-1.814 22.753-1.986 27.152l-.026.711a136.805 136.805 0 0 0-.093 4.381v.973l.005 3.563c.009 4.334.033 8.881.071 13.64l.039 4.47.281-.222c-18.12 14.441-35.321 20.253-51.628 17.491-11.185-1.894-20.92-6.327-28.265-12.246-5.915-4.767-9.649-10.141-9.725-13.291l-.005-.607c-.027-2.105-.216-6.043-.72-15.057l-1.232-21.635c-.57-10.18-.82-15.357-.849-17.896l-.004-.625c-.013-1.166-.18-2.972-.527-5.877l-.302-2.436c-.316-2.476-1.114-8.725-1.408-11.15l-.209-1.741c-.677-5.732-1.178-10.768-1.523-15.591l-.034-.481c-.728-10.449-.626-18.97.504-25.38 1.554-8.815 4.992-15.035 9.765-18.935 3.605-2.946 7.805-4.372 11.356-4.372h14.791zm26.839 246.084l96.482-55.965a2.453 2.453 0 0 1 3.682 2.119 7.355 7.355 0 0 1-3.689 6.375l-96.475 55.489v-8.018z" fill="#5B61ED"/><path fill-rule="evenodd" clip-rule="evenodd" d="M141.891 347.125l91.715-53.44a5.634 5.634 0 0 1 8.47 4.862 17.037 17.037 0 0 1-8.474 14.727l-89.256 51.912-2.455-18.061zM41.63 303.743v3.23a8.085 8.085 0 0 0 3.96 6.953l85.119 50.51 2.718-14.364-85.048-50.179a4.476 4.476 0 0 0-6.75 3.85z" fill="#EFF0FD"/><path fill-rule="evenodd" clip-rule="evenodd" d="M130.71 363.832l-86.363-50.32-1.49 8.169 85.967 49.951 1.886-7.8z" fill="#fff"/><path fill-rule="evenodd" clip-rule="evenodd" d="M131.322 363.562L43.925 312.64l-1.7 9.323 86.941 50.517 2.156-8.918zm-86.594-49.178l85.328 49.717-1.615 6.683-84.992-49.385 1.28-7.015z" fill="#5B61ED"/><path fill-rule="evenodd" clip-rule="evenodd" d="M14.626 236.797l100.148 57.614 7.807 26.252-100.44-59.192-7.515-24.674z" fill="#fff"/><path fill-rule="evenodd" clip-rule="evenodd" d="M115.403 293.92L13.388 235.232l8.14 26.726 102.298 60.288-8.423-28.326zm-99.524-55.559l98.282 56.54 7.189 24.178-98.582-58.097-6.89-22.621z" fill="#5B61ED"/><path fill-rule="evenodd" clip-rule="evenodd" d="M10.212 238.634l100.149 57.614 7.806 26.252-100.44-59.192-7.515-24.674z" fill="#fff"/><path fill-rule="evenodd" clip-rule="evenodd" d="M110.989 295.758L8.974 237.07l8.14 26.726 102.298 60.287-8.423-28.325zm-99.524-55.559l98.282 56.54 7.189 24.178-98.582-58.097-6.89-22.621z" fill="#5B61ED"/><path fill-rule="evenodd" clip-rule="evenodd" d="M105.503 289.378l9.531-5.412 12.427 41.029 101.971-58.949-1.032 161.253-8.946 5.235-.009-150.97-63.048 36.488-36.284 171.174-8.85 5.176 34.696-170.193-25.846 14.65-14.61-49.481z" fill="#5B61ED"/><path fill-rule="evenodd" clip-rule="evenodd" d="M110.898 493.567l-6.834-4.089L138.51 329.06l7.449-4.851-35.061 169.358z" fill="#fff"/><path fill-rule="evenodd" clip-rule="evenodd" d="M111.28 494.438l35.486-171.413-8.749 5.697-34.576 161.026 7.839 4.69zm33.869-169.044l-34.635 167.301-5.829-3.487L139 329.398l6.149-4.004z" fill="#5B61ED"/><path fill-rule="evenodd" clip-rule="evenodd" d="M218.906 431.614l-7.986-4.286V286.002l8.525-4.437-.539 150.049z" fill="#fff"/><path fill-rule="evenodd" clip-rule="evenodd" d="M219.454 432.534l.546-151.88-9.632 5.013v141.99l9.086 4.877zm-.564-150.059l-.533 148.218-6.886-3.696V286.336l7.419-3.861z" fill="#5B61ED"/><path fill-rule="evenodd" clip-rule="evenodd" d="M105.503 289.378l8.436-5.382-4.513-2.543-8.7 5.193 14.158 48.537 4.371 2.654-13.752-48.459z" fill="#fff"/><path fill-rule="evenodd" clip-rule="evenodd" d="M115.011 283.967l-5.593-3.151-9.341 5.576 14.337 49.15 5.755 3.496-14.023-49.415 8.865-5.656zm-5.577-1.876l3.434 1.935-8.008 5.109 13.48 47.502-2.987-1.815-13.978-47.921 8.059-4.81z" fill="#5B61ED"/><path fill-rule="evenodd" clip-rule="evenodd" d="M228.4 266.012l-6.126-4.171-97.263 56.352 1.929 7.111 101.46-59.292z" fill="#fff"/><path fill-rule="evenodd" clip-rule="evenodd" d="M229.432 266.047l-7.134-4.858-97.93 56.738 2.228 8.215 102.836-60.095zm-7.182-3.556l5.118 3.485-100.084 58.486-1.629-6.006 96.595-55.965z" fill="#5B61ED"/><path fill-rule="evenodd" clip-rule="evenodd" d="M151.658 170.781l8.148 5.609c-3.211 17.552-6.441 25.532-9.691 23.94-2.543-1.245-.26 9.159-1.499 6.901-.694-1.265-1.464-.673-1.238.1.164.563-3.753-2.984-5.882-7.686-2.118-4.682-2.448-10.516-2.623-11.08-.814-2.627-4.31-8.835.513-14.036 1.168-1.26 5.259-2.509 12.272-3.748z" fill="#fff"/><path fill-rule="evenodd" clip-rule="evenodd" d="M284.937 88.75l103.926 60.919-.293 4.724a2.925 2.925 0 0 1-1.398 2.333l-47.504 28.421a4.39 4.39 0 0 1-4.536-.004l-103.031-61.887c-.897-.539-1.434-1.546-1.398-2.619l.128-3.76 51.415-28.167a2.718 2.718 0 0 1 2.691.04z" fill="#5B61ED"/><path opacity=".82" fill-rule="evenodd" clip-rule="evenodd" d="M284.937 88.75l103.926 60.919-.293 4.724a2.925 2.925 0 0 1-1.398 2.333l-47.504 28.421a4.39 4.39 0 0 1-4.536-.004l-103.031-61.887c-.897-.539-1.434-1.546-1.398-2.619l.128-3.76 51.415-28.167a2.718 2.718 0 0 1 2.691.04z" fill="#fff"/><path fill-rule="evenodd" clip-rule="evenodd" d="M397.159 143.88l13.408-77.559a4.042 4.042 0 0 0-1.924-4.166L305.547 1.103a4.047 4.047 0 0 0-6.039 2.731l-14.26 75.813a5.88 5.88 0 0 0 2.819 6.166l103.663 60.432 3.297-.54 2.132-1.826z" fill="#fff"/><path fill-rule="evenodd" clip-rule="evenodd" d="M306.747 1.326l101.688 60.217a5.182 5.182 0 0 1 2.468 5.334l-12.955 75.359a5.187 5.187 0 0 1-7.746 3.593L288.403 85.923a5.183 5.183 0 0 1-2.481-5.345l13.067-75.67a5.19 5.19 0 0 1 7.758-3.582zm-6.384 2.245a4.332 4.332 0 0 0-.545 1.48l-13.067 75.67a4.343 4.343 0 0 0 2.078 4.477l101.8 59.907a4.349 4.349 0 0 0 6.49-3.011l12.955-75.359a4.342 4.342 0 0 0-2.068-4.469L306.318 2.05a4.348 4.348 0 0 0-5.955 1.522z" fill="#5B61ED"/><path fill-rule="evenodd" clip-rule="evenodd" d="M394.455 139.076l13.75-70.232a6.247 6.247 0 0 0-2.954-6.578L306.012 3.615a6.255 6.255 0 0 0-9.357 4.387l-11.476 71.39a6.247 6.247 0 0 0 3.145 6.457l100.74 55.737a3.68 3.68 0 0 0 5.391-2.51z" fill="#fff"/><path fill-rule="evenodd" clip-rule="evenodd" d="M315.235 19.894l-11.573 65.644.829.146 11.488-65.225-.744-.565z" fill="#5B61ED"/><path fill-rule="evenodd" clip-rule="evenodd" d="M393.484 137.133l-106.305-61.45-.884 6.977 106.21 61.372.979-6.899z" fill="#EFF0FD"/><path fill-rule="evenodd" clip-rule="evenodd" d="M304.313 2.122l102.123 60.356a5.182 5.182 0 0 1 2.471 5.344l-13.221 73.649a5.189 5.189 0 0 1-7.727 3.595L286.214 85.737a5.183 5.183 0 0 1-2.503-5.328l12.844-74.674a5.19 5.19 0 0 1 7.758-3.612zm-6.382 2.252c-.273.461-.458.97-.546 1.498l-12.844 74.675a4.343 4.343 0 0 0 2.097 4.464l101.745 59.329a4.348 4.348 0 0 0 6.474-3.012l13.221-73.65a4.343 4.343 0 0 0-2.07-4.477L303.885 2.846a4.348 4.348 0 0 0-5.904 1.446l-.05.082z" fill="#5B61ED"/><path fill-rule="evenodd" clip-rule="evenodd" d="M297.666 2.953a3.674 3.674 0 0 0-.46 1.248l-13.127 76.311.403 3.212 8.723 5.73 94.884 54.772c1.298.845 2.597 1.081 3.897.708 1.3-.373 2.489-1.323 3.565-2.849l13.066-75.071a3.675 3.675 0 0 0-1.751-3.794L302.704 1.66a3.68 3.68 0 0 0-5.038 1.293zm1.881 6.341a1.472 1.472 0 0 1 2.011-.534l100.926 58.476a3.308 3.308 0 0 1 1.604 3.41l-11.999 71.307-104.543-59.406 11.821-72.75c.029-.178.09-.348.18-.503z" fill="#5B61ED"/><path fill-rule="evenodd" clip-rule="evenodd" d="M298.674 9.62l-.42.727 106.003 61.156.421-.728L298.674 9.62zm35.107 25.447l-9.157 57.093 35.218 20.439 29.065 17.1 9.822-57.075-35.823-20.705-29.125-16.852zm-7.712 56.408l8.711-54.307 29.492 17.064.001-.002 33.001 19.075-9.344 54.29-28.89-17-.003.012-32.968-19.132z" fill="#5B61ED"/><path fill-rule="evenodd" clip-rule="evenodd" d="M388.344 146.667l-.279 4.323a1.835 1.835 0 0 1-.916 1.474l-47.988 27.668a3.314 3.314 0 0 1-3.314-.003l-103.587-59.96a1.838 1.838 0 0 1-.916-1.655l.121-3.444 51.289-27.077a1.84 1.84 0 0 1 1.764.025l103.826 58.649z" fill="#fff"/><path fill-rule="evenodd" clip-rule="evenodd" d="M284.989 87.54l104.027 58.764-.294 4.557a2.806 2.806 0 0 1-1.398 2.25l-47.55 27.415a4.54 4.54 0 0 1-4.541-.003l-103.131-59.697a2.806 2.806 0 0 1-1.399-2.527l.127-3.626 51.466-27.17a2.809 2.809 0 0 1 2.693.037zm-2.088 1.107l-50.802 26.821-.102 2.876a1.516 1.516 0 0 0 .754 1.361l103.132 59.697a3.244 3.244 0 0 0 3.243.003l47.55-27.416.08-.05c.392-.259.643-.689.673-1.161l.242-3.746-103.319-58.364a1.514 1.514 0 0 0-1.451-.02z" fill="#5B61ED"/><path fill-rule="evenodd" clip-rule="evenodd" d="M387.766 148.173l-48.6 28.508a3.311 3.311 0 0 1-3.332.011l-103.81-59.947a1.837 1.837 0 0 1 .007-3.187l50.688-28.939a1.841 1.841 0 0 1 1.842.01l103.203 60.373a1.837 1.837 0 0 1 .002 3.171z" fill="#fff"/><path fill-rule="evenodd" clip-rule="evenodd" d="M285.048 84.127l102.571 60.003a2.805 2.805 0 0 1 .003 4.842l-47.838 28.061a4.538 4.538 0 0 1-4.566.015l-103.035-59.499a2.805 2.805 0 0 1 .012-4.866l50.042-28.57a2.809 2.809 0 0 1 2.811.014zm-2.168 1.11l-50.042 28.57a1.51 1.51 0 0 0-.007 2.62l103.036 59.5a3.242 3.242 0 0 0 3.261-.011l47.837-28.061a1.51 1.51 0 0 0-.001-2.607L284.393 85.245a1.511 1.511 0 0 0-1.513-.008z" fill="#5B61ED"/><path fill-rule="evenodd" clip-rule="evenodd" d="M339.103 150.835a.736.736 0 0 0-.754.003l-4.506 2.715a.368.368 0 0 0 .007.633l3.985 2.291a.734.734 0 0 0 .748-.008l4.44-2.691a.367.367 0 0 0-.004-.631l-3.916-2.312zm-5.483-3.266a.736.736 0 0 0-.754.003l-4.505 2.714a.367.367 0 0 0 .006.634l3.985 2.291a.736.736 0 0 0 .749-.008l4.439-2.691a.367.367 0 0 0-.004-.631l-3.916-2.312zm9.2-.422a.732.732 0 0 0-.763.012l-3.488 2.192a.367.367 0 0 0 .005.625l5.3 3.211a.735.735 0 0 0 .761.001l3.657-2.207a.368.368 0 0 0-.004-.632l-5.468-3.202zm-14.516-2.619a.734.734 0 0 0-.754.003l-4.505 2.714a.368.368 0 0 0 .006.634l3.986 2.291c.232.134.519.13.748-.009l4.439-2.691a.366.366 0 0 0-.003-.63l-3.917-2.312zm17.348-1.824a.735.735 0 0 0-.725-.01l-3.764 2.062a.368.368 0 0 0-.007.641l7.836 4.539c.223.13.499.133.726.007l3.702-2.054a.365.365 0 0 0 .007-.638l-7.775-4.547zm-8.034 1.333a.737.737 0 0 0-.752.004l-3.595 2.165a.368.368 0 0 0-.001.63l3.897 2.361a.735.735 0 0 0 .761.001l3.658-2.207a.368.368 0 0 0-.005-.632l-3.963-2.322zm-15.926-3.282a.735.735 0 0 0-.737-.005l-4.622 2.634a.368.368 0 0 0-.002.637l5.353 3.105c.232.136.52.133.751-.007l4.436-2.689a.367.367 0 0 0-.004-.631l-5.175-3.044zm30.528-.144a.736.736 0 0 0-.731-.009l-3.644 2.024a.367.367 0 0 0-.01.636l6.444 3.857a.739.739 0 0 0 .735.012l3.698-2.052a.368.368 0 0 0 .009-.638l-6.501-3.83zm-19.954.314a.737.737 0 0 0-.752.005l-3.595 2.165a.368.368 0 0 0-.001.629l3.896 2.362a.737.737 0 0 0 .762.001l3.657-2.208a.367.367 0 0 0-.004-.631l-3.963-2.323zm7.883-1.424a.737.737 0 0 0-.752.004l-3.596 2.165a.366.366 0 0 0 0 .629l3.896 2.362a.737.737 0 0 0 .762.001l3.657-2.207a.367.367 0 0 0-.004-.632l-3.963-2.322zm19.539-.431a.735.735 0 0 0-.751.004l-3.596 2.165a.367.367 0 0 0-.001.629l3.897 2.362a.737.737 0 0 0 .762.001l3.657-2.207a.367.367 0 0 0-.004-.632l-3.964-2.322zm-64.426-13.58a.74.74 0 0 0-.734-.003l-4.459 2.542a.366.366 0 0 0-.002.636l24.93 14.502a.736.736 0 0 0 .749-.005l4.365-2.624a.365.365 0 0 0-.005-.633l-24.844-14.415zm31.649 12.323a.735.735 0 0 0-.752.004l-3.596 2.165a.368.368 0 0 0-.001.629l3.897 2.362a.737.737 0 0 0 .762.001l3.657-2.208a.367.367 0 0 0-.004-.631l-3.963-2.322zm19.665-.507a.737.737 0 0 0-.752.005l-3.595 2.165a.368.368 0 0 0-.001.629l3.897 2.361a.733.733 0 0 0 .761.001l3.658-2.207a.368.368 0 0 0-.005-.632l-3.963-2.322zm-11.652-.931a.735.735 0 0 0-.751.004l-3.596 2.165a.368.368 0 0 0-.001.63l3.897 2.361a.737.737 0 0 0 .762.001l3.657-2.207a.368.368 0 0 0-.005-.632l-3.963-2.322zm28.384.458a.737.737 0 0 0-.763.012l-1.977 1.237a.367.367 0 0 0 .011.629l4.031 2.348c.24.14.539.132.772-.02l1.918-1.251a.367.367 0 0 0-.015-.625l-3.977-2.33zm-9.147-.965a.735.735 0 0 0-.752.004l-3.596 2.165a.367.367 0 0 0 0 .629l3.896 2.362a.737.737 0 0 0 .762.001l3.657-2.208a.367.367 0 0 0-.004-.631l-3.963-2.322zm-32.569-1.167a.735.735 0 0 0-.752.004l-3.595 2.165a.368.368 0 0 0-.001.629l3.897 2.362a.735.735 0 0 0 .761.001l3.657-2.208a.365.365 0 0 0-.004-.631l-3.963-2.322zm19.667-.538a.737.737 0 0 0-.752.005l-3.596 2.165a.368.368 0 0 0-.001.629l3.897 2.362a.735.735 0 0 0 .762 0l3.657-2.207a.366.366 0 0 0-.004-.631l-3.963-2.323zm-11.658-.868a.735.735 0 0 0-.752.004l-3.596 2.165a.368.368 0 0 0-.001.629l3.897 2.362a.737.737 0 0 0 .762.001l3.657-2.208a.367.367 0 0 0-.004-.631l-3.963-2.322zm28.168.309a.735.735 0 0 0-.762.012l-1.977 1.237a.367.367 0 0 0 .01.629l4.031 2.348c.24.14.539.132.772-.02l1.918-1.251a.367.367 0 0 0-.015-.625l-3.977-2.33zm-9.101-1.003a.737.737 0 0 0-.752.005l-3.595 2.165a.368.368 0 0 0-.001.629l3.897 2.362a.735.735 0 0 0 .761 0l3.657-2.207a.368.368 0 0 0-.004-.632l-3.963-2.322zm-32.395-.854a.737.737 0 0 0-.752.004l-3.596 2.165a.366.366 0 0 0-.001.629l3.897 2.362a.737.737 0 0 0 .762.001l3.657-2.208a.367.367 0 0 0-.004-.631l-3.963-2.322zm19.623-.677a.737.737 0 0 0-.752.004l-3.595 2.166a.368.368 0 0 0-.001.629l3.896 2.361a.737.737 0 0 0 .762.001l3.657-2.207a.367.367 0 0 0-.004-.632l-3.963-2.322zm-11.47-.835a.737.737 0 0 0-.752.005l-3.595 2.165a.368.368 0 0 0-.001.629l3.896 2.361a.737.737 0 0 0 .762.001l3.657-2.207a.368.368 0 0 0-.004-.632l-3.963-2.322zm27.937.194a.737.737 0 0 0-.763.012l-1.977 1.237a.368.368 0 0 0 .01.629l4.031 2.348c.241.14.54.132.773-.02l1.917-1.251a.367.367 0 0 0-.015-.625l-3.976-2.33zm-9.112-.998a.737.737 0 0 0-.752.004l-3.595 2.165a.368.368 0 0 0-.001.63l3.896 2.361a.737.737 0 0 0 .762.001l3.657-2.207a.367.367 0 0 0-.004-.632l-3.963-2.322zm-32.297-.789a.735.735 0 0 0-.751.004l-3.596 2.165a.367.367 0 0 0-.001.629l3.897 2.362a.737.737 0 0 0 .762.001l3.657-2.207a.367.367 0 0 0-.004-.632l-3.964-2.322zm19.767-.632a.735.735 0 0 0-.751.005l-3.596 2.165a.368.368 0 0 0-.001.629l3.897 2.362a.735.735 0 0 0 .762 0l3.657-2.207a.367.367 0 0 0-.005-.632l-3.963-2.322zm-11.644-.87a.737.737 0 0 0-.752.005l-3.596 2.165a.368.368 0 0 0-.001.629l3.897 2.362a.737.737 0 0 0 .762 0l3.657-2.207a.367.367 0 0 0-.004-.632l-3.963-2.322zm27.819.118a.737.737 0 0 0-.762.011l-1.977 1.238a.368.368 0 0 0 .01.629l4.031 2.348c.24.14.539.132.772-.02l1.918-1.251a.367.367 0 0 0-.015-.625l-3.977-2.33zm-9.118-.941a.735.735 0 0 0-.752.004l-3.595 2.165a.368.368 0 0 0-.001.629l3.897 2.362a.735.735 0 0 0 .761.001l3.657-2.208a.368.368 0 0 0-.004-.631l-3.963-2.322zm-32.149-.818a.733.733 0 0 0-.751.004l-3.596 2.165a.368.368 0 0 0-.001.629l3.897 2.362a.737.737 0 0 0 .762.001l3.657-2.208a.367.367 0 0 0-.004-.631l-3.964-2.322zm19.743-.583a.735.735 0 0 0-.752.004l-3.596 2.165a.367.367 0 0 0-.001.629l3.897 2.362a.737.737 0 0 0 .762.001l3.657-2.208a.367.367 0 0 0-.004-.631l-3.963-2.322zm-11.692-.82a.737.737 0 0 0-.752.004l-3.596 2.166a.368.368 0 0 0-.001.629l3.897 2.361a.737.737 0 0 0 .762.001l3.657-2.207a.367.367 0 0 0-.004-.632l-3.963-2.322zm27.713-.045a.739.739 0 0 0-.763.011l-1.977 1.238a.367.367 0 0 0 .01.629l4.031 2.348c.241.14.54.132.773-.02l1.917-1.251a.368.368 0 0 0-.015-.625l-3.976-2.33zm-9.137-.943a.737.737 0 0 0-.752.005l-3.595 2.165a.368.368 0 0 0-.001.629l3.897 2.362a.735.735 0 0 0 .761 0l3.657-2.207a.368.368 0 0 0-.004-.632l-3.963-2.322zm-43.585-1.527a.735.735 0 0 0-.738-.005l-4.621 2.633a.367.367 0 0 0-.002.637l5.352 3.106a.738.738 0 0 0 .751-.007l4.437-2.69a.368.368 0 0 0-.004-.631l-5.175-3.043zm11.784.814a.737.737 0 0 0-.752.004l-3.596 2.165a.368.368 0 0 0-.001.63l3.897 2.361a.737.737 0 0 0 .762.001l3.657-2.207a.367.367 0 0 0-.004-.632l-3.963-2.322zm19.559-.51a.735.735 0 0 0-.752.004l-3.595 2.165a.368.368 0 0 0-.001.629l3.896 2.362a.737.737 0 0 0 .762.001l3.657-2.208a.367.367 0 0 0-.004-.631l-3.963-2.322zm-11.658-.869a.735.735 0 0 0-.752.004l-3.595 2.165a.368.368 0 0 0-.001.629l3.897 2.362a.735.735 0 0 0 .761.001l3.658-2.208a.368.368 0 0 0-.005-.631l-3.963-2.322zm27.517-.153a.737.737 0 0 0-.763.011l-1.977 1.238a.368.368 0 0 0 .011.629l4.031 2.348c.24.14.539.132.772-.02l1.918-1.252a.367.367 0 0 0-.015-.624l-3.977-2.33zm-9.144-.957a.737.737 0 0 0-.752.005l-3.596 2.165a.368.368 0 0 0-.001.629l3.897 2.361a.737.737 0 0 0 .762.001l3.657-2.207a.367.367 0 0 0-.004-.632l-3.963-2.322zm-31.577-.529a.735.735 0 0 0-.752.004l-3.596 2.165a.366.366 0 0 0-.001.629l3.897 2.362a.737.737 0 0 0 .762.001l3.657-2.208a.367.367 0 0 0-.004-.631l-3.963-2.322zm-11.628-.786a.737.737 0 0 0-.738-.003l-4.544 2.606a.369.369 0 0 0-.004.636l3.749 2.213a.735.735 0 0 0 .756-.004l4.432-2.686a.367.367 0 0 0-.005-.632l-3.646-2.13zm31.127.2a.735.735 0 0 0-.751.005l-3.596 2.165a.368.368 0 0 0-.001.629l3.897 2.361a.735.735 0 0 0 .762.001l3.657-2.207a.367.367 0 0 0-.004-.632l-3.964-2.322zm-11.47-.835a.735.735 0 0 0-.751.005l-3.596 2.165a.368.368 0 0 0-.001.629l3.897 2.361a.735.735 0 0 0 .762.001l3.657-2.207a.367.367 0 0 0-.004-.632l-3.964-2.322zm27.286-.243a.739.739 0 0 0-.763.011l-1.977 1.238a.366.366 0 0 0 .01.629l4.031 2.348c.241.14.54.132.773-.02l1.917-1.251a.368.368 0 0 0-.015-.625l-3.976-2.33zm-9.231-1.073a.737.737 0 0 0-.752.004l-3.596 2.165a.366.366 0 0 0 0 .629l3.896 2.362a.737.737 0 0 0 .762.001l3.657-2.207a.367.367 0 0 0-.004-.632l-3.963-2.322zm-31.356-.407a.737.737 0 0 0-.752.005l-3.596 2.165a.368.368 0 0 0-.001.629l3.897 2.362a.737.737 0 0 0 .762 0l3.657-2.207a.367.367 0 0 0-.004-.632l-3.963-2.322zm-14.177.767a.736.736 0 0 0-.731-.005l-1.881 1.057a.369.369 0 0 0-.007.637l3.745 2.211a.736.736 0 0 0 .754-.004l1.832-1.105a.368.368 0 0 0-.005-.632L275.703 117zm33.774-1.268a.735.735 0 0 0-.752.004l-3.596 2.165a.368.368 0 0 0-.001.629l3.897 2.362a.737.737 0 0 0 .762.001l3.657-2.208a.367.367 0 0 0-.004-.631l-3.963-2.322zm-11.645-.871a.737.737 0 0 0-.752.005l-3.595 2.165a.368.368 0 0 0-.001.629l3.896 2.362a.735.735 0 0 0 .762 0l3.657-2.207a.367.367 0 0 0-.004-.632l-3.963-2.322zm27.164-.351a.735.735 0 0 0-.762.011l-1.977 1.238a.368.368 0 0 0 .01.629l4.031 2.347c.24.141.54.133.773-.019l1.917-1.252a.367.367 0 0 0-.015-.624l-3.977-2.33zm-9.177-1.041a.737.737 0 0 0-.752.005l-3.596 2.165a.368.368 0 0 0-.001.629l3.897 2.362a.737.737 0 0 0 .762 0l3.657-2.207a.367.367 0 0 0-.004-.632l-3.963-2.322zm-31.005-.186a.735.735 0 0 0-.751.005l-3.596 2.165a.368.368 0 0 0-.001.629l3.897 2.361a.733.733 0 0 0 .761.001l3.658-2.207a.368.368 0 0 0-.005-.632l-3.963-2.322zm-11.709-.782a.735.735 0 0 0-.737-.003l-4.545 2.606a.369.369 0 0 0-.004.636l3.75 2.213a.733.733 0 0 0 .755-.004l4.432-2.686a.368.368 0 0 0-.005-.632l-3.646-2.13zm31.022.136a.737.737 0 0 0-.752.004l-3.595 2.165a.367.367 0 0 0-.001.629l3.897 2.362a.735.735 0 0 0 .761.001l3.658-2.207a.368.368 0 0 0-.005-.632l-3.963-2.322zm-11.543-.854a.737.737 0 0 0-.752.005l-3.596 2.165a.368.368 0 0 0-.001.629l3.897 2.362a.735.735 0 0 0 .762 0l3.657-2.207a.366.366 0 0 0-.004-.631l-3.963-2.323zm26.93-.456a.735.735 0 0 0-.762.012l-1.977 1.237a.367.367 0 0 0 .01.629l4.031 2.348c.24.14.539.132.772-.02l1.918-1.251a.367.367 0 0 0-.015-.625l-3.977-2.33zm-9.168-.972a.737.737 0 0 0-.752.005l-3.596 2.165a.367.367 0 0 0 0 .629l3.896 2.361a.735.735 0 0 0 .762.001l3.657-2.207a.367.367 0 0 0-.004-.632l-3.963-2.322zm-37.437-3.83a.738.738 0 0 0-.746.004l-3.535 2.106a.368.368 0 0 0 .003.634l10.44 6.076a.737.737 0 0 0 .752-.007l3.521-2.136a.368.368 0 0 0-.007-.632l-10.428-6.045zm-7.721 4.4a.736.736 0 0 0-.731-.005l-1.881 1.057a.368.368 0 0 0-.007.637l3.745 2.211a.734.734 0 0 0 .754-.004l1.832-1.105a.368.368 0 0 0-.005-.632l-3.707-2.159zm33.691-1.366a.737.737 0 0 0-.752.004l-3.595 2.165a.368.368 0 0 0-.001.63l3.896 2.361a.737.737 0 0 0 .762.001l3.657-2.207a.367.367 0 0 0-.004-.632l-3.963-2.322zm-11.47-.835a.737.737 0 0 0-.752.004l-3.595 2.166a.368.368 0 0 0-.001.629l3.896 2.361a.737.737 0 0 0 .762.001l3.657-2.207a.368.368 0 0 0-.004-.632l-3.963-2.322zm26.683-.545a.737.737 0 0 0-.763.011l-1.977 1.238a.368.368 0 0 0 .01.629l4.031 2.347c.241.14.54.133.773-.019l1.917-1.252a.366.366 0 0 0-.015-.624l-3.976-2.33zm-9.251-1.067a.737.737 0 0 0-.752.004l-3.595 2.165a.367.367 0 0 0-.001.629l3.897 2.362a.735.735 0 0 0 .761.001l3.657-2.207a.368.368 0 0 0-.004-.632l-3.963-2.322zm-11.137-.613a.735.735 0 0 0-.751.005l-3.596 2.165a.368.368 0 0 0-.001.629l3.897 2.362a.737.737 0 0 0 .762 0l3.657-2.207a.367.367 0 0 0-.005-.632l-3.963-2.322zm-11.644-.87a.737.737 0 0 0-.752.005l-3.596 2.165a.368.368 0 0 0-.001.629l3.897 2.361a.735.735 0 0 0 .762.001l3.657-2.207a.367.367 0 0 0-.004-.632l-3.963-2.322zm26.525-.674a.737.737 0 0 0-.763.012l-1.977 1.237a.367.367 0 0 0 .01.629l4.031 2.348c.241.14.54.133.773-.02l1.918-1.251a.368.368 0 0 0-.016-.625l-3.976-2.33zm-9.166-1.004a.737.737 0 0 0-.752.004l-3.595 2.166a.367.367 0 0 0-.001.629l3.896 2.361a.737.737 0 0 0 .762.001l3.657-2.207a.367.367 0 0 0-.004-.632l-3.963-2.322zm-11.064-.546a.735.735 0 0 0-.752.004l-3.596 2.165a.367.367 0 0 0-.001.629l3.897 2.362a.737.737 0 0 0 .762.001l3.657-2.208a.367.367 0 0 0-.004-.631l-3.963-2.322zm-5.098-2.751a.733.733 0 0 0-.737.002l-8.279 4.827a.367.367 0 0 0-.006.631l2.108 1.283c.23.14.519.143.752.008l4.381-2.538a.737.737 0 0 1 .779.025l.46.309c.364.244.838.25 1.208.015l2.94-1.871a.368.368 0 0 0-.014-.629l-3.592-2.062zm19.862 1.115a.734.734 0 0 0-.763.011l-1.977 1.238a.368.368 0 0 0 .01.629l4.031 2.347c.24.14.54.133.773-.019l1.917-1.252a.367.367 0 0 0-.015-.625l-3.976-2.329zm-14.366-4.065a.736.736 0 0 0-.737-.007l-3.588 2.032a.367.367 0 0 0-.004.636l9.195 5.39a.737.737 0 0 0 .757-.008l3.403-2.087a.369.369 0 0 0-.005-.63l-9.021-5.326zm8.93.904a.737.737 0 0 0-.763.01l-1.977 1.239a.369.369 0 0 0 .01.63l4.031 2.346c.241.14.54.133.773-.019l1.918-1.252a.366.366 0 0 0-.016-.624l-3.976-2.33zm-5.512-3.235a.735.735 0 0 0-.762.011l-1.977 1.238a.367.367 0 0 0 .01.629l4.031 2.348c.24.14.539.132.772-.02l1.918-1.251a.367.367 0 0 0-.015-.625l-3.977-2.33z" fill="#EFF0FD"/><path fill-rule="evenodd" clip-rule="evenodd" d="M286.369 132.014l-9.778 6.033a1.47 1.47 0 0 0 .045 2.529l15.712 8.932a4.05 4.05 0 0 0 4.133-.078l9.149-5.667a1.471 1.471 0 0 0-.018-2.51l-15.415-9.262a3.68 3.68 0 0 0-3.828.023zm-6.504-46.301l-.655 1.117 11.614 6.8-30.994 18.206-13.059-7.604-.652 1.119 108.003 62.898.653-1.119-93.661-54.546 30.991-18.205 94.113 55.096.655-1.118-107.008-62.644z" fill="#5B61ED"/><path fill-rule="evenodd" clip-rule="evenodd" d="M368.537 138.29l-32.146 18.886.656 1.116 32.147-18.885-.657-1.117zm-31.105 38.451v3.836l-106.126-60.962v-3.747l105.084 60.873h1.042z" fill="#5B61ED"/></svg>