<svg width="84" height="129" fill="none" xmlns="http://www.w3.org/2000/svg"><path d="M61.572 33.375L14.797 6.206C6.625 1.552 0 6.548 0 17.471v54.306c0 10.861 6.625 23.615 14.797 28.348l46.775 27.106c8.173 4.655 14.797-.295 14.797-11.218V61.707c0-10.907-6.624-23.6-14.797-28.332z" fill="#5B61ED"/><path d="M69.078 29.108h0L22.303 1.985l46.775 27.122zm0 0c4.04 2.335 7.711 6.648 10.373 11.753 2.66 5.103 4.3 10.971 4.3 16.393v54.306c0 3.574-.853 6.181-2.159 8.16-1.308 1.981-3.083 3.349-4.96 4.424l-.007.004-.006.005-2.67 1.765m-4.87-96.81l4.87 96.81m0 0c1.705-2.291 2.67-5.665 2.67-9.873V61.739c0-5.517-1.668-11.483-4.361-16.654-2.692-5.168-6.42-9.568-10.561-11.927 0 0 0 0 0 0l-46.79-27.12c-2.752-1.597-5.358-2.1-7.61-1.644l5.757-3.388.068.082.177-.088c2.442-1.209 5.555-1.003 9.004.985l51.646 123.933z" fill="#EFF0FD" stroke="#5B61ED" stroke-width=".5"/><path d="M61.447 33.591h0c4.032 2.335 7.703 6.664 10.367 11.775 2.59 4.971 4.216 10.658 4.302 15.92L.25 17.328c.03-5.345 1.667-9.182 4.235-11.13 2.575-1.956 6.161-2.067 10.188.226 0 0 0 0 0 0l46.774 27.168z" stroke="#5B61ED" stroke-width=".5"/><path d="M13.218 79.473a19.546 19.546 0 0 1 1.548-8.627 14.646 14.646 0 0 1 5.541-5.57 16.903 16.903 0 0 0 5.448-5.074 11.97 11.97 0 0 0 1.548-6.206c.09-1.776-.227-3.55-.928-5.183a6.883 6.883 0 0 0-2.74-2.885c-2.446-1.418-3.668-.42-3.668 2.994v5.555l-6.702-3.88v-5.073c0-4.2.902-6.904 2.708-8.115 1.806-1.21 4.427-.817 7.863 1.18a20.38 20.38 0 0 1 7.817 7.96 23.009 23.009 0 0 1 2.708 11.233 15.904 15.904 0 0 1-1.965 8.13 19.942 19.942 0 0 1-6.795 6.44 13.584 13.584 0 0 0-4.257 3.8 8.472 8.472 0 0 0-1.099 4.531V81.8l13.466 7.758v7.417l-20.493-11.87v-5.632zM41.636 98.93a23.009 23.009 0 0 1-2.708-11.234v-4.08l6.702 3.879v4.655a7.618 7.618 0 0 0 .82 4.105 7.596 7.596 0 0 0 2.864 3.047c2.445 1.418 3.668.445 3.668-2.917V84.75a7.774 7.774 0 0 0-.833-4.1 7.75 7.75 0 0 0-2.835-3.069c-2.446-1.417-3.669-.419-3.669 2.995v.45l-6.702-3.88 1.3-28.3 18.698 10.86v7.417l-12.383-7.168-.588 12.04h.124c1.331-1.748 3.395-1.825 6.191-.232a14.37 14.37 0 0 1 5.867 6.439 23.03 23.03 0 0 1 1.996 9.977v11.745c0 4.2-.903 6.905-2.708 8.115-1.806 1.21-4.443.817-7.91-1.179a20.376 20.376 0 0 1-7.894-7.929z" fill="#EFF0FD"/><path d="M25.384 16.26c-2.77-1.55-5.015-.325-5.015 2.871.097 1.74.602 3.431 1.473 4.938a11.068 11.068 0 0 0 3.542 3.736c2.77 1.551 5.015.325 5.015-2.87a11.098 11.098 0 0 0-1.473-4.939 11.067 11.067 0 0 0-3.542-3.735zm29.533 17.612c-2.77-1.552-5.015-.326-5.015 2.87.097 1.74.602 3.431 1.473 4.938a11.067 11.067 0 0 0 3.542 3.736c2.77 1.551 5.015.325 5.015-2.87a11.098 11.098 0 0 0-1.473-4.939 11.067 11.067 0 0 0-3.542-3.735z" fill="#fff"/><path d="M29.748 25.933c.249.125.652.282.96.394-.276 1.11-.931 1.87-1.801 2.214-.927.365-2.148.275-3.497-.453a11.948 11.948 0 0 1-3.962-3.911c-.995-1.611-2.09-3.72-2.198-5.511.002-1.459.599-2.453 1.482-2.975.848-.502 2-.592 3.236-.183-.048.308-.073.62-.073.93v.015a11.577 11.577 0 0 0 1.72 5.403 12.445 12.445 0 0 0 4.132 4.079l.001-.002zM58.656 43.7c.272.134.717.306 1.051.425-.298 1.202-1.012 2.027-1.966 2.399-1.013.395-2.342.297-3.808-.486a12.894 12.894 0 0 1-4.299-4.197c-1.078-1.727-2.267-3.99-2.384-5.913.002-1.567.65-2.638 1.614-3.202.93-.544 2.192-.64 3.542-.193a6.28 6.28 0 0 0-.082 1.008v.015a12.291 12.291 0 0 0 1.86 5.781 13.393 13.393 0 0 0 4.47 4.364l.002-.002z" stroke="#5B61ED" stroke-width=".5"/></svg>