<svg width="175" height="113" fill="none" xmlns="http://www.w3.org/2000/svg"><path d="M174.036 64.962L1.003 43.662a1.177 1.177 0 0 1-.697-.961v8.253a1.165 1.165 0 0 0 .697.962l103.633 59.409a3.667 3.667 0 0 0 3.315 0l66.045-38.104a1.158 1.158 0 0 0 .681-.945v-8.253a1.159 1.159 0 0 1-.641.94z" fill="#EFF0FD" stroke="#5B61ED" stroke-width=".566" stroke-linejoin="round"/><path d="M173.996 63.055c.919.529.924 1.384 0 1.907l-66.016 38.104a3.686 3.686 0 0 1-3.316 0L1.003 43.662c-.924-.528-.93-1.383 0-1.907l66.04-38.11a3.683 3.683 0 0 1 3.32 0l103.633 59.41z" fill="#fff" stroke="#5B61ED" stroke-width=".566" stroke-linejoin="round"/><path d="M54.834 52.602l-9.289 5.362 11.794 6.762 9.29-5.362-11.795-6.762zm29.262 27.46l11.8 6.762 9.29-5.361L93.391 74.7l-9.295 5.361zM67.677 59.966l-9.294 5.356 11.822 6.78 9.29-5.362-11.818-6.774zm12.866 7.37l-9.29 5.362 11.801 6.762 9.29-5.356-11.8-6.768zm30.044-18.532l-11.822-6.773-9.29 5.361 11.817 6.774 9.295-5.362zm12.843 7.365l-11.8-6.762-9.289 5.355 11.8 6.768 9.289-5.361zM41.986 45.243l-9.29 5.356 11.795 6.762 9.295-5.355-11.8-6.763zM63.784 32.67l11.794 6.762 9.295-5.362-11.8-6.762-9.29 5.362zm12.848 7.364l11.795 6.757 9.289-5.356-11.794-6.763-9.29 5.362zm9.307-6.577l9.289-5.361-11.794-6.763-9.295 5.362 11.8 6.762zm25.714 14.734l9.289-5.36-11.823-6.775-9.289 5.362 11.823 6.773zm-12.866-7.375l9.289-5.356-11.8-6.762-9.289 5.356 11.8 6.762zM82.385 20.737l-11.794-6.762-9.295 5.361 11.8 6.757 9.289-5.356zm42.116 34.819l9.29-5.362-11.806-6.762-9.289 5.356 11.805 6.768zm10.332-4.766l-9.289 5.362 11.8 6.762 9.29-5.361-11.801-6.762zm-19.649 11.337l11.8 6.762 9.289-5.361-11.794-6.757-9.295 5.356zM72.03 26.712l-11.8-6.763-9.29 5.356 11.795 6.763 9.295-5.356zM43.051 44.625l11.8 6.762 9.29-5.361-11.795-6.757-9.294 5.356zM61.67 32.686l-11.795-6.762-9.306 5.367 11.794 6.762 9.307-5.367zM29.143 37.88l-9.289 5.36 11.794 6.763 9.295-5.361-11.8-6.763zm22.155.787l-11.8-6.757-9.29 5.356 11.8 6.762 9.29-5.361zm2.114-.017l11.795 6.762 9.306-5.367-11.795-6.762-9.306 5.367zM76.99 53.39l-11.8-6.757-9.29 5.356 11.8 6.762 9.29-5.361zm12.865 7.375l-11.823-6.773-9.29 5.355 11.824 6.78 9.289-5.362zm12.849 7.365l-11.806-6.768-9.29 5.361 11.806 6.763 9.29-5.356zm-8.247 5.957l11.794 6.763 9.295-5.362-11.8-6.762-9.289 5.361zm10.36-5.974l11.795 6.762 9.306-5.373-11.8-6.756-9.301 5.367zM66.26 46.014l11.795 6.762 9.306-5.367-11.8-6.762-9.3 5.367zm46.815 16.129l-11.805-6.762-9.301 5.367 11.8 6.762 9.306-5.367zm-12.848-7.363l-11.823-6.774-9.306 5.367 11.822 6.779 9.307-5.373zM96.94 87.42l11.805 6.763 9.289-5.356-11.8-6.768-9.294 5.362zm50.736-29.265l-9.289 5.356 11.8 6.768 9.295-5.362-11.806-6.762zm-30.021 17.316l11.805 6.763 9.307-5.367-11.806-6.763-9.306 5.367zm10.377-5.986l11.8 6.768 9.29-5.361-11.8-6.763-9.29 5.356zM107.3 81.446l11.8 6.762 9.289-5.355-11.8-6.768-9.289 5.361z" fill="#5B61ED"/><path d="M79.103 20.467c.125-.073.187-.152.187-.236 0-.085-.062-.169-.192-.242a.825.825 0 0 0-.425-.113.798.798 0 0 0-.414.107l-.482.276c-.13.073-.192.158-.192.242 0 .084.062.169.192.242a.827.827 0 0 0 .425.112.804.804 0 0 0 .414-.112l.487-.276zm-.923.192a.355.355 0 0 1-.182-.046.119.119 0 0 1-.074-.1c0-.035.029-.074.085-.102l.5-.287a.377.377 0 0 1 .362 0 .12.12 0 0 1 .074.101c0 .04-.029.073-.085.107l-.5.287a.331.331 0 0 1-.175.04h-.005zm1.904-.079l-.011-.012-.216-.123-.028-.012-.272-.056-.04.006-.153.095-.006.017.006.006.227.073.006.006-.006.005-.998.574-.005.011.011.012.204.123h.045l1.23-.709.006-.016zm11.67 7.139c.124-.073.187-.152.187-.236 0-.085-.063-.17-.193-.242a.827.827 0 0 0-.425-.113.799.799 0 0 0-.408.107l-.482.276c-.128.075-.193.155-.193.242 0 .086.065.167.193.242a.821.821 0 0 0 .425.112.798.798 0 0 0 .414-.112l.482-.276zm-.918.191a.354.354 0 0 1-.182-.045.118.118 0 0 1-.073-.101.14.14 0 0 1 .085-.101l.498-.287a.405.405 0 0 1 .182-.05.354.354 0 0 1 .181.044.12.12 0 0 1 .074.101c0 .04-.029.073-.085.107l-.5.287a.324.324 0 0 1-.18.045zm2.068.05a.407.407 0 0 0-.164-.157.814.814 0 0 0-.25-.095.705.705 0 0 0-.26 0 .605.605 0 0 0-.233.067l-.085.05.21.125h.091l.147-.04c.056.001.11.017.159.045.045 0 .068.056.068.09l-.057.09c-.14.047-.288.068-.436.062h-.89l-.17.096.8.461h.044l.176-.101-.482-.276h.709c.095-.004.19-.015.283-.034a.714.714 0 0 0 .199-.067.286.286 0 0 0 .187-.146.15.15 0 0 0-.046-.17zm11.715 7.129c.125-.073.187-.152.187-.237 0-.084-.062-.168-.192-.242a.834.834 0 0 0-.426-.112.793.793 0 0 0-.408.107l-.481.275c-.129.075-.193.156-.193.242 0 .09.062.17.193.242a.832.832 0 0 0 .838 0l.482-.275zm-.924.19a.354.354 0 0 1-.181-.044.122.122 0 0 1-.074-.101c0-.034.029-.074.085-.102l.499-.287a.378.378 0 0 1 .363 0 .121.121 0 0 1 .074.102c0 .04-.029.073-.085.107l-.499.286a.334.334 0 0 1-.159.04h-.023zm1.502-.309h-.039l-.176.102.419.242h-.549l-.04.146h.136c.062.034.079.079.051.13a.297.297 0 0 1-.113.095.438.438 0 0 1-.148.056.289.289 0 0 1-.226 0l-.057-.067V35.6l.068-.068-.21-.124h-.028a.4.4 0 0 0-.125.107.182.182 0 0 0-.04.192.323.323 0 0 0 .165.174.797.797 0 0 0 .306.096.86.86 0 0 0 .323 0 .764.764 0 0 0 .215-.085.489.489 0 0 0 .159-.13.165.165 0 0 0 .033-.058.169.169 0 0 0 .005-.067.158.158 0 0 0-.072-.11h.493l.204-.119-.754-.438zm12.39 7.224c0-.09-.068-.174-.198-.247a.835.835 0 0 0-.426-.113.795.795 0 0 0-.413.107l-.482.276c-.129.075-.193.155-.193.242 0 .086.064.166.193.241a.86.86 0 0 0 .425.113.804.804 0 0 0 .414-.113l.482-.275c.141-.079.204-.158.198-.23zm-.431.09l-.499.287a.374.374 0 0 1-.357 0 .121.121 0 0 1-.051-.04.113.113 0 0 1-.022-.061c0-.034.028-.073.079-.101l.499-.287a.374.374 0 0 1 .362 0 .117.117 0 0 1 .074.1.146.146 0 0 1-.033.055.143.143 0 0 1-.052.036v.011zm1.134.191l-.034-.01-1.06.241-.034.011-.148.085-.005.017.011.01.544.31v.011l-.294.175-.012.011.012.011.209.118.017.006.023-.005.295-.175h.022l.08.05.017.006.017-.005.187-.107.011-.017-.011-.006-.074-.05v-.011l.221-.13.011-.011-.011-.011-.204-.119-.023-.005-.022.005-.221.13h-.023l-.266-.152v-.006l.005-.005.975-.22.023-.017-.017-.01-.221-.125zm12.015 7.337c.125-.073.187-.152.181-.242-.005-.09-.062-.169-.192-.242a.858.858 0 0 0-.839-.006l-.482.276c-.13.073-.192.152-.192.242s.068.169.192.242a.833.833 0 0 0 .425.112.784.784 0 0 0 .42-.107l.487-.275zm-.924.185a.326.326 0 0 1-.181-.045c-.051-.028-.074-.067-.068-.1.006-.035.028-.074.085-.102l.499-.287a.356.356 0 0 1 .181-.05.316.316 0 0 1 .176.039c.056.033.079.067.073.1-.005.035-.028.074-.085.108l-.498.287a.327.327 0 0 1-.182.05zm2.245.124l-.731-.422h-.046l-.737.422.216.124h.164l.113.045.068.067v.068l-.079.068-.108.039h-.136l-.113-.034-.062-.062v-.073l-.216-.124h-.045l-.074.073a.182.182 0 0 0-.034.186.347.347 0 0 0 .17.175.808.808 0 0 0 .306.1.828.828 0 0 0 .329 0 .814.814 0 0 0 .199-.078.563.563 0 0 0 .141-.118.174.174 0 0 0 .046-.18.293.293 0 0 0-.148-.163.616.616 0 0 0-.238-.074l.272-.151.493.28h.046l.175-.1.029-.068zm11.522 7.049c.125-.073.187-.152.187-.236 0-.084-.063-.169-.193-.242a.833.833 0 0 0-.425-.112.8.8 0 0 0-.414.106l-.481.276c-.131.073-.193.158-.193.242 0 .084.062.169.198.242a.829.829 0 0 0 .425.112.804.804 0 0 0 .414-.112l.482-.276zm-.924.191a.354.354 0 0 1-.181-.044.122.122 0 0 1-.074-.101c0-.035.028-.074.085-.102l.499-.287a.375.375 0 0 1 .362 0 .118.118 0 0 1 .074.101c0 .04-.028.073-.085.107l-.499.287a.334.334 0 0 1-.175.062l-.006-.023zm2.063.023a.436.436 0 0 0-.164-.146.851.851 0 0 0-.25-.096.826.826 0 0 0-.255 0 .621.621 0 0 0-.226.073l-.567.315a.404.404 0 0 0-.142.124.182.182 0 0 0-.04.191.361.361 0 0 0 .17.169.765.765 0 0 0 .295.096.87.87 0 0 0 .312 0 .832.832 0 0 0 .221-.09.448.448 0 0 0 .17-.147.167.167 0 0 0 0-.157.334.334 0 0 0-.142-.14.534.534 0 0 0-.255-.074l.17-.096.148-.039.153.04.062.084-.057.079.21.118h.04l.051-.028a.253.253 0 0 0 .119-.124.189.189 0 0 0-.023-.152zm-.844.264c.056.034.073.073.056.113a.171.171 0 0 1-.085.09l-.142.05a.313.313 0 0 1-.215-.028c-.062-.033-.079-.078-.051-.123l.085-.08a.493.493 0 0 1 .142-.055.321.321 0 0 1 .21.045v-.012zM68.579 26.33c.124-.074.187-.153.18-.243-.005-.09-.067-.168-.197-.242a.811.811 0 0 0-.414-.112.776.776 0 0 0-.414.107l-.482.276c-.13.073-.192.157-.187.241.006.085.068.17.193.242a.86.86 0 0 0 .42.113.815.815 0 0 0 .425-.113l.476-.27zm-.93.19a.32.32 0 0 1-.176-.044c-.05-.029-.079-.062-.073-.096.005-.034.028-.073.09-.107l.5-.287a.359.359 0 0 1 .18-.05.307.307 0 0 1 .17.044c.057.034.085.068.08.102-.006.034-.029.073-.085.107l-.499.287a.353.353 0 0 1-.164.045h-.023zm1.939-.112a.795.795 0 0 0-.227-.084.772.772 0 0 0-.25 0 .643.643 0 0 0-.289.084.277.277 0 0 0-.119.118v.09h-.192a.857.857 0 0 0-.227.085.39.39 0 0 0-.148.135.163.163 0 0 0 0 .174c.042.067.1.121.17.158a.878.878 0 0 0 .572.101.704.704 0 0 0 .233-.085.395.395 0 0 0 .148-.135v-.112h.164a.57.57 0 0 0 .221-.073.277.277 0 0 0 .147-.163.174.174 0 0 0 0-.141.453.453 0 0 0-.203-.152zm-.652.534l-.085.08a.404.404 0 0 1-.165.056.296.296 0 0 1-.187-.04c-.056-.034-.08-.073-.056-.112l.085-.09a.428.428 0 0 1 .147-.051.29.29 0 0 1 .204.034c.062.04.08.079.057.123zm.493-.28l-.063.05-.119.04a.308.308 0 0 1-.192-.034c-.057-.034-.074-.068-.063-.113l.074-.067.096-.034h.108l.096.034.068.061-.005.062zm12.027 7.032c.124-.074.187-.152.187-.237 0-.084-.074-.168-.204-.242a.816.816 0 0 0-.42-.112.776.776 0 0 0-.414.107l-.481.276c-.13.073-.193.157-.187.247.005.09.068.163.192.236.13.075.276.115.425.118a.838.838 0 0 0 .42-.112l.482-.281zm-.924.19a.342.342 0 0 1-.182-.05c-.05-.028-.079-.062-.073-.095.005-.034.028-.073.085-.107l.499-.287a.36.36 0 0 1 .18-.05.309.309 0 0 1 .17.044c.058.034.086.068.086.102a.153.153 0 0 1-.09.106l-.5.287a.404.404 0 0 1-.18.05h.005zm1.87-.129a.742.742 0 0 0-.295-.095.855.855 0 0 0-.311 0 .836.836 0 0 0-.227.09.441.441 0 0 0-.165.14.173.173 0 0 0 0 .158c.031.06.08.11.142.14.08.045.17.07.26.074l-.17.095-.146.04-.142-.04-.074-.04.057-.084-.21-.118h-.045l-.051.029a.243.243 0 0 0-.12.123.145.145 0 0 0 0 .147c.043.06.1.108.165.14a.848.848 0 0 0 .25.096c.084.016.17.016.255 0a.57.57 0 0 0 .22-.073l.567-.315a.529.529 0 0 0 .148-.118.18.18 0 0 0 .034-.186.355.355 0 0 0-.142-.203zm-.164.253l-.085.08a.406.406 0 0 1-.148.05.285.285 0 0 1-.21-.028c-.056-.034-.073-.073-.056-.118l.09-.085.142-.05a.308.308 0 0 1 .216.028c.062.05.079.09.05.135v-.012zm12.196 6.678l-.005-.01-.216-.125-.034-.01-.278-.057-.04.005-.152.09v.023h.005l.227.079h.006l-.006.011-.992.574-.011.006.011.016.204.119.023.005.023-.005 1.23-.71.005-.01zm.636.338a.816.816 0 0 0-.42-.113.8.8 0 0 0-.408.107l-.482.276c-.13.073-.193.152-.193.242s.068.169.199.242a.854.854 0 0 0 .844 0l.482-.276c.124-.073.181-.152.181-.236 0-.084-.057-.163-.204-.242zm-.233.332l-.5.287a.352.352 0 0 1-.356.005c-.051-.028-.08-.061-.08-.1a.152.152 0 0 1 .091-.108l.499-.286a.389.389 0 0 1 .181-.051.336.336 0 0 1 .176.045c.051.028.08.062.08.101 0 .04-.035.073-.091.107zm12.633 6.796l-.011-.011-.216-.124-.034-.011-.277-.057-.04.006-.147.09-.012.023.012.005.226.073h.006l-.006.011-.991.574-.012.012.006.01.21.125h.028l.017-.006 1.23-.709.011-.011zm.414.231l-.029-.012-.283-.05-.034.005-.153.09-.006.023h.011l.222.073.011.006-.011.005-.992.574-.006.017.006.011.204.118h.045l1.236-.708.005-.017-.011-.011-.215-.124zm12.248 7.027l-.012-.012-.215-.124-.028-.01-.278-.052h-.046l-.147.09-.006.029h.012l.226.073h.006l-.006.011-.997.574-.011.011.011.017.21.118h.045l1.23-.709.006-.017zm.799.64a.195.195 0 0 0 0-.157.43.43 0 0 0-.17-.152 1.003 1.003 0 0 0-.244-.095.967.967 0 0 0-.261 0 .663.663 0 0 0-.232.067l-.085.05.209.119h.051l.153-.04a.33.33 0 0 1 .159.046c.046 0 .074.056.08.09l-.063.084a1.188 1.188 0 0 1-.431.068h-.861l-.17.095.805.462h.045l.176-.102-.488-.275h.709c.095-.004.19-.016.283-.034a.572.572 0 0 0 .193-.068.302.302 0 0 0 .142-.157zm12.061 6.73l-.006-.006-.221-.13-.028-.011-.278-.05h-.04l-.153.095-.006.023h.012l.227.073.005.005-.005.006-.998.574-.006.011.006.017.21.118.022.006.023-.006 1.23-.714.006-.012zm.968.556l-.742-.427h-.028l-.176.101.419.242h-.538l-.045.146h.153c.068.04.085.085.051.13a.283.283 0 0 1-.114.095.573.573 0 0 1-.147.057.3.3 0 0 1-.227 0l-.068-.068v-.073l.068-.062-.21-.118h-.045a.707.707 0 0 0-.119.101.195.195 0 0 0-.044.09.202.202 0 0 0 .004.101.348.348 0 0 0 .17.18.859.859 0 0 0 .307.102.82.82 0 0 0 .323 0 .79.79 0 0 0 .215-.085.485.485 0 0 0 .153-.135.166.166 0 0 0 .035-.125.158.158 0 0 0-.023-.063.174.174 0 0 0-.046-.048h.493l.204-.118-.023-.023zM58.45 31.938l-.01-.011-.216-.124-.034-.011-.278-.056-.04.005-.153.096-.005.017.017.006.22.073.006.005v.006l-1.003.574-.005.011.005.011.21.118.023.012.022-.006 1.23-.709.011-.017zm.182.619a.642.642 0 0 0-.238-.073l.266-.158.499.287.17-.101-.669-.444-.73.421.22.13h.165l.119.04.062.061v.073l-.074.062-.113.045h-.13l-.12-.034-.056-.067v-.073l-.216-.124h-.045l-.074.073a.18.18 0 0 0-.034.191.367.367 0 0 0 .17.175.841.841 0 0 0 .306.101.9.9 0 0 0 .335 0 .616.616 0 0 0 .34-.197.196.196 0 0 0 .045-.18.313.313 0 0 0-.198-.208zm12.661 6.745l-.01-.01-.216-.13-.029-.006-.277-.056h-.046l-.153.096v.022h.012l.226.073v.011l-1.003.58-.005.011.01.011.21.118.017.006h.023l1.23-.709.011-.017zm.595.771h.046a.265.265 0 0 0 .124-.13.15.15 0 0 0-.028-.146.425.425 0 0 0-.159-.14.791.791 0 0 0-.249-.096.75.75 0 0 0-.26 0 .569.569 0 0 0-.222.073l-.567.315a.568.568 0 0 0-.147.119.196.196 0 0 0-.034.185.356.356 0 0 0 .17.175.859.859 0 0 0 .3.1c.104.02.21.02.312 0a.852.852 0 0 0 .233-.09.356.356 0 0 0 .158-.146.156.156 0 0 0 0-.157.298.298 0 0 0-.136-.14.569.569 0 0 0-.266-.074l.17-.101.147-.04.148.04.062.079-.057.084.216.124.04-.034zm-.674-.045c.062.034.08.073.062.118a.215.215 0 0 1-.09.085l-.142.05a.296.296 0 0 1-.215-.028c-.069-.04-.08-.079-.057-.124l.085-.078a.438.438 0 0 1 .153-.057.29.29 0 0 1 .204.034zm12.962 6.656l-.011-.012-.216-.123-.034-.017-.278-.05h-.04l-.152.095v.022h.005l.227.073.006.006-.006.006-.997.58-.012.01.017.012.204.118.017.005.023-.005 1.23-.71.017-.01zm.76.669l.186-.107.012-.017-.011-.01-.777-.445-.023-.006-.022.006-.295.169-.006.005.006.017.159.096h.051l.079-.05h.023l.328.19v.012l-1.405.365-.011.023.226.13.04.005 1.406-.371.034-.012zM96.98 54.02l-.018-.012-.21-.123-.033-.011-.278-.057-.04.006-.153.096-.006.016.017.006.222.067.005.012v.005l-1.003.574-.006.012.006.01.21.119.022.011.017-.005 1.23-.71.017-.016zm.793.59a.163.163 0 0 0 0-.135.403.403 0 0 0-.148-.135.854.854 0 0 0-.232-.09.84.84 0 0 0-.25 0 .684.684 0 0 0-.288.085.289.289 0 0 0-.125.118v.096h-.204a.738.738 0 0 0-.233.084.39.39 0 0 0-.147.135.162.162 0 0 0 0 .174c.04.068.099.123.17.158a.855.855 0 0 0 .567.101.662.662 0 0 0 .232-.079.363.363 0 0 0 .148-.135v-.118h.164a.618.618 0 0 0 .215-.067.252.252 0 0 0 .13-.191zm-.918.344a.49.49 0 0 1-.16.05.297.297 0 0 1-.186-.04c-.063-.033-.085-.072-.063-.112l.091-.084a.456.456 0 0 1 .142-.05.296.296 0 0 1 .21.033c.068.04.085.079.062.124l-.096.079zm.566-.366l-.056.056-.12.04a.314.314 0 0 1-.198-.04c-.056-.033-.073-.067-.056-.107l.067-.067.091-.034h.12l.096.034.068.062-.012.056zm12.412 6.796l-.011-.011-.215-.124-.034-.011-.278-.057-.04.006-.153.096-.006.017.012.005.221.073.006.006v.006l-.998.573-.011.012.011.01.21.125.022.005.017-.005 1.23-.71.017-.016zm.748.501a.356.356 0 0 0-.17-.175.832.832 0 0 0-.612-.078.799.799 0 0 0-.226.084.354.354 0 0 0-.159.146.157.157 0 0 0 0 .163.36.36 0 0 0 .142.135c.077.046.165.07.255.074l-.17.095-.148.04-.147-.04-.068-.079.062-.078-.209-.118h-.097a.254.254 0 0 0-.124.129.17.17 0 0 0 0 .146.5.5 0 0 0 .164.14.901.901 0 0 0 .244.096.762.762 0 0 0 .26 0 .569.569 0 0 0 .227-.067l.567-.315a.569.569 0 0 0 .147-.118.192.192 0 0 0 .062-.18zm-.334.079l-.085.078a.45.45 0 0 1-.153.056.302.302 0 0 1-.204-.033c-.062-.034-.079-.073-.062-.118l.085-.09.141-.051a.31.31 0 0 1 .216.034c.068.045.09.045.062.112v.012zm11.041 7.201h.708l.284-.034a.702.702 0 0 0 .198-.068.294.294 0 0 0 .13-.135.18.18 0 0 0 .017-.078.18.18 0 0 0-.017-.08.426.426 0 0 0-.175-.157.942.942 0 0 0-.238-.095.978.978 0 0 0-.267 0 .64.64 0 0 0-.232.073l-.08.045.21.124h.045l.159-.04a.33.33 0 0 1 .153.045.147.147 0 0 1 .08.09l-.063.085c-.139.05-.288.073-.436.067h-.873l-.17.096.799.461h.04l.175-.101-.447-.298zm2.369.247a.332.332 0 0 0-.07-.145.33.33 0 0 0-.129-.097.847.847 0 0 0-.839-.005l-.481.275a.308.308 0 0 0-.127.096.31.31 0 0 0-.06.146c0 .09.068.17.198.242a.83.83 0 0 0 .833 0l.482-.275c.13-.074.187-.147.193-.237zm-.431.09l-.499.287a.384.384 0 0 1-.181.05.335.335 0 0 1-.176-.044c-.057-.034-.079-.062-.079-.101 0-.04.028-.074.085-.107l.499-.287a.375.375 0 0 1 .181-.05.325.325 0 0 1 .176.044c.051.028.079.062.079.101a.165.165 0 0 1-.085.107zM47.251 38.616l-.482-.276h.709c.097-.004.193-.016.289-.033a.688.688 0 0 0 .198-.068.27.27 0 0 0 .125-.135.163.163 0 0 0 0-.163.47.47 0 0 0-.17-.152.83.83 0 0 0-.25-.096.705.705 0 0 0-.26 0 .569.569 0 0 0-.233.068l-.085.05.21.119h.09l.154-.034c.056 0 .11.016.158.045.046 0 .068.056.068.09l-.056.084a1.14 1.14 0 0 1-.437.062h-.89l-.17.096.8.455h.022l.176-.1.034-.012zm1.825.017a.163.163 0 0 0 0-.163.47.47 0 0 0-.17-.152.815.815 0 0 0-.25-.096.701.701 0 0 0-.26 0 .572.572 0 0 0-.22.034l-.086.05.21.124h.085l.153-.033a.31.31 0 0 1 .159.045c.045 0 .068.056.068.09l-.051.084c-.14.048-.289.069-.437.062h-.89l-.17.096.8.46h.045l.175-.1-.481-.276h.708c.093-.007.186-.02.278-.04a.687.687 0 0 0 .198-.067.272.272 0 0 0 .136-.118zm10.559 7.072h.714c.095-.007.19-.02.284-.04a.567.567 0 0 0 .198-.067.276.276 0 0 0 .13-.13.19.19 0 0 0 0-.163.48.48 0 0 0-.17-.152.851.851 0 0 0-.25-.095.77.77 0 0 0-.26 0 .606.606 0 0 0-.232.067l-.085.05.21.119h.083l.148-.034c.056.002.11.018.159.045a.125.125 0 0 1 .073.09l-.056.085c-.138.05-.285.074-.431.067h-.873l-.17.096.805.461h.04l.175-.101-.493-.298zm2.465.208l-.742-.428h-.045l-.176.102.42.241h-.54l-.045.147h.136c.069.04.08.079.057.124a.311.311 0 0 1-.119.1.533.533 0 0 1-.147.057.325.325 0 0 1-.233 0l-.056-.067v-.074l.074-.061-.21-.119h-.046a.73.73 0 0 0-.124.107.207.207 0 0 0-.04.192.35.35 0 0 0 .17.174.787.787 0 0 0 .3.101c.109.022.22.022.33 0a.995.995 0 0 0 .215-.084.492.492 0 0 0 .153-.135.157.157 0 0 0-.034-.236h.493l.204-.119.005-.022zm10.316 7.1h.702l.284-.034a.666.666 0 0 0 .193-.073.282.282 0 0 0 .13-.13.195.195 0 0 0 0-.163.481.481 0 0 0-.176-.151.815.815 0 0 0-.244-.09.794.794 0 0 0-.266 0 .605.605 0 0 0-.232.067l-.085.05.21.124h.09l.153-.033a.307.307 0 0 1 .159.039c.045 0 .073.062.073.09l-.056.084a1.14 1.14 0 0 1-.437.068h-.873l-.17.096.8.46h.04l.175-.1-.482-.276.012-.028zm2.034-.029l-.04-.005-1.054.242-.034.005-.153.09-.005.012.01.01.545.316v.011l-.295.169-.011.011.017.011.204.124.023.006.017-.006.294-.174h.023l.08.045.016.005.023-.005.181-.107.012-.011-.006-.011-.08-.046v-.01l.222-.13.011-.011-.005-.012-.21-.118-.023-.011-.023.006-.22.135h-.023l-.267-.158-.005-.006.005-.005.986-.22.017-.01-.01-.018-.222-.123zm10.86 7.438h.708c.095-.004.19-.015.283-.034a.717.717 0 0 0 .198-.067c.057-.03.1-.077.125-.135a.168.168 0 0 0 0-.158.492.492 0 0 0-.17-.152.847.847 0 0 0-.25-.095.756.756 0 0 0-.26 0 .615.615 0 0 0-.232.067l-.085.05.21.119h.09l.147-.04c.056.002.11.018.16.045.044 0 .067.057.067.09l-.057.085a1.19 1.19 0 0 1-.436.067h-.879l-.17.096.805.461h.04l.176-.101-.47-.298zm1.734-.225h-.045l-.737.422.215.124h.164l.12.039.062.068v.067l-.08.067-.107.04H86.5l-.114-.034-.062-.062v-.078l-.215-.124h-.046l-.073.073a.192.192 0 0 0-.034.185.378.378 0 0 0 .17.175.79.79 0 0 0 .306.101c.11.022.224.022.334 0a.776.776 0 0 0 .193-.079.567.567 0 0 0 .147-.118.174.174 0 0 0 .046-.18.3.3 0 0 0-.148-.163.674.674 0 0 0-.244-.079l.272-.152.5.287h.045l.175-.1-.708-.48zm11.109 7.583h.714l.283-.033a.693.693 0 0 0 .198-.068.27.27 0 0 0 .125-.135.18.18 0 0 0 0-.163.48.48 0 0 0-.176-.152.797.797 0 0 0-.243-.09.779.779 0 0 0-.267 0 .57.57 0 0 0-.226.068l-.085.05.21.124h.09l.153-.034a.308.308 0 0 1 .159.04c.05.028.073.062.073.09l-.05.084c-.14.048-.289.07-.437.062h-.873l-.17.096.8.461h.045l.141-.107-.465-.292zm2.125-.016a.875.875 0 0 0-.505-.107.614.614 0 0 0-.226.068l-.567.315a.419.419 0 0 0-.142.123.185.185 0 0 0-.04.186.38.38 0 0 0 .176.174c.09.052.191.085.295.096a.878.878 0 0 0 .312 0c.077-.021.15-.052.22-.09a.43.43 0 0 0 .17-.146.173.173 0 0 0 0-.158.328.328 0 0 0-.147-.14.57.57 0 0 0-.255-.073l.17-.102.142-.034.153.04.062.084-.056.079.209.118h.068l.051-.028a.243.243 0 0 0 .119-.124.169.169 0 0 0 0-.146.442.442 0 0 0-.209-.135zm-.68.405c.056.034.073.073.056.112a.203.203 0 0 1-.085.09l-.141.051a.32.32 0 0 1-.221-.034c-.063-.033-.08-.078-.051-.123l.085-.08a.495.495 0 0 1 .141-.055.302.302 0 0 1 .221.045l-.005-.006zm11.437 6.993h.703l.283-.034a.714.714 0 0 0 .198-.067.277.277 0 0 0 .145-.217.179.179 0 0 0-.02-.081.485.485 0 0 0-.176-.152.803.803 0 0 0-.243-.09.767.767 0 0 0-.267 0 .569.569 0 0 0-.226.067l-.085.05.209.124h.085l.153-.033a.3.3 0 0 1 .153.04c.046 0 .074.061.074.09l-.057.084c-.139.05-.288.073-.436.067h-.873l-.17.096.799.461h.04l.176-.101-.465-.304zm1.689-.248h-.023l-.017.006-.295.169-.011.011.011.011.165.096.017.006.022-.006.085-.05h.018l.334.19-.006.012-1.4.36-.005.028.221.124.039.011 1.406-.371.034-.017.181-.107.012-.011-.006-.012-.782-.45zM36.46 44.304h.708c.096-.004.19-.015.284-.034a.57.57 0 0 0 .193-.067.26.26 0 0 0 .13-.135.15.15 0 0 0 0-.158.43.43 0 0 0-.176-.157.818.818 0 0 0-.244-.096.956.956 0 0 0-.26 0 .66.66 0 0 0-.233.068l-.085.05.21.118h.091l.153-.04c.056.003.11.018.158.046a.125.125 0 0 1 .074.096l-.062.084a1.2 1.2 0 0 1-.437.067h-.861l-.17.096.805.461h.045l.176-.1-.499-.3zm2.08-.023a.746.746 0 0 0-.295-.095.855.855 0 0 0-.311 0 .831.831 0 0 0-.233.09.418.418 0 0 0-.158.146.174.174 0 0 0 0 .158c.03.06.08.11.141.14.08.045.17.07.261.073l-.176.102-.141.033-.148-.033-.073-.068.056-.084-.21-.119h-.04l-.05.029a.222.222 0 0 0-.12.129.14.14 0 0 0 0 .146c.043.06.1.108.165.141a.848.848 0 0 0 .25.096.78.78 0 0 0 .255 0 .57.57 0 0 0 .22-.073l.567-.316a.515.515 0 0 0 .148-.118.174.174 0 0 0 .034-.185.355.355 0 0 0-.142-.192zm-.164.254l-.085.078a.405.405 0 0 1-.148.05.285.285 0 0 1-.21-.027c-.056-.034-.073-.073-.062-.118l.102-.074.142-.05a.309.309 0 0 1 .215.028c.074.023.091.068.063.113h-.017zm11.726 7.139a.17.17 0 0 0 .01-.187.17.17 0 0 0-.044-.05h.499l.204-.118-.737-.422h-.045l-.176.102.42.242h-.573l-.04.146h.136c.063.034.08.079.051.13a.276.276 0 0 1-.113.095.473.473 0 0 1-.153.056.296.296 0 0 1-.227 0l-.056-.067v-.073l.067-.062-.21-.124h-.044a.372.372 0 0 0-.12.101.184.184 0 0 0-.04.191c.032.08.093.144.17.18a.792.792 0 0 0 .301.096c.109.02.22.02.329 0a.893.893 0 0 0 .21-.09.503.503 0 0 0 .181-.146zm1.298-.04a.821.821 0 0 0-.42-.112.797.797 0 0 0-.408.107l-.481.276c-.13.073-.193.157-.193.241 0 .085.068.17.198.242a.855.855 0 0 0 .845 0l.482-.275c.124-.074.187-.152.18-.242-.005-.09-.073-.158-.203-.237zm-.233.332l-.498.287a.371.371 0 0 1-.182.05.307.307 0 0 1-.175-.044c-.051-.028-.08-.062-.074-.096.006-.033.034-.073.085-.107l.499-.287a.354.354 0 0 1 .181-.05.32.32 0 0 1 .176.04c.056.033.08.067.073.1a.166.166 0 0 1-.085.113v-.006zm11.971 7.179a.162.162 0 0 0-.034-.236h.498l.205-.118-.743-.428h-.04l-.175.101.42.242h-.534l-.045.146h.13c.068.04.085.08.051.13a.277.277 0 0 1-.113.096.573.573 0 0 1-.147.056.297.297 0 0 1-.227 0l-.062-.068v-.073l.068-.062-.21-.118h-.045a.69.69 0 0 0-.12.101.19.19 0 0 0-.034.197c.03.078.09.14.165.175a.832.832 0 0 0 .306.1.836.836 0 0 0 .323 0 .785.785 0 0 0 .215-.083.497.497 0 0 0 .148-.158zm1.071-.152l-.034-.011-.278-.062-.04.011-.147.09-.006.023.006.005.227.068.005.005-.005.006-.998.58-.005.01.005.012.204.118.034.006.017-.006 1.23-.709.011-.011-.017-.011-.21-.124zm91.821 5.558c.125-.073.187-.152.187-.236 0-.084-.062-.169-.192-.242a.834.834 0 0 0-.425-.112.794.794 0 0 0-.408.106l-.482.276c-.131.073-.193.158-.193.242 0 .085.062.169.193.242a.833.833 0 0 0 .839 0l.481-.276zm-.918.192a.353.353 0 0 1-.181-.045.121.121 0 0 1-.074-.101c0-.034.028-.074.085-.102l.499-.287a.374.374 0 0 1 .363 0 .12.12 0 0 1 .051.04c.013.018.021.04.022.061 0 .04-.028.074-.085.107l-.498.282a.343.343 0 0 1-.187.045h.005zm2.233.112l-.776-.444-.023-.011-.017.005-.295.169-.011.017.011.005.165.096.017.006.022-.006.085-.05h.017l.335.19-.012.012-1.4.366v.022l.221.13.04.005 1.406-.371.039-.011.182-.107.005-.011-.011-.012zm-11.568 5.255l-.005-.011-.221-.124-.029-.011-.277-.057-.046.006-.147.09-.006.022h.012l.226.08h.006l-.006.01-.991.574-.012.012.006.01.21.125h.022l.023-.006 1.23-.709.005-.011zm.522.293l-.039-.006-1.055.242-.034.011-.147.084-.006.012.006.017.55.309v.011l-.295.169-.011.011.005.017.21.118.023.006.022-.006.295-.168h.017l.074.039.022.005.029-.005.181-.101.006-.017-.006-.011-.074-.046v-.01l.222-.13.011-.011-.006-.012-.215-.123-.017-.006-.023.011-.221.13h-.023l-.272-.158-.005-.006.011-.005.981-.22.022-.01-.017-.012-.221-.13zm-11.976 6.238h.703c.095-.005.19-.016.284-.033a.705.705 0 0 0 .198-.068.302.302 0 0 0 .13-.135.167.167 0 0 0 .019-.079.167.167 0 0 0-.019-.078.41.41 0 0 0-.17-.152.943.943 0 0 0-.243-.096.878.878 0 0 0-.261 0 .611.611 0 0 0-.238.068l-.08.045.21.123h.046l.158-.039a.328.328 0 0 1 .201.081.122.122 0 0 1 .026.054l-.057.09a1.2 1.2 0 0 1-.436.062h-.873l-.17.096.799.455h.045l.176-.101-.448-.293zm1.933-.118l-.028-.01-.278-.057-.04.006-.153.095-.005.023h.011l.227.073v.011l-1.004.574-.005.017.011.011.204.118.023.006.022-.006 1.23-.709.012-.016-.012-.012-.215-.124zm-12.418 5.981h.708c.096-.004.19-.016.284-.034a.566.566 0 0 0 .198-.068.242.242 0 0 0 .125-.135.167.167 0 0 0 0-.157.482.482 0 0 0-.176-.152.832.832 0 0 0-.249-.096.763.763 0 0 0-.261 0 .604.604 0 0 0-.232.068l-.085.05.209.118h.091l.147-.039a.34.34 0 0 1 .159.045.13.13 0 0 1 .074.09l-.057.085c-.139.05-.288.073-.436.067h-.867l-.17.096.804.461h.017l.176-.101-.459-.298zm2.143-.017a.728.728 0 0 0-.482-.085.641.641 0 0 0-.289.085.272.272 0 0 0-.119.118v.09h-.204a.935.935 0 0 0-.227.084.361.361 0 0 0-.147.135.169.169 0 0 0-.025.087c0 .031.009.061.025.088a.442.442 0 0 0 .17.152.747.747 0 0 0 .277.1.812.812 0 0 0 .29 0 .712.712 0 0 0 .232-.084.358.358 0 0 0 .147-.135v-.112h.165a.57.57 0 0 0 .215-.068.277.277 0 0 0 .147-.163.156.156 0 0 0 0-.14.37.37 0 0 0-.175-.152zm-.652.534l-.091.079a.372.372 0 0 1-.158.05.308.308 0 0 1-.193-.033c-.057-.034-.08-.073-.057-.113l.085-.084a.427.427 0 0 1 .148-.05.297.297 0 0 1 .204.033c.062.034.079.068.062.113v.005zm.487-.281l-.056.05-.125.046a.302.302 0 0 1-.187-.04c-.057-.034-.079-.067-.062-.107l.073-.067.097-.034h.107l.097.028.062.062-.006.062z" fill="#5B61ED"/><path d="M56.84 9.514a7.837 7.837 0 0 1-1.365-4.13c0-1.193.43-2.03 1.133-2.425l-3.332 1.35c-.686.394-1.134 1.233-1.134 2.425 0 1.396.901 2.976 2.075 4.293l2.624-1.513z" fill="#EFF0FD" stroke="#5B61ED" stroke-width=".566" stroke-linejoin="round"/><path d="M59.306 1.058c-1.587-.906-3.02-.99-4.063-.394l-2.358 1.361c1.037-.602 9.765 6.588 9.754 10.178l2.357-1.362c.012-3.59-2.539-7.977-5.69-9.783z" fill="#fff" stroke="#5B61ED" stroke-width=".566" stroke-linejoin="round"/><path d="M56.949 2.414c-3.146-1.806-5.72-.35-5.73 3.24.08 2.134.746 4.206 1.926 5.992l1.338-.771a7.836 7.836 0 0 1-1.366-4.124c0-2.397 1.7-3.375 3.826-2.16a8.352 8.352 0 0 1 2.69 2.814 8.28 8.28 0 0 1 1.113 3.717l1.893 1.086c.011-3.595-2.562-7.989-5.69-9.794z" fill="#fff" stroke="#5B61ED" stroke-width=".566" stroke-linejoin="round"/><path d="M42.083 18.037a7.837 7.837 0 0 1-1.366-4.13c0-1.192.43-2.03 1.133-2.425l-3.327 1.35c-.686.395-1.133 1.233-1.133 2.425 0 1.396.9 2.977 2.074 4.293l2.619-1.513z" fill="#EFF0FD" stroke="#5B61ED" stroke-width=".566" stroke-linejoin="round"/><path d="M44.548 9.564c-1.587-.906-3.021-.99-4.064-.394l-2.358 1.362c1.037-.585 9.766 6.599 9.754 10.188l2.358-1.361c.006-3.606-2.545-7.978-5.69-9.795z" fill="#fff" stroke="#5B61ED" stroke-width=".566" stroke-linejoin="round"/><path d="M42.19 10.937c-3.146-1.806-5.719-.35-5.73 3.24a11.65 11.65 0 0 0 1.927 5.992l1.337-.77a7.838 7.838 0 0 1-1.365-4.13c0-2.397 1.7-3.376 3.825-2.16a8.353 8.353 0 0 1 2.685 2.812 8.281 8.281 0 0 1 1.113 3.713l1.893 1.086c.017-3.59-2.534-7.977-5.685-9.783z" fill="#fff" stroke="#5B61ED" stroke-width=".566" stroke-linejoin="round"/><path d="M27.318 26.554a7.838 7.838 0 0 1-1.366-4.129c0-1.193.431-2.03 1.134-2.425l-3.344 1.379c-.686.393-1.134 1.232-1.134 2.424 0 1.396.902 2.976 2.075 4.293l2.635-1.542z" fill="#EFF0FD" stroke="#5B61ED" stroke-width=".566" stroke-linejoin="round"/><path d="M29.784 18.099c-1.582-.912-3.021-.99-4.059-.394l-2.357 1.361c1.037-.596 9.76 6.588 9.748 10.189l2.358-1.362c.011-3.6-2.54-7.988-5.69-9.794z" fill="#fff" stroke="#5B61ED" stroke-width=".566" stroke-linejoin="round"/><path d="M27.426 19.46c-3.146-1.806-5.719-.332-5.73 3.24a11.66 11.66 0 0 0 1.927 5.992l1.315-.776a7.837 7.837 0 0 1-1.366-4.13c0-2.396 1.7-3.375 3.826-2.16a8.354 8.354 0 0 1 2.695 2.798 8.282 8.282 0 0 1 1.13 3.706l1.893 1.125c.011-3.6-2.539-7.995-5.69-9.795z" fill="#fff" stroke="#5B61ED" stroke-width=".566" stroke-linejoin="round"/><path d="M12.56 35.077a7.837 7.837 0 0 1-1.366-4.135c0-1.192.43-2.03 1.133-2.424L9 29.868c-.686.394-1.133 1.232-1.133 2.424 0 1.396.9 2.977 2.074 4.293l2.618-1.508z" fill="#EFF0FD" stroke="#5B61ED" stroke-width=".566" stroke-linejoin="round"/><path d="M15.025 26.622c-1.587-.906-3.02-.99-4.064-.394l-2.357 1.339c1.031-.563 9.765 6.605 9.754 10.194l2.357-1.361c.012-3.584-2.544-7.978-5.69-9.778z" fill="#fff" stroke="#5B61ED" stroke-width=".566" stroke-linejoin="round"/><path d="M12.667 27.977c-3.145-1.805-5.718-.348-5.73 3.241.08 2.134.747 4.206 1.927 5.992l1.338-.771a7.837 7.837 0 0 1-1.366-4.13c0-2.396 1.7-3.375 3.826-2.16a8.352 8.352 0 0 1 2.672 2.816 8.28 8.28 0 0 1 1.102 3.71l1.893 1.086c.04-3.59-2.516-7.978-5.662-9.784z" fill="#fff" stroke="#5B61ED" stroke-width=".566" stroke-linejoin="round"/></svg>