<svg width="196" height="184" fill="none" xmlns="http://www.w3.org/2000/svg"><path fill-rule="evenodd" clip-rule="evenodd" d="M54.04 138.147L-.001 107.469l88.973-51.264 53.08 30.875-88.012 51.067z" fill="#5B61ED"/><path fill-rule="evenodd" clip-rule="evenodd" d="M54.04 138.147L-.001 107.469l88.973-51.264 53.08 30.875-88.012 51.067z" fill="#E1E2FC"/><path fill-rule="evenodd" clip-rule="evenodd" d="M140.811 30.596v4.044l-82.95 48.247-.064-4.55 83.014-47.74z" fill="#5B61ED"/><path fill-rule="evenodd" clip-rule="evenodd" d="M140.462 30.587L88.084.215 5.525 47.893l52.27 30.443 82.667-47.75z" fill="#fff"/><path fill-rule="evenodd" clip-rule="evenodd" d="M5.156 47.893L88.086 0l52.75 30.588-83.04 47.964-52.64-30.66zM88.086.43L5.897 47.894l51.9 30.227 82.294-47.534L88.085.431z" fill="#5B61ED"/><path fill-rule="evenodd" clip-rule="evenodd" d="M57.86 82.887L5.194 52.331V47.9l52.6 30.438.064 4.55zM146.628 184l47.851-27.544-51.465-29.822-48.334 27.575L146.628 184z" fill="#5B61ED"/><path fill-rule="evenodd" clip-rule="evenodd" d="M146.628 184l47.851-27.544-51.465-29.822-48.334 27.575L146.628 184z" fill="#E1E2FC"/><path fill-rule="evenodd" clip-rule="evenodd" d="M193.578 66.397l-4.201-2.277-5.606 18.225-45.138-26.18.442 71.462 3.987 2.392-.015-67.091 27.96 16.199 16.091 75.993 3.948 2.446-15.41-75.706 11.462 6.708 6.48-22.171z" fill="#5B61ED"/><path fill-rule="evenodd" clip-rule="evenodd" d="M191.197 157.172l3.03-1.815-15.276-71.218-3.303-2.153 15.549 75.186z" fill="#fff"/><path fill-rule="evenodd" clip-rule="evenodd" d="M191.029 157.559l-15.737-76.1 3.88 2.53 15.333 71.488-3.476 2.082zm-15.02-75.047l15.36 74.273 2.584-1.548-15.217-70.948-2.727-1.777z" fill="#5B61ED"/><path fill-rule="evenodd" clip-rule="evenodd" d="M143.302 129.668l3.541-1.903V65.023l-3.781-1.97.24 66.615z" fill="#fff"/><path fill-rule="evenodd" clip-rule="evenodd" d="M143.056 130.077l-.242-67.427 4.271 2.225v63.037l-4.029 2.165zm.25-66.619l.236 65.802 3.054-1.641V65.172l-3.29-1.714z" fill="#5B61ED"/><path fill-rule="evenodd" clip-rule="evenodd" d="M193.592 66.522l-3.741-2.39 2.001-1.128 3.858 2.305-6.278 21.548-1.938 1.178 6.098-21.513z" fill="#fff"/><path fill-rule="evenodd" clip-rule="evenodd" d="M189.376 64.119l2.48-1.399 4.143 2.475-6.358 21.82-2.552 1.552 6.218-21.937-3.931-2.511zm2.473-.833l-1.523.859 3.551 2.268-5.977 21.089 1.324-.806 6.199-21.275-3.574-2.135z" fill="#5B61ED"/><path fill-rule="evenodd" clip-rule="evenodd" d="M139.09 56.15l2.716-1.853 43.134 25.018-.855 3.157-44.995-26.323z" fill="#fff"/><path fill-rule="evenodd" clip-rule="evenodd" d="M138.631 56.164l3.164-2.156 43.429 25.188-.988 3.648-45.605-26.68zm3.185-1.578l-2.27 1.547 44.385 25.965.723-2.667-42.838-24.845z" fill="#5B61ED"/><path fill-rule="evenodd" clip-rule="evenodd" d="M90.402 94.055l38.13-21.378a5.545 5.545 0 0 1 5.465.024l41.943 23.995-40.581 23.938-44.957-26.579z" fill="#fff"/><path fill-rule="evenodd" clip-rule="evenodd" d="M134.164 72.417l42.431 24.275-41.231 24.321-45.61-26.965 38.623-21.656a5.87 5.87 0 0 1 5.787.025zM91.061 94.063l44.303 26.192L175.295 96.7 133.84 72.984a5.22 5.22 0 0 0-5.144-.022l-37.635 21.1zm44.297 33.083L92.57 102.3a1.087 1.087 0 0 0-1.632.941c0 1.168.623 2.247 1.636 2.83l42.784 24.634v-3.559z" fill="#5B61ED"/><path fill-rule="evenodd" clip-rule="evenodd" d="M133.074 117.637L92.4 93.912a2.498 2.498 0 0 0-3.756 2.159 7.566 7.566 0 0 0 3.758 6.538l39.583 23.046 1.089-8.018zm44.464-19.259v1.434a3.59 3.59 0 0 1-1.756 3.087l-37.749 22.424-1.205-6.377 37.717-22.277a1.983 1.983 0 0 1 2.993 1.71z" fill="#5B61ED"/><path fill-rule="evenodd" clip-rule="evenodd" d="M138.033 125.053l38.3-22.339.661 3.627-38.124 22.175-.837-3.463z" fill="#fff"/><path fill-rule="evenodd" clip-rule="evenodd" d="M137.762 124.934l38.758-22.607.754 4.139-38.556 22.427-.956-3.959zm38.402-21.833l-37.841 22.072.716 2.967 37.692-21.925-.567-3.114z" fill="#5B61ED"/><path fill-rule="evenodd" clip-rule="evenodd" d="M189.514 68.656L145.1 94.234l-3.462 11.655 44.543-26.279 3.333-10.954z" fill="#fff"/><path fill-rule="evenodd" clip-rule="evenodd" d="M144.822 94.016l45.241-26.054-3.609 11.865-45.368 26.765 3.736-12.576zm44.137-24.665l-43.586 25.101-3.188 10.734 43.719-25.792 3.055-10.043z" fill="#5B61ED"/><path fill-rule="evenodd" clip-rule="evenodd" d="M191.474 69.472L147.06 95.05l-3.462 11.655 44.543-26.279 3.333-10.954z" fill="#fff"/><path fill-rule="evenodd" clip-rule="evenodd" d="M146.779 94.834l45.242-26.055-3.61 11.865-45.368 26.765 3.736-12.575zm44.137-24.666L147.33 95.27l-3.188 10.734 43.719-25.792 3.055-10.043z" fill="#5B61ED"/><path fill-rule="evenodd" clip-rule="evenodd" d="M149.21 92l-4.227-2.403-5.511 18.215-45.222-26.17.457 71.588 3.968 2.324.004-67.023 27.961 16.199 16.091 75.993 3.925 2.298-15.387-75.558 11.462 6.504L149.21 92z" fill="#5B61ED"/><path fill-rule="evenodd" clip-rule="evenodd" d="M146.817 182.65l3.031-1.816-15.304-71.666-3.335-1.927 15.608 75.409z" fill="#fff"/><path fill-rule="evenodd" clip-rule="evenodd" d="M146.648 183.037l-15.789-76.281 3.902 2.255 15.363 71.944-3.476 2.082zm-15.088-75.311l15.427 74.537 2.585-1.548-15.244-71.389-2.768-1.6z" fill="#5B61ED"/><path fill-rule="evenodd" clip-rule="evenodd" d="M98.918 155.146l3.542-1.903V90.502l-3.781-1.97.24 66.614z" fill="#fff"/><path fill-rule="evenodd" clip-rule="evenodd" d="M98.674 155.554l-.243-67.427 4.272 2.226v63.036l-4.03 2.165zm.25-66.618l.236 65.801 3.054-1.64V90.65l-3.29-1.714z" fill="#5B61ED"/><path fill-rule="evenodd" clip-rule="evenodd" d="M149.209 92l-3.741-2.39 2.001-1.129 3.858 2.306-6.278 21.547-1.938 1.179L149.209 92z" fill="#fff"/><path fill-rule="evenodd" clip-rule="evenodd" d="M144.993 89.597l2.48-1.399 4.142 2.476-6.358 21.82-2.552 1.552 6.219-21.938-3.931-2.511zm2.473-.833l-1.523.859 3.551 2.268-5.978 21.089 1.325-.806L151.04 90.9l-3.574-2.136z" fill="#5B61ED"/><path fill-rule="evenodd" clip-rule="evenodd" d="M94.707 81.627l2.717-1.852 43.134 25.018-.855 3.157-44.996-26.323z" fill="#fff"/><path fill-rule="evenodd" clip-rule="evenodd" d="M94.248 81.642l3.164-2.156 43.43 25.189-.988 3.647-45.606-26.68zm3.185-1.578l-2.27 1.547 44.386 25.965.722-2.667-42.838-24.845z" fill="#5B61ED"/></svg>