<svg width="161" height="195" fill="none" xmlns="http://www.w3.org/2000/svg"><path fill-rule="evenodd" clip-rule="evenodd" d="M150.263 30.779L118.878 12.56l-.7 52.434 32.085 18.603v-52.82z" fill="#fff"/><path fill-rule="evenodd" clip-rule="evenodd" d="M118.179 65.26V11.347l32.786 19.032v53.84l-32.786-18.957zm.701-52.7v52.3l31.384 18.147V30.779L118.88 12.561z" fill="#5B61ED"/><path fill-rule="evenodd" clip-rule="evenodd" d="M122.719 50.066v3.39c.256.111.508.173.756.186 1.69.088 4.236 2.165 4.593 2.84.358.674-4.265 1.681-4.779.702-.514-.979.969.213.539-.924-.156-.413-.599-.487-1.109-.503v1.476c.763.579 1.345.966 1.746 1.162.731.357 2.126-.208 3.034-.16.909.047 1.293 1.078 2.38 1.135 1.087.057-1.034-1.065-.975-2.185.059-1.12 1.925.393 2.47 1.252.545.86 3.057 2.16 3.033 2.605-.023.446-2.542-2.025-3.687-1.388-1.144.637 1.753.817 2.169 1.802.416.984-.78.737-2.057.09-1.277-.648-4.099-2.08-5.883-2.453-.824-.172-1.601-.537-2.23-.945v2.399l23.705 13.707v-2.686c-1.041-1.596-2.049-2.437-3.023-2.522-1.686-.147-4.158-2.312-4.491-2.998-.334-.686 4.321-1.532 4.801-.536.479.996-.961-.247-.571.905.39 1.151 3.043-.19 3.176 1.674.026.37.062.757.108 1.16v-4.533l-23.705-14.652zm12.876 11.793c-.353-.69.588-.543 1.603-.112 1.016.43 3.26 1.384 4.664 1.607 1.404.223 2.662 1.097 2.923 1.556.261.458-.722.303-.958.298-.158-.002-.077-.106.242-.31-.819-.548-1.422-.9-1.809-1.058-.581-.237-1.654.198-2.365.185-.71-.012-1.04-.737-1.891-.752-.85-.015.838.734.824 1.533-.014.799-1.514-.235-1.964-.834-.45-.598-2.448-1.464-2.443-1.782.006-.318 2.044 1.381 2.919.9.875-.48-1.392-.54-1.745-1.23zm-12.876-23.05v10.894l23.705 14.651v-.9l-.01-.103c-1.006-10.823-2.067-17.283-3.17-19.343-.394-.737-.896-.857-1.629-.476l-.085.046c-.504.275-.82.536-2.009 1.642l-.503.469c-.645.6-1.084.98-1.538 1.315-1.126.832-2.067 1.135-2.923.797l-.038-.015c-.331-.139-.543.057-.85.732l-.033.074-.244.565-.007.014c-.369.833-.7 1.292-1.22 1.505-.667.274-1.524.02-2.65-.84-.167-.129-.273-.332-.38-.687l-.012-.04c-.052-.175-.251-.966-.27-1.038a17.98 17.98 0 0 0-.464-1.51c-.491-1.378-1.207-2.853-2.254-4.526l-.064-.103c-1.048-1.661-1.88-2.714-2.486-3.152-.42-.303-.687-.302-.866.029zm0-17.497v17.04c.269-.182.626-.127 1.044.176.648.467 1.499 1.544 2.567 3.237 1.093 1.735 1.839 3.263 2.348 4.69.171.482.308.927.437 1.405l.053.203c.054.21.199.78.245.945l.004.013c.094.32.177.485.284.567 1.049.802 1.802 1.025 2.349.8.413-.169.703-.563 1.034-1.296l.043-.1c.061-.137.183-.422.223-.514l.006-.013c.177-.4.313-.64.481-.808.218-.218.477-.282.771-.17l.029.012c.743.31 1.597.042 2.662-.746l.074-.055c.417-.314.835-.678 1.438-1.238l.707-.658c1.088-1.008 1.384-1.24 1.92-1.527.892-.477 1.59-.323 2.076.585 1.022 1.907 1.988 7.37 2.91 16.414V35.072l-23.705-13.76z" fill="#EFF0FD"/><path d="M128.214 34.144c-.801-.545-2.101-.538-3.902-.002l-.368.11 11.676 5.68-.173-.38a9.061 9.061 0 0 0-2.119-2.911c-.534-.494-1.24-.872-2.294-1.287l-.14-.055c-.229-.088-.967-.361-1.219-.456l-.174-.066c-.591-.23-.976-.414-1.258-.613l-.029-.02zm5.371-4.59c-.747 0-1.298.737-1.681 2.164l-.03.111 13.248 7.6-.562-.658a45.614 45.614 0 0 1-3.448-4.567c-.355-.54-.737-.946-1.146-1.233a3.005 3.005 0 0 0-1.403-.532c-.349-.042-.647-.035-1.14.01l-.415.04a3.967 3.967 0 0 1-.299.018h-.06c-.377 0-.732-.363-1.393-1.322l-.091-.134c-.592-.865-.822-1.156-1.143-1.356l-.033-.02a.791.791 0 0 0-.404-.121zm-8.743 4.751c1.508-.391 2.584-.352 3.227.103l.029.02c.304.21.699.396 1.292.627l.117.045c.136.052.771.287 1.118.417l.229.088c1.061.414 1.758.783 2.269 1.256a8.783 8.783 0 0 1 1.849 2.403l.014.026-10.212-4.967.068-.018zm8.743-4.452c.077 0 .16.026.251.08.269.159.48.414.997 1.166l.234.341c.267.386.439.613.625.815l.04.043c.313.331.609.508.917.508.13 0 .226-.004.43-.023l.26-.025c1.136-.11 1.745-.038 2.454.458.377.264.732.642 1.068 1.152l.114.173a45.483 45.483 0 0 0 2.809 3.773l.004.004-11.563-6.633.027-.095c.34-1.154.784-1.72 1.311-1.736h.022z" fill="#fff"/><path fill-rule="evenodd" clip-rule="evenodd" d="M79.164 194.988L28.915 166.57l82.141-47.705L161 147.684l-81.836 47.304z" fill="#5B61ED"/><path fill-rule="evenodd" clip-rule="evenodd" d="M79.164 194.988L28.915 166.57l82.141-47.705L161 147.684l-81.836 47.304z" fill="#E1E2FC"/><path fill-rule="evenodd" clip-rule="evenodd" d="M30.107 166.863l.935-.484 4.572-50.375-2.71-1.149-2.797 52.008z" fill="#fff"/><path fill-rule="evenodd" clip-rule="evenodd" d="M29.919 167.157l2.826-52.556 3.053 1.294-4.591 50.594-1.288.668zm3.146-52.046l-2.768 51.46.582-.302 4.552-50.155-2.366-1.003z" fill="#5B61ED"/><path fill-rule="evenodd" clip-rule="evenodd" d="M156.059 95.355l-48.702-28.134-76.766 44.165 48.602 28.2 76.866-44.23z" fill="#fff"/><path fill-rule="evenodd" clip-rule="evenodd" d="M30.246 111.384l77.111-44.364 49.049 28.335-77.213 44.43-48.947-28.401zm77.111-43.965l-76.42 43.967 48.257 27.999 76.52-44.031-48.357-27.935z" fill="#5B61ED"/><path fill-rule="evenodd" clip-rule="evenodd" d="M79.163 194.987l-1.291-.621-1.693-53.833-43.027-24.711-3.212 51.33-.997-.555 1.331-55.212 48.89 28.299v55.303zm80.368-46.77l-1.351-.626-8.57-46.62 2.984-.849 6.937 48.095z" fill="#5B61ED"/><path fill-rule="evenodd" clip-rule="evenodd" d="M79.336 194.7l1.264-.741 1.612-53.375 70.437-40.529 7.016 48.199 1.152-.667-4.65-52.138-77.003 44.144.172 55.107z" fill="#fff"/><path fill-rule="evenodd" clip-rule="evenodd" d="M78.99 139.493l77.324-44.328 4.684 52.516-1.468.851-7.017-48.2-70.132 40.354-1.611 53.374-1.607.94-.173-55.507zm77.027-43.76l-76.68 43.96.17 54.705.922-.539 1.612-53.376 70.742-40.705 7.016 48.199.835-.484-4.617-51.76zM0 63.154v3.143L21.135 78.35l91.354-52.763v-3.044L0 63.154z" fill="#5B61ED"/><path fill-rule="evenodd" clip-rule="evenodd" d="M.426 63.152l20.861 11.81 90.78-52.42-20.563-11.95L.426 63.152z" fill="#fff"/><path fill-rule="evenodd" clip-rule="evenodd" d="M112.49 22.542L91.505 10.348 0 63.154l21.29 12.052 91.2-52.664zM91.504 10.837l20.141 11.704L21.287 74.72.853 63.149l90.65-52.312z" fill="#5B61ED"/><path fill-rule="evenodd" clip-rule="evenodd" d="M93.135 21.617l-1.918 1.149.619 6.187 1.598.74-19.882 11.912-13.612-7.483c-1.194-.893-1.896-1.767-2.105-2.62-.21-.854-.37-2.382-.477-4.583.129-.572.438-.965.929-1.179.49-.213 1.61-.885 3.362-2.014l17.458-9.84 14.028 7.73z" fill="#fff"/><path fill-rule="evenodd" clip-rule="evenodd" d="M57.476 30.763a4.015 4.015 0 0 0 2.018 3.197l.042.023 14.017 7.77 20.143-12.07-2.027-1.015-.114.227 1.614.808-19.62 11.756-13.89-7.698a3.761 3.761 0 0 1-1.926-2.97l-.003-.047-.294-4.046a1.14 1.14 0 0 1 .553-1.062l.018-.01.006.01.123-.074.017-.007c.099-.04.204-.065.314-.076l.028-.002c.218-.016.435.03.627.134l.03.017 14.017 8.1 20.219-12.115-15.094-8.385-20.273 12.107a1.396 1.396 0 0 0-.84 1.352l.001.029.294 4.047zm1.223-5.538l19.6-11.704 14.58 8.1-19.713 11.813-13.887-8.026a1.402 1.402 0 0 0-.548-.18l-.032-.003z" fill="#5B61ED"/><path fill-rule="evenodd" clip-rule="evenodd" d="M73.54 32.275l19.882-11.913L91.14 19.1l1.82-1.09-12.211-7.977-19.547 10.3-2.372 1.42-.78.468-.142.615.855 1.02 1.18.534 1.374.836 12.223 7.05z" fill="#fff"/><path fill-rule="evenodd" clip-rule="evenodd" d="M57.767 22.604c.06.517.354.977.798 1.248l.031.018 14.836 8.617 20.14-12.068-1.425-.747-.118.224 1.025.538L73.43 32.192l-14.706-8.541a1.432 1.432 0 0 1-.7-1.04l-.004-.035a.28.28 0 0 1 .119-.262l.003-.002.025-.015.01-.006a.279.279 0 0 1 .075-.023l.015-.002a.281.281 0 0 1 .149.024l.017.008 14.643 7.937 20.283-12.153-14.855-8.267-20.461 12.26-.007.004a.66.66 0 0 0-.032.02l-.02.012-.01.01a.533.533 0 0 0-.208.463l.001.02zm.778-.534L78.51 10.108l14.34 7.982-19.78 11.853-14.514-7.868-.01-.005z" fill="#EFF0FD"/><path fill-rule="evenodd" clip-rule="evenodd" d="M92.802 18.262l.034 2.082-19.312 11.572v-2.17l19.278-11.484z" fill="#EFF0FD"/><path fill-rule="evenodd" clip-rule="evenodd" d="M73.516 28.668l19.882-11.913-14.861-8.224-19.318 7.728-1.251.749-.38.803.295 1.417.856 1.02 1.21.941 1.262.616 12.305 6.863z" fill="#fff"/><path fill-rule="evenodd" clip-rule="evenodd" d="M73.499 24.83l20.058-12.018-15.23-8.002-19.723 11.817L73.5 24.83z" fill="#fff"/><path fill-rule="evenodd" clip-rule="evenodd" d="M57.431 17.95a3.83 3.83 0 0 0 1.92 3.012l.043.024 14.125 7.828 20.143-12.069-2.028-1.015-.114.227 1.615.808-19.621 11.757-13.997-7.758a3.577 3.577 0 0 1-1.828-2.788l-.004-.047a.934.934 0 0 1 .384-.833l.005-.004.134-.08.004-.002a.937.937 0 0 1 .305-.087l.026-.002a.94.94 0 0 1 .5.098l.03.015L73.5 24.977l20.314-12.172-15.494-8.14-20.234 12.124-.002.001a1.189 1.189 0 0 0-.656 1.132l.002.028zm1.341-1.276L78.33 4.956l14.968 7.864-19.802 11.865-14.3-7.873a1.196 1.196 0 0 0-.394-.134l-.029-.004z" fill="#5B61ED"/><path fill-rule="evenodd" clip-rule="evenodd" d="M92.571 13.402l.339 3.265-19.34 11.588-.084-3.582L92.57 13.402z" fill="#5B61ED"/><path fill-rule="evenodd" clip-rule="evenodd" d="M92.591 13.544l.32 3.123-19.34 11.588-.085-3.3 19.105-11.411z" fill="#fff" fill-opacity=".5"/><path fill-rule="evenodd" clip-rule="evenodd" d="M58.442 18.835l-.148-.725a.919.919 0 0 1 1.345-.99l13.987 7.636-.055 3.499-14.026-7.914a2.24 2.24 0 0 1-1.103-1.506zm14.883 8.922l.044-2.852-13.852-7.563a.668.668 0 0 0-.974.717l.148.725a1.99 1.99 0 0 0 .978 1.336l13.656 7.637z" fill="#5B61ED"/><path fill-rule="evenodd" clip-rule="evenodd" d="M66.008 21.786a.084.084 0 0 0-.042-.112l-.226-.104c-1.51-.695-2.615-1.282-3.313-1.76l-.034-.023a36.933 36.933 0 0 1-2.07-1.54.085.085 0 0 0-.118.013.084.084 0 0 0 .012.12c.65.52 1.344 1.036 2.08 1.546l.069.047c.744.504 1.92 1.122 3.53 1.855.042.02.092 0 .112-.042zm.762 9.746a.084.084 0 0 0-.042-.112l-.225-.103c-1.536-.707-2.652-1.302-3.347-1.784a36.933 36.933 0 0 1-2.07-1.54.085.085 0 0 0-.119.014.084.084 0 0 0 .013.118 36.24 36.24 0 0 0 2.079 1.547l.07.048c.743.503 1.92 1.121 3.529 1.854.043.02.093 0 .112-.042zm3.72-6.072a.085.085 0 0 0-.042-.113l-.226-.103c-1.535-.707-2.651-1.302-3.346-1.784a36.884 36.884 0 0 1-2.07-1.54.084.084 0 1 0-.106.132c.65.522 1.343 1.037 2.079 1.547l.07.048c.743.503 1.92 1.121 3.529 1.854.042.02.093 0 .112-.042z" fill="#5B61ED"/><path fill-rule="evenodd" clip-rule="evenodd" d="M61.615 19.088l-1.698 1.018a.563.563 0 0 0 .02.978l1.56.848a1.559 1.559 0 0 0 1.545-.032l1.724-1.033c-.92-.72-1.562-1.173-1.923-1.359a15.697 15.697 0 0 0-1.083-.506l-.145.086zm.761 9.746L60.68 29.85a.563.563 0 0 0 .02.978l1.559.849a1.558 1.558 0 0 0 1.545-.032l1.725-1.034c-.921-.72-1.562-1.172-1.923-1.358a15.653 15.653 0 0 0-1.084-.507l-.145.087zm3.948-5.954l-1.698 1.017a.563.563 0 0 0 .02.978l1.56.849a1.559 1.559 0 0 0 1.545-.032l1.725-1.034c-.921-.72-1.562-1.173-1.924-1.358a15.7 15.7 0 0 0-1.083-.507l-.145.087z" fill="#EFF0FD"/><path fill-rule="evenodd" clip-rule="evenodd" d="M64.675 21.95c-.02.043 0 .094.042.113l.226.103c1.535.707 2.651 1.302 3.347 1.784a37.63 37.63 0 0 1 2.07 1.54.084.084 0 0 0 .106-.132 37.162 37.162 0 0 0-2.08-1.547l-.07-.047c-.743-.504-1.92-1.122-3.529-1.855a.085.085 0 0 0-.112.042zm-4.481-3.672a.084.084 0 0 0 .041.112l.226.104c1.511.695 2.616 1.282 3.313 1.76l.034.023a36.882 36.882 0 0 1 2.07 1.54c.036.03.09.023.119-.013a.084.084 0 0 0-.013-.119 37.076 37.076 0 0 0-2.079-1.546l-.07-.048c-.743-.504-1.92-1.122-3.53-1.855a.085.085 0 0 0-.111.042zm.761 9.745c-.02.043 0 .093.042.113l.226.103c1.535.707 2.651 1.302 3.347 1.784.732.507 1.422 1.02 2.07 1.54a.084.084 0 0 0 .106-.132 37.129 37.129 0 0 0-2.08-1.547l-.069-.048c-.744-.503-1.92-1.121-3.53-1.854a.085.085 0 0 0-.112.041zm12.213 5.557l.229 6.976 18.848-11.294-.323-6.918L73.168 33.58z" fill="#5B61ED"/><path fill-rule="evenodd" clip-rule="evenodd" d="M73.168 33.721l.229 6.835 18.849-11.294-.323-6.778-18.755 11.237z" fill="#fff" fill-opacity=".5"/><path fill-rule="evenodd" clip-rule="evenodd" d="M59.534 31.4a2.578 2.578 0 0 0 1.253 1.94l.037.021 12.58 7.155.127-.22L60.95 33.14a2.325 2.325 0 0 1-1.158-1.728l-.005-.04-.652-5.985-.252.028.651 5.984z" fill="#5B61ED"/><path fill-rule="evenodd" clip-rule="evenodd" d="M72.534 37.939a.084.084 0 0 0-.042-.112l-.226-.104c-1.535-.707-2.651-1.301-3.347-1.783a36.868 36.868 0 0 1-2.069-1.54.085.085 0 0 0-.12.013.084.084 0 0 0 .014.119c.65.521 1.343 1.037 2.079 1.547l.07.047c.743.504 1.919 1.122 3.529 1.855.042.019.093 0 .112-.042z" fill="#5B61ED"/><path fill-rule="evenodd" clip-rule="evenodd" d="M68.368 35.36l-1.698 1.017a.563.563 0 0 0 .02.977l1.559.849a1.558 1.558 0 0 0 1.546-.032l1.724-1.033c-.921-.72-1.562-1.173-1.923-1.359a15.581 15.581 0 0 0-1.083-.506l-.145.086z" fill="#EFF0FD"/><path fill-rule="evenodd" clip-rule="evenodd" d="M66.719 34.431c-.02.043 0 .093.042.112l.226.104c1.535.706 2.651 1.301 3.347 1.783a36.92 36.92 0 0 1 2.069 1.54c.036.029.09.023.12-.013a.084.084 0 0 0-.014-.12 37.072 37.072 0 0 0-2.079-1.546l-.07-.047c-.743-.504-1.92-1.122-3.529-1.855a.085.085 0 0 0-.112.042z" fill="#5B61ED"/><path d="M72.946 35.11a.085.085 0 0 0 .108.034l.008-.005 16.378-9.813a.084.084 0 0 0-.079-.15l-.008.005-16.378 9.813a.084.084 0 0 0-.029.116zm.777-9.521a.085.085 0 0 0 .108.034l.009-.005 16.377-9.813a.084.084 0 0 0-.078-.15l-.009.005-16.378 9.813a.084.084 0 0 0-.029.116zm-.799 10.647a.085.085 0 0 0 .107.033l.009-.005 5.748-3.444a.084.084 0 0 0-.079-.149l-.009.005-5.747 3.444a.084.084 0 0 0-.03.116zm1.029-9.674a.085.085 0 0 0 .107.034l.01-.005 5.747-3.444a.084.084 0 0 0-.079-.15l-.008.005-5.748 3.444a.084.084 0 0 0-.03.116zM72.65 37.509a.085.085 0 0 0 .107.033l.008-.005 5.748-3.444a.084.084 0 0 0-.078-.149l-.009.005-5.748 3.444a.084.084 0 0 0-.029.116z" fill="#fff"/><path fill-rule="evenodd" clip-rule="evenodd" d="M48.658 112.209c1.156 1.919 2.31 2.783 5.014 2.783s4.06-.977 4.933-2.783c1.216-2.515 3.055-8.423 3.337-11.004.188-1.72-5.42-1.969-16.822-.746 1.589 6.553 2.768 10.47 3.538 11.75z" fill="#5B61ED"/><path d="M53.672 104.733c4.45 0 8.056-2.051 8.056-4.581 0-2.53-3.607-4.58-8.056-4.58-4.45 0-8.056 2.05-8.056 4.58 0 2.53 3.607 4.581 8.056 4.581z" fill="#5B61ED"/><path fill-rule="evenodd" clip-rule="evenodd" d="M53.672 95.29c4.723 0 8.551 2.177 8.551 4.863 0 2.685-3.828 4.862-8.551 4.862-4.723 0-8.552-2.177-8.552-4.862 0-2.686 3.829-4.863 8.552-4.863zm0 .564c-4.452 0-7.987 2.01-7.987 4.299 0 2.289 3.535 4.298 7.987 4.298s7.986-2.009 7.986-4.298c0-2.29-3.534-4.299-7.986-4.299z" fill="#EFF0FD"/><path fill-rule="evenodd" clip-rule="evenodd" d="M51.801 89.48c.113-1.04.473-1.751 1.078-2.136.91-.578 2.304-2.375 2.784-3.6.48-1.224 1.21-2.608 1.21-2.872 0-.264-1.634 1.007-2.536 1.652-.903.645-2.315 1.105-2.99 1.58-.673.475-.517.942-1.72 1.44-1.202.497-2.12 1.148-1.66 2.087.305.626 1.583 1.242 3.834 1.848z" fill="#fff"/><path fill-rule="evenodd" clip-rule="evenodd" d="M56.85 80.625a.433.433 0 0 0-.192.04c-.088.037-.203.1-.347.19l-.04.025c-.23.146-.513.345-.913.635l-.919.673-.226.164c-.298.213-.662.413-1.173.659l-.204.096-.711.331-.122.059a7.032 7.032 0 0 0-.61.325c-.06.037-.116.073-.168.11a2.125 2.125 0 0 0-.33.285l-.041.046c-.059.066-.102.12-.18.22l-.023.032c-.317.418-.522.592-1.105.833-1.552.642-2.253 1.387-1.77 2.375.339.695 1.624 1.32 3.881 1.936l.328.089.027-.246c.104-.958.422-1.604.945-1.956l.036-.024c.938-.596 2.33-2.385 2.844-3.642l.023-.059c.046-.115.094-.236.147-.362l.04-.096c.054-.126.11-.257.172-.397l.156-.346c.155-.343.385-.848.438-.969l.075-.171c.137-.319.197-.493.197-.608a.243.243 0 0 0-.236-.247zm-.35.612l.042-.027-.047.112-.07.159-.556 1.23-.075.169a26.784 26.784 0 0 0-.293.698l-.036.09c-.455 1.161-1.785 2.888-2.658 3.47l-.085.056c-.583.39-.946 1.057-1.095 1.984l-.005.033-.02-.006c-2.031-.567-3.188-1.14-3.445-1.667-.321-.657.17-1.208 1.436-1.751l.115-.049c.64-.264.906-.481 1.249-.925l.11-.145c.04-.05.069-.085.104-.124.088-.1.182-.185.3-.267.043-.03.09-.062.143-.095l.072-.043a7.93 7.93 0 0 1 .562-.29l.24-.114c.22-.102.553-.256.664-.309.544-.258.934-.47 1.262-.698l.046-.033.306-.22.786-.577c.422-.308.717-.514.947-.661z" fill="#EFF0FD"/><path fill-rule="evenodd" clip-rule="evenodd" d="M53.718 84.549a.142.142 0 0 1 .25.13c-.519.994-1.043 1.664-1.579 2.01-.646.416-.83 2.065-.405 3.165l.019.047c.512 1.253.89 3.748.885 6.4l-.005 1.034c-.007 1.633-.005 3.185.004 4.656a.141.141 0 0 1-.282.002l-.005-.837a486.71 486.71 0 0 1 0-3.822l.005-.928c.014-2.621-.35-5.1-.844-6.348l-.02-.05c-.488-1.194-.304-2.995.464-3.535l.031-.02c.487-.315.983-.95 1.482-1.904zm6.144 9.762a.142.142 0 0 1 .2.005.14.14 0 0 1-.005.2c-1.993 1.882-2.856 4.076-2.597 6.594a.14.14 0 0 1-.126.154.141.141 0 0 1-.155-.126c-.268-2.607.629-4.886 2.683-6.827z" fill="#EFF0FD"/><path fill-rule="evenodd" clip-rule="evenodd" d="M60.095 94.347c-.781-.315-1.24-.259-1.377.17-.204.641-.061 2.265 1.092 2.265 1.152 0 2.636-.267 3.083-.267.298 0 .614.144.95.432-.317-1.462-.735-2.538-1.254-3.227-.78-1.035-2.34-1.261-2.78-.835-.292.285-.197.772.286 1.462z" fill="#fff"/><path fill-rule="evenodd" clip-rule="evenodd" d="M59.64 92.756c-.27.282-.274.675-.043 1.166l.027.055-.005-.001c-.573-.12-.959.026-1.103.476-.126.396-.12 1.01.037 1.502.202.638.629 1.04 1.257 1.04.267 0 .563-.015.892-.04l.157-.014c.211-.019.433-.042.686-.07l.864-.103c.24-.028.392-.04.484-.04.24 0 .511.123.81.38l.48.412-.134-.616c-.322-1.49-.75-2.592-1.29-3.31-.777-1.032-2.49-1.45-3.097-.86l-.022.023zm2.813 1.136c.415.571.766 1.416 1.05 2.534l.01.039-.017-.008a1.347 1.347 0 0 0-.603-.153h-.045c-.094.003-.22.013-.395.032l-.375.044-.487.059-.254.028c-.243.027-.46.048-.669.065a11.05 11.05 0 0 1-.858.038c-.418 0-.701-.266-.853-.744-.13-.41-.136-.935-.037-1.246.087-.272.413-.312 1.095-.037l.662.268-.408-.585c-.43-.615-.506-1-.311-1.19.397-.386 1.823-.038 2.461.81l.034.046z" fill="#EFF0FD"/><path fill-rule="evenodd" clip-rule="evenodd" d="M60.49 88.974c-.577.867-.866 1.514-.866 1.943 0 .643-.42 1.307.6.55 1.018-.758 2.252-1.177 2.935-1.407.684-.23 1.423-2.236 2.344-2.802.921-.566 1.668-1.337 2.446-3 .778-1.662 1.485-2.225 1.485-2.426 0-.202-3.12-.154-4.183.59-1.063.746-2.038 1.368-3.114 1.506-1.075.138-2.572-.283-3.999 1.646-1.427 1.929-1.396 1.953-1.838 3.4-.442 1.448.133 1.595.657 1.086.35-.34 1.527-.701 3.532-1.086z" fill="#fff"/><path fill-rule="evenodd" clip-rule="evenodd" d="M67.723 81.561c-1.121.098-2.08.328-2.593.688l-.146.102c-1.24.86-1.992 1.243-2.825 1.36l-.048.007c-.148.019-.28.027-.548.034l-.094.003c-1.346.033-2.03.208-2.865.976-.22.202-.431.44-.636.717l-.363.494c-.628.858-.854 1.212-1.038 1.607a4.79 4.79 0 0 0-.174.43l-.025.07c-.033.097-.068.203-.11.337l-.16.526c-.226.738-.226 1.243.018 1.487.25.25.627.15.962-.163l.041-.038c.293-.264 1.25-.574 2.83-.901l.097-.02-.007.011c-.403.667-.613 1.193-.626 1.59v.063a2.252 2.252 0 0 1-.033.318l-.034.206c-.009.06-.015.108-.017.152-.01.154.015.268.13.347.183.127.389.038.812-.27l.08-.059c.797-.593 1.619-.953 2.876-1.375.227-.077.438-.275.684-.603l.057-.078c.067-.093.139-.197.22-.321l.354-.548.115-.175c.394-.595.67-.92.958-1.098 1.037-.637 1.763-1.485 2.487-3.006l.04-.084c.31-.662.618-1.178.96-1.654l.078-.106c.094-.127.278-.367.303-.4l.042-.06c.085-.123.121-.2.121-.296 0-.342-.758-.372-1.923-.27zm-11.238 7.535l.163-.534c.048-.155.085-.272.121-.377.06-.175.118-.32.183-.458l.04-.084c.196-.399.483-.817 1.317-1.944.19-.256.383-.473.583-.657.727-.669 1.314-.828 2.518-.863l.213-.006c.25-.007.386-.016.542-.036.974-.125 1.802-.556 3.209-1.542.434-.304 1.335-.52 2.386-.612.427-.038.845-.05 1.162-.038l.042.002.117.007.043.004-.235.311-.077.103a10.292 10.292 0 0 0-1.007 1.694l-.048.102c-.69 1.476-1.358 2.276-2.312 2.876l-.053.033c-.378.233-.695.62-1.165 1.34l-.26.4c-.52.797-.663.966-.864 1.038l-.212.072c-1.154.397-1.95.754-2.728 1.32l-.103.076a4.495 4.495 0 0 1-.238.166l-.055.034.024-.15c.026-.157.04-.271.045-.386v-.07c0-.366.262-.962.79-1.766l.32-.48-.496.095c-2.024.388-3.213.75-3.623 1.125l-.017.017c-.198.192-.35.236-.393.193-.035-.035-.062-.125-.062-.275 0-.184.042-.43.13-.73z" fill="#EFF0FD"/><path fill-rule="evenodd" clip-rule="evenodd" d="M64.32 85.607a.14.14 0 1 1 .15.24c-3.423 2.127-5.596 4.878-6.526 8.255-.938 3.405-1.491 6.281-1.66 8.627a.141.141 0 0 1-.282-.02c.17-2.367.727-5.26 1.67-8.681.95-3.449 3.168-6.257 6.648-8.42z" fill="#EFF0FD"/><path fill-rule="evenodd" clip-rule="evenodd" d="M57.162 76.616c.351 1.456.527 2.524.527 3.203 0 1.018-.527 2.832-.263 2.832.263 0 3.795-.77 6.47-3.627 2.677-2.859 1.862-8.4 1.118-10.359-.743-1.958-2.052-4.945-2.262-4.945-.21 0-.103 1.096-1.073 1.596-.969.5-3.863 1.659-6.111 3.812-2.248 2.153-2.822 2.937-2.822 4.302 0 1.365.706 5.856.988 5.856.283 0 .956-.88 1.834-1.546a24.188 24.188 0 0 1 1.594-1.124z" fill="#fff"/><path fill-rule="evenodd" clip-rule="evenodd" d="M62.752 63.508c-.176 0-.247.105-.31.294l-.011.032c-.023.075-.067.231-.087.295l-.004.015a2.19 2.19 0 0 1-.162.395 1.374 1.374 0 0 1-.549.564l-.047.025c-.115.06-1.296.62-1.761.855-.94.478-1.79.97-2.597 1.53-.658.457-1.26.943-1.803 1.462l-.207.2c-2.18 2.105-2.68 2.893-2.68 4.255 0 .65.158 2.034.378 3.394l.06.361c.27 1.614.454 2.313.763 2.313.176 0 .338-.112.628-.38l.041-.04c.065-.062.62-.598.817-.774.164-.148.32-.278.475-.396l.109-.082c.394-.297.763-.561 1.107-.792l.114-.077.058.257c.262 1.163.393 2.033.393 2.605 0 .263-.036.598-.107 1.046l-.023.142-.121.718-.03.187a6.87 6.87 0 0 0-.04.297c-.016.15-.02.264-.01.353.02.17.097.3.28.3h.036c.347-.022 1.394-.326 2.38-.76 1.556-.683 3.009-1.652 4.21-2.934 1.253-1.34 1.853-3.322 1.898-5.657.034-1.8-.286-3.731-.737-4.92a63.05 63.05 0 0 0-1.265-3.06l-.127-.283c-.576-1.273-.83-1.74-1.069-1.74zm.039.605l.048.086.041.076.022.04c.156.297.358.72.588 1.23.444.987.956 2.22 1.326 3.195.432 1.138.743 3.015.71 4.763-.043 2.24-.613 4.126-1.784 5.376-1.159 1.238-2.565 2.175-4.07 2.837-.55.242-1.082.431-1.558.567l-.141.039a7.415 7.415 0 0 1-.35.085l-.058.012v-.008a2.44 2.44 0 0 1 .012-.157l.009-.07c.009-.075.021-.16.037-.258l.03-.19.113-.661.023-.144.023-.152c.06-.395.09-.702.09-.96 0-.67-.163-1.688-.488-3.063l-.115-.478-.25.16c-.484.308-1.02.686-1.61 1.134-.14.107-.282.224-.428.352l-.074.065a47.63 47.63 0 0 0-.829.787l-.032.03a2.735 2.735 0 0 1-.248.21l-.015.01-.003-.008a4.474 4.474 0 0 1-.13-.454l-.013-.05a25.096 25.096 0 0 1-.323-1.678l-.038-.237c-.2-1.26-.342-2.52-.347-3.132v-.037c0-1.252.478-1.968 2.756-4.15a14.36 14.36 0 0 1 1.751-1.42 20.936 20.936 0 0 1 2.385-1.417l.162-.083c.458-.232 1.64-.792 1.764-.856.349-.18.598-.439.774-.764a2.5 2.5 0 0 0 .173-.405l.025-.078.042-.144z" fill="#EFF0FD"/><path fill-rule="evenodd" clip-rule="evenodd" d="M61.18 69.046a.141.141 0 0 1 .264.101c-.742 1.932-1.986 4.138-3.73 6.618-1.714 2.436-2.582 11.09-2.582 25.9a.141.141 0 0 1-.283 0c0-14.887.87-23.555 2.633-26.062 1.732-2.462 2.965-4.648 3.698-6.557z" fill="#EFF0FD"/><path fill-rule="evenodd" clip-rule="evenodd" d="M46.3 83.286v.761c0 .425.172.693 0 .815-.17.122-2.596.201-3.694-.184-.732-.257-1.145-.874-1.238-1.852-2.928-1.99-4.707-3.163-5.335-3.518-.942-.533-2.5.533-2.5 0s.6-1.607 3.748-2.604c3.148-.997 5.457-1.192 9.02-.217 3.562.976 2.383 2.003 3.68 2.412 1.296.409 2.05 1.734 1.863 2.83-.187 1.097-.794 2.318-.982 2.318-.188 0-1.11-.76-2.317-.76H46.3z" fill="#fff"/><path fill-rule="evenodd" clip-rule="evenodd" d="M46.512 84.047v-.55h2.033c.464 0 .911.117 1.377.327l.073.034c.052.024.747.4.867.4.228 0 .435-.316.685-.873a7.04 7.04 0 0 0 .506-1.62c.21-1.238-.642-2.61-1.961-3.052l-.048-.016c-.315-.1-.447-.212-.613-.485l-.124-.207c-.19-.31-.275-.415-.505-.616-.37-.323-.909-.61-1.698-.878a13.033 13.033 0 0 0-.747-.228c-3.384-.927-5.702-.855-9.022.181l-.119.038c-2.69.852-3.896 1.872-3.896 2.806 0 .281.21.389.492.36a2.18 2.18 0 0 0 .272-.051l.072-.018.327-.087.123-.031c.215-.054.383-.087.55-.104.317-.033.572.001.772.114l.126.073c.6.355 1.916 1.22 3.946 2.59l1.167.791.003.019c.123.988.58 1.637 1.365 1.913.976.342 3.566.387 3.889.157a.396.396 0 0 0 .164-.343.886.886 0 0 0-.009-.121l-.01-.07-.022-.117a1.835 1.835 0 0 1-.035-.336zm-.268-7.356c.263.072.503.145.724.22.74.252 1.23.513 1.554.796l.046.04c.179.161.245.255.452.604l.026.043c.217.367.417.554.825.691l.045.015c1.147.362 1.897 1.552 1.719 2.594a6.621 6.621 0 0 1-.475 1.519 3.876 3.876 0 0 1-.269.51l-.015.023-.029.04-.02.026-.054-.026-.28-.152-.03-.015a6.84 6.84 0 0 0-.287-.144c-.544-.255-1.072-.4-1.631-.4h-2.457v.972c0 .118.01.224.032.353l.041.24.003.028v.017l-.038.008-.02.003c-.07.01-.16.02-.268.029l-.047.003c-.255.018-.573.026-.904.022l-.083-.001c-.876-.015-1.662-.107-2.128-.27-.647-.228-1.011-.772-1.097-1.673l-.01-.1-.928-.629c-2.433-1.647-3.931-2.63-4.504-2.953-.287-.163-.628-.209-1.026-.167-.188.02-.373.055-.605.113l-.483.126a1.929 1.929 0 0 1-.254.051l-.022.002.003-.023c.034-.25.224-.556.613-.885.591-.5 1.568-.988 2.982-1.436 3.308-1.048 5.557-1.13 8.9-.214z" fill="#EFF0FD"/><path fill-rule="evenodd" clip-rule="evenodd" d="M37.142 78.47a.142.142 0 0 1 .18-.083c6.56 2.403 10.44 5.044 11.636 7.942 2.246 5.437 3.371 10.076 3.371 15.514a.141.141 0 0 1-.283 0c0-5.397-1.117-10.001-3.35-15.407-1.157-2.805-4.98-5.406-11.47-7.785a.14.14 0 0 1-.084-.18z" fill="#EFF0FD"/><path fill-rule="evenodd" clip-rule="evenodd" d="M49.176 94.24c.933 1.294 1.042 2.137.329 2.53-1.07.588-2.092.163-2.319 0-.15-.11-.337-.254-.559-.431-.784.287-1.375.43-1.772.43-.596 0-1.75.359-1.75.814 0 .455-.338-.483-.168-1.244.169-.761 1.006-2.06 3.06-2.34 1.37-.187 2.429-.107 3.18.241z" fill="#fff"/><path fill-rule="evenodd" clip-rule="evenodd" d="M45.967 93.79c-1.818.247-2.978 1.33-3.239 2.503a2.79 2.79 0 0 0 .022 1.172c.038.163.083.286.14.356.098.12.293.145.387-.029a.418.418 0 0 0 .04-.209c0-.228.881-.588 1.502-.602h.077c.397-.01.945-.14 1.65-.388l.04-.015.017.013c.177.14.33.257.458.35.537.388 1.615.525 2.545.014.865-.476.738-1.456-.259-2.838l-.032-.045-.05-.023c-.794-.368-1.892-.452-3.298-.26zm3.02.599l.049.02.074.107c.768 1.112.83 1.772.291 2.068a2.177 2.177 0 0 1-1.346.258c-.32-.04-.617-.151-.745-.244l-.077-.056a14.592 14.592 0 0 1-.367-.283l-.2-.16-.113.041-.145.053c-.666.236-1.175.357-1.518.365h-.076c-.59.01-1.31.24-1.679.572l-.013.012-.002-.014a2.255 2.255 0 0 1 .022-.743c.223-1.002 1.242-1.953 2.883-2.177 1.272-.174 2.26-.11 2.962.18z" fill="#EFF0FD"/><path fill-rule="evenodd" clip-rule="evenodd" d="M49.014 94.752a.142.142 0 0 1 .19-.065c1.15.564 1.806 1.42 1.954 2.56.142 1.095.239 2.386.292 3.872a.141.141 0 0 1-.283.01l-.012-.314a40.786 40.786 0 0 0-.277-3.532c-.135-1.042-.73-1.82-1.799-2.343a.14.14 0 0 1-.065-.188zm-4.691-3.827a.142.142 0 0 1 .2.017l.222.261c3.552 4.197 5.328 6.723 5.364 7.67v2.433a.141.141 0 0 1-.281.017l-.001-.017v-2.404c0-.839-1.853-3.465-5.52-7.778a.14.14 0 0 1 .016-.199z" fill="#EFF0FD"/><path fill-rule="evenodd" clip-rule="evenodd" d="M49.14 91.033c-1.32.178-2.354.434-3.101.77-1.121.504-3.02-.482-4.11-.77-1.09-.288-2.167-1.094-3.128-2.063-.962-.97-2.26-1.49-2.26-1.75 0-.261 1.23-.192 2.26.222 1.029.414 1.272 1.001 2.2.823.928-.178.997-.83 2.683-.636 1.686.195 2.325 1.863 3.243 2.104.612.16 1.35.594 2.213 1.3z" fill="#fff"/><path fill-rule="evenodd" clip-rule="evenodd" d="M37.313 88.082l.148.096c.218.144.408.277.588.416.223.171.423.345.602.525 1.07 1.079 2.129 1.81 3.156 2.1l.069.019c.114.03.241.069.396.12l.225.078.6.214.152.053c.27.094.49.165.709.228.897.258 1.583.31 2.125.084l.044-.019c.725-.326 1.74-.578 3.042-.753l.483-.065-.377-.308c-.885-.724-1.647-1.171-2.293-1.341-.146-.038-.297-.127-.474-.273l-.056-.048a5.451 5.451 0 0 1-.258-.242l-.428-.43c-.686-.67-1.267-1.025-2.057-1.116-.926-.108-1.368-.011-1.982.321l-.069.038c-.302.167-.454.232-.696.279a1.14 1.14 0 0 1-.818-.111l-.04-.022c-.099-.053-.554-.344-.698-.425a4.305 4.305 0 0 0-.525-.254 5.706 5.706 0 0 0-1.578-.379l-.08-.006c-.548-.036-.893.04-.893.359 0 .196.116.303.528.57l.455.292zm-.045-.793a5.28 5.28 0 0 1 1.454.35c.166.066.32.14.474.228l.041.024c.167.1.56.348.664.405.368.2.699.262 1.141.177.264-.05.44-.12.714-.266l.13-.07c.565-.313.92-.396 1.774-.297.658.075 1.155.369 1.754.944l.137.135.305.307.08.079c.114.112.208.198.3.276.22.182.423.3.638.357l.05.013c.468.134 1.023.439 1.66.916l.039.028-.067.011c-1.077.174-1.945.409-2.604.705-.432.194-1.045.153-1.877-.086-.21-.06-.425-.13-.687-.221l-.811-.288-.117-.04a7.216 7.216 0 0 0-.476-.147c-.962-.254-1.986-.953-3.032-2.008a6.361 6.361 0 0 0-.644-.562 9.819 9.819 0 0 0-.53-.379l-.084-.055-.191-.124-.371-.237-.138-.091a3.115 3.115 0 0 1-.126-.089h.005c.105-.01.24-.008.395.005zm16.715 8.081v7.063h-.282V95.37h.282z" fill="#EFF0FD"/><path fill-rule="evenodd" clip-rule="evenodd" d="M52.55 93.525c-.195.31-.307.558-.19.661.115.104 1.012-.417 1.297-.208.285.208-.784 1.759-.663 1.94.12.181 2.548.225 3.45-.914.903-1.14 1.192-3.97 1.048-3.97-.145 0-.18.281-.712.42-.533.14-1.706-.353-2.87.26-1.164.613-1.166 1.5-1.36 1.81z" fill="#fff"/><path fill-rule="evenodd" clip-rule="evenodd" d="M52.426 93.287c-.022.06-.04.1-.056.125-.289.461-.378.73-.15.932.104.093.205.085.385.034l.049-.014.026-.008.123-.042.148-.05a2.79 2.79 0 0 1 .13-.043l.063-.02c.16-.047.278-.066.342-.064h.005l-.002.018a.931.931 0 0 1-.031.117c-.04.123-.105.274-.205.48l-.064.13-.182.363-.056.114a5.228 5.228 0 0 0-.06.128l-.013.028c-.115.262-.148.387-.06.52.14.209.877.243 1.64.13.933-.138 1.713-.474 2.154-1.03.426-.539.75-1.448.958-2.503.08-.406.135-.807.158-1.123l.007-.095c.005-.106.007-.197.003-.268a.662.662 0 0 0-.019-.135.279.279 0 0 0-.039-.088.222.222 0 0 0-.187-.101.33.33 0 0 0-.194.064c-.033.023-.188.18-.25.223a.987.987 0 0 1-.322.14l-.024.006c-.11.024-.234.02-.617-.018l-.089-.009c-.896-.089-1.457-.053-2.08.246l-.054.026a2.694 2.694 0 0 0-.927.732c-.147.185-.256.38-.346.598l-.02.052c-.051.133-.13.364-.143.402v.003zm4.867-1.832l.015-.01-.002.033a9.458 9.458 0 0 1-.152 1.073c-.196.994-.5 1.849-.875 2.322-.36.454-1.047.75-1.883.873a5.02 5.02 0 0 1-.929.054l-.042-.002a2.134 2.134 0 0 1-.185-.018l-.012-.002.003-.006c.01-.026.021-.055.035-.087l.025-.053c.021-.047.047-.1.077-.162l.217-.432c.136-.275.222-.469.276-.635.09-.275.094-.47-.078-.596-.186-.137-.43-.114-.8 0l-.097.032-.308.105-.02.007.01-.022c.034-.078.088-.174.162-.293a.965.965 0 0 0 .081-.169l.014-.036.07-.207c.032-.09.067-.185.087-.233a2.02 2.02 0 0 1 .287-.497c.179-.226.42-.424.741-.594l.044-.022c.554-.278 1.053-.313 1.901-.229l.142.014c.437.042.559.042.737-.004.186-.05.335-.117.46-.204z" fill="#EFF0FD"/><path fill-rule="evenodd" clip-rule="evenodd" d="M79.3 111.839l.04.007.013.003c1.204.288 3.946 1.798 8.295 4.555.532.246.902.783.902 1.407v1.362c0 .623-.33 1.201-.867 1.519l-2.976 1.761a1.532 1.532 0 0 1-2.318-1.316l.001-.985c-.287-.264-.526-.304-.782-.163-.314.173-.522.555-.606 1.182.164.245.26.541.26.858v1.363c0 .623-.33 1.201-.867 1.519l-2.975 1.76a1.532 1.532 0 0 1-2.318-1.316v-1.287l.003-.103a.341.341 0 0 1-.123-.048l-.383-.243c-4.04-2.549-6.634-3.973-7.72-4.249l-.028-.007-.015-.003c-.72-.13-1.084.424-1.091 1.935v.048a.354.354 0 0 1-.709 0c0-1.924.64-2.911 1.921-2.679l.04.007.013.003c1.203.288 3.94 1.795 8.28 4.546.143-.283.362-.527.64-.701l2.95-1.855a1.556 1.556 0 0 1 1.505-.085c.153-.596.444-1.024.88-1.264.402-.221.81-.222 1.199-.024.12-.405.385-.76.753-.991l2.951-1.855c.053-.033.108-.063.164-.089-3.692-2.31-6.08-3.605-7.111-3.867l-.027-.006-.016-.003c-.711-.128-1.075.413-1.09 1.888v.095a.354.354 0 0 1-.709 0c0-1.924.64-2.911 1.921-2.679zm.409 9.348a.845.845 0 0 0-.45.13l-2.952 1.855a1.058 1.058 0 0 0-.496.896v1.287a.825.825 0 0 0 1.247.709l2.975-1.761c.323-.191.52-.537.52-.911v-1.363a.843.843 0 0 0-.844-.842zm7.288-4.219a.844.844 0 0 0-.45.13l-2.952 1.855a1.06 1.06 0 0 0-.496.897v1.287a.824.824 0 0 0 1.247.708l2.975-1.761c.323-.191.52-.537.52-.911v-1.362a.841.841 0 0 0-.431-.735.351.351 0 0 1-.085-.039l-.01-.007a.844.844 0 0 0-.318-.062z" fill="#5B61ED"/><path d="M105.76 86.201c3.644 0 6.598-1.717 6.598-3.836 0-2.118-2.954-3.836-6.598-3.836-3.644 0-6.598 1.718-6.598 3.836 0 2.119 2.954 3.836 6.598 3.836z" fill="#5B61ED"/><path d="M105.76 86.201c3.644 0 6.598-1.717 6.598-3.836 0-2.118-2.954-3.836-6.598-3.836-3.644 0-6.598 1.718-6.598 3.836 0 2.119 2.954 3.836 6.598 3.836z" fill="#fff" fill-opacity=".82"/><path d="M105.749 67.458c2.407 0 4.358-1.24 4.358-2.77 0-1.531-1.951-2.772-4.358-2.772-2.407 0-4.358 1.24-4.358 2.771 0 1.53 1.951 2.771 4.358 2.771z" fill="#EFF0FD"/><path fill-rule="evenodd" clip-rule="evenodd" d="M105.749 61.916c2.407 0 4.358 1.24 4.358 2.771 0 1.53-1.951 2.771-4.358 2.771-2.407 0-4.358-1.24-4.358-2.77 0-1.531 1.951-2.772 4.358-2.772zm0 .48c-2.174 0-3.877 1.083-3.877 2.291 0 1.209 1.703 2.291 3.877 2.291 2.174 0 3.877-1.082 3.877-2.29 0-1.21-1.703-2.292-3.877-2.292z" fill="#5B61ED"/><path fill-rule="evenodd" clip-rule="evenodd" d="M101.424 62.144l-.512-1.205a.422.422 0 0 1 .224-.554l.805-.341a.424.424 0 0 1 .556.223l.513 1.206" fill="#fff"/><path fill-rule="evenodd" clip-rule="evenodd" d="M101.795 59.845a.722.722 0 0 1 .932.35l.014.03.49 1.154-.443.187-.49-1.153a.241.241 0 0 0-.294-.134l-.021.007-.7.297a.24.24 0 0 0-.136.293l.008.022.491 1.152-.443.188-.491-1.153a.72.72 0 0 1 .352-.93l.031-.014.7-.296z" fill="#EFF0FD"/><path fill-rule="evenodd" clip-rule="evenodd" d="M105.813 68.05l-2.851-6.693a2.22 2.22 0 0 1-.729.514 2.08 2.08 0 0 1-.857.157l2.733 6.417c.171-.003.422-.039.751-.106a5.3 5.3 0 0 0 .953-.288z" fill="#fff"/><path fill-rule="evenodd" clip-rule="evenodd" d="M101.01 61.782l2.942 6.908.163-.004a4.82 4.82 0 0 0 .794-.111c.344-.07.676-.17.995-.301l.226-.092-3.088-7.252-.253.261a1.98 1.98 0 0 1-.65.46 1.832 1.832 0 0 1-.758.138l-.371-.008zm1.864-.018l2.62 6.152-.105.036a5.17 5.17 0 0 1-.577.153l-.062.012c-.161.032-.3.055-.416.07l-.07.008-2.532-5.944.068-.01a2.194 2.194 0 0 0 1.062-.468l.012-.01z" fill="#5B61ED"/><path fill-rule="evenodd" clip-rule="evenodd" d="M108.478 60.818l.513-1.206a.423.423 0 0 1 .555-.224l.805.342c.216.091.316.34.225.555l-.512 1.205" fill="#fff"/><path fill-rule="evenodd" clip-rule="evenodd" d="M110.393 59.486a.72.72 0 0 1 .395.913l-.013.032-.49 1.153-.442-.188.49-1.153a.24.24 0 0 0-.107-.305l-.021-.01-.7-.297a.24.24 0 0 0-.305.107l-.01.02-.49 1.153-.443-.187.49-1.153a.721.721 0 0 1 .914-.394l.032.013.7.296z" fill="#EFF0FD"/><path fill-rule="evenodd" clip-rule="evenodd" d="M107.804 66.794l2.309-5.422a2.23 2.23 0 0 1-.878-.166 2.08 2.08 0 0 1-.708-.505l-2.732 6.418 2.009-.325z" fill="#fff"/><path fill-rule="evenodd" clip-rule="evenodd" d="M108.451 60.267l-2.941 6.908.116.115c.134.132.343.294.631.491.29.198.593.366.909.505l.223.098 3.088-7.252h-.364c-.293 0-.553-.049-.783-.146a1.828 1.828 0 0 1-.626-.448l-.253-.271zm1.308 1.324l-2.62 6.153-.099-.05a5.185 5.185 0 0 1-.511-.309l-.052-.035a6.308 6.308 0 0 1-.339-.25l-.055-.044 2.532-5.945.053.041a2.172 2.172 0 0 0 1.076.436l.015.003z" fill="#5B61ED"/><path fill-rule="evenodd" clip-rule="evenodd" d="M103.813 60.236v-1.309c0-.233.19-.423.424-.423h.875c.234 0 .424.19.424.423v1.31" fill="#fff"/><path fill-rule="evenodd" clip-rule="evenodd" d="M105.055 58.263c.387 0 .703.305.721.686v1.286h-.481v-1.252a.24.24 0 0 0-.217-.239h-.784a.24.24 0 0 0-.239.216l-.001.023v1.252h-.481v-1.252a.72.72 0 0 1 .687-.719h.795z" fill="#EFF0FD"/><path fill-rule="evenodd" clip-rule="evenodd" d="M105.535 67.382v-7.273c-.298.127-.589.19-.872.19-.284 0-.567-.063-.85-.19v6.973c.159.063.403.128.733.194.329.066.659.102.989.106z" fill="#fff"/><path fill-rule="evenodd" clip-rule="evenodd" d="M103.573 59.74v7.505l.151.06c.175.07.432.137.774.206.345.07.689.106 1.035.11l.243.004v-7.878l-.334.142c-.27.114-.529.17-.779.17-.249 0-.498-.056-.752-.169l-.338-.15zm1.722.708v6.685l-.111-.008a5.127 5.127 0 0 1-.59-.084l-.063-.013a6.44 6.44 0 0 1-.41-.098l-.067-.02v-6.458l.066.018a2.185 2.185 0 0 0 1.161-.018l.014-.004z" fill="#5B61ED"/><path fill-rule="evenodd" clip-rule="evenodd" d="M101.542 65.155c-.502 3.416-2.153 13.588-2.153 15.673 0 2.294 2.845 4.154 6.354 4.154 3.508 0 6.353-1.86 6.353-4.154-.211-1.472-.872-6.754-1.984-15.845-.228.802-.627 1.336-1.196 1.6-2.36 1.1-3.665.616-4.243.568-3.018-.249-3.081-2.339-3.131-1.996z" fill="#fff"/><path fill-rule="evenodd" clip-rule="evenodd" d="M101.417 64.344l.478.06-.015.106c-.058.419-.239 1.62-.437 2.931.795 1.008 2.452 1.673 4.308 1.673 1.814 0 3.44-.635 4.256-1.608l-.395-2.866.477-.065 2.114 15.32.131.928.003.034c0 2.453-2.968 4.394-6.594 4.394-3.625 0-6.594-1.941-6.594-4.394v-.063c.014-1.009.338-3.563.924-7.53l.128-.865 1.023-6.734c.092-.613.161-1.083.187-1.275l.006-.046zm-1.458 13.183l-.005.039c-.212 1.636-.323 2.747-.323 3.29 0 2.136 2.72 3.915 6.112 3.915 3.358 0 6.058-1.744 6.112-3.85l.001-.049-.446-3.192c-1.173 1.306-3.304 2.131-5.66 2.131-2.45 0-4.654-.893-5.79-2.284zm.187-1.393l-.007.058-.087.637c.904 1.485 3.148 2.502 5.698 2.502 2.43 0 4.589-.923 5.569-2.305l-.034-.243-.067-.487c-1.125 1.32-3.189 2.157-5.47 2.157-2.378 0-4.515-.909-5.602-2.32zm1.022-6.89l-.008.056-.384 2.514-.208 1.388c-.117.794-.225 1.533-.321 2.215l-.016-.028c.835 1.53 3.023 2.584 5.517 2.584 2.359 0 4.452-.944 5.377-2.352l-.868-6.302c-1.01.946-2.679 1.528-4.505 1.528-1.875 0-3.584-.614-4.584-1.603zm.181-1.188l-.007.05-.08.524c.835 1.047 2.559 1.737 4.49 1.737 1.877 0 3.562-.652 4.421-1.654l-.082-.598c-.969.916-2.579 1.48-4.34 1.48-1.8 0-3.441-.59-4.402-1.54z" fill="#5B61ED"/><path fill-rule="evenodd" clip-rule="evenodd" d="M105.769 67.46c2.356 0 4.3-1.22 4.339-2.798v-.048h-.481c0 1.278-1.711 2.366-3.858 2.366-2.147 0-3.858-1.088-3.858-2.366 0-.121.015-.242.045-.36l.017-.06-.462-.136a1.945 1.945 0 0 0-.081.556c0 1.6 1.959 2.846 4.339 2.846zM5.492 64.223l14.42 8.273a2.197 2.197 0 0 0 2.189-.002l14.255-8.211a.853.853 0 0 0 0-1.48l-14.263-8.216a2.197 2.197 0 0 0-2.178-.008l-14.418 8.16a.853.853 0 0 0-.005 1.484z" fill="#5B61ED"/><path fill-rule="evenodd" clip-rule="evenodd" d="M5.492 64.223l14.42 8.273a2.197 2.197 0 0 0 2.189-.002l14.255-8.211a.853.853 0 0 0 0-1.48l-14.263-8.216a2.197 2.197 0 0 0-2.178-.008l-14.418 8.16a.853.853 0 0 0-.005 1.484z" fill="#fff" fill-opacity=".82"/><path fill-rule="evenodd" clip-rule="evenodd" d="M9.605 50.946v10.49l7.703 4.187.111-10.855-7.814-3.822z" fill="#fff"/><path fill-rule="evenodd" clip-rule="evenodd" d="M36.614 45.815v16.693a.854.854 0 0 1-.428.739L22.1 71.389a2.197 2.197 0 0 1-2.19.005L5.666 63.246a.854.854 0 0 1-.43-.741V45.818l15.77 8.303 15.608-8.306zM7.005 50.818a.568.568 0 0 0-.072.278v8.512c0 .58.311 1.114.816 1.402l8.815 5.022a.573.573 0 0 0 .855-.495v-8.634c0-.585-.318-1.124-.83-1.41l-8.806-4.895a.572.572 0 0 0-.778.22z" fill="#fff"/><path fill-rule="evenodd" clip-rule="evenodd" d="M36.785 45.53v16.88c0 .4-.2.772-.534.994l-.032.02-.031.02-13.785 7.967a2.806 2.806 0 0 1-2.704.056l-.046-.024-.045-.026-13.941-7.974c-.35-.2-.574-.56-.6-.961l-.002-.038V45.535l15.941 8.393 15.78-8.397zm-.342 16.88V46.1l-15.436 8.214-15.6-8.213v16.334c.01.285.161.546.403.696l.027.016 13.94 7.973.042.024a2.46 2.46 0 0 0 2.37-.005l.043-.023 13.781-7.966.027-.016a.853.853 0 0 0 .402-.693v-.031zM8.01 50.529l.026.014 8.47 4.71a2.105 2.105 0 0 1 1.084 1.797v8.292a.858.858 0 0 1-1.256.755l-.025-.014-8.482-4.832a2.105 2.105 0 0 1-1.064-1.786v-8.176a.858.858 0 0 1 1.222-.773l.025.013zm-.84.51a.51.51 0 0 0-.064.22l-.001.03v8.133c0 .62.326 1.193.857 1.512l.035.02 8.482 4.833a.515.515 0 0 0 .768-.415l.001-.03v-8.25c0-.626-.333-1.204-.872-1.52l-.036-.021-8.471-4.71a.515.515 0 0 0-.7.198z" fill="#5B61ED"/><path fill-rule="evenodd" clip-rule="evenodd" d="M19.915 36.853a2.197 2.197 0 0 1 2.178.008l14.262 8.216a.853.853 0 0 1 0 1.48l-14.254 8.212c-.677.39-1.512.39-2.19.001L5.493 46.497a.855.855 0 0 1 .005-1.483l14.418-8.161zm-.018 1.954l-10.99 6.22a.853.853 0 0 0-.004 1.484l10.99 6.305a2.197 2.197 0 0 0 2.19-.002l10.862-6.257a.853.853 0 0 0 0-1.48l-10.87-6.262a2.197 2.197 0 0 0-2.178-.008z" fill="#fff"/><path fill-rule="evenodd" clip-rule="evenodd" d="M19.586 36.778a2.863 2.863 0 0 1 2.744-.041l.048.026.046.026 13.791 7.944a1.25 1.25 0 0 1 .059 2.132l-.03.019-.029.017-13.782 7.94c-.85.49-1.892.508-2.76.052l-.047-.025-.045-.025-13.944-8a1.25 1.25 0 0 1-.053-2.139l.03-.018.03-.017 13.942-7.891zm2.57.382a2.405 2.405 0 0 0-2.301-.01l-.043.024-13.94 7.89-.024.013a.795.795 0 0 0-.013 1.353l.03.019 13.941 7.998.042.024a2.405 2.405 0 0 0 2.314-.001l.043-.024 13.779-7.937.023-.014a.795.795 0 0 0 .01-1.35l-.03-.018-13.79-7.943-.042-.024zm.204 1.557l.046.026 10.398 5.99a1.25 1.25 0 0 1 .03 2.151l-.03.017-10.39 5.985a2.86 2.86 0 0 1-2.806.029l-.046-.026-10.514-6.032a1.25 1.25 0 0 1-.023-2.157l.03-.018 10.513-5.95a2.863 2.863 0 0 1 2.746-.04l.046.025zm-2.525.388l-.042.023-10.513 5.95a.796.796 0 0 0-.035 1.365l.03.019 10.515 6.032c.728.418 1.62.425 2.354.022l.042-.024 10.39-5.985a.796.796 0 0 0 .03-1.362l-.03-.018-10.399-5.99a2.405 2.405 0 0 0-2.298-.055l-.044.023z" fill="#5B61ED"/><path fill-rule="evenodd" clip-rule="evenodd" d="M19.596 38.781l-10.513 5.95a1.193 1.193 0 0 0-.006 2.076l10.514 6.032c.865.497 1.93.496 2.795-.002l10.39-5.985a1.193 1.193 0 0 0 0-2.07l-10.398-5.99a2.805 2.805 0 0 0-2.782-.011zm2.61.306l10.399 5.99a.852.852 0 0 1 0 1.479l-10.39 5.985a2.462 2.462 0 0 1-2.453.002L9.248 46.511a.852.852 0 0 1 .004-1.483l10.514-5.95a2.462 2.462 0 0 1 2.44.01z" fill="#5B61ED"/><path fill-rule="evenodd" clip-rule="evenodd" d="M9.606 46.626V38.65l11.019-6.161.742.136-10.99 14.434-.77-.433z" fill="#fff"/><path fill-rule="evenodd" clip-rule="evenodd" d="M9.435 38.55l11.16-6.24.803.147-.063.335-.68-.125L9.778 38.75v8.195h-.343V38.55z" fill="#5B61ED"/><path fill-rule="evenodd" clip-rule="evenodd" d="M10.205 46.979v-8.064l11.019-6.161v11.469l-7.963 4.432c-.03 0-.174-.057-.432-.17-.259-.114-1.133-.616-2.624-1.506z" fill="#fff"/><path fill-rule="evenodd" clip-rule="evenodd" d="M21.395 44.438V32.462l-11.362 6.353v8.462c.092.109.347.268.764.477.625.314 2.235 1.624 2.799 1.291l7.799-4.607zm-.343-11.393v11.198l-7.63 4.508-.07.04c-.438.25-2.457-1.306-2.922-1.63l-.054-.101v-8.045l10.676-5.97z" fill="#5B61ED"/><path fill-rule="evenodd" clip-rule="evenodd" d="M13.043 48.618V40.64l11.019-6.16.742.136-10.99 14.434-.77-.433z" fill="#fff"/><path fill-rule="evenodd" clip-rule="evenodd" d="M12.871 40.54l11.16-6.24.803.148-.062.336-.681-.125-10.877 6.082v8.194h-.343v-8.394z" fill="#5B61ED"/><path fill-rule="evenodd" clip-rule="evenodd" d="M13.642 48.969v-8.064l11.018-6.161v11.469l-7.963 4.432c-.03 0-.174-.057-.432-.17-.259-.114-1.133-.616-2.623-1.506z" fill="#fff"/><path fill-rule="evenodd" clip-rule="evenodd" d="M24.83 46.43V34.452l-11.36 6.353v8.462c.091.109.346.268.763.477.625.315 2.235 1.624 2.8 1.291l7.798-4.607zm-.342-11.394v11.198l-7.63 4.508-.07.04c-.438.25-2.457-1.306-2.922-1.63l-.054-.101v-8.045l10.676-5.97z" fill="#5B61ED"/><path fill-rule="evenodd" clip-rule="evenodd" d="M16.698 50.724v-7.977l11.018-6.16.742.135-10.99 14.435-.77-.433z" fill="#fff"/><path fill-rule="evenodd" clip-rule="evenodd" d="M16.526 42.647l11.16-6.24.803.148-.062.335-.681-.125-10.877 6.082v8.195h-.343v-8.395z" fill="#5B61ED"/><path fill-rule="evenodd" clip-rule="evenodd" d="M17.296 51.076v-8.064l11.018-6.16V48.32l-7.963 4.432c-.03 0-.174-.057-.432-.17-.259-.114-1.133-.616-2.623-1.506z" fill="#fff"/><path fill-rule="evenodd" clip-rule="evenodd" d="M28.485 48.535V36.559l-11.361 6.353v8.462c.092.109.346.268.763.477.626.314 2.235 1.624 2.8 1.291l7.798-4.607zm-.343-11.393V48.34l-7.63 4.508-.069.04c-.439.25-2.458-1.306-2.923-1.63l-.054-.101v-8.045l10.676-5.97zM7.007 50.793a.572.572 0 0 1 .778-.22l.406.226v8.215c0 .58.311 1.114.816 1.402l8.413 4.793v.303c0 .09-.02.178-.06.257l-.015.026a.573.573 0 0 1-.78.212L7.75 60.985a1.614 1.614 0 0 1-.815-1.401V51.07c0-.097.024-.193.072-.278zm13.91 4.202l.009 16.621c.363.123 1.309-.26 2.837-1.147l12.613-7.32c.16-.235.24-.575.24-1.021v-16.31c.111.443-.553 1.026-1.994 1.75-1.44.722-5.52 3.058-12.24 7.005-.39.281-.698.422-.925.422h-.54z" fill="#5B61ED"/><path fill-rule="evenodd" clip-rule="evenodd" d="M20.523 52.775v-8.332l11.018-6.161.742.136-10.99 14.434a6.065 6.065 0 0 1-.473-.019c-.1-.01-.2-.03-.297-.058z" fill="#fff"/><path fill-rule="evenodd" clip-rule="evenodd" d="M20.352 44.342l11.16-6.24.802.148-.062.335-.68-.125-10.878 6.082v8.411h-.342v-8.61z" fill="#5B61ED"/><path fill-rule="evenodd" clip-rule="evenodd" d="M21.123 53.056v-8.348l11.018-6.161v8.425l-9.361 5.52a4.293 4.293 0 0 1-1.524.544l-.133.02z" fill="#fff"/><path fill-rule="evenodd" clip-rule="evenodd" d="M32.312 47.069v-8.815L20.95 44.607v8.648l.197-.03a5.17 5.17 0 0 0 1.834-.656l9.33-5.5zm-.343-8.231v8.036l-9.161 5.401-.07.04a4.826 4.826 0 0 1-1.407.53l-.038.007v-8.045l10.676-5.97z" fill="#5B61ED"/><path fill-rule="evenodd" clip-rule="evenodd" d="M24.654 46.669c.059 0 .107.044.114.1v2.754l-2.085 1.25v1.362a.114.114 0 0 1-.101.113h-.014a.114.114 0 0 1-.113-.1v-1.503l2.085-1.25v-2.612c0-.059.044-.107.101-.113l.013-.001zm1.465-.965h.013a.115.115 0 0 1 .101.114v2.66l2.086-1.102v1.448a.114.114 0 0 1-.114.1h-.013a.114.114 0 0 1-.101-.114v-1.056l-2.086 1.103v-3.052a.114.114 0 0 1 .114-.101zm4.528-2.55c.059 0 .107.044.114.1v2.911l-1.502.912v1.13a.114.114 0 0 1-.1.114h-.014a.114.114 0 0 1-.113-.1l-.001-.014v-1.258l.562-.341v-1.9a.114.114 0 0 1 .227-.013l.001.013v1.761l.712-.432v-2.768c0-.058.044-.107.1-.113h.014z" fill="#EFF0FD"/><path fill-rule="evenodd" clip-rule="evenodd" d="M17.48 56.444v8.8h-.342v-8.8h.343zm-.604-.934v9.548h-.343V55.51h.343zm-3.05-1.709v9.734h-.343V53.8h.343zm-.605-.285v9.564h-.343v-9.564h.343zm-2.838-1.569v9.734h-.342v-9.734h.342zm-.605-.284v9.563h-.342v-9.563h.342z" fill="#5B61ED"/><path fill-rule="evenodd" clip-rule="evenodd" d="M35.661 59.392l-2.95 1.9-3.94 2.244-2.01 1.17-.493-.143-1.221-.74a.38.38 0 0 1-.184-.325v-5.787c0-.729.4-1.4 1.041-1.75l7.717-4.204a.477.477 0 0 1 .47.008l1.293.759.277.533v6.334z" fill="#fff"/><path fill-rule="evenodd" clip-rule="evenodd" d="M34.745 52.39l-7.513 4.387a2.56 2.56 0 0 0-1.271 2.21v5.237a.63.63 0 0 0 .943.542l8.018-4.626c.582-.336.94-.956.94-1.626v-5.486a.743.743 0 0 0-1.117-.639zm.72.437c.036.06.055.13.055.201v5.486c0 .548-.293 1.055-.77 1.33l-8.018 4.626a.286.286 0 0 1-.428-.246v-5.237c0-.788.419-1.517 1.1-1.915l7.514-4.388a.4.4 0 0 1 .535.123l.012.02z" fill="#5B61ED"/><path fill-rule="evenodd" clip-rule="evenodd" d="M34.676 58.082a.17.17 0 0 1-.05.224l-.014.009-6.815 3.89a.172.172 0 0 1-.233-.063.17.17 0 0 1 .05-.224l.013-.009 6.815-3.89a.172.172 0 0 1 .234.063zm0-1.66a.17.17 0 0 1-.05.224l-.014.01-6.815 3.89a.172.172 0 0 1-.233-.063.17.17 0 0 1 .05-.224l.013-.01 6.815-3.89a.172.172 0 0 1 .234.063zm0-1.739a.17.17 0 0 1-.05.224l-.014.009-6.815 3.89a.172.172 0 0 1-.233-.062.17.17 0 0 1 .05-.225l.013-.008 6.815-3.891a.172.172 0 0 1 .234.063z" fill="#EFF0FD"/></svg>