<svg width="484" height="616" fill="none" xmlns="http://www.w3.org/2000/svg"><path fill-rule="evenodd" clip-rule="evenodd" d="M184.557 584.506L32.968 498.418 280.77 353.903l150.67 87.301-246.883 143.302z" fill="#5B61ED"/><path fill-rule="evenodd" clip-rule="evenodd" d="M184.557 584.506L32.968 498.418 280.77 353.903l150.67 87.301-246.883 143.302z" fill="#fff" fill-opacity=".9"/><path fill-rule="evenodd" clip-rule="evenodd" d="M36.566 499.308l2.82-1.469 13.79-152.604-8.173-3.479-8.437 157.552z" fill="#fff"/><path fill-rule="evenodd" clip-rule="evenodd" d="M35.995 500.194l8.526-159.212 9.21 3.92-13.85 153.269-3.886 2.023zm9.49-157.666L37.136 498.42l1.754-.913 13.731-151.941-7.138-3.038z" fill="#5B61ED"/><path fill-rule="evenodd" clip-rule="evenodd" d="M416.533 282.679l-146.925-85.23L38.023 331.242l146.622 85.429 231.888-133.992z" fill="#fff"/><path fill-rule="evenodd" clip-rule="evenodd" d="M36.98 331.24l232.628-134.395 147.968 85.835-232.933 134.595L36.981 331.24zm232.627-133.187L39.064 331.243l145.582 84.823 230.843-133.388-145.882-84.625z" fill="#5B61ED"/><path fill-rule="evenodd" clip-rule="evenodd" d="M184.557 584.506l-3.896-1.883-5.106-163.079-129.803-74.862-9.69 155.501-3.008-1.682 4.015-167.259 147.488 85.73v167.534zM427.01 442.822l-4.078-1.899-25.853-141.228 9.002-2.572 20.929 145.699z" fill="#5B61ED"/><path fill-rule="evenodd" clip-rule="evenodd" d="M185.073 583.635l3.815-2.244 4.861-161.693L406.241 296.92l21.169 146.014 3.473-2.023-14.029-157.943-232.298 133.727.517 166.94z" fill="#fff"/><path fill-rule="evenodd" clip-rule="evenodd" d="M184.033 416.394l233.27-134.287 14.13 159.09-4.429 2.579-21.168-146.017-211.573 122.246-4.861 161.691-4.848 2.85-.521-168.152zm232.374-132.565L185.08 416.998l.513 165.724 2.782-1.635 4.861-161.696 213.412-123.309 21.168 146.011 2.518-1.466-13.927-156.798zm-182.883-27.298a2.087 2.087 0 0 1 2.073.02l29.271 17.121a2.092 2.092 0 0 1-.026 3.627l-25.445 14.415.866.389c.585.277 1.225 1.58 1.571 2.192l.036.063a3.314 3.314 0 0 1-1.199 4.528l-28.896 16.192a11.311 11.311 0 0 1-12.021-.409l-.404-.27-51.811 29.35a7.307 7.307 0 0 1-7.246-.024l-.127-.074-26.984-16.248a2.093 2.093 0 0 1 .058-3.62l120.284-67.252z" fill="#5B61ED"/><path opacity=".82" fill-rule="evenodd" clip-rule="evenodd" d="M233.524 256.531a2.087 2.087 0 0 1 2.073.02l29.271 17.121a2.092 2.092 0 0 1-.026 3.627l-25.445 14.415.866.389c.585.277 1.225 1.58 1.571 2.192l.036.063a3.314 3.314 0 0 1-1.199 4.528l-28.896 16.192a11.311 11.311 0 0 1-12.021-.409l-.404-.27-51.811 29.35a7.307 7.307 0 0 1-7.246-.024l-.127-.074-26.984-16.248a2.093 2.093 0 0 1 .058-3.62l120.284-67.252z" fill="#fff"/><path fill-rule="evenodd" clip-rule="evenodd" d="M240.108 288.654l-33.923-14.525-34.754 19.395 28.567 18.401a11.31 11.31 0 0 0 12.027.198l28.609-16.695a3.313 3.313 0 0 0 1.12-4.548c-.346-.574-1.035-1.95-1.646-2.226z" fill="#5B61ED"/><path fill-rule="evenodd" clip-rule="evenodd" d="M128.829 307.415L110.54 200.403a5.931 5.931 0 0 1 2.818-6.1l126.31-74.929a5.918 5.918 0 0 1 8.855 4.096l18.427 107.399a5.928 5.928 0 0 1-2.831 6.111L137.67 311.524a5.918 5.918 0 0 1-8.841-4.109z" fill="#fff"/><path fill-rule="evenodd" clip-rule="evenodd" d="M239.401 118.923l-126.311 74.93a6.452 6.452 0 0 0-3.066 6.637l18.289 107.013a6.44 6.44 0 0 0 9.621 4.47l126.449-74.543a6.453 6.453 0 0 0 3.081-6.65l-18.427-107.4a6.44 6.44 0 0 0-9.636-4.457zm7.93 2.794c.335.567.565 1.191.676 1.84l18.427 107.4a5.408 5.408 0 0 1-2.581 5.572l-126.449 74.543a5.396 5.396 0 0 1-8.061-3.746l-18.289-107.012a5.407 5.407 0 0 1 2.569-5.561l126.311-74.93a5.395 5.395 0 0 1 7.397 1.894z" fill="#5B61ED"/><path fill-rule="evenodd" clip-rule="evenodd" d="M131.282 307.467l-18.263-105.889a5.93 5.93 0 0 1 2.821-6.111l126.85-75.102a5.919 5.919 0 0 1 8.856 4.13l17.794 107.166a5.93 5.93 0 0 1-2.857 6.092l-126.382 73.825a5.917 5.917 0 0 1-8.819-4.111z" fill="#fff"/><path fill-rule="evenodd" clip-rule="evenodd" d="M228.904 142.16l14.328 81.552-1.029.182-14.27-81.162.971-.572z" fill="#5B61ED"/><path fill-rule="evenodd" clip-rule="evenodd" d="M131.661 287.912l132.045-76.466 1.098 8.683-131.928 76.367-1.215-8.584z" fill="#5B61ED"/><path fill-rule="evenodd" clip-rule="evenodd" d="M242.424 119.915l-126.851 75.102a6.451 6.451 0 0 0-3.069 6.65l18.263 105.889a6.44 6.44 0 0 0 9.597 4.474l126.382-73.825a6.455 6.455 0 0 0 3.109-6.629L252.061 124.41a6.44 6.44 0 0 0-9.637-4.495zm7.927 2.801c.34.575.57 1.207.679 1.865l17.794 107.166a5.406 5.406 0 0 1-2.605 5.554l-126.381 73.826a5.397 5.397 0 0 1-8.042-3.749l-18.263-105.889a5.41 5.41 0 0 1 2.572-5.572l126.851-75.102a5.397 5.397 0 0 1 7.334 1.799l.061.102z" fill="#5B61ED"/><path fill-rule="evenodd" clip-rule="evenodd" d="M250.795 122.453c.373.632.625 1.327.745 2.051l16.102 97.47-137.273 79.439-17.344-99.831a5.929 5.929 0 0 1 2.819-6.118l126.84-75.096a5.919 5.919 0 0 1 8.111 2.085zm-2.498 5.911a1.392 1.392 0 0 0-1.905-.507l-126.495 73.419a3.141 3.141 0 0 0-1.519 3.235l15.017 89.397 129.857-73.92-14.785-91.148a1.413 1.413 0 0 0-.17-.476z" fill="#5B61ED"/><path fill-rule="evenodd" clip-rule="evenodd" d="M249.428 129.244l.522.906-131.671 76.098-.522-.906 131.671-76.098zm-67.447 126.139l-11.375-71.043-44.497 25.764 12.201 71.021 43.671-25.742zm-12.166-69.377l11.021 68.837-41.752 24.612-11.822-68.81 42.553-24.639zm65.847 38.839l-11.374-71.043-44.497 25.765 12.201 71.02 43.67-25.742zm-12.166-69.377l11.021 68.837-41.752 24.612-11.822-68.81 42.553-24.639z" fill="#5B61ED"/><path d="M203.94 270.187c1.873.72 4.167-.723 5.126-3.222.958-2.499.217-5.108-1.655-5.828-1.873-.719-4.167.723-5.126 3.223-.958 2.499-.217 5.108 1.655 5.827z" fill="#5B61ED"/><path fill-rule="evenodd" clip-rule="evenodd" d="M172.896 292.418l27.088 17.634a10.79 10.79 0 0 0 11.493.177l28.348-17.237a2.791 2.791 0 0 0-.326-4.938l-33.569-14.762-33.034 19.126z" fill="#fff"/><path fill-rule="evenodd" clip-rule="evenodd" d="M239.732 287.872l-33.547-15.168-34.003 19.687 27.816 18.109c3.639 2.369 7.869 2.948 11.584.701l29.391-17.677c1.564-.946 1.052-2.263.514-3.89-.231-.698-1.145-1.485-1.755-1.762zm-65.554 4.572l32.065-18.565 33.058 14.947a2.267 2.267 0 0 1 .239 4.005l-28.82 16.972c-3.348 1.95-6.897 1.939-10.152-.18l-26.39-17.179zm-21.557 3.806l16.136-9.196c.017 3.793.268 6.859.751 9.196.484 2.337 1.613 5.105 3.388 8.304l-15.678 9.203c-2.078-3.306-3.312-6.173-3.7-8.601-.388-2.428-.687-5.397-.897-8.906zM378.572 616l102.179-58.857-109.897-63.726-103.211 58.925L378.572 616z" fill="#5B61ED"/><path fill-rule="evenodd" clip-rule="evenodd" d="M378.572 616l102.179-58.857-109.897-63.726-103.211 58.925L378.572 616z" fill="#fff" fill-opacity=".9"/><path fill-rule="evenodd" clip-rule="evenodd" d="M478.829 364.699l-8.971-4.866-11.97 38.946-96.387-55.946.945 152.707 8.513 5.11-.033-143.364 59.707 34.615 34.36 162.386 8.429 5.229-32.905-161.775 24.476 14.336 13.836-47.378z" fill="#5B61ED"/><path fill-rule="evenodd" clip-rule="evenodd" d="M473.753 558.673l6.471-3.879-32.62-152.183-7.054-4.601 33.203 160.663z" fill="#fff"/><path fill-rule="evenodd" clip-rule="evenodd" d="M473.39 559.5l-33.605-162.614 8.285 5.405 32.743 152.759-7.423 4.45zm-32.074-160.367l32.799 158.713 5.52-3.308-32.496-151.606-5.823-3.799z" fill="#5B61ED"/><path fill-rule="evenodd" clip-rule="evenodd" d="M371.471 499.901l7.562-4.066V361.764l-8.074-4.209.512 142.346z" fill="#fff"/><path fill-rule="evenodd" clip-rule="evenodd" d="M370.951 500.774l-.517-144.083 9.122 4.756v134.701l-8.605 4.626zm.534-142.356l.505 140.61 6.521-3.506v-133.44l-7.026-3.664z" fill="#5B61ED"/><path fill-rule="evenodd" clip-rule="evenodd" d="M478.861 364.968l-7.989-5.107 4.274-2.412 8.238 4.927-13.406 46.044-4.139 2.518 13.022-45.97z" fill="#fff"/><path fill-rule="evenodd" clip-rule="evenodd" d="M469.859 359.833l5.295-2.989 8.846 5.289-13.577 46.627-5.449 3.316 13.279-46.878-8.394-5.365zm5.281-1.78l-3.252 1.835 7.582 4.847-12.765 45.064 2.829-1.722 13.237-45.461-7.631-4.563z" fill="#5B61ED"/><path fill-rule="evenodd" clip-rule="evenodd" d="M362.479 342.8l5.802-3.957 92.106 53.459-1.826 6.746-96.082-56.248z" fill="#fff"/><path fill-rule="evenodd" clip-rule="evenodd" d="M361.502 342.833l6.756-4.608 92.739 53.825-2.11 7.794-97.385-57.011zm6.801-3.373l-4.846 3.306 94.778 55.484 1.544-5.698-91.476-53.092z" fill="#5B61ED"/><path fill-rule="evenodd" clip-rule="evenodd" d="M258.507 423.8l81.421-45.682a11.832 11.832 0 0 1 11.669.05l89.565 51.275-86.656 51.152-95.999-56.795z" fill="#fff"/><path fill-rule="evenodd" clip-rule="evenodd" d="M351.952 377.562l90.607 51.872-88.044 51.97-97.395-57.62 82.476-46.275a12.527 12.527 0 0 1 12.356.053zm-92.039 46.254l94.603 55.968 85.268-50.332-88.523-50.679a11.133 11.133 0 0 0-10.983-.047l-80.365 45.09zm94.593 70.695l-91.369-53.092a2.32 2.32 0 0 0-3.486 2.009 6.982 6.982 0 0 0 3.493 6.049l91.362 52.64v-7.606z" fill="#5B61ED"/><path fill-rule="evenodd" clip-rule="evenodd" d="M349.629 474.191l-86.853-50.697a5.332 5.332 0 0 0-7.296 1.923 5.352 5.352 0 0 0-.726 2.69 16.17 16.17 0 0 0 8.025 13.971l84.525 49.247 2.325-17.134zm94.947-41.154v3.064a7.673 7.673 0 0 1-3.75 6.596l-80.608 47.916-2.574-13.626 80.54-47.603a4.236 4.236 0 0 1 6.392 3.653z" fill="#5B61ED"/><path fill-rule="evenodd" clip-rule="evenodd" d="M360.218 490.04l81.784-47.736 1.411 7.75-81.41 47.386-1.785-7.4z" fill="#fff"/><path fill-rule="evenodd" clip-rule="evenodd" d="M359.638 489.784l82.764-48.308 1.611 8.845-82.333 47.924-2.042-8.461zm82.004-46.653l-80.805 47.164 1.529 6.34 80.487-46.85-1.211-6.654z" fill="#5B61ED"/><path fill-rule="evenodd" clip-rule="evenodd" d="M470.149 369.527l-94.841 54.656-7.392 24.904 95.116-56.153 7.117-23.407z" fill="#fff"/><path fill-rule="evenodd" clip-rule="evenodd" d="M374.714 423.718l96.608-55.676-7.709 25.355-96.876 57.192 7.977-26.871zm94.249-52.707l-93.073 53.638-6.807 22.937 93.356-55.115 6.524-21.46z" fill="#5B61ED"/><path fill-rule="evenodd" clip-rule="evenodd" d="M474.329 371.271l-94.841 54.656-7.392 24.904 95.116-56.153 7.117-23.407z" fill="#fff"/><path fill-rule="evenodd" clip-rule="evenodd" d="M378.893 425.461l96.608-55.675-7.708 25.355-96.876 57.192 7.976-26.872zm94.25-52.706l-93.073 53.637-6.808 22.937 93.357-55.114 6.524-21.46z" fill="#5B61ED"/><path fill-rule="evenodd" clip-rule="evenodd" d="M384.089 419.409l-9.026-5.134-11.769 38.923-96.565-55.923.977 152.975 8.472 4.966.008-143.219 59.707 34.614 34.36 162.387 8.382 4.91-32.858-161.456 24.476 13.898 13.836-46.941z" fill="#5B61ED"/><path fill-rule="evenodd" clip-rule="evenodd" d="M378.979 613.115l6.472-3.879-32.679-153.142-7.122-4.118 33.329 161.139z" fill="#fff"/><path fill-rule="evenodd" clip-rule="evenodd" d="M378.616 613.942l-33.714-163.003 8.332 4.818 32.805 153.736-7.423 4.449zm-32.219-160.93l32.945 159.276 5.519-3.309-32.551-152.548-5.913-3.419z" fill="#5B61ED"/><path fill-rule="evenodd" clip-rule="evenodd" d="M276.697 554.344l7.562-4.066V416.207l-8.073-4.209.511 142.346z" fill="#fff"/><path fill-rule="evenodd" clip-rule="evenodd" d="M276.178 555.217l-.518-144.083 9.122 4.756v134.7l-8.604 4.627zm.534-142.356l.505 140.61 6.52-3.506v-133.44l-7.025-3.664z" fill="#5B61ED"/><path fill-rule="evenodd" clip-rule="evenodd" d="M384.087 419.41l-7.989-5.107 4.274-2.412 8.238 4.927-13.406 46.044-4.139 2.518 13.022-45.97z" fill="#fff"/><path fill-rule="evenodd" clip-rule="evenodd" d="M375.085 414.275l5.296-2.988 8.845 5.289-13.576 46.627-5.45 3.316 13.28-46.878-8.395-5.366zm5.281-1.779l-3.252 1.835 7.583 4.847-12.765 45.063 2.828-1.721 13.237-45.461-7.631-4.563z" fill="#5B61ED"/><path fill-rule="evenodd" clip-rule="evenodd" d="M267.706 397.242l5.801-3.957 92.107 53.459-1.826 6.746-96.082-56.248z" fill="#fff"/><path fill-rule="evenodd" clip-rule="evenodd" d="M266.728 397.275l6.756-4.608 92.739 53.825-2.11 7.794-97.385-57.011zm6.801-3.373l-4.846 3.306 94.779 55.484 1.543-5.698-91.476-53.092zM0 142.152v8.463l56.657 32.441L301.555 41.022v-8.193L0 142.152z" fill="#5B61ED"/><path fill-rule="evenodd" clip-rule="evenodd" d="M1.143 142.146l55.924 31.794L300.424 32.826 245.299.658 1.143 142.146z" fill="#fff"/><path fill-rule="evenodd" clip-rule="evenodd" d="M301.555 32.827L245.3 0 0 142.151l57.07 32.445L301.555 32.827zM245.298 1.316l53.994 31.508-242.228 140.46-54.779-31.143L245.298 1.316z" fill="#5B61ED"/><path fill-rule="evenodd" clip-rule="evenodd" d="M39.206 131.668l43.21 24.808 57.575-34.374h3.807l5.669-4.098-55.13-22.136-55.131 35.8z" fill="#fff" fill-opacity=".82"/><path fill-rule="evenodd" clip-rule="evenodd" d="M142.313 55.373l6.5 61.924-6.395-2.847.595 5.668-40.909-17.716-5.339-54.132-.775-7.388-.255-2.427 1.09-1.302 3.571.18 3.049 1.665 4.012 1.593 34.856 14.782z" fill="#fff"/><path fill-rule="evenodd" clip-rule="evenodd" d="M96.107 37.227a4.526 4.526 0 0 1 3.964-.31l.09.037 42.435 17.848 6.584 62.728-3.904-1.844.291-.618 2.808 1.327-6.415-61.12-42.063-17.692a3.845 3.845 0 0 0-3.363.186l-.081.047a.754.754 0 0 0-.37.679v.011l.008.078.006.031a.75.75 0 0 0 .069.195l.02.038c.07.118.17.215.29.28l.047.023 40.664 18.533 6.63 63.174-41.713-18.454-6.689-63.729-.003-.02a1.725 1.725 0 0 1-.01-.1l-.006-.063h.004v-.039c.004-.47.24-.928.66-1.197l.047-.029zm.108 2.533l6.526 62.179 40.275 17.818-6.467-61.613L96.24 39.773l-.025-.013z" fill="#EFF0FD"/><path fill-rule="evenodd" clip-rule="evenodd" d="M143.305 119.373l4.526-3.299-6.314-60.151-4.658 3.517 6.446 59.933z" fill="#EFF0FD"/><path fill-rule="evenodd" clip-rule="evenodd" d="M134.797 100.136l-5.141 3.094 1.659 16.655 4.284 1.99-53.298 32.069-36.49-20.145c-3.201-2.404-5.083-4.756-5.645-7.053-.562-2.298-.988-6.411-1.278-12.337.345-1.54 1.175-2.598 2.49-3.172 1.315-.575 4.32-2.383 9.013-5.423l46.8-26.486 37.606 20.808z" fill="#fff"/><path fill-rule="evenodd" clip-rule="evenodd" d="M39.207 124.755a10.811 10.811 0 0 0 5.412 8.606l.112.063 37.576 20.915 53.999-32.49-5.435-2.733-.306.61 4.328 2.176-52.599 31.648-37.232-20.722a10.13 10.13 0 0 1-5.164-7.995l-.01-.128-.787-10.893a3.074 3.074 0 0 1 1.48-2.857l.049-.028.016.026.332-.198.045-.019c.264-.105.546-.175.842-.204l.075-.006a3.064 3.064 0 0 1 1.679.361l.08.045 37.578 21.806 54.201-32.613-40.46-22.572-54.349 32.591a3.757 3.757 0 0 0-2.253 3.641l.005.076.786 10.894zm3.28-14.906L95.03 78.342l39.087 21.806-52.846 31.797-37.229-21.604a3.743 3.743 0 0 0-1.468-.483l-.086-.009z" fill="#5B61ED"/><path fill-rule="evenodd" clip-rule="evenodd" d="M82.27 128.827l53.298-32.07-6.118-3.4 4.878-2.935-32.734-21.473-52.4 27.726-6.359 3.826-2.089 1.257-.383 1.655 2.293 2.748 3.163 1.436 3.685 2.25 32.766 18.98z" fill="#fff"/><path fill-rule="evenodd" clip-rule="evenodd" d="M39.988 102.794a4.537 4.537 0 0 0 2.138 3.357l.084.05 39.772 23.195 53.991-32.485-3.82-2.012-.318.605 2.748 1.447-52.606 31.652-39.424-22.992a3.856 3.856 0 0 1-1.876-2.802l-.011-.093a.753.753 0 0 1 .318-.704l.01-.007.067-.04.028-.014a.762.762 0 0 1 .197-.063l.042-.006a.758.758 0 0 1 .399.064l.046.023 39.253 21.367L135.4 90.619 95.578 68.366 40.727 101.37l-.018.01a1.79 1.79 0 0 0-.086.053l-.054.032.002.004-.03.023c-.373.287-.596.75-.558 1.249l.005.054zm2.085-1.438l53.517-32.2 38.45 21.484-53.03 31.908-38.91-21.18-.026-.013z" fill="#EFF0FD"/><path fill-rule="evenodd" clip-rule="evenodd" d="M133.908 91.104l.092 5.604-51.773 31.151.002-5.841 51.679-30.914z" fill="#EFF0FD"/><path fill-rule="evenodd" clip-rule="evenodd" d="M82.204 119.114l53.298-32.069-39.838-22.138-51.787 20.801-3.354 2.018-1.018 2.162.792 3.813 2.293 2.747 3.245 2.533 3.384 1.658 32.985 18.475z" fill="#fff"/><path fill-rule="evenodd" clip-rule="evenodd" d="M82.158 108.786l53.771-32.353-40.83-21.542-52.87 31.811 39.93 22.084z" fill="#fff"/><path fill-rule="evenodd" clip-rule="evenodd" d="M39.087 90.262a10.315 10.315 0 0 0 5.148 8.109l.113.063 37.865 21.075 53.998-32.49-5.434-2.732-.306.61 4.327 2.176L82.2 118.72 44.679 97.838a9.631 9.631 0 0 1-4.902-7.505l-.01-.126a2.517 2.517 0 0 1 1.028-2.244l.015-.01.358-.215.01-.005c.252-.121.528-.203.82-.234l.068-.007a2.51 2.51 0 0 1 1.343.264l.077.041 38.679 21.383 54.458-32.767L95.088 54.5 40.845 87.136l-.007.004a3.202 3.202 0 0 0-1.757 3.048l.005.074zm3.595-3.434L95.11 55.282l40.124 21.17-53.084 31.94L43.816 87.2a3.191 3.191 0 0 0-1.058-.362l-.076-.01z" fill="#5B61ED"/><path fill-rule="evenodd" clip-rule="evenodd" d="M133.291 78.02l.908 8.79-51.846 31.194-.228-9.641 51.166-30.344z" fill="#5B61ED"/><path fill-rule="evenodd" clip-rule="evenodd" d="M133.343 78.401l.856 8.41-51.845 31.194-.229-8.883 51.218-30.72z" fill="#fff" fill-opacity=".5"/><path fill-rule="evenodd" clip-rule="evenodd" d="M41.798 92.646l-.398-1.953a2.473 2.473 0 0 1 1.926-2.917 2.467 2.467 0 0 1 1.68.254l37.496 20.555-.149 9.419-37.6-21.304a6.031 6.031 0 0 1-2.955-4.054zm39.896 24.018l.12-7.678-37.136-20.358a1.79 1.79 0 0 0-2.61 1.928l.398 1.953a5.348 5.348 0 0 0 2.62 3.595l36.608 20.56z" fill="#5B61ED"/><path fill-rule="evenodd" clip-rule="evenodd" d="M62.08 100.591a.229.229 0 0 0-.113-.302l-.605-.278c-4.05-1.873-7.012-3.453-8.882-4.74l-.091-.062a98.916 98.916 0 0 1-5.548-4.145.227.227 0 1 0-.285.354 99.483 99.483 0 0 0 5.573 4.164l.187.129c1.994 1.355 5.147 3.019 9.462 4.992a.227.227 0 0 0 .301-.112zm2.04 26.234a.228.228 0 0 0-.111-.302l-.606-.278c-4.116-1.904-7.108-3.505-8.973-4.802a99.31 99.31 0 0 1-5.548-4.145.227.227 0 1 0-.285.354 99.238 99.238 0 0 0 5.574 4.164l.186.129c1.994 1.355 5.147 3.018 9.463 4.992a.227.227 0 0 0 .3-.112zm9.973-16.347a.227.227 0 0 0-.112-.301l-.605-.279c-4.117-1.903-7.11-3.505-8.973-4.802a98.818 98.818 0 0 1-5.548-4.145.228.228 0 0 0-.285.355 100.224 100.224 0 0 0 5.573 4.164l.187.128c1.994 1.356 5.147 3.019 9.462 4.993.114.052.25.001.301-.113z" fill="#5B61ED"/><path fill-rule="evenodd" clip-rule="evenodd" d="M50.304 93.329l-4.55 2.738a1.519 1.519 0 0 0 .053 2.633l4.18 2.285a4.165 4.165 0 0 0 4.143-.086l4.623-2.782c-2.47-1.938-4.188-3.157-5.156-3.657a41.85 41.85 0 0 0-2.904-1.365l-.389.234zm2.042 26.235l-4.551 2.738a1.52 1.52 0 0 0 .054 2.633l4.18 2.285a4.165 4.165 0 0 0 4.143-.086l4.623-2.782c-2.47-1.938-4.188-3.157-5.156-3.657a41.607 41.607 0 0 0-2.905-1.365l-.388.234zm10.583-16.029l-4.55 2.738a1.52 1.52 0 0 0 .053 2.633l4.18 2.285a4.162 4.162 0 0 0 4.143-.086l4.623-2.782c-2.47-1.938-4.188-3.157-5.156-3.657s-1.936-.955-2.904-1.365l-.389.234z" fill="#EFF0FD"/><path fill-rule="evenodd" clip-rule="evenodd" d="M58.506 101.034a.227.227 0 0 0 .112.301l.606.279c4.116 1.903 7.108 3.505 8.972 4.802a98.809 98.809 0 0 1 5.548 4.145.228.228 0 0 0 .285-.355 99.228 99.228 0 0 0-5.573-4.164l-.187-.128c-1.994-1.356-5.147-3.019-9.462-4.993a.227.227 0 0 0-.301.113zm-12.014-9.888a.228.228 0 0 0 .113.302l.605.279c4.05 1.872 7.012 3.453 8.882 4.739l.09.063a99.1 99.1 0 0 1 5.548 4.144.227.227 0 1 0 .285-.354 99.278 99.278 0 0 0-5.573-4.164l-.186-.128c-1.994-1.356-5.147-3.02-9.462-4.993a.227.227 0 0 0-.301.112zm2.042 26.235a.227.227 0 0 0 .112.301l.606.279c4.116 1.903 7.108 3.505 8.972 4.802a98.809 98.809 0 0 1 5.548 4.145.228.228 0 0 0 .285-.355 99.228 99.228 0 0 0-5.573-4.164l-.187-.128c-1.994-1.356-5.147-3.019-9.462-4.993a.228.228 0 0 0-.301.113zm32.739 14.959l.613 18.779 50.531-30.404-.867-18.627-50.277 30.252z" fill="#5B61ED"/><path fill-rule="evenodd" clip-rule="evenodd" d="M81.274 132.719l.612 18.4 50.531-30.404-.866-18.247-50.277 30.251z" fill="#fff" fill-opacity=".5"/><path fill-rule="evenodd" clip-rule="evenodd" d="M44.724 126.468a6.944 6.944 0 0 0 3.358 5.223l.1.058 33.726 19.26.337-.593-33.726-19.261a6.258 6.258 0 0 1-3.104-4.652l-.013-.109-1.747-16.108-.678.074 1.747 16.108z" fill="#5B61ED"/><path fill-rule="evenodd" clip-rule="evenodd" d="M79.572 144.072a.227.227 0 0 0-.113-.301l-.605-.279c-4.117-1.903-7.109-3.505-8.973-4.802a98.818 98.818 0 0 1-5.548-4.145.228.228 0 0 0-.285.355 99.201 99.201 0 0 0 5.574 4.164l.186.128c1.994 1.356 5.147 3.019 9.462 4.993a.227.227 0 0 0 .302-.113z" fill="#5B61ED"/><path fill-rule="evenodd" clip-rule="evenodd" d="M68.407 137.128l-4.551 2.739a1.518 1.518 0 0 0 .054 2.633l4.179 2.284a4.162 4.162 0 0 0 4.144-.086l4.623-2.781c-2.47-1.939-4.188-3.158-5.156-3.658s-1.936-.955-2.905-1.364l-.388.233z" fill="#EFF0FD"/><path fill-rule="evenodd" clip-rule="evenodd" d="M63.985 134.628a.228.228 0 0 0 .112.302l.605.278c4.117 1.904 7.109 3.506 8.973 4.803a98.892 98.892 0 0 1 5.548 4.145.228.228 0 0 0 .285-.355 99.198 99.198 0 0 0-5.573-4.164l-.187-.128c-1.994-1.356-5.147-3.019-9.462-4.993a.227.227 0 0 0-.301.112z" fill="#5B61ED"/><path d="M80.685 136.458c.06.1.185.137.289.09l.023-.012 43.907-26.418a.229.229 0 0 0 .077-.313.227.227 0 0 0-.288-.09l-.024.013-43.906 26.417a.229.229 0 0 0-.078.313zm2.085-25.634c.06.1.185.137.289.09l.023-.012 43.906-26.418a.227.227 0 0 0-.21-.403l-.024.013-43.906 26.418a.227.227 0 0 0-.078.312zm-2.148 28.659c.06.1.185.137.288.09l.024-.012 15.409-9.271a.229.229 0 0 0 .078-.313.227.227 0 0 0-.289-.09l-.023.012-15.41 9.272a.227.227 0 0 0-.077.312zm2.761-26.04c.06.1.185.137.288.09l.024-.012 15.409-9.272a.227.227 0 0 0-.21-.402l-.024.012-15.41 9.272a.227.227 0 0 0-.077.312zm-3.497 29.47c.06.1.185.138.289.091l.023-.013 15.41-9.271a.229.229 0 0 0 .077-.313.227.227 0 0 0-.288-.09l-.024.013-15.409 9.271a.228.228 0 0 0-.078.312z" fill="#fff"/><path d="M310.443 271.226c9.768 0 17.687-4.624 17.687-10.328s-7.919-10.328-17.687-10.328-17.687 4.624-17.687 10.328 7.919 10.328 17.687 10.328z" fill="#5B61ED"/><path d="M310.443 271.226c9.768 0 17.687-4.624 17.687-10.328s-7.919-10.328-17.687-10.328-17.687 4.624-17.687 10.328 7.919 10.328 17.687 10.328z" fill="#fff" fill-opacity=".82"/><path d="M310.411 220.774c6.452 0 11.683-3.341 11.683-7.461 0-4.121-5.231-7.461-11.683-7.461-6.453 0-11.683 3.34-11.683 7.461 0 4.12 5.23 7.461 11.683 7.461z" fill="#EFF0FD"/><path fill-rule="evenodd" clip-rule="evenodd" d="M310.41 205.852c6.453 0 11.683 3.34 11.683 7.461 0 4.12-5.23 7.46-11.683 7.46-6.452 0-11.683-3.34-11.683-7.46 0-4.121 5.231-7.461 11.683-7.461zm0 1.292c-5.828 0-10.393 2.915-10.393 6.169 0 3.254 4.565 6.169 10.393 6.169 5.829 0 10.394-2.915 10.394-6.169 0-3.254-4.565-6.169-10.394-6.169z" fill="#5B61ED"/><path fill-rule="evenodd" clip-rule="evenodd" d="M298.826 206.465l-1.376-3.244a1.136 1.136 0 0 1 .601-1.491l2.159-.917a1.137 1.137 0 0 1 1.491.604l1.377 3.243" fill="#fff"/><path fill-rule="evenodd" clip-rule="evenodd" d="M299.816 200.279a1.936 1.936 0 0 1 2.501.944l.037.083 1.317 3.103-1.187.504-1.317-3.103a.646.646 0 0 0-.788-.364l-.058.022-1.877.796a.645.645 0 0 0-.363.788l.021.059 1.317 3.102-1.187.504-1.317-3.102a1.937 1.937 0 0 1 .941-2.502l.083-.037 1.877-.797z" fill="#EFF0FD"/><path fill-rule="evenodd" clip-rule="evenodd" d="M310.586 222.37l-7.643-18.022c-.604.626-1.255 1.088-1.954 1.385a5.54 5.54 0 0 1-2.297.421l7.327 17.279c.458-.01 1.129-.106 2.013-.287.883-.181 1.734-.44 2.554-.776z" fill="#fff"/><path fill-rule="evenodd" clip-rule="evenodd" d="M297.709 205.49l7.888 18.6.437-.01c.505-.012 1.209-.112 2.127-.3a14.98 14.98 0 0 0 2.669-.811l.605-.248-8.279-19.523-.677.702c-.545.566-1.125.977-1.742 1.239a4.878 4.878 0 0 1-2.032.37l-.996-.019zm4.997-.049l7.024 16.566-.281.096c-.504.166-1.019.303-1.547.411l-.167.034c-.431.086-.803.148-1.114.188l-.188.023-6.787-16.006.181-.026a5.82 5.82 0 0 0 1.414-.399 6.142 6.142 0 0 0 1.434-.862l.031-.025z" fill="#5B61ED"/><path fill-rule="evenodd" clip-rule="evenodd" d="M317.727 202.891l1.376-3.244a1.135 1.135 0 0 1 1.49-.603l2.158.917c.578.246.848.914.603 1.493l-1.376 3.244" fill="#fff"/><path fill-rule="evenodd" clip-rule="evenodd" d="M322.862 199.307a1.94 1.94 0 0 1 1.059 2.456l-.034.085-1.315 3.103-1.187-.504 1.315-3.104a.647.647 0 0 0-.286-.82l-.056-.027-1.876-.797a.646.646 0 0 0-.819.286l-.027.056-1.315 3.103-1.187-.504 1.315-3.104a1.935 1.935 0 0 1 2.452-1.06l.085.034 1.876.797z" fill="#EFF0FD"/><path fill-rule="evenodd" clip-rule="evenodd" d="M315.922 218.986l6.189-14.6c-.869 0-1.654-.148-2.353-.445a5.528 5.528 0 0 1-1.898-1.362l-7.326 17.28 5.388-.873z" fill="#fff"/><path fill-rule="evenodd" clip-rule="evenodd" d="M317.655 201.41l-7.885 18.601.311.308c.359.356.92.793 1.693 1.324a14.92 14.92 0 0 0 2.437 1.359l.598.263 8.276-19.524h-.975c-.785.001-1.483-.132-2.1-.394-.614-.26-1.172-.661-1.678-1.206l-.677-.731zm3.506 3.565l-7.023 16.567-.265-.137a13.777 13.777 0 0 1-1.37-.828l-.14-.097a16.61 16.61 0 0 1-.909-.671l-.146-.12 6.785-16.007.144.113c.397.303.82.551 1.269.741a6.18 6.18 0 0 0 1.616.434l.039.005z" fill="#5B61ED"/><path fill-rule="evenodd" clip-rule="evenodd" d="M305.222 201.327v-3.525c0-.629.509-1.138 1.137-1.138h2.345c.627 0 1.136.509 1.136 1.138v3.525" fill="#fff"/><path fill-rule="evenodd" clip-rule="evenodd" d="M308.549 196.018c1.038 0 1.886.818 1.933 1.846l.002.091v3.371h-1.29v-3.371a.645.645 0 0 0-.583-.643l-.062-.003h-2.038a.645.645 0 0 0-.642.584l-.003.062v3.371h-1.29v-3.371c0-1.039.818-1.888 1.844-1.935l.091-.002h2.038z" fill="#EFF0FD"/><path fill-rule="evenodd" clip-rule="evenodd" d="M309.84 220.568v-19.58c-.8.34-1.579.511-2.339.511s-1.519-.171-2.279-.511v18.772c.426.17 1.081.344 1.965.523a14.22 14.22 0 0 0 2.653.285z" fill="#fff"/><path fill-rule="evenodd" clip-rule="evenodd" d="M304.576 199.991v20.208l.407.162c.469.186 1.156.369 2.075.555.923.187 1.847.286 2.773.298l.653.009v-21.212l-.897.382c-.723.308-1.417.46-2.087.46-.667 0-1.337-.15-2.015-.455l-.909-.407zm4.618 1.91v17.997l-.297-.021a13.919 13.919 0 0 1-1.584-.227l-.167-.034c-.429-.09-.796-.178-1.099-.263l-.181-.053v-17.389l.177.048a5.897 5.897 0 0 0 3.114-.048l.037-.01z" fill="#5B61ED"/><path fill-rule="evenodd" clip-rule="evenodd" d="M299.137 214.568c-1.345 9.195-5.77 36.579-5.77 42.191 0 6.176 7.625 11.182 17.031 11.182 9.406 0 17.031-5.006 17.031-11.182-.565-3.963-2.337-18.181-5.318-42.654-.612 2.16-1.68 3.597-3.205 4.309-6.327 2.958-9.827 1.655-11.376 1.527-8.089-.67-8.258-6.296-8.393-5.373z" fill="#fff"/><path fill-rule="evenodd" clip-rule="evenodd" d="M298.801 212.39l1.279.162-.038.285c-.156 1.126-.64 4.361-1.173 7.89 2.133 2.713 6.575 4.504 11.549 4.504 4.864 0 9.223-1.712 11.41-4.331l-1.058-7.713 1.278-.176 5.668 41.239.351 2.499.007.091c0 6.604-7.957 11.828-17.676 11.828-9.72 0-17.677-5.224-17.677-11.828l.002-.169c.035-2.715.903-9.592 2.473-20.269l.345-2.329 2.742-18.127c.247-1.652.432-2.915.502-3.434l.016-.122zm-3.909 35.487l-.013.104c-.568 4.404-.868 7.395-.868 8.859 0 5.748 7.294 10.537 16.387 10.537 9.002 0 16.24-4.694 16.384-10.364l.002-.131-1.194-8.593c-3.144 3.515-8.859 5.737-15.173 5.737-6.57 0-12.476-2.405-15.525-6.149zm.502-3.75l-.021.156c-.081.59-.159 1.162-.233 1.716 2.423 3.998 8.44 6.735 15.277 6.735 6.514 0 12.3-2.484 14.929-6.205l-.092-.656-.179-1.31c-3.016 3.555-8.548 5.806-14.664 5.806-6.375 0-12.103-2.446-15.017-6.242zm2.739-18.549l-.022.152c-.551 3.627-1.008 6.615-1.03 6.768l-.556 3.737a901.868 901.868 0 0 0-.861 5.962l-.042-.076c2.237 4.119 8.103 6.957 14.789 6.957 6.325 0 11.934-2.54 14.414-6.332l-2.327-16.965c-2.707 2.547-7.183 4.113-12.078 4.113-5.026 0-9.608-1.651-12.287-4.316zm.485-3.198l-.02.136-.214 1.412c2.238 2.818 6.862 4.675 12.036 4.675 5.034 0 9.549-1.756 11.854-4.453l-.221-1.609c-2.599 2.465-6.914 3.981-11.635 3.981-4.824 0-9.223-1.584-11.8-4.142z" fill="#5B61ED"/><path fill-rule="evenodd" clip-rule="evenodd" d="M310.466 220.773c6.317 0 11.528-3.287 11.632-7.532l.001-.129h-1.29c0 3.441-4.586 6.37-10.343 6.37-5.756 0-10.343-2.929-10.343-6.37 0-.327.041-.651.122-.971l.044-.159-1.237-.368c-.145.49-.219.991-.219 1.498 0 4.308 5.253 7.661 11.633 7.661zM236.05 15.115l.104.02.037.008c3.228.774 10.578 4.84 22.237 12.261a4.17 4.17 0 0 1 2.418 3.787v3.667a4.756 4.756 0 0 1-2.325 4.09l-7.975 4.74a4.109 4.109 0 0 1-2.099.576 4.117 4.117 0 0 1-4.114-4.12v-2.649c-.768-.712-1.411-.819-2.097-.44-.841.465-1.399 1.494-1.625 3.181.442.662.699 1.457.699 2.312v3.667a4.757 4.757 0 0 1-2.326 4.09l-7.975 4.739a4.106 4.106 0 0 1-2.099.577 4.117 4.117 0 0 1-4.114-4.12v-3.464a5.1 5.1 0 0 1 .008-.277.927.927 0 0 1-.33-.131l-1.026-.652c-10.83-6.865-17.785-10.698-20.698-11.44l-.072-.019-.042-.008c-1.928-.349-2.904 1.143-2.924 5.21l-.001.128a.95.95 0 1 1-1.899 0c0-5.179 1.714-7.835 5.15-7.212l.104.02.037.008c3.224.773 10.562 4.83 22.199 12.237a4.75 4.75 0 0 1 1.711-1.888l7.912-4.993a4.162 4.162 0 0 1 4.032-.228c.412-1.605 1.19-2.756 2.361-3.402 1.077-.595 2.171-.6 3.213-.065a4.748 4.748 0 0 1 2.019-2.668l7.912-4.993c.142-.09.288-.17.438-.241-9.897-6.217-16.298-9.703-19.062-10.408l-.073-.018-.041-.008c-1.907-.345-2.884 1.111-2.923 5.082l-.001.255a.951.951 0 1 1-1.9 0c0-5.178 1.715-7.835 5.15-7.211zm1.095 25.165c-.427 0-.845.121-1.207.35l-7.912 4.993a2.854 2.854 0 0 0-1.33 2.414v3.465a2.215 2.215 0 0 0 3.344 1.906l7.975-4.74a2.854 2.854 0 0 0 1.395-2.453v-3.667a2.266 2.266 0 0 0-2.265-2.268zm19.537-11.356a2.26 2.26 0 0 0-1.207.349l-7.912 4.993a2.854 2.854 0 0 0-1.33 2.414v3.465a2.215 2.215 0 0 0 3.343 1.906l7.975-4.739a2.855 2.855 0 0 0 1.396-2.454v-3.667c0-.85-.467-1.59-1.158-1.978a.925.925 0 0 1-.226-.105l-.026-.017a2.26 2.26 0 0 0-.855-.167z" fill="#5B61ED"/></svg>